<svg id="account-nav" xmlns="http://www.w3.org/2000/svg" width="33.221" height="44.295" viewBox="0 0 33.221 44.295">
  <g id="Group_317" data-name="Group 317" transform="translate(0)">
    <path id="Path_625" data-name="Path 625" d="M96.3,16.611H93.53V12.919a12.919,12.919,0,0,0-25.839,0v3.691H64.923a.922.922,0,0,0-.923.923V40.6a3.7,3.7,0,0,0,3.691,3.691H93.53A3.7,3.7,0,0,0,97.221,40.6V17.533A.922.922,0,0,0,96.3,16.611ZM83.374,35.888a.922.922,0,0,1-.917,1.025H78.765a.924.924,0,0,1-.917-1.025l.582-5.235a3.651,3.651,0,0,1-1.51-2.969,3.691,3.691,0,1,1,7.382,0,3.649,3.649,0,0,1-1.51,2.969Zm4.62-19.277H73.228V12.919a7.383,7.383,0,0,1,14.765,0Z" transform="translate(-64)" fill="#333"/>
  </g>
</svg>
