<svg id="add-image" xmlns="http://www.w3.org/2000/svg" width="722.264" height="722.264" viewBox="0 0 722.264 722.264">
  <path id="Path_601" data-name="Path 601" d="M586.839,722.264H135.424A135.417,135.417,0,0,1,0,586.839V135.424A135.417,135.417,0,0,1,135.424,0H586.839A135.417,135.417,0,0,1,722.264,135.424V586.839A135.417,135.417,0,0,1,586.839,722.264Zm0,0" fill="rgba(125,181,247,0.4)"/>
  <path id="Path_602" data-name="Path 602" d="M220.174,211.431a30.087,30.087,0,1,1-30.087-30.087A30.09,30.09,0,0,1,220.174,211.431Zm0,0" transform="translate(65.707 74.473)" fill="#198df3"/>
  <path id="Path_603" data-name="Path 603" d="M270.94,391.333c0-58.659,42.182-107.575,97.8-118.182V173.142A45.186,45.186,0,0,0,323.6,128H173.142A45.186,45.186,0,0,0,128,173.142V383.794a45.186,45.186,0,0,0,45.141,45.141H277.057a119.182,119.182,0,0,1-6.117-37.6Zm-71.619-80.056c-9.93-9.935-27.4-9.935-37.328,0l-3.907,3.9V173.141a15.068,15.068,0,0,1,15.055-15.055H323.621a15.068,15.068,0,0,1,15.055,15.055v96.9L327.23,258.591a26.43,26.43,0,0,0-37.328,0l-71.619,71.641Zm0,0" transform="translate(52.566 52.566)" fill="#198df3"/>
  <path id="Path_604" data-name="Path 604" d="M343.143,245.328a97.81,97.81,0,1,0,97.8,97.821A97.919,97.919,0,0,0,343.143,245.328Zm41.372,112.854h-26.34v26.34a15.044,15.044,0,1,1-30.087,0v-26.34h-26.34a15.044,15.044,0,1,1,0-30.087h26.34v-26.34a15.055,15.055,0,1,1,30.109,0v26.34h26.318a15.044,15.044,0,1,1,0,30.087Zm0,0" transform="translate(100.756 100.749)" fill="rgba(25,141,243,0.54)"/>
</svg>
