<svg id="Group_120" data-name="Group 120" xmlns="http://www.w3.org/2000/svg" width="46.08" height="46.08" viewBox="0 0 46.08 46.08">
  <path id="Path_299" data-name="Path 299" d="M25.825,46.08h-5.57a2.146,2.146,0,0,1-2.143-1.939L17.54,40.72a18.465,18.465,0,0,1-3.111-1.291l-2.866,2.047a2.109,2.109,0,0,1-1.323.458A2.14,2.14,0,0,1,8.716,41.3L4.778,37.363a2.147,2.147,0,0,1-.143-2.888l2.016-2.824A18.414,18.414,0,0,1,5.36,28.54l-3.472-.579A2.129,2.129,0,0,1,0,25.825V20.255a2.147,2.147,0,0,1,1.939-2.144l3.422-.573a18.466,18.466,0,0,1,1.29-3.11L4.6,11.563a2.127,2.127,0,0,1,.174-2.845l3.939-3.94A2.208,2.208,0,0,1,11.6,4.633L14.431,6.65a18.365,18.365,0,0,1,3.11-1.29l.578-3.471A2.132,2.132,0,0,1,20.255,0h5.57A2.148,2.148,0,0,1,27.97,1.937l.572,3.423A18.428,18.428,0,0,1,31.65,6.65L34.517,4.6a2.109,2.109,0,0,1,1.323-.456,2.139,2.139,0,0,1,1.523.63L41.3,8.718a2.146,2.146,0,0,1,.146,2.885L39.43,14.429a18.355,18.355,0,0,1,1.29,3.11l3.472.579a2.132,2.132,0,0,1,1.888,2.137v5.569a2.142,2.142,0,0,1-1.94,2.142l-3.42.572a18.4,18.4,0,0,1-1.29,3.111l2.047,2.865a2.131,2.131,0,0,1-.177,2.848L37.362,41.3a2.207,2.207,0,0,1-2.888.144L31.65,39.428a18.392,18.392,0,0,1-3.109,1.291l-.58,3.473A2.132,2.132,0,0,1,25.825,46.08Zm-11.45-8.309a.755.755,0,0,1,.372.1,16.968,16.968,0,0,0,3.674,1.524.762.762,0,0,1,.544.608l.656,3.941a.653.653,0,0,0,.635.616h5.57a.634.634,0,0,0,.627-.566L27.117,40a.761.761,0,0,1,.544-.607,16.963,16.963,0,0,0,3.672-1.524.759.759,0,0,1,.815.045L35.4,40.237a.624.624,0,0,0,.885-.012l3.939-3.939a.629.629,0,0,0,.044-.846l-2.354-3.292a.762.762,0,0,1-.045-.815,16.777,16.777,0,0,0,1.523-3.672A.761.761,0,0,1,40,27.117l3.942-.657a.651.651,0,0,0,.616-.634V20.257a.635.635,0,0,0-.566-.628L40,18.965a.762.762,0,0,1-.608-.544,16.768,16.768,0,0,0-1.523-3.67.762.762,0,0,1,.045-.816l2.325-3.254a.645.645,0,0,0-.014-.883l-3.939-3.94a.646.646,0,0,0-.844-.043L32.147,8.169a.761.761,0,0,1-.815.045A16.924,16.924,0,0,0,27.661,6.69a.761.761,0,0,1-.544-.608l-.656-3.941a.648.648,0,0,0-.637-.618h-5.57a.627.627,0,0,0-.628.566l-.662,3.991a.76.76,0,0,1-.544.608A16.843,16.843,0,0,0,14.75,8.211a.762.762,0,0,1-.816-.045L10.679,5.842a.625.625,0,0,0-.885.014L5.855,9.794a.626.626,0,0,0-.042.843l2.354,3.295a.762.762,0,0,1,.045.816,16.913,16.913,0,0,0-1.524,3.671.761.761,0,0,1-.608.544l-3.941.657a.646.646,0,0,0-.616.637v5.569a.625.625,0,0,0,.564.627l3.992.664a.76.76,0,0,1,.608.544,16.969,16.969,0,0,0,1.524,3.673.759.759,0,0,1-.045.814L5.843,35.4a.644.644,0,0,0,.011.886l3.939,3.938a.642.642,0,0,0,.844.043l3.294-2.354A.767.767,0,0,1,14.374,37.771Zm8.667-5.616a9.116,9.116,0,1,1,9.116-9.115A9.126,9.126,0,0,1,23.041,32.154Zm0-16.709a7.593,7.593,0,1,0,7.593,7.594A7.6,7.6,0,0,0,23.041,15.446Z" fill="#0337bb"/>
</svg>
