<svg xmlns="http://www.w3.org/2000/svg" width="749.731" height="248" viewBox="0 0 749.731 248">
  <g id="back-nav" transform="translate(0 -132)">
    <g id="Group_386" data-name="Group 386">
      <path id="Path_649" data-name="Path 649" d="M725.224,243.607,68.442,236l70.164-69.824a20,20,0,0,0-28.218-28.352l-104.5,104c-.007.006-.012.013-.018.019a20.018,20.018,0,0,0,0,28.314c.007.006.012.013.018.019l104.5,104A20,20,0,0,0,138.6,345.824L68.442,276l656.782-3.723c11.046,0,24.508-3.289,24.508-14.335S736.27,243.607,725.224,243.607Z"/>
    </g>
  </g>
</svg>
