<svg id="Group_322" data-name="Group 322" xmlns="http://www.w3.org/2000/svg" width="1920" height="1080" viewBox="0 0 1920 1080">
  <rect id="Rectangle_139" data-name="Rectangle 139" width="1920" height="1080" fill="#f5f6fa"/>
  <path id="Subtraction_1" data-name="Subtraction 1" d="M14294.849,20987.223c-17.12,0-34.2-.662-50.759-1.967-19.181-1.508-38.153-3.908-56.391-7.137a531.979,531.979,0,0,1-54.415-12.549,479.94,479.94,0,0,1-51.87-18.18,435.626,435.626,0,0,1-48.753-24.008,404.354,404.354,0,0,1-45.082-30.037,384.4,384.4,0,0,1-76.857-79,404.989,404.989,0,0,1-30-48.148,437.23,437.23,0,0,1-23.285-51.975,484.744,484.744,0,0,1-16.813-55.152,539.857,539.857,0,0,1-10.581-57.676,628.88,628.88,0,0,1-3.435-120.307,738.263,738.263,0,0,1,18.588-122.557,795.056,795.056,0,0,1,38.671-119.559c4.012-9.7,8.26-19.428,12.626-28.9l858.723,0v623.473c-2.725,2.057-5.508,4.117-8.274,6.127a741.764,741.764,0,0,1-100.406,61.141,813.989,813.989,0,0,1-227.073,75.406,735.342,735.342,0,0,1-117.567,10.965C14299.492,20987.209,14297.12,20987.223,14294.849,20987.223Z" transform="translate(-12835.643 -20210.07)" fill="#104ce5"/>
</svg>
