<svg xmlns="http://www.w3.org/2000/svg" width="39" height="87.869" viewBox="0 0 39 87.869">
  <g id="Group_322" data-name="Group 322" transform="translate(-654.008 -284)">
    <path id="Path_563" data-name="Path 563" d="M207.765,340.33a1.287,1.287,0,0,1,0-1.821,4.5,4.5,0,0,0,0-6.362,7.082,7.082,0,0,1-.035-9.969,3.723,3.723,0,1,1,2.725-6.607,5.135,5.135,0,0,0-1.513-3.591,7.689,7.689,0,0,1-2.268-5.474,1.287,1.287,0,0,1,2.574,0,5.134,5.134,0,0,0,1.514,3.654,12.534,12.534,0,0,1-1.177,13.8,4.5,4.5,0,0,0,0,6.363,7.082,7.082,0,0,1,0,10,1.288,1.288,0,0,1-1.82,0Zm.365-23a1.149,1.149,0,1,0,1.148,1.156v0A1.15,1.15,0,0,0,208.13,317.328Zm0,0" transform="translate(465.459 31.162)" fill="#2c81ff"/>
    <path id="Path_567" data-name="Path 567" d="M131.508,0c-10.982,0-19.5,8.639-19.5,21.2,0,12.582,9.054,27.6,19.5,27.6,10.465,0,19.5-15.049,19.5-27.6S142.5,0,131.508,0Zm0,0" transform="translate(542 284)" fill="#2c81ff"/>
    <path id="Path_568" data-name="Path 568" d="M183.36,4.07c4.426,4.1,6.535,10.042,6.535,16.207,0,13.352-10.247,29.624-21.621,27.393,14.579,13.786,29.344-7.211,29.344-23.1,0-10.666-6.06-18.245-14.258-20.5Zm0,0" transform="translate(495.391 280.629)" fill="#2c81ff"/>
    <path id="Path_570" data-name="Path 570" d="M207.056,281.04a1.2,1.2,0,0,1-1.164-1.5l.985-3.844a2.448,2.448,0,0,1,4.743,0l.985,3.844a1.2,1.2,0,0,1-1.164,1.5Zm0,0" transform="translate(464.26 57.143)" fill="#2c81ff"/>
  </g>
</svg>
