<svg xmlns="http://www.w3.org/2000/svg" width="200.455" height="188.302" viewBox="0 0 200.455 188.302">
  <g id="catalogue-nav" transform="translate(3 -13)">
    <g id="Group_437" data-name="Group 437" transform="translate(45.955 38.788)">
      <g id="Group_436" data-name="Group 436">
        <path id="Path_655" data-name="Path 655" d="M217.848,76H195.06a28.459,28.459,0,0,0-22.788,11.412A28.459,28.459,0,0,0,149.485,76H126.7a5.7,5.7,0,0,0-5.7,5.7V150.06a5.7,5.7,0,0,0,5.7,5.7h34.182a5.7,5.7,0,0,1,5.7,5.7,5.7,5.7,0,0,0,11.394,0,5.7,5.7,0,0,1,5.7-5.7h34.182a5.7,5.7,0,0,0,5.7-5.7V81.7A5.7,5.7,0,0,0,217.848,76Zm-51.272,69.339a17.017,17.017,0,0,0-5.7-.976H132.394V87.394h17.091a17.11,17.11,0,0,1,17.091,17.091Zm45.575-.976H183.666a17.017,17.017,0,0,0-5.7.976V104.485A17.11,17.11,0,0,1,195.06,87.394h17.091Z" transform="translate(-121 -76)" fill="#333" stroke="#333" stroke-width="6"/>
      </g>
    </g>
    <g id="Group_439" data-name="Group 439" transform="translate(0 16)">
      <g id="Group_438" data-name="Group 438">
        <path id="Path_656" data-name="Path 656" d="M177.364,16H17.091A17.11,17.11,0,0,0,0,33.091V158.423a17.11,17.11,0,0,0,17.091,17.091H76.616l-5.7,11.394H63.046a5.7,5.7,0,0,0,0,11.394h68.363a5.7,5.7,0,1,0,0-11.394h-7.873l-5.7-11.394h59.525a17.11,17.11,0,0,0,17.091-17.091V33.091A17.11,17.11,0,0,0,177.364,16ZM83.658,186.908l5.7-11.394H105.1l5.7,11.394Zm99.4-28.485a5.7,5.7,0,0,1-5.7,5.7H17.091a5.7,5.7,0,0,1-5.7-5.7v-5.7H183.061Zm0-17.091H11.394V33.091a5.7,5.7,0,0,1,5.7-5.7H177.364a5.7,5.7,0,0,1,5.7,5.7Z" transform="translate(0 -16)" fill="#333" stroke="#333" stroke-width="6"/>
      </g>
    </g>
  </g>
</svg>
