<svg id="chain-mobile" xmlns="http://www.w3.org/2000/svg" width="39.889" height="39.889" viewBox="0 0 39.889 39.889">
  <path id="Path_747" data-name="Path 747" d="M64.171,204.963a1.169,1.169,0,0,1-.675-2.124l6.7-4.316a1.169,1.169,0,0,1,1.349,1.911l-6.7,4.316a1.17,1.17,0,0,1-.673.213Zm0,0" transform="translate(-58.093 -182.86)" fill="#c4b3af"/>
  <path id="Path_748" data-name="Path 748" d="M204.02,160.9a1.169,1.169,0,0,1-.24-2.312l5.943-1.374a1.169,1.169,0,1,1,.481,2.287l-5.943,1.374a1.173,1.173,0,0,1-.242.025Zm0,0" transform="translate(-187.049 -144.947)" fill="#c4b3af"/>
  <path id="Path_749" data-name="Path 749" d="M332.1,59.5a1.169,1.169,0,0,1-.776-2.042l7.023-6.242a1.168,1.168,0,0,1,1.552,1.746L332.874,59.2a1.161,1.161,0,0,1-.776.3Zm0,0" transform="translate(-305.148 -46.949)" fill="#c4b3af"/>
  <path id="Path_750" data-name="Path 750" d="M7.012,361H1.169A1.157,1.157,0,0,0,0,362.169V371.6a1.157,1.157,0,0,0,1.169,1.169H7.012A1.157,1.157,0,0,0,8.18,371.6v-9.427A1.157,1.157,0,0,0,7.012,361Zm0,0" transform="translate(0 -332.875)" fill="#4a696f"/>
  <path id="Path_751" data-name="Path 751" d="M143.012,271h-5.843A1.157,1.157,0,0,0,136,272.169v16.438a1.157,1.157,0,0,0,1.169,1.169h5.843a1.157,1.157,0,0,0,1.169-1.169V272.169A1.157,1.157,0,0,0,143.012,271Zm0,0" transform="translate(-125.405 -249.887)" fill="#375db9"/>
  <path id="Path_752" data-name="Path 752" d="M278.012,241h-5.843A1.157,1.157,0,0,0,271,242.169v18.776a1.157,1.157,0,0,0,1.169,1.169h5.843a1.157,1.157,0,0,0,1.169-1.169V242.169A1.157,1.157,0,0,0,278.012,241Zm0,0" transform="translate(-249.887 -222.224)" fill="#2c81ff"/>
  <path id="Path_753" data-name="Path 753" d="M414.012,121h-5.843A1.157,1.157,0,0,0,407,122.169v28.125a1.157,1.157,0,0,0,1.169,1.169h5.843a1.157,1.157,0,0,0,1.169-1.169V122.169A1.157,1.157,0,0,0,414.012,121Zm0,0" transform="translate(-375.292 -111.573)" fill="#6c63ff"/>
  <g id="Group_374" data-name="Group 374" transform="translate(0.662)">
    <path id="Path_754" data-name="Path 754" d="M12.006,241a3.506,3.506,0,1,0,3.506,3.506A3.5,3.5,0,0,0,12.006,241Zm0,0" transform="translate(-8.5 -222.224)" fill="#dfd7d5"/>
    <path id="Path_755" data-name="Path 755" d="M147.006,151a3.506,3.506,0,1,0,3.506,3.506A3.5,3.5,0,0,0,147.006,151Zm0,0" transform="translate(-132.982 -139.236)" fill="#dfd7d5"/>
    <path id="Path_756" data-name="Path 756" d="M282.006,121a3.506,3.506,0,1,0,3.506,3.506A3.5,3.5,0,0,0,282.006,121Zm0,0" transform="translate(-257.465 -111.573)" fill="#dfd7d5"/>
    <path id="Path_757" data-name="Path 757" d="M417.006,0a3.506,3.506,0,1,0,3.506,3.506A3.5,3.5,0,0,0,417.006,0Zm0,0" transform="translate(-381.947)" fill="#dfd7d5"/>
  </g>
  <path id="Path_758" data-name="Path 758" d="M458.5,7.012V0a3.506,3.506,0,1,1,0,7.012Zm0,0" transform="translate(-422.779)" fill="#d2c5c2"/>
  <path id="Path_759" data-name="Path 759" d="M444.669,32.337a1.169,1.169,0,1,1,1.169-1.169A1.17,1.17,0,0,1,444.669,32.337Zm0,0" transform="translate(-408.948 -27.663)" fill="#4a696f"/>
  <path id="Path_760" data-name="Path 760" d="M459.669,31.169A1.17,1.17,0,0,0,458.5,30v2.337A1.17,1.17,0,0,0,459.669,31.169Zm0,0" transform="translate(-422.779 -27.663)" fill="#3e5959"/>
  <path id="Path_761" data-name="Path 761" d="M463.59,122.169v28.125a1.157,1.157,0,0,1-1.169,1.169H459.5V121h2.922A1.157,1.157,0,0,1,463.59,122.169Zm0,0" transform="translate(-423.701 -111.573)" fill="#2c81ff"/>
  <path id="Path_762" data-name="Path 762" d="M323.5,128.012V121a3.506,3.506,0,1,1,0,7.012Zm0,0" transform="translate(-298.297 -111.573)" fill="#d2c5c2"/>
  <path id="Path_763" data-name="Path 763" d="M309.669,153.337a1.169,1.169,0,1,1,1.169-1.169A1.17,1.17,0,0,1,309.669,153.337Zm0,0" transform="translate(-284.466 -139.236)" fill="#4a696f"/>
  <path id="Path_764" data-name="Path 764" d="M324.669,152.169A1.17,1.17,0,0,0,323.5,151v2.337A1.17,1.17,0,0,0,324.669,152.169Zm0,0" transform="translate(-298.297 -139.236)" fill="#3e5959"/>
  <path id="Path_765" data-name="Path 765" d="M327.59,242.169v18.776a1.157,1.157,0,0,1-1.169,1.169H323.5V241h2.922A1.157,1.157,0,0,1,327.59,242.169Zm0,0" transform="translate(-298.297 -222.224)" fill="#6c63ff"/>
  <path id="Path_766" data-name="Path 766" d="M188.5,158.012V151a3.506,3.506,0,0,1,0,7.012Zm0,0" transform="translate(-173.814 -139.236)" fill="#d2c5c2"/>
  <path id="Path_767" data-name="Path 767" d="M174.669,183.337a1.169,1.169,0,1,1,1.169-1.169A1.17,1.17,0,0,1,174.669,183.337Zm0,0" transform="translate(-159.983 -166.899)" fill="#4a696f"/>
  <path id="Path_768" data-name="Path 768" d="M189.669,182.169A1.17,1.17,0,0,0,188.5,181v2.337A1.17,1.17,0,0,0,189.669,182.169Zm0,0" transform="translate(-173.814 -166.899)" fill="#3e5959"/>
  <path id="Path_769" data-name="Path 769" d="M192.59,272.169v16.438a1.157,1.157,0,0,1-1.169,1.169H188.5V271h2.922A1.157,1.157,0,0,1,192.59,272.169Zm0,0" transform="translate(-173.814 -249.887)" fill="#104ce5"/>
  <path id="Path_770" data-name="Path 770" d="M53.5,248.012V241a3.506,3.506,0,1,1,0,7.012Zm0,0" transform="translate(-49.332 -222.224)" fill="#d2c5c2"/>
  <path id="Path_771" data-name="Path 771" d="M39.669,273.337a1.169,1.169,0,1,1,1.169-1.169A1.17,1.17,0,0,1,39.669,273.337Zm0,0" transform="translate(-35.501 -249.887)" fill="#4a696f"/>
  <path id="Path_772" data-name="Path 772" d="M54.669,272.169A1.17,1.17,0,0,0,53.5,271v2.337A1.17,1.17,0,0,0,54.669,272.169Zm0,0" transform="translate(-49.332 -249.887)" fill="#3e5959"/>
  <path id="Path_773" data-name="Path 773" d="M56.59,362.169V371.6a1.157,1.157,0,0,1-1.169,1.169H52.5V361h2.922A1.157,1.157,0,0,1,56.59,362.169Zm0,0" transform="translate(-48.41 -332.875)" fill="#3e5959"/>
</svg>
