<svg id="customer-service_1_" data-name="customer-service (1)" xmlns="http://www.w3.org/2000/svg" width="18.36" height="15.998" viewBox="0 0 18.36 15.998">
  <path id="Path_560" data-name="Path 560" d="M15.161,37.552H13.826V36.129a3.188,3.188,0,0,0-.864-2.186.274.274,0,0,0-.4.375,2.641,2.641,0,0,1,.715,1.811v1.422H7.7a3.2,3.2,0,0,0-3.2,3.2v.981h-.43a.636.636,0,0,0-.452.187L2.16,43.375V41.911a.643.643,0,0,0-.313-.55,2.665,2.665,0,0,1-1.3-2.279V36.129A2.654,2.654,0,0,1,3.2,33.478h7.427a2.636,2.636,0,0,1,.99.191.274.274,0,1,0,.205-.509,3.182,3.182,0,0,0-1.2-.231H3.2a3.2,3.2,0,0,0-3.2,3.2v2.952a3.216,3.216,0,0,0,1.567,2.751.092.092,0,0,1,.045.079v1.6a.492.492,0,0,0,.3.456.522.522,0,0,0,.538-.107L4,42.307a.091.091,0,0,1,.065-.027H4.5V43.7a3.18,3.18,0,0,0,.252,1.245.274.274,0,0,0,.505-.214A2.634,2.634,0,0,1,5.046,43.7V40.751A2.654,2.654,0,0,1,7.7,38.1h7.464a2.654,2.654,0,0,1,2.651,2.651V43.7a2.634,2.634,0,0,1-1.277,2.267.641.641,0,0,0-.306.545V48.3l-1.762-1.762a.636.636,0,0,0-.452-.187H7.7a2.644,2.644,0,0,1-1.791-.7.274.274,0,0,0-.371.4A3.19,3.19,0,0,0,7.7,46.9h6.318a.092.092,0,0,1,.065.027l1.856,1.856a.5.5,0,0,0,.538.107.492.492,0,0,0,.3-.456V46.515a.09.09,0,0,1,.042-.077A3.178,3.178,0,0,0,18.36,43.7V40.751a3.2,3.2,0,0,0-3.2-3.2Z" transform="translate(0 -32.93)"/>
  <path id="Path_561" data-name="Path 561" d="M173.92,203.92a.961.961,0,0,0-.788-.38.791.791,0,1,0,0,1.561.9.9,0,0,0,.9-.626,1.527,1.527,0,0,0,.861-.939.9.9,0,0,0,.7-.878v-.989a.9.9,0,0,0-.659-.867,2.5,2.5,0,0,0-4.939,0,.9.9,0,0,0-.659.867v.989a.9.9,0,1,0,1.8,0v-.989a.9.9,0,0,0-.589-.845,1.947,1.947,0,0,1,1.917-1.573,1.968,1.968,0,0,1,1.916,1.573.9.9,0,0,0-.588.845v.989a.9.9,0,0,0,.534.822A.979.979,0,0,1,173.92,203.92Zm-.788.633c-.218,0-.37-.122-.37-.232s.152-.232.37-.232.37.122.37.232S173.35,204.553,173.132,204.553Zm-2.543-1.9a.352.352,0,0,1-.7,0v-.989a.352.352,0,1,1,.7,0Zm3.752-.989a.352.352,0,1,1,.7,0v.989a.352.352,0,1,1-.7,0Z" transform="translate(-163.265 -192.758)"/>
  <path id="Path_562" data-name="Path 562" d="M356.319,227.3H358.5a.274.274,0,0,0,0-.548h-2.184a.274.274,0,1,0,0,.548Z" transform="translate(-343.278 -219.799)"/>
  <path id="Path_563" data-name="Path 563" d="M356.319,261.53H358a.274.274,0,0,0,0-.548h-1.684a.274.274,0,1,0,0,.548Z" transform="translate(-343.278 -252.804)"/>
  <ellipse id="Ellipse_94" data-name="Ellipse 94" cx="0.409" cy="0.409" rx="0.409" ry="0.409" transform="translate(2.289 3.178)"/>
  <ellipse id="Ellipse_95" data-name="Ellipse 95" cx="0.409" cy="0.409" rx="0.409" ry="0.409" transform="translate(3.527 3.178)"/>
  <ellipse id="Ellipse_96" data-name="Ellipse 96" cx="0.409" cy="0.409" rx="0.409" ry="0.409" transform="translate(4.758 3.178)"/>
</svg>
