<svg xmlns="http://www.w3.org/2000/svg" width="68.242" height="68" viewBox="0 0 68.242 68">
  <g id="customer-icon" transform="translate(-410.356 -171)">
    <circle id="Ellipse_81" data-name="Ellipse 81" cx="34" cy="34" r="34" transform="translate(410.356 171)" fill="#5871cd"/>
    <path id="Path_541" data-name="Path 541" d="M13990.683-14445.5l29.113,19.38s.813,6.157-3.545,15.823a30.282,30.282,0,0,1-13.483,13.871l-36.35-9.039a150.078,150.078,0,0,0,14.284-19.232A132.727,132.727,0,0,0,13990.683-14445.5Z" transform="translate(-13541.258 14631.112)" fill="#2e4066"/>
    <g id="Group_139" data-name="Group 139" transform="translate(425.031 184.536)">
      <circle id="Ellipse_80" data-name="Ellipse 80" cx="11.194" cy="11.194" r="11.194" transform="translate(8.676)" fill="#fff"/>
      <path id="Path_540" data-name="Path 540" d="M14000.105-14385.764c-16.984-.908-24.852,16.021-20.193,21.361s33.775,5.34,38.824,0S14017.09-14384.857,14000.105-14385.764Z" transform="translate(-13979.912 14405.512)" fill="#fff"/>
    </g>
  </g>
</svg>
