<svg xmlns="http://www.w3.org/2000/svg" width="16.838" height="16.838" viewBox="0 0 16.838 16.838">
  <g id="dashboard_1_" data-name="dashboard (1)" transform="translate(-1 -1)">
    <path id="Path_564" data-name="Path 564" d="M16.208,10.106V4.78A1.9,1.9,0,1,0,14.036,2.9H1V13.764H9.161a4.342,4.342,0,1,0,7.047-3.658Zm-.272-8.563A1.358,1.358,0,1,1,14.579,2.9,1.359,1.359,0,0,1,15.937,1.543ZM1.543,3.444H14.116a1.9,1.9,0,0,0,.3.593L12.756,5.7a.786.786,0,0,0-.7,0l-.547-.547a.807.807,0,0,0,.081-.349.815.815,0,0,0-1.629,0,.8.8,0,0,0,.082.349L8.682,6.513a.807.807,0,0,0-.349-.081.815.815,0,1,0,.815.815A.8.8,0,0,0,9.066,6.9l1.362-1.362a.788.788,0,0,0,.7,0l.547.547a.807.807,0,0,0-.081.349.815.815,0,1,0,1.629,0,.8.8,0,0,0-.082-.349L14.8,4.422a1.889,1.889,0,0,0,.865.359V9.736a4.319,4.319,0,0,0-5.432.893V9.419H8.6v3.259h.622a4.356,4.356,0,0,0-.065.543H1.543ZM12.406,6.16a.272.272,0,1,1-.272.272A.272.272,0,0,1,12.406,6.16ZM10.505,4.8a.272.272,0,1,1,.272.272A.272.272,0,0,1,10.505,4.8ZM8.6,7.246a.272.272,0,1,1-.272-.272A.272.272,0,0,1,8.6,7.246Zm4.888,8.419a2.173,2.173,0,1,1,2.173-2.173A2.175,2.175,0,0,1,13.493,15.665Zm-3.8-4.272a4.312,4.312,0,0,0-.323.741h-.22V9.962h.543ZM13.221,9.7v1.086a2.71,2.71,0,0,0-2.2,3.817l-.942.544A3.789,3.789,0,0,1,13.221,9.7Zm.272,7.59a3.8,3.8,0,0,1-3.147-1.672l.946-.546a2.707,2.707,0,0,0,4.4,0l.946.546A3.8,3.8,0,0,1,13.493,17.295Zm3.416-2.144-.942-.544a2.71,2.71,0,0,0-2.2-3.817V9.7a3.789,3.789,0,0,1,3.144,5.447Z" transform="translate(0 0)"/>
    <path id="Path_565" data-name="Path 565" d="M42.629,41a1.629,1.629,0,1,0,1.629,1.629A1.631,1.631,0,0,0,42.629,41Zm0,2.716a1.086,1.086,0,1,1,1.086-1.086A1.087,1.087,0,0,1,42.629,43.716Z" transform="translate(-29.137 -29.137)"/>
    <path id="Path_566" data-name="Path 566" d="M5,12h.543v.543H5Z" transform="translate(-2.914 -8.013)"/>
    <path id="Path_567" data-name="Path 567" d="M9,12h3.8v.543H9Z" transform="translate(-5.827 -8.013)"/>
    <path id="Path_568" data-name="Path 568" d="M5,16h.543v.543H5Z" transform="translate(-2.914 -10.926)"/>
    <path id="Path_569" data-name="Path 569" d="M9,16h3.8v.543H9Z" transform="translate(-5.827 -10.926)"/>
    <path id="Path_570" data-name="Path 570" d="M5,20h.543v.543H5Z" transform="translate(-2.914 -13.84)"/>
    <path id="Path_571" data-name="Path 571" d="M9,20h3.8v.543H9Z" transform="translate(-5.827 -13.84)"/>
    <path id="Path_572" data-name="Path 572" d="M5,24h.543v.543H5Z" transform="translate(-2.914 -16.754)"/>
    <path id="Path_573" data-name="Path 573" d="M9,24h3.8v.543H9Z" transform="translate(-5.827 -16.754)"/>
    <path id="Path_574" data-name="Path 574" d="M5,36.716H6.629V34H5Zm.543-2.173h.543v1.629H5.543Z" transform="translate(-2.914 -24.038)"/>
    <path id="Path_575" data-name="Path 575" d="M13,38.173h1.629V36H13Zm.543-1.629h.543v1.086h-.543Z" transform="translate(-8.741 -25.495)"/>
    <path id="Path_576" data-name="Path 576" d="M21,32.345h1.629V28H21Zm.543-3.8h.543V31.8h-.543Z" transform="translate(-14.568 -19.667)"/>
  </g>
</svg>
