<svg id="dashboard" xmlns="http://www.w3.org/2000/svg" width="11.655" height="11.655" viewBox="0 0 11.655 11.655">
  <path id="Path_577" data-name="Path 577" d="M4.492,3.885H.85A.851.851,0,0,1,0,3.035V.85A.851.851,0,0,1,.85,0H4.492a.851.851,0,0,1,.85.85V3.035A.851.851,0,0,1,4.492,3.885ZM.85.729A.121.121,0,0,0,.728.85V3.035a.121.121,0,0,0,.121.121H4.492a.122.122,0,0,0,.121-.121V.85A.121.121,0,0,0,4.492.729Zm0,0" transform="translate(0 0)"/>
  <path id="Path_578" data-name="Path 578" d="M4.492,220.131H.85a.851.851,0,0,1-.85-.85v-5.1a.851.851,0,0,1,.85-.85H4.492a.851.851,0,0,1,.85.85v5.1A.851.851,0,0,1,4.492,220.131ZM.85,214.061a.121.121,0,0,0-.121.121v5.1a.121.121,0,0,0,.121.121H4.492a.121.121,0,0,0,.121-.121v-5.1a.121.121,0,0,0-.121-.121Zm0,0" transform="translate(0 -208.476)"/>
  <path id="Path_579" data-name="Path 579" d="M281.824,345.217h-3.642a.851.851,0,0,1-.85-.85v-2.185a.851.851,0,0,1,.85-.85h3.642a.851.851,0,0,1,.85.85v2.185A.851.851,0,0,1,281.824,345.217Zm-3.642-3.156a.122.122,0,0,0-.121.121v2.185a.121.121,0,0,0,.121.121h3.642a.121.121,0,0,0,.121-.121v-2.185a.121.121,0,0,0-.121-.121Zm0,0" transform="translate(-271.019 -333.562)"/>
  <path id="Path_580" data-name="Path 580" d="M281.824,6.8h-3.642a.851.851,0,0,1-.85-.85V.85a.851.851,0,0,1,.85-.85h3.642a.851.851,0,0,1,.85.85v5.1A.851.851,0,0,1,281.824,6.8ZM278.182.729a.121.121,0,0,0-.121.121v5.1a.122.122,0,0,0,.121.121h3.642a.121.121,0,0,0,.121-.121V.85a.121.121,0,0,0-.121-.121Zm0,0" transform="translate(-271.019 0)"/>
</svg>
