<svg id="dashboard_1_" data-name="dashboard (1)" xmlns="http://www.w3.org/2000/svg" width="18.805" height="18.805" viewBox="0 0 18.805 18.805">
  <path id="Path_564" data-name="Path 564" d="M17.985,11.17V5.222a2.122,2.122,0,1,0-2.426-2.1H1V15.255h9.115a4.85,4.85,0,1,0,7.871-4.086Zm-.3-9.563a1.517,1.517,0,1,1-1.517,1.517A1.518,1.518,0,0,1,17.682,1.607ZM1.607,3.73H15.648a2.122,2.122,0,0,0,.336.663L14.129,6.248a.878.878,0,0,0-.78,0l-.611-.611a.9.9,0,0,0,.091-.39.91.91,0,1,0-1.82,0,.9.9,0,0,0,.091.39L9.579,7.157a.9.9,0,0,0-.39-.091.91.91,0,1,0,.91.91.9.9,0,0,0-.091-.39l1.521-1.521a.88.88,0,0,0,.78,0l.611.611a.9.9,0,0,0-.091.39.91.91,0,0,0,1.82,0,.9.9,0,0,0-.091-.39l1.855-1.855a2.11,2.11,0,0,0,.966.4v5.534a4.823,4.823,0,0,0-6.066,1V10.4H9.493v3.64h.7a4.865,4.865,0,0,0-.073.607H1.607ZM13.739,6.763a.3.3,0,1,1-.3.3A.3.3,0,0,1,13.739,6.763ZM11.616,5.246a.3.3,0,1,1,.3.3A.3.3,0,0,1,11.616,5.246ZM9.493,7.976a.3.3,0,1,1-.3-.3A.3.3,0,0,1,9.493,7.976Zm5.46,9.4a2.426,2.426,0,1,1,2.426-2.426A2.429,2.429,0,0,1,14.952,17.379Zm-4.246-4.771a4.816,4.816,0,0,0-.361.828H10.1V11.009h.607Zm3.943-1.887v1.213a3.027,3.027,0,0,0-2.46,4.262l-1.052.608a4.232,4.232,0,0,1,3.512-6.083Zm.3,8.477a4.244,4.244,0,0,1-3.515-1.867l1.056-.61a3.023,3.023,0,0,0,4.917,0l1.056.61A4.244,4.244,0,0,1,14.952,19.2ZM18.767,16.8,17.715,16.2a3.027,3.027,0,0,0-2.46-4.262V10.721A4.232,4.232,0,0,1,18.767,16.8Z" transform="translate(-1 -1)"/>
  <path id="Path_565" data-name="Path 565" d="M42.82,41a1.82,1.82,0,1,0,1.82,1.82A1.822,1.822,0,0,0,42.82,41Zm0,3.033a1.213,1.213,0,1,1,1.213-1.213A1.214,1.214,0,0,1,42.82,44.033Z" transform="translate(-28.868 -28.868)"/>
  <path id="Path_566" data-name="Path 566" d="M5,12h.607v.607H5Z" transform="translate(-3.787 -8.664)"/>
  <path id="Path_567" data-name="Path 567" d="M9,12h4.246v.607H9Z" transform="translate(-6.574 -8.664)"/>
  <path id="Path_568" data-name="Path 568" d="M5,16h.607v.607H5Z" transform="translate(-3.787 -11.45)"/>
  <path id="Path_569" data-name="Path 569" d="M9,16h4.246v.607H9Z" transform="translate(-6.574 -11.45)"/>
  <path id="Path_570" data-name="Path 570" d="M5,20h.607v.607H5Z" transform="translate(-3.787 -14.237)"/>
  <path id="Path_571" data-name="Path 571" d="M9,20h4.246v.607H9Z" transform="translate(-6.574 -14.237)"/>
  <path id="Path_572" data-name="Path 572" d="M5,24h.607v.607H5Z" transform="translate(-3.787 -17.024)"/>
  <path id="Path_573" data-name="Path 573" d="M9,24h4.246v.607H9Z" transform="translate(-6.574 -17.024)"/>
  <path id="Path_574" data-name="Path 574" d="M5,37.033H6.82V34H5Zm.607-2.426h.607v1.82H5.607Z" transform="translate(-3.787 -23.991)"/>
  <path id="Path_575" data-name="Path 575" d="M13,38.426h1.82V36H13Zm.607-1.82h.607V37.82h-.607Z" transform="translate(-9.36 -25.384)"/>
  <path id="Path_576" data-name="Path 576" d="M21,32.853h1.82V28H21Zm.607-4.246h.607v3.64h-.607Z" transform="translate(-14.934 -19.811)"/>
</svg>
