<svg xmlns="http://www.w3.org/2000/svg" width="212" height="212" viewBox="0 0 212 212">
  <g id="Group_400" data-name="Group 400" transform="translate(-429 -2358)">
    <circle id="Ellipse_254" data-name="Ellipse 254" cx="106" cy="106" r="106" transform="translate(429 2358)" fill="#ecf2f4"/>
    <g id="undraw_drag_5i9w" transform="translate(444 2403)">
      <path id="Path_602" data-name="Path 602" d="M396.843,230.438c-.475,0-.955-.008-1.427-.022l.011-.342c.677.021,1.367.027,2.047.018l0,.343Q397.162,230.438,396.843,230.438Zm2.7-.079-.02-.342c.678-.04,1.364-.1,2.04-.167l.036.341c-.681.071-1.373.128-2.056.168Zm-6.184-.053c-.683-.052-1.374-.121-2.053-.2l.042-.34c.674.082,1.359.151,2.037.2Zm10.286-.377-.051-.339c.673-.1,1.352-.221,2.016-.353l.067.336c-.669.133-1.353.253-2.032.355Zm-14.38-.125c-.675-.114-1.357-.246-2.026-.391l.073-.335c.664.144,1.34.275,2.01.388Zm18.425-.679-.082-.333c.661-.163,1.326-.344,1.976-.537l.1.329c-.655.194-1.325.376-1.991.541Zm-22.456-.2c-.662-.176-1.329-.37-1.981-.576l.1-.327c.647.2,1.309.4,1.966.572Zm26.41-.977-.112-.324c.641-.223,1.287-.464,1.918-.717l.127.318C412.939,227.484,412.289,227.727,411.642,227.952Zm-30.348-.268c-.643-.236-1.29-.492-1.923-.758l.133-.316c.628.265,1.27.518,1.909.753Zm34.174-1.262-.142-.312c.616-.28,1.235-.579,1.84-.888l.156.305c-.61.312-1.234.613-1.854.895Zm-37.983-.342c-.618-.295-1.239-.608-1.844-.932l.161-.3c.6.321,1.217.632,1.83.925Zm41.649-1.532-.17-.3c.591-.337,1.18-.691,1.752-1.053l.183.289C420.323,223.85,419.729,224.208,419.134,224.547Zm-45.293-.414c-.588-.35-1.177-.719-1.75-1.1l.189-.286c.569.375,1.153.741,1.737,1.088Zm48.774-1.788-.2-.281c.556-.389,1.111-.8,1.65-1.21l.209.272c-.543.417-1.1.827-1.663,1.219Zm-52.222-.482c-.553-.4-1.105-.822-1.642-1.251l.214-.268c.533.425,1.081.843,1.63,1.241Zm55.491-2.029-.221-.262c.518-.438,1.034-.893,1.534-1.355l.233.252c-.5.465-1.023.925-1.546,1.366Zm-58.716-.546c-.515-.451-1.027-.92-1.521-1.394l.237-.247c.49.471,1,.936,1.509,1.384Zm61.743-2.255-.244-.241c.478-.484.951-.986,1.405-1.49l.255.229c-.458.508-.934,1.013-1.416,1.5Zm-64.72-.6c-.473-.5-.939-1.011-1.387-1.526l.259-.225c.444.512.908,1.022,1.377,1.515Zm67.481-2.464-.265-.217c.432-.525.857-1.068,1.264-1.612l.274.205c-.41.548-.839,1.095-1.274,1.624Zm-70.184-.651c-.424-.536-.842-1.09-1.242-1.645l.278-.2c.4.551.811,1.1,1.233,1.633Zm72.656-2.655-.283-.192c.382-.563.756-1.142,1.112-1.721l.292.179c-.359.584-.736,1.168-1.121,1.734Zm-75.064-.69c-.373-.572-.739-1.161-1.086-1.751l.3-.174c.345.585.707,1.17,1.078,1.737Zm77.225-2.829-.3-.166c.329-.6.648-1.207.95-1.817l.307.152c-.3.615-.626,1.231-.957,1.831Zm-79.316-.72c-.32-.6-.629-1.224-.921-1.842l.31-.146c.289.613.6,1.228.914,1.828Zm81.145-2.984-.314-.138c.273-.624.535-1.262.779-1.9l.32.123c-.246.641-.51,1.284-.785,1.913Zm-82.9-.739c-.263-.63-.514-1.275-.748-1.917l.322-.117c.232.637.481,1.277.742,1.9Zm84.383-3.121-.325-.108c.214-.644.416-1.3.6-1.957l.33.093C440.036,198.265,439.833,198.929,439.618,199.578Zm-85.791-.751c-.2-.653-.4-1.32-.569-1.983l.331-.087c.173.658.363,1.32.565,1.968Zm86.908-3.22-.334-.078c.153-.66.294-1.335.417-2l.337.062c-.124.675-.266,1.354-.42,2.02Zm-87.954-.77c-.143-.669-.272-1.351-.384-2.027l.338-.056c.111.671.24,1.347.381,2.011Zm88.7-3.286-.34-.047c.092-.671.17-1.355.231-2.034l.341.031c-.062.684-.14,1.373-.233,2.05Zm-89.376-.782c-.081-.678-.147-1.369-.2-2.053l.342-.025c.05.679.116,1.365.2,2.038Zm89.749-3.325-.342-.015c.03-.679.046-1.368.046-2.047h.343c0,.684-.016,1.378-.046,2.062Zm-90.05-.788c-.012-.42-.018-.849-.018-1.274q0-.4.007-.79l.343.006q-.007.391-.007.784c0,.422.006.847.018,1.264Zm89.751-1.752c-.007-.679-.03-1.368-.067-2.047l.342-.019c.038.684.061,1.378.068,2.062Zm-89.338-2.351-.342-.021c.043-.685.1-1.376.175-2.055l.341.037C352.318,181.187,352.26,181.873,352.217,182.553Zm89.11-1.736c-.068-.675-.154-1.359-.253-2.031l.339-.05c.1.678.186,1.366.255,2.047Zm-88.669-2.333-.339-.052c.1-.678.227-1.361.363-2.031l.336.068C352.883,177.133,352.762,177.811,352.658,178.483Zm88.071-1.716c-.131-.668-.278-1.341-.438-2l.333-.081c.161.664.31,1.342.442,2.015Zm-87.259-2.3-.332-.083c.166-.664.351-1.333.548-1.989l.328.1C353.818,173.149,353.635,173.813,353.469,174.471Zm86.291-1.681c-.191-.652-.4-1.309-.621-1.951l.324-.111c.223.647.433,1.308.626,1.966Zm-85.111-2.244-.323-.114c.228-.648.474-1.3.731-1.934l.318.128C355.119,169.257,354.875,169.9,354.649,170.546Zm83.781-1.627c-.25-.631-.518-1.263-.8-1.881l.313-.141c.28.622.55,1.26.8,1.9Zm-82.243-2.176-.311-.143c.286-.623.591-1.248.905-1.857l.3.157C356.773,165.5,356.471,166.125,356.187,166.743Zm80.566-1.548c-.307-.6-.632-1.211-.966-1.8l.3-.169c.337.595.664,1.206.973,1.815Zm-78.685-2.1-.3-.171c.342-.594.7-1.188,1.071-1.766l.289.184C358.764,161.921,358.407,162.511,358.067,163.1Zm76.672-1.462c-.362-.576-.741-1.151-1.127-1.707l.281-.2c.389.56.771,1.139,1.135,1.72Zm-74.467-1.991-.28-.2c.395-.56.808-1.119,1.228-1.66l.271.21C361.075,158.536,360.665,159.091,360.273,159.646Zm72.136-1.369c-.413-.541-.843-1.078-1.278-1.6l.263-.22c.439.523.872,1.065,1.288,1.61Zm-69.626-1.867-.261-.222c.443-.521.905-1.039,1.373-1.54l.25.234C363.682,155.379,363.223,155.893,362.783,156.41Zm67-1.269c-.46-.5-.938-1-1.419-1.476l.242-.243c.485.482.966.982,1.43,1.487Zm-64.2-1.724-.24-.245c.49-.479,1-.953,1.507-1.408l.228.256c-.506.452-1.009.922-1.5,1.4Zm61.3-1.161c-.5-.457-1.025-.909-1.548-1.341l.218-.264c.527.436,1.051.89,1.56,1.351Zm-58.248-1.564-.216-.266c.53-.432,1.078-.857,1.628-1.265l.2.275c-.546.4-1.09.827-1.616,1.256Zm55.093-1.046c-.544-.41-1.1-.812-1.664-1.2l.193-.283c.564.386,1.129.791,1.677,1.2Zm-51.807-1.389-.191-.284c.567-.382,1.151-.755,1.736-1.111l.178.293c-.58.353-1.16.724-1.723,1.1Zm48.425-.924c-.579-.358-1.174-.708-1.767-1.038l.167-.3c.6.333,1.2.685,1.781,1.046Zm-44.932-1.2-.164-.3c.6-.328,1.215-.647,1.829-.947l.151.308C376.614,145.488,376,145.8,375.408,146.13Zm41.351-.794c-.61-.3-1.234-.6-1.856-.872l.139-.313c.627.277,1.256.573,1.871.879Zm-37.681-1-.136-.314c.627-.272,1.268-.532,1.906-.775l.122.32c-.633.24-1.27.5-1.892.769Zm33.93-.657c-.634-.246-1.284-.481-1.93-.7l.109-.325c.651.219,1.305.455,1.945.7Zm-30.108-.794-.107-.326c.651-.213,1.316-.415,1.975-.6l.092.33c-.654.181-1.313.381-1.96.593Zm26.223-.509c-.653-.186-1.32-.36-1.981-.516l.079-.333c.666.157,1.338.332,2,.519Zm-22.279-.585-.076-.334c.668-.152,1.348-.291,2.021-.413l.061.337C388.181,141.5,387.507,141.638,386.844,141.79Zm18.295-.354c-.667-.125-1.347-.237-2.02-.331l.048-.339c.678.1,1.363.208,2.036.334Zm-14.267-.373-.045-.34c.678-.091,1.368-.167,2.05-.226l.03.341c-.677.059-1.361.134-2.034.224Zm10.213-.2c-.675-.064-1.362-.113-2.042-.145l.017-.342c.685.033,1.377.083,2.057.147Zm-6.136-.159-.014-.342c.63-.026,1.271-.04,1.908-.04H397v.343h-.154c-.631,0-1.268.013-1.893.039Z" transform="translate(-302.649 -140.325)" fill="#3f3d56"/>
      <path id="Path_603" data-name="Path 603" d="M861.023,601.708a2.056,2.056,0,1,1,2.056-2.056A2.056,2.056,0,0,1,861.023,601.708Zm0-3.769a1.713,1.713,0,1,0,1.713,1.713A1.713,1.713,0,0,0,861.023,597.939Z" transform="translate(-722.94 -519.257)" fill="#2f2e41"/>
      <path id="Path_604" data-name="Path 604" d="M309.811,202.89v11.252a.393.393,0,0,1-.392.392h-.279v58.617a6.116,6.116,0,0,1-6.116,6.116H266.4a6.115,6.115,0,0,1-6.114-6.115V216.59h-.2a.277.277,0,0,1-.278-.276v-6.4a.277.277,0,0,1,.278-.278h.2v-2.412h-.2a.291.291,0,0,1-.289-.291v-6.316a.29.29,0,0,1,.289-.29h.2v-3.293h-.207a.257.257,0,0,1-.257-.257v-3.447a.258.258,0,0,1,.257-.259h.207v-6.98a6.115,6.115,0,0,1,6.114-6.114h36.626a6.116,6.116,0,0,1,6.116,6.114V202.5h.279A.393.393,0,0,1,309.811,202.89Z" transform="translate(-226.412 -173.181)" fill="#3f3d56"/>
      <rect id="Rectangle_154" data-name="Rectangle 154" width="6.822" height="1.385" rx="0.693" transform="translate(53.675 9.929)" fill="#e6e8ec"/>
      <circle id="Ellipse_221" data-name="Ellipse 221" cx="0.786" cy="0.786" r="0.786" transform="translate(61.529 9.836)" fill="#e6e8ec"/>
      <path id="Path_605" data-name="Path 605" d="M323.625,203.954v86.36a3.88,3.88,0,0,1-3.88,3.879h-35.06a3.874,3.874,0,0,1-3.88-3.879v-86.36a3.88,3.88,0,0,1,3.88-3.88h5.247v.673a3.2,3.2,0,0,0,3.2,3.2h17.831a3.2,3.2,0,0,0,3.2-3.2v-.673h5.592A3.879,3.879,0,0,1,323.625,203.954Z" transform="translate(-243.827 -189.838)" fill="#104ce5"/>
      <rect id="Rectangle_155" data-name="Rectangle 155" width="39.746" height="19.359" transform="translate(38.689 38.547)" fill="#2c81ff" opacity="0.66"/>
      <rect id="Rectangle_156" data-name="Rectangle 156" width="39.746" height="19.359" transform="translate(101.049 16.447)" fill="#f2f2f2"/>
      <rect id="Rectangle_157" data-name="Rectangle 157" width="39.746" height="19.359" transform="translate(38.689 67.89)" fill="#3f3d56"/>
      <circle id="Ellipse_222" data-name="Ellipse 222" cx="3.426" cy="3.426" r="3.426" transform="translate(70.897 17.351)" fill="#fff"/>
      <path id="Path_606" data-name="Path 606" d="M427.912,113.711H426.48v-1.432h-.22v1.432h-1.432v.22h1.432v1.432h.22v-1.432h1.432Z" transform="translate(-352.047 -93.043)" fill="#3f3d56"/>
      <rect id="Rectangle_158" data-name="Rectangle 158" width="39.746" height="19.359" transform="translate(96.594 13.877)" fill="#3f3d56"/>
      <path id="Path_607" data-name="Path 607" d="M730.841,259.95a12.362,12.362,0,0,0,4.6,6.228,10.643,10.643,0,0,0-3.768-13.928A12.363,12.363,0,0,0,730.841,259.95Z" transform="translate(-616.504 -233.075)" fill="#fcab29"/>
      <path id="Path_608" data-name="Path 608" d="M706.772,277.8a12.362,12.362,0,0,1,3.2,7.052,10.643,10.643,0,0,1-10.339-10.064A12.363,12.363,0,0,1,706.772,277.8Z" transform="translate(-590.906 -251.748)" fill="#2ed573"/>
      <path id="Path_609" data-name="Path 609" d="M382.683,576.95a12.362,12.362,0,0,0,4.6,6.228,10.644,10.644,0,0,0-3.768-13.928A12.362,12.362,0,0,0,382.683,576.95Z" transform="translate(-327.992 -495.767)" fill="#fcab29"/>
      <path id="Path_610" data-name="Path 610" d="M358.614,594.8a12.362,12.362,0,0,1,3.2,7.052,10.643,10.643,0,0,1-10.339-10.064A12.362,12.362,0,0,1,358.614,594.8Z" transform="translate(-302.394 -514.44)" fill="#2ed573"/>
      <path id="Path_611" data-name="Path 611" d="M411.615,576.95a12.362,12.362,0,0,1-4.6,6.228,10.643,10.643,0,0,1,3.768-13.928A12.361,12.361,0,0,1,411.615,576.95Z" transform="translate(-347.459 -495.767)" fill="#fcab29"/>
      <path id="Path_612" data-name="Path 612" d="M415.031,594.8a12.362,12.362,0,0,0-3.2,7.052,10.643,10.643,0,0,0,10.339-10.064A12.362,12.362,0,0,0,415.031,594.8Z" transform="translate(-352.404 -514.44)" fill="#2ed573"/>
      <path id="Path_613" data-name="Path 613" d="M664.435,460.527h-3.382v-3.382h3.382Zm-3.122-.26h2.862v-2.862h-2.862Z" transform="translate(-558.932 -402.868)" fill="#3f3d56"/>
      <path id="Path_614" data-name="Path 614" d="M151.28,575.845l-2.307-2.473,2.473-2.307,2.307,2.473Zm-1.939-2.46,1.952,2.093,2.093-1.952-1.952-2.093Z" transform="translate(-134.581 -497.271)" fill="#2f2e41"/>
      <circle id="Ellipse_223" data-name="Ellipse 223" cx="1.727" cy="1.727" r="1.727" transform="translate(16.799 21.908)" fill="#3f3d56"/>
      <path id="Path_615" data-name="Path 615" d="M148.976,259.141a4.988,4.988,0,1,1,4.988-4.988A4.988,4.988,0,0,1,148.976,259.141Zm0-9.593a4.6,4.6,0,1,0,4.6,4.6,4.6,4.6,0,0,0-4.6-4.6Z" transform="translate(-130.45 -230.519)" fill="#2f2e41"/>
      <rect id="Rectangle_159" data-name="Rectangle 159" width="178.142" height="0.343" transform="translate(0 105.757)" fill="#3f3d56"/>
      <rect id="Rectangle_160" data-name="Rectangle 160" width="39.746" height="19.359" transform="translate(47.255 35.463)" fill="#3f3d56"/>
      <rect id="Rectangle_161" data-name="Rectangle 161" width="0.343" height="12.748" transform="translate(66.981 42.101)" fill="#fff"/>
      <circle id="Ellipse_224" data-name="Ellipse 224" cx="1.803" cy="1.803" r="1.803" transform="translate(65.35 40.469)" fill="#2ed573"/>
      <path id="Path_616" data-name="Path 616" d="M430.159,408s-.258-5.539-5.537-4.9" transform="translate(-363.006 -358.042)" fill="#fff"/>
      <path id="Path_617" data-name="Path 617" d="M525.5,438.751l-22.047,6.9-27.426-17.306h0l-.09-.055-.015-.01-.218-.137-2.611-1.643c0-.044.011-.087.02-.129a1.183,1.183,0,0,1,.268-.548,1.317,1.317,0,0,1,.155-.155h0c.025-.021.05-.042.078-.062s.055-.041.085-.059a4.255,4.255,0,0,1,2.059-.526,9.8,9.8,0,0,1,4.943,1.072c3.083,1.559,9.709,4.627,10.743,2.748,1.355-2.463-14.041-29.93-14.041-29.93-1.267-3.258-.34-4.322.241-4.657l.051-.028a1.439,1.439,0,0,1,.191-.081.892.892,0,0,1,.1-.031l.028-.006,2.042,2.715.031.041.11.147.033.044L492.61,413.5c18.968-10.223,25.5,17.12,25.5,17.12Z" transform="translate(-403.169 -350.625)" fill="#e59f6a"/>
      <path id="Path_618" data-name="Path 618" d="M502.377,397.078a.535.535,0,0,1-.5.3.785.785,0,0,1-.2-.027,2.729,2.729,0,0,1-1.386-1.312,2.825,2.825,0,0,1-.456-1.791,1.428,1.428,0,0,1,.191-.081.879.879,0,0,1,.1-.031,2.222,2.222,0,0,0,.374,1.78,2.517,2.517,0,0,0,1.234,1.2.335.335,0,0,0,.462-.267l.031.041.11.147Z" transform="translate(-425.315 -350.655)" fill="#3f3d56"/>
      <path id="Path_619" data-name="Path 619" d="M477.327,580.649l-.015-.01-.218-.137a2.458,2.458,0,0,0-.852-1.5,2.622,2.622,0,0,0-1.471-.817,1.321,1.321,0,0,1,.155-.155h0c.025-.021.051-.042.078-.062a3.211,3.211,0,0,1,1.409.857A2.432,2.432,0,0,1,477.327,580.649Z" transform="translate(-404.564 -502.989)" fill="#3f3d56"/>
      <path id="Path_620" data-name="Path 620" d="M941.719,474.975a71.72,71.72,0,0,1,3.14,28.243,68.138,68.138,0,0,1-17.527-52.75A71.731,71.731,0,0,1,941.719,474.975Z" transform="translate(-779.353 -397.335)" fill="#6c63ff"/>
      <path id="Path_621" data-name="Path 621" d="M1032.781,474.975a71.718,71.718,0,0,0-3.14,28.243,68.139,68.139,0,0,0,17.527-52.75A71.714,71.714,0,0,0,1032.781,474.975Z" transform="translate(-864.134 -397.335)" fill="#6c63ff"/>
      <path id="Path_622" data-name="Path 622" d="M1003.361,460.634a71.72,71.72,0,0,1-5.337,27.912,68.138,68.138,0,0,1-1.175-55.573A71.706,71.706,0,0,1,1003.361,460.634Z" transform="translate(-832.766 -382.837)" fill="#3f3d56"/>
      <circle id="Ellipse_225" data-name="Ellipse 225" cx="1.502" cy="1.502" r="1.502" transform="translate(163.169 62.733)" fill="#6c63ff"/>
      <circle id="Ellipse_226" data-name="Ellipse 226" cx="0.835" cy="0.835" r="0.835" transform="translate(160.915 75.419)" fill="#6c63ff"/>
      <circle id="Ellipse_227" data-name="Ellipse 227" cx="0.835" cy="0.835" r="0.835" transform="translate(150.733 67.156)" fill="#3f3d56"/>
      <circle id="Ellipse_228" data-name="Ellipse 228" cx="0.835" cy="0.835" r="0.835" transform="translate(180.195 59.06)" fill="#3f3d56"/>
      <circle id="Ellipse_229" data-name="Ellipse 229" cx="0.835" cy="0.835" r="0.835" transform="translate(155.073 75.001)" fill="#3f3d56"/>
      <circle id="Ellipse_230" data-name="Ellipse 230" cx="0.835" cy="0.835" r="0.835" transform="translate(172.6 70.161)" fill="#3f3d56"/>
      <circle id="Ellipse_231" data-name="Ellipse 231" cx="0.835" cy="0.835" r="0.835" transform="translate(155.574 87.27)" fill="#3f3d56"/>
      <circle id="Ellipse_232" data-name="Ellipse 232" cx="0.835" cy="0.835" r="0.835" transform="translate(173.434 82.513)" fill="#3f3d56"/>
      <circle id="Ellipse_233" data-name="Ellipse 233" cx="0.835" cy="0.835" r="0.835" transform="translate(165.339 83.348)" fill="#6c63ff"/>
    </g>
  </g>
</svg>
