<svg xmlns="http://www.w3.org/2000/svg" width="49.474" height="33.086" viewBox="0 0 49.474 33.086">
  <g id="email-filled-closed-envelope" transform="translate(0 -101.361)">
    <path id="Path_601" data-name="Path 601" d="M24.8,121.2h.011a1.9,1.9,0,0,0,1.04-.305l.081-.052.055-.034.942-.78L49.421,101.47a.264.264,0,0,0-.21-.108H.261a.254.254,0,0,0-.162.059l23.534,19.4A1.844,1.844,0,0,0,24.8,121.2ZM0,103.992v27.515l16.859-13.619Zm32.632,13.989,16.841,13.534V104.084ZM27.277,122.4a4.012,4.012,0,0,1-4.944,0l-3.861-3.185L0,134.138v.047a.267.267,0,0,0,.265.262H49.212a.266.266,0,0,0,.261-.263v-.044L31.017,119.311Z" fill="#375db9"/>
  </g>
</svg>
