<svg xmlns="http://www.w3.org/2000/svg" xmlns:xlink="http://www.w3.org/1999/xlink" width="553" height="524" viewBox="0 0 553 524">
  <defs>
    <filter id="Ellipse_119" x="29" y="45" width="494" height="470" filterUnits="userSpaceOnUse">
      <feOffset dy="3" input="SourceAlpha"/>
      <feGaussianBlur stdDeviation="3" result="blur"/>
      <feFlood flood-opacity="0.161"/>
      <feComposite operator="in" in2="blur"/>
      <feComposite in="SourceGraphic"/>
    </filter>
  </defs>
  <g id="empty-cart" transform="translate(4352 21144)">
    <g id="empty-cart-2" data-name="empty-cart">
      <ellipse id="Ellipse_118" data-name="Ellipse 118" cx="276.5" cy="262" rx="276.5" ry="262" transform="translate(-4352 -21144)" fill="#fff"/>
      <g id="Group_460" data-name="Group 460" transform="translate(92 104)">
        <g transform="matrix(1, 0, 0, 1, -4444, -21248)" filter="url(#Ellipse_119)">
          <ellipse id="Ellipse_119-2" data-name="Ellipse 119" cx="238" cy="226" rx="238" ry="226" transform="translate(38 51)" fill="#fff"/>
        </g>
      </g>
    </g>
    <g id="Group_461" data-name="Group 461">
      <g id="empty-cart-3" data-name="empty-cart" transform="translate(-4185 -21026.117)">
        <g id="Group_453" data-name="Group 453" transform="translate(0 30.118)">
          <g id="Group_452" data-name="Group 452">
            <path id="Path_662" data-name="Path 662" d="M181.523,71.886l-24.291,63.158H58.915L37.929,30.118H0V45.857H25.027L46.012,150.783H168.041l28.172-73.247Z" transform="translate(0 -30.118)" fill="#375db9"/>
          </g>
        </g>
        <g id="Group_455" data-name="Group 455" transform="translate(49.84 156.03)">
          <g id="Group_454" data-name="Group 454">
            <path id="Path_663" data-name="Path 663" d="M153.662,358.674a23.608,23.608,0,1,0,23.608,23.608A23.635,23.635,0,0,0,153.662,358.674Z" transform="translate(-130.054 -358.674)" fill="#375db9"/>
          </g>
        </g>
        <g id="Group_457" data-name="Group 457" transform="translate(118.043 156.03)">
          <g id="Group_456" data-name="Group 456">
            <path id="Path_664" data-name="Path 664" d="M331.63,358.674a23.608,23.608,0,1,0,23.608,23.608A23.635,23.635,0,0,0,331.63,358.674Z" transform="translate(-308.022 -358.674)" fill="#375db9"/>
          </g>
        </g>
        <g id="Group_459" data-name="Group 459" transform="translate(73.805 32.741)">
          <g id="Group_458" data-name="Group 458">
            <path id="Path_665" data-name="Path 665" d="M262.919,62.814a42.393,42.393,0,0,0-7.649-13.6,35.377,35.377,0,0,0-11.615-8.995,34.141,34.141,0,0,0-29.109,0A35.567,35.567,0,0,0,203,49.216a42.4,42.4,0,0,0-7.649,13.6,51.6,51.6,0,0,0-2.762,17.211,51.6,51.6,0,0,0,2.762,17.21,42.393,42.393,0,0,0,7.649,13.6,34.707,34.707,0,0,0,11.544,8.924,34.825,34.825,0,0,0,29.109,0,34.535,34.535,0,0,0,11.615-8.924,42.4,42.4,0,0,0,7.649-13.6,51.6,51.6,0,0,0,2.762-17.21A51.609,51.609,0,0,0,262.919,62.814ZM245.283,90.365a26.4,26.4,0,0,1-3.612,8.074,17.086,17.086,0,0,1-5.524,5.241,13.759,13.759,0,0,1-7.012,1.841,14.029,14.029,0,0,1-7.153-1.841,17.094,17.094,0,0,1-5.524-5.241,26.382,26.382,0,0,1-3.612-8.074,39.25,39.25,0,0,1-1.275-10.341,40.072,40.072,0,0,1,1.275-10.411,26.322,26.322,0,0,1,3.612-8.145,17.114,17.114,0,0,1,5.524-5.241,14.052,14.052,0,0,1,7.153-1.841,13.784,13.784,0,0,1,7.012,1.841,17.114,17.114,0,0,1,5.524,5.241,26.312,26.312,0,0,1,3.612,8.145,40.072,40.072,0,0,1,1.275,10.411A39.246,39.246,0,0,1,245.283,90.365Z" transform="translate(-192.589 -36.963)" fill="#375db9"/>
          </g>
        </g>
      </g>
      <path id="Path_666" data-name="Path 666" d="M-4150.189-20768.377s39.674-36.068,78.748-36.068,77.545,36.068,77.545,36.068" transform="translate(4 29)" fill="none" stroke="#375db9" stroke-linecap="round" stroke-linejoin="bevel" stroke-width="11"/>
    </g>
  </g>
</svg>
