<svg xmlns="http://www.w3.org/2000/svg" width="84.269" height="86.813" viewBox="0 0 84.269 86.813">
  <g id="Group_378" data-name="Group 378" transform="translate(7580.888 19620.082)">
    <path id="Path_793" data-name="Path 793" d="M166.808,277.943a3.076,3.076,0,0,1-2.678-4.61c3.907-6.585,15.782-21.972,41.727-21.972,11.239,0,21.094,2.985,29.282,8.868a49.679,49.679,0,0,1,12.314,12.929,3.05,3.05,0,0,1-.812,4.258,3.122,3.122,0,0,1-4.3-.812c-3.271-4.741-13.192-19.141-36.481-19.141-22.74,0-33.013,13.258-36.372,18.943a3.03,3.03,0,0,1-2.678,1.536Z" transform="translate(-7744.608 -19871.443)" fill="#104ce5"/>
    <path id="Path_794" data-name="Path 794" d="M231.215,378.838a3.06,3.06,0,0,1-.768-.088c-18.811-4.719-25.835-23.728-26.121-24.518l-.044-.176c-.154-.549-3.929-13.587,1.866-21.226,2.656-3.49,6.695-5.268,12.029-5.268,4.961,0,8.539,1.558,11,4.785,2.019,2.634,2.832,5.883,3.622,9.022,1.646,6.519,2.832,9.944,9.68,10.295a7.07,7.07,0,0,0,6.1-3.139c3.029-4.127,3.556-10.865,1.273-16.792-2.941-7.683-13.346-22.148-31.7-22.148a32.18,32.18,0,0,0-20.809,7.331,33.782,33.782,0,0,0-10.4,15.321c-3.38,10.712,1.054,27.548,1.1,27.7a3.045,3.045,0,0,1-2.2,3.732,3.117,3.117,0,0,1-3.8-2.173c-.2-.768-4.939-18.724-1.032-31.1a39.012,39.012,0,0,1,62.1-17.868,42.825,42.825,0,0,1,12.512,16.99c3.029,7.9,2.217,16.77-2.063,22.565a13.149,13.149,0,0,1-11.414,5.663c-11.721-.593-13.829-8.868-15.365-14.9-1.58-6.19-2.59-9.175-8.626-9.175-3.314,0-5.641.922-7.09,2.832-1.976,2.612-2.129,6.695-1.91,9.658l.007.093a25.007,25.007,0,0,0,3.339,10.69c3.047,5.254,9.228,13.312,19.483,15.887a3.049,3.049,0,0,1,2.239,3.71,3.116,3.116,0,0,1-3.007,2.3Z" transform="translate(-7756.905 -19912.107)" fill="#104ce5"/>
    <path id="Path_795" data-name="Path 795" d="M248.636,419.268a3.125,3.125,0,0,1-2.261-.966,49.312,49.312,0,0,1-13.39-28.1v-.066c-.9-7.4.417-17.868,6.87-25.067,4.763-5.312,11.458-8.012,19.865-8.012,9.944,0,17.758,4.675,22.631,13.5a37.945,37.945,0,0,1,4.258,13.06,3.1,3.1,0,1,1-6.168.637,31.774,31.774,0,0,0-3.621-10.909c-3.775-6.739-9.526-10.163-17.121-10.163-6.563,0-11.7,2-15.233,5.949-5.092,5.685-6.08,14.443-5.378,20.238a43.286,43.286,0,0,0,11.787,24.76,3.036,3.036,0,0,1-.154,4.324A3.114,3.114,0,0,1,248.636,419.268Z" transform="translate(-7798.472 -19953.943)" fill="#104ce5"/>
    <circle id="Ellipse_276" data-name="Ellipse 276" cx="3.951" cy="3.951" r="3.951" transform="translate(-7542.657 -19571.244)" fill="#104CE5"/>
  </g>
</svg>
