<svg xmlns="http://www.w3.org/2000/svg" xmlns:xlink="http://www.w3.org/1999/xlink" width="597" height="162" viewBox="0 0 597 162">
  <defs>
    <filter id="Rectangle_62" x="0" y="0" width="597" height="162" filterUnits="userSpaceOnUse">
      <feOffset dy="3" input="SourceAlpha"/>
      <feGaussianBlur stdDeviation="7.5" result="blur"/>
      <feFlood flood-opacity="0.161"/>
      <feComposite operator="in" in2="blur"/>
      <feComposite in="SourceGraphic"/>
    </filter>
  </defs>
  <g id="google-login" transform="translate(-138.5 -229.5)">
    <g transform="matrix(1, 0, 0, 1, 138.5, 229.5)" filter="url(#Rectangle_62)">
      <rect id="Rectangle_62-2" data-name="Rectangle 62" width="552" height="117" rx="21" transform="translate(22.5 19.5)" fill="#fff"/>
    </g>
    <g id="google" transform="translate(199 267)">
      <path id="Path_10" data-name="Path 10" d="M19.063,124.962A21.472,21.472,0,0,1,22.1,113.926V100.215H8.391a40.688,40.688,0,0,0,0,49.495H22.1V136A21.472,21.472,0,0,1,19.063,124.962Z" transform="translate(0 -84.295)" fill="#fbbd00"/>
      <path id="Path_11" data-name="Path 11" d="M205.531,375.985,196,385.517l9.531,9.531a40.359,40.359,0,0,0,24.747-8.391v-13.7h-13.7A21.6,21.6,0,0,1,205.531,375.985Z" transform="translate(-164.864 -313.714)" fill="#0f9d58"/>
      <path id="Path_12" data-name="Path 12" d="M66.533,325.477l-13.71,13.71a41.314,41.314,0,0,0,3.52,4.009A40.4,40.4,0,0,0,85.1,355.107V336.044a21.613,21.613,0,0,1-18.565-10.568Z" transform="translate(-44.432 -273.773)" fill="#31aa52"/>
      <path id="Path_13" data-name="Path 13" d="M296.667,206.645a41.021,41.021,0,0,0-.666-7.367l-.358-1.954H256v19.063h19.293a21.507,21.507,0,0,1-8.242,8.838l13.7,13.7a41.316,41.316,0,0,0,4.009-3.52A40.4,40.4,0,0,0,296.667,206.645Z" transform="translate(-215.333 -165.978)" fill="#3c79e6"/>
      <path id="Path_14" data-name="Path 14" d="M220.808,25.39l1.685,1.685L235.972,13.6l-1.685-1.685A40.4,40.4,0,0,0,205.531,0L196,9.531l9.531,9.531A21.464,21.464,0,0,1,220.808,25.39Z" transform="translate(-164.864)" fill="#cf2d48"/>
      <path id="Path_15" data-name="Path 15" d="M85.1,19.063V0A40.4,40.4,0,0,0,56.342,11.911a41.279,41.279,0,0,0-3.52,4.009l13.71,13.71A21.614,21.614,0,0,1,85.1,19.063Z" transform="translate(-44.431 0)" fill="#eb4132"/>
    </g>
    <text id="gOOGLE-2" data-name="gOOGLE" transform="translate(379 331)" fill="#07359f" font-size="69" font-family="SegoeUI, Segoe UI"><tspan x="0" y="0">Google</tspan></text>
  </g>
</svg>
