<svg xmlns="http://www.w3.org/2000/svg" width="47.143" height="50.123" viewBox="0 0 47.143 50.123">
  <path id="Path_300" data-name="Path 300" d="M54.87,19.059V17.132A17.6,17.6,0,0,0,50.279,5.054,15.836,15.836,0,0,0,38.527,0h-1.59A15.836,15.836,0,0,0,25.185,5.054a17.6,17.6,0,0,0-4.591,12.078v1.927a6.915,6.915,0,0,0-6.444,6.887v3.012a6.907,6.907,0,0,0,6.9,6.9h3.886A1.267,1.267,0,0,0,26.2,34.591V20.3a1.267,1.267,0,0,0-1.264-1.264H23.122V17.132c0-8.329,5.939-14.605,13.8-14.605h1.59c7.876,0,13.8,6.276,13.8,14.605v1.906H50.51A1.267,1.267,0,0,0,49.247,20.3V34.581a1.267,1.267,0,0,0,1.264,1.264h1.769c-.516,6.592-5.054,8.119-7.16,8.466A4.443,4.443,0,0,0,40.9,41.246H37.737a4.438,4.438,0,0,0,0,8.877h3.17a4.444,4.444,0,0,0,4.275-3.264A11.952,11.952,0,0,0,49.468,45.4c2.285-1.337,4.991-4.065,5.349-9.561a6.905,6.905,0,0,0,6.476-6.887V25.936A6.88,6.88,0,0,0,54.87,19.059ZM23.69,33.317H21.068a4.373,4.373,0,0,1-4.37-4.37V25.936a4.373,4.373,0,0,1,4.37-4.37H23.69ZM40.907,47.6h-3.17a1.906,1.906,0,1,1,0-3.812h3.17a1.906,1.906,0,0,1,0,3.812ZM58.776,28.947a4.373,4.373,0,0,1-4.37,4.37H51.784V21.566h2.622a4.373,4.373,0,0,1,4.37,4.37Z" transform="translate(-14.15)" fill="#0337bb"/>
</svg>
