<svg xmlns="http://www.w3.org/2000/svg" width="25.721" height="20.002" viewBox="0 0 25.721 20.002">
  <path id="home-solid" d="M12.5,37.239l-8.232,6.78v7.318a.714.714,0,0,0,.714.714l5-.013a.714.714,0,0,0,.711-.714V47.051a.714.714,0,0,1,.714-.714h2.858a.714.714,0,0,1,.714.714v4.271a.714.714,0,0,0,.714.717l5,.014a.714.714,0,0,0,.714-.714V44.014l-8.231-6.775A.544.544,0,0,0,12.5,37.239Zm13,4.609-3.733-3.077V32.586a.536.536,0,0,0-.536-.536h-2.5a.536.536,0,0,0-.536.536v3.242l-4-3.289a2.143,2.143,0,0,0-2.724,0L.179,41.847a.536.536,0,0,0-.071.755l1.139,1.384A.536.536,0,0,0,2,44.059l10.5-8.651a.544.544,0,0,1,.683,0l10.5,8.651a.536.536,0,0,0,.755-.071L25.584,42.6a.536.536,0,0,0-.076-.756Z" transform="translate(0.015 -32.05)" fill="#f5f6fa"/>
</svg>
