<svg xmlns="http://www.w3.org/2000/svg" width="744.573" height="744.643" viewBox="0 0 744.573 744.643">
  <path id="home-nav" d="M668.635,298.656a.493.493,0,0,1-.052-.052L388.487,18.518a63.2,63.2,0,0,0-89.4,0L19.14,298.462c-.094.094-.194.194-.283.288a63.185,63.185,0,0,0,42.061,107.7c.65.063,1.3.094,1.954.094H74.031v206.12a74.068,74.068,0,0,0,73.986,73.981H257.6a20.118,20.118,0,0,0,20.116-20.117v-161.6a33.793,33.793,0,0,1,33.758-33.753h64.635a33.789,33.789,0,0,1,33.753,33.753v161.6a20.118,20.118,0,0,0,20.116,20.117H539.56a74.065,74.065,0,0,0,73.986-73.981V406.541H623.9a63.223,63.223,0,0,0,44.738-107.885Zm-28.488,60.915a22.838,22.838,0,0,1-16.25,6.737H593.428a20.115,20.115,0,0,0-20.117,20.117V612.662a33.788,33.788,0,0,1-33.753,33.748H450.093V504.924a74.069,74.069,0,0,0-73.986-73.986H311.472a74.074,74.074,0,0,0-73.991,73.986V646.41H148.015a33.791,33.791,0,0,1-33.753-33.748V386.425a20.115,20.115,0,0,0-20.116-20.117H64.2c-.314-.021-.623-.037-.943-.042a22.954,22.954,0,0,1-15.826-39.2c.005,0,.005-.005.01-.01l.016-.016L327.545,46.964a22.968,22.968,0,0,1,32.49,0L640.058,326.982c.042.042.089.084.131.126a23.029,23.029,0,0,1-.042,32.464Zm0,0" transform="translate(28.5 29.001)" fill="#333" stroke="#333" stroke-width="58"/>
</svg>
