<svg xmlns="http://www.w3.org/2000/svg" width="302.346" height="182.875" viewBox="0 0 302.346 182.875">
  <g id="Group_127" data-name="Group 127" transform="translate(11640.413 20065.949)">
    <ellipse id="Ellipse_46" data-name="Ellipse 46" cx="151.173" cy="11.81" rx="151.173" ry="11.81" transform="translate(-11640.413 -19906.695)" fill="#104CE5"/>
    <path id="Path_278" data-name="Path 278" d="M812.419,303.812s.945,12.752.945,13.224-6.612,33.061-6.612,33.061-9.446,17.947,0,17.475,6.612-17,6.612-17l9.918-27.393-4.251-19.364Z" transform="translate(-12205.422 -20363.965)" fill="#a0616a"/>
    <rect id="Rectangle_78" data-name="Rectangle 78" width="187.681" height="131.839" transform="translate(-11576.348 -20027.508)" fill="#f2f2f2"/>
    <rect id="Rectangle_79" data-name="Rectangle 79" width="47.125" height="82.263" transform="translate(-11560.549 -19977.205)" fill="#3f3d56"/>
    <rect id="Rectangle_80" data-name="Rectangle 80" width="12.694" height="11.833" transform="translate(-11551.832 -19972.271)" fill="#f2f2f2"/>
    <rect id="Rectangle_81" data-name="Rectangle 81" width="12.694" height="11.833" transform="translate(-11534.835 -19972.271)" fill="#f2f2f2"/>
    <rect id="Rectangle_82" data-name="Rectangle 82" width="12.694" height="12.264" transform="translate(-11551.832 -19956.135)" fill="#f2f2f2"/>
    <rect id="Rectangle_83" data-name="Rectangle 83" width="12.694" height="12.264" transform="translate(-11534.835 -19956.135)" fill="#f2f2f2"/>
    <circle id="Ellipse_48" data-name="Ellipse 48" cx="2.996" cy="2.996" r="2.996" transform="translate(-11522.413 -19933.531)" fill="#6c63ff"/>
    <rect id="Rectangle_84" data-name="Rectangle 84" width="93.159" height="78.177" transform="translate(-11497.625 -19985.016)" fill="#3f3d56"/>
    <path id="Path_287" data-name="Path 287" d="M319.1,240.312H92.2l15.129-31.631,3.386-7.082,4.429-9.262,3.386-7.082,3.925-8.2H301.227l2.318,8.2,2,7.082,2.618,9.262,2,7.082Z" transform="translate(-11688.159 -20243)" fill="#3f3d56"/>
    <rect id="Rectangle_85" data-name="Rectangle 85" width="3.269" height="20.157" transform="translate(-11494.356 -19952.6)" fill="#6c63ff"/>
    <rect id="Rectangle_86" data-name="Rectangle 86" width="3.269" height="2.452" transform="translate(-11494.356 -19949.604)" fill="#f2f2f2"/>
    <rect id="Rectangle_87" data-name="Rectangle 87" width="3.269" height="2.452" transform="translate(-11494.356 -19937.891)" fill="#f2f2f2"/>
    <rect id="Rectangle_88" data-name="Rectangle 88" width="7.899" height="20.157" transform="translate(-11489.453 -19952.6)" fill="#6c63ff"/>
    <rect id="Rectangle_89" data-name="Rectangle 89" width="7.899" height="2.452" transform="translate(-11489.453 -19949.604)" fill="#f2f2f2"/>
    <rect id="Rectangle_90" data-name="Rectangle 90" width="7.899" height="2.452" transform="translate(-11489.453 -19937.891)" fill="#f2f2f2"/>
    <rect id="Rectangle_91" data-name="Rectangle 91" width="3.269" height="20.157" transform="translate(-11479.647 -19952.6)" fill="#6c63ff"/>
    <rect id="Rectangle_92" data-name="Rectangle 92" width="3.269" height="2.452" transform="translate(-11479.647 -19949.604)" fill="#f2f2f2"/>
    <rect id="Rectangle_93" data-name="Rectangle 93" width="3.269" height="2.452" transform="translate(-11479.647 -19937.891)" fill="#f2f2f2"/>
    <rect id="Rectangle_94" data-name="Rectangle 94" width="3.269" height="20.157" transform="translate(-11474.744 -19952.6)" fill="#6c63ff"/>
    <rect id="Rectangle_95" data-name="Rectangle 95" width="3.269" height="2.452" transform="translate(-11474.744 -19949.604)" fill="#f2f2f2"/>
    <rect id="Rectangle_96" data-name="Rectangle 96" width="3.269" height="2.452" transform="translate(-11474.744 -19937.891)" fill="#f2f2f2"/>
    <rect id="Rectangle_97" data-name="Rectangle 97" width="3.269" height="20.157" transform="translate(-11471.383 -19951.375) rotate(-20.654)" fill="#6c63ff"/>
    <rect id="Rectangle_98" data-name="Rectangle 98" width="3.269" height="2.452" transform="translate(-11470.325 -19948.572) rotate(-20.654)" fill="#f2f2f2"/>
    <rect id="Rectangle_99" data-name="Rectangle 99" width="3.269" height="2.452" transform="translate(-11466.193 -19937.611) rotate(-20.654)" fill="#f2f2f2"/>
    <rect id="Rectangle_100" data-name="Rectangle 100" width="7.899" height="20.157" transform="translate(-11415.361 -19952.6)" fill="#6c63ff"/>
    <rect id="Rectangle_101" data-name="Rectangle 101" width="7.899" height="2.452" transform="translate(-11415.361 -19949.604)" fill="#f2f2f2"/>
    <rect id="Rectangle_102" data-name="Rectangle 102" width="7.899" height="2.452" transform="translate(-11415.361 -19937.891)" fill="#f2f2f2"/>
    <rect id="Rectangle_103" data-name="Rectangle 103" width="3.269" height="20.157" transform="translate(-11420.537 -19952.6)" fill="#6c63ff"/>
    <rect id="Rectangle_104" data-name="Rectangle 104" width="3.269" height="2.452" transform="translate(-11420.537 -19949.604)" fill="#f2f2f2"/>
    <rect id="Rectangle_105" data-name="Rectangle 105" width="3.269" height="2.452" transform="translate(-11420.537 -19937.891)" fill="#f2f2f2"/>
    <rect id="Rectangle_106" data-name="Rectangle 106" width="3.269" height="20.157" transform="translate(-11425.44 -19952.6)" fill="#6c63ff"/>
    <rect id="Rectangle_107" data-name="Rectangle 107" width="3.269" height="2.452" transform="translate(-11425.44 -19949.604)" fill="#f2f2f2"/>
    <rect id="Rectangle_108" data-name="Rectangle 108" width="3.269" height="2.452" transform="translate(-11425.44 -19937.891)" fill="#f2f2f2"/>
    <rect id="Rectangle_109" data-name="Rectangle 109" width="20.157" height="3.269" transform="translate(-11435.698 -19933.666) rotate(-69.346)" fill="#6c63ff"/>
    <rect id="Rectangle_110" data-name="Rectangle 110" width="2.452" height="3.269" transform="translate(-11430.51 -19947.43) rotate(-69.346)" fill="#f2f2f2"/>
    <rect id="Rectangle_111" data-name="Rectangle 111" width="2.452" height="3.269" transform="translate(-11434.642 -19936.471) rotate(-69.346)" fill="#f2f2f2"/>
    <rect id="Rectangle_112" data-name="Rectangle 112" width="93.159" height="1.907" transform="translate(-11497.625 -19932.441)" fill="#f2f2f2"/>
    <rect id="Rectangle_113" data-name="Rectangle 113" width="17.161" height="20.157" transform="translate(-11457.038 -19952.6)" fill="#6c63ff"/>
    <rect id="Rectangle_114" data-name="Rectangle 114" width="8.717" height="3.814" transform="translate(-11452.816 -19948.24)" fill="#f2f2f2"/>
    <rect id="Rectangle_115" data-name="Rectangle 115" width="1.634" height="17.433" transform="translate(-11451.863 -19985.016)" fill="#f2f2f2"/>
    <circle id="Ellipse_49" data-name="Ellipse 49" cx="2.724" cy="2.724" r="2.724" transform="translate(-11453.77 -19970.305)" fill="#f2f2f2"/>
    <path id="Path_288" data-name="Path 288" d="M345.741,206.71h-190.4l3.386-7.082H343.739Z" transform="translate(-11728.353 -20257.373)" fill="#104CE5"/>
    <path id="Path_289" data-name="Path 289" d="M336.67,251.685H133.831l3.386-7.082H334.669Z" transform="translate(-11714.662 -20286.004)" fill="#104CE5"/>
    <circle id="Ellipse_50" data-name="Ellipse 50" cx="36.34" cy="36.34" r="36.34" transform="translate(-11629.465 -20026.221)" fill="#ecf2f4"/>
    <path id="Path_294" data-name="Path 294" d="M31.252,0A31.252,31.252,0,1,1,0,31.252,31.252,31.252,0,0,1,31.252,0Z" transform="translate(-11624.377 -20021.133)" fill="#104CE5"/>
    <path id="Path_292" data-name="Path 292" d="M264.253,483.163v-4.549a10.562,10.562,0,0,1-6.065-1.982l.951-3.017a9.7,9.7,0,0,0,5.709,1.936,4.372,4.372,0,0,0,4.718-4.413c0-2.477-1.546-4.008-4.48-5.359-4.044-1.8-6.541-3.873-6.541-7.791a7.081,7.081,0,0,1,5.986-7.251v-4.549h2.458v4.369a9.645,9.645,0,0,1,5.154,1.576l-.991,2.972a8.761,8.761,0,0,0-5-1.531c-3.053,0-4.2,2.072-4.2,3.873,0,2.342,1.467,3.513,4.916,5.134,4.083,1.891,6.145,4.233,6.145,8.241a7.537,7.537,0,0,1-6.264,7.656v4.684Z" transform="translate(-11858.876 -20454.602)" fill="#f2f2f2"/>
  </g>
</svg>
