<svg id="laptop" xmlns="http://www.w3.org/2000/svg" width="18.235" height="14.018" viewBox="0 0 18.235 14.018">
  <g id="Group_342" data-name="Group 342" transform="translate(0 0)">
    <g id="Group_341" data-name="Group 341" transform="translate(0 0)">
      <path id="Path_633" data-name="Path 633" d="M18.235,71.911s0-.005,0-.008a.261.261,0,0,0,0-.031v0a.259.259,0,0,0-.008-.027l0-.007a.256.256,0,0,0-.01-.024l0,0-1.429-2.818V59.718a.518.518,0,0,0-.517-.517H1.975a.518.518,0,0,0-.517.517v9.271L.029,71.807l0,0c0,.008-.007.016-.01.024l0,.007a.271.271,0,0,0-.008.027v0A.264.264,0,0,0,0,71.9s0,.005,0,.008,0,.011,0,.017v.678a.615.615,0,0,0,.614.614H17.621a.615.615,0,0,0,.614-.614v-.678C18.235,71.922,18.235,71.916,18.235,71.911ZM1.992,59.735H16.244v9.05H1.992Zm-.1,9.585H16.347l1.187,2.341H11.665l-.295-1.068a.5.5,0,0,0-.485-.369H7.35a.5.5,0,0,0-.485.369L6.571,71.66H.7ZM11.11,71.66H7.125l.249-.9h3.487Zm6.591.945a.08.08,0,0,1-.08.08H.614a.08.08,0,0,1-.08-.08v-.411H17.7Z" transform="translate(0 -59.201)"/>
    </g>
  </g>
  <g id="Group_344" data-name="Group 344" transform="translate(2.562 5.505)">
    <g id="Group_343" data-name="Group 343">
      <path id="Path_634" data-name="Path 634" d="M84.768,213.756a.267.267,0,0,0-.267.267v2.709H72.457v-2.709a.267.267,0,1,0-.534,0v2.824a.419.419,0,0,0,.419.419H84.616a.419.419,0,0,0,.419-.419v-2.824A.267.267,0,0,0,84.768,213.756Z" transform="translate(-71.923 -213.756)"/>
    </g>
  </g>
  <g id="Group_346" data-name="Group 346" transform="translate(2.562 1.104)">
    <g id="Group_345" data-name="Group 345">
      <path id="Path_635" data-name="Path 635" d="M84.616,90.2H72.342a.419.419,0,0,0-.419.419v2.824a.267.267,0,0,0,.534,0V90.737H84.5v2.709a.267.267,0,0,0,.534,0V90.622A.419.419,0,0,0,84.616,90.2Z" transform="translate(-71.923 -90.203)"/>
    </g>
  </g>
</svg>
