<svg id="link" xmlns="http://www.w3.org/2000/svg" width="12" height="12" viewBox="0 0 12 12">
  <path id="Path_599" data-name="Path 599" d="M6,0a6,6,0,1,0,6,6A6,6,0,0,0,6,0ZM8.727,4.788,7.515,6a1.073,1.073,0,0,1-1.348.136l-.031.031A1.073,1.073,0,0,1,6,7.515L4.788,8.727A1.071,1.071,0,0,1,3.273,7.212L4.485,6a1.073,1.073,0,0,1,1.348-.136l.031-.031A1.073,1.073,0,0,1,6,4.485L7.212,3.273A1.071,1.071,0,0,1,8.727,4.788Zm0,0" fill="#27ae60"/>
  <path id="Path_600" data-name="Path 600" d="M230.2,126.465a.639.639,0,0,0-.455.188l-1.212,1.212a.643.643,0,0,0-.124.73l.427-.427a.214.214,0,0,1,.3.3l-.427.427a.643.643,0,0,0,.73-.124l1.212-1.212a.643.643,0,0,0-.454-1.1Zm0,0" transform="translate(-222.234 -123.077)" fill="#27ae60"/>
  <path id="Path_601" data-name="Path 601" d="M128.474,229.089a.214.214,0,0,1-.3-.3l.426-.427a.635.635,0,0,0-.73.124l-1.212,1.212a.643.643,0,0,0,0,.909.658.658,0,0,0,.909,0l1.212-1.212a.643.643,0,0,0,.124-.73Zm0,0" transform="translate(-123.08 -222.18)" fill="#27ae60"/>
</svg>
