<svg id="link" xmlns="http://www.w3.org/2000/svg" width="7.896" height="7.896" viewBox="0 0 7.896 7.896">
  <path id="Path_599" data-name="Path 599" d="M3.948,0A3.948,3.948,0,1,0,7.9,3.948,3.948,3.948,0,0,0,3.948,0ZM5.743,3.151l-.8.8a.706.706,0,0,1-.887.09l-.02.02a.706.706,0,0,1-.09.887l-.8.8a.705.705,0,0,1-1-1l.8-.8a.706.706,0,0,1,.887-.09l.02-.02a.706.706,0,0,1,.09-.887l.8-.8a.705.705,0,0,1,1,1Zm0,0" fill="#27ae60"/>
  <path id="Path_600" data-name="Path 600" d="M229.57,126.465a.42.42,0,0,0-.3.124l-.8.8a.423.423,0,0,0-.081.48l.281-.281a.141.141,0,0,1,.2.2l-.281.281a.423.423,0,0,0,.48-.081l.8-.8a.423.423,0,0,0-.3-.722Zm0,0" transform="translate(-224.326 -124.236)" fill="#27ae60"/>
  <path id="Path_601" data-name="Path 601" d="M127.788,228.817a.141.141,0,0,1-.2-.2l.281-.281a.418.418,0,0,0-.48.081l-.8.8a.423.423,0,0,0,0,.6.433.433,0,0,0,.6,0l.8-.8a.423.423,0,0,0,.081-.48Zm0,0" transform="translate(-124.239 -224.271)" fill="#27ae60"/>
</svg>
