<svg xmlns="http://www.w3.org/2000/svg" width="15.907" height="21.209" viewBox="0 0 15.907 21.209">
  <g id="lock" transform="translate(0)">
    <g id="Group_317" data-name="Group 317" transform="translate(0)">
      <path id="Path_625" data-name="Path 625" d="M79.465,7.953H78.139V6.186a6.186,6.186,0,0,0-12.372,0V7.953H64.442A.442.442,0,0,0,64,8.4V19.442a1.769,1.769,0,0,0,1.767,1.767H78.139a1.769,1.769,0,0,0,1.767-1.767V8.4A.442.442,0,0,0,79.465,7.953Zm-6.189,9.23a.442.442,0,0,1-.439.491H71.07a.442.442,0,0,1-.439-.491l.279-2.507a1.748,1.748,0,0,1-.723-1.421,1.767,1.767,0,1,1,3.535,0A1.748,1.748,0,0,1,73,14.677Zm2.212-9.23h-7.07V6.186a3.535,3.535,0,0,1,7.07,0Z" transform="translate(-64)" fill="#333"/>
    </g>
  </g>
</svg>
