<svg xmlns="http://www.w3.org/2000/svg" xmlns:xlink="http://www.w3.org/1999/xlink" width="565.352" height="509.193" viewBox="0 0 565.352 509.193">
  <defs>
    <filter id="Path_33" x="0" y="0" width="565.352" height="509.193" filterUnits="userSpaceOnUse">
      <feOffset dy="3" input="SourceAlpha"/>
      <feGaussianBlur stdDeviation="3" result="blur"/>
      <feFlood flood-opacity="0.161"/>
      <feComposite operator="in" in2="blur"/>
      <feComposite in="SourceGraphic"/>
    </filter>
    <linearGradient id="linear-gradient" x1="0.093" y1="0.676" x2="0.892" y2="-0.538" gradientUnits="objectBoundingBox">
      <stop offset="0" stop-color="#164df2"/>
      <stop offset="1" stop-color="#0f2dc7"/>
    </linearGradient>
  </defs>
  <g id="logo-full-bg" transform="translate(-256.584 -244)">
    <g transform="matrix(1, 0, 0, 1, 256.58, 244)" filter="url(#Path_33)">
      <path id="Path_33-2" data-name="Path 33" d="M77.673,0H469.679c42.9,0,77.673,44.681,77.673,99.8v291.6c0,55.117-34.775,99.8-77.673,99.8H77.673c-42.9,0-77.673-44.681-77.673-99.8V99.8C0,44.681,34.775,0,77.673,0Z" transform="translate(9 6)" fill="#fff"/>
    </g>
    <g id="Group_2" data-name="Group 2" transform="translate(424.075 361.103)">
      <path id="Path_3" data-name="Path 3" d="M39.745,0H157.609c21.951,0,39.745,14.1,39.745,31.5s-17.794,31.5-39.745,31.5H39.745C17.794,63.007,0,48.9,0,31.5S17.794,0,39.745,0Z" transform="matrix(0.454, 0.891, -0.891, 0.454, 56.245, 0)" fill="#3742fa"/>
      <rect id="Rectangle_5" data-name="Rectangle 5" width="108.951" height="63.173" rx="31.586" transform="matrix(0.454, 0.891, -0.891, 0.454, 56.288, 0.147)" fill="url(#linear-gradient)"/>
      <path id="Path_31" data-name="Path 31" d="M28.5,0H168.855a28.5,28.5,0,0,1,0,57H28.5a28.5,28.5,0,0,1,0-57Z" transform="translate(202.421 23.161) rotate(113)" fill="#3742fa"/>
    </g>
    <g id="Path_32" data-name="Path 32" transform="translate(377.295 308.475)" fill="none">
      <path d="M150.574,0A150.574,150.574,0,1,1,0,150.574,150.574,150.574,0,0,1,150.574,0Z" stroke="none"/>
      <path d="M 150.5740051269531 19 C 78.02383422851563 19 19 78.02383422851563 19 150.5740051269531 C 19 223.1241760253906 78.02383422851563 282.1480102539063 150.5740051269531 282.1480102539063 C 223.1241760253906 282.1480102539063 282.1480102539063 223.1241760253906 282.1480102539063 150.5740051269531 C 282.1480102539063 78.02383422851563 223.1241760253906 19 150.5740051269531 19 M 150.5740051269531 0 C 233.7337341308594 0 301.1480102539063 67.41427612304688 301.1480102539063 150.5740051269531 C 301.1480102539063 233.7337341308594 233.7337341308594 301.1480102539063 150.5740051269531 301.1480102539063 C 67.41427612304688 301.1480102539063 0 233.7337341308594 0 150.5740051269531 C 0 67.41427612304688 67.41427612304688 0 150.5740051269531 0 Z" stroke="none" fill="#3742fa"/>
    </g>
    <text id="Inventoryio" transform="translate(313 687)" fill="#3742fa" font-size="61" font-family="Montserrat-Bold, Montserrat" font-weight="700" letter-spacing="0.073em"><tspan x="0" y="0">Inventory</tspan><tspan y="0" font-size="80">io</tspan></text>
  </g>
</svg>
