<svg id="maintenance" xmlns="http://www.w3.org/2000/svg" width="222.842" height="216.417" viewBox="0 0 222.842 216.417">
  <g id="Group_106" data-name="Group 106">
    <path id="Path_231" data-name="Path 231" d="M203.256,139.91h-6.529v-6.34c0-10.488-8.786-19.021-19.586-19.021H117.949V101.868h19.586a6.343,6.343,0,1,0,0-12.681h-6.529V76.507h19.586c10.8,0,19.586-8.533,19.586-19.021V19.021C170.178,8.533,161.392,0,150.592,0H72.249C61.45,0,52.664,8.533,52.664,19.021V57.486c0,10.488,8.786,19.021,19.586,19.021H91.835V89.187H85.307a6.343,6.343,0,1,0,0,12.681h19.586v12.681H45.7c-10.8,0-19.586,8.533-19.586,19.021v6.34H19.586C8.786,139.91,0,148.443,0,158.931v12.681c0,10.488,8.786,19.021,19.586,19.021h6.529v13.1H19.586a6.343,6.343,0,1,0,0,12.681H45.7a6.343,6.343,0,1,0,0-12.681H39.171v-13.1H45.7c10.8,0,19.586-8.533,19.586-19.021V158.931c0-10.488-8.786-19.021-19.586-19.021H39.171v-6.34a6.444,6.444,0,0,1,6.529-6.34h59.192V139.91H98.364c-10.8,0-19.586,8.533-19.586,19.021v12.681c0,10.488,8.786,19.021,19.586,19.021h6.529v13.1H98.364a6.343,6.343,0,1,0,0,12.681h26.114a6.343,6.343,0,1,0,0-12.681h-6.529v-13.1h6.529c10.8,0,19.586-8.533,19.586-19.021V158.931c0-10.488-8.786-19.021-19.586-19.021h-6.529V127.229h59.192a6.444,6.444,0,0,1,6.529,6.34v6.34h-6.529c-10.8,0-19.586,8.533-19.586,19.021v12.681c0,10.488,8.786,19.021,19.586,19.021h6.529v13.1h-6.529a6.343,6.343,0,1,0,0,12.681h26.114a6.343,6.343,0,1,0,0-12.681h-6.529v-13.1h6.529c10.8,0,19.586-8.533,19.586-19.021V158.931C222.842,148.443,214.056,139.91,203.256,139.91ZM45.7,152.591a6.444,6.444,0,0,1,6.529,6.34v12.681a6.444,6.444,0,0,1-6.529,6.34H19.586a6.444,6.444,0,0,1-6.529-6.34V158.931a6.444,6.444,0,0,1,6.529-6.34Zm26.55-88.765a6.444,6.444,0,0,1-6.529-6.34V19.021a6.444,6.444,0,0,1,6.529-6.34h78.343a6.444,6.444,0,0,1,6.529,6.34V57.486a6.444,6.444,0,0,1-6.529,6.34Zm52.229,88.765a6.444,6.444,0,0,1,6.529,6.34v12.681a6.444,6.444,0,0,1-6.529,6.34H98.364a6.444,6.444,0,0,1-6.529-6.34V158.931a6.444,6.444,0,0,1,6.529-6.34Zm-19.586-63.4V76.507h13.057V89.187Zm104.892,82.424a6.444,6.444,0,0,1-6.529,6.34H177.142a6.444,6.444,0,0,1-6.529-6.34V158.931a6.444,6.444,0,0,1,6.529-6.34h26.114a6.444,6.444,0,0,1,6.529,6.34Z" fill="#104CE5"/>
  </g>
</svg>
