<svg xmlns="http://www.w3.org/2000/svg" width="212" height="212" viewBox="0 0 212 212">
  <g id="Group_401" data-name="Group 401" transform="translate(-517 -2689)">
    <circle id="Ellipse_254" data-name="Ellipse 254" cx="106" cy="106" r="106" transform="translate(517 2689)" fill="#ecf2f4"/>
    <g id="undraw_Business_analytics_64el" transform="translate(555 2735)">
      <rect id="Rectangle_184" data-name="Rectangle 184" width="0.361" height="30.082" transform="translate(21.906 16.583)" fill="#f2f2f2"/>
      <rect id="Rectangle_185" data-name="Rectangle 185" width="0.361" height="30.082" transform="translate(33.983 16.583)" fill="#f2f2f2"/>
      <path id="Path_686" data-name="Path 686" d="M848,138" transform="translate(-724.412 -133.874)" fill="#3f3d56"/>
      <circle id="Ellipse_255" data-name="Ellipse 255" cx="1.178" cy="1.178" r="1.178" transform="translate(138.295 99.939)" fill="#104ce5"/>
      <line id="Line_25" data-name="Line 25" y1="13.413" transform="translate(145.245 107.256)" fill="#3f3d56"/>
      <rect id="Rectangle_186" data-name="Rectangle 186" width="0.361" height="13.413" transform="translate(145.065 107.256)" fill="#3f3d56"/>
      <circle id="Ellipse_256" data-name="Ellipse 256" cx="1.897" cy="1.897" r="1.897" transform="translate(143.348 105.36)" fill="#3f3d56"/>
      <path id="Path_688" data-name="Path 688" d="M941.651,732.33s-.271-5.828-5.826-5.15" transform="translate(-796.406 -616.807)" fill="#3f3d56"/>
      <rect id="Rectangle_187" data-name="Rectangle 187" width="56" height="1" transform="translate(6 16)" fill="#f2f2f2"/>
      <rect id="Rectangle_188" data-name="Rectangle 188" width="56" height="2" transform="translate(6 32)" fill="#f2f2f2"/>
      <rect id="Rectangle_189" data-name="Rectangle 189" width="56" height="2" transform="translate(6 46)" fill="#f2f2f2"/>
      <rect id="Rectangle_190" data-name="Rectangle 190" width="48.488" height="0.361" transform="translate(10.365 62.818)" fill="#3f3d56"/>
      <path id="Path_689" data-name="Path 689" d="M190.427,453.238a3.064,3.064,0,1,1,3.064-3.064A3.064,3.064,0,0,1,190.427,453.238Zm0-5.768a2.7,2.7,0,1,0,2.7,2.7A2.7,2.7,0,0,0,190.427,447.47Z" transform="translate(-182.857 -387.265)" fill="#3f3d56"/>
      <rect id="Rectangle_191" data-name="Rectangle 191" width="0.361" height="16.223" transform="translate(21.911 46.686)" fill="#3f3d56"/>
      <rect id="Rectangle_192" data-name="Rectangle 192" width="0.361" height="29.562" transform="translate(33.988 33.347)" fill="#3f3d56"/>
      <rect id="Rectangle_193" data-name="Rectangle 193" width="0.361" height="46.325" transform="translate(46.246 16.583)" fill="#3f3d56"/>
      <circle id="Ellipse_257" data-name="Ellipse 257" cx="2.63" cy="2.63" r="2.63" transform="translate(19.457 60.279)" fill="#104ce5"/>
      <circle id="Ellipse_258" data-name="Ellipse 258" cx="2.63" cy="2.63" r="2.63" transform="translate(31.619 60.279)" fill="#104ce5"/>
      <circle id="Ellipse_259" data-name="Ellipse 259" cx="2.63" cy="2.63" r="2.63" transform="translate(43.78 60.279)" fill="#104ce5"/>
      <circle id="Ellipse_260" data-name="Ellipse 260" cx="2.5" cy="2.5" r="2.5" transform="translate(44 14)" fill="#104ce5"/>
      <circle id="Ellipse_261" data-name="Ellipse 261" cx="2.524" cy="2.524" r="2.524" transform="translate(43.916 30.803)" fill="#104ce5"/>
      <ellipse id="Ellipse_262" data-name="Ellipse 262" cx="2.5" cy="3" rx="2.5" ry="3" transform="translate(32 30)" fill="#104ce5"/>
      <circle id="Ellipse_263" data-name="Ellipse 263" cx="2.524" cy="2.524" r="2.524" transform="translate(31.659 44.142)" fill="#104ce5"/>
      <circle id="Ellipse_264" data-name="Ellipse 264" cx="3" cy="3" r="3" transform="translate(19 44)" fill="#104ce5"/>
      <ellipse id="Ellipse_265" data-name="Ellipse 265" cx="2" cy="2.5" rx="2" ry="2.5" transform="translate(0 14)" fill="#f2f2f2"/>
      <ellipse id="Ellipse_266" data-name="Ellipse 266" cx="2" cy="3" rx="2" ry="3" transform="translate(0 30)" fill="#f2f2f2"/>
      <ellipse id="Ellipse_267" data-name="Ellipse 267" cx="2" cy="2.5" rx="2" ry="2.5" transform="translate(0 44)" fill="#f2f2f2"/>
      <rect id="Rectangle_194" data-name="Rectangle 194" width="12.618" height="1.18" transform="translate(2.343)" fill="#3f3d56"/>
      <rect id="Rectangle_195" data-name="Rectangle 195" width="12.618" height="1.18" transform="translate(2.343 2.655)" fill="#3f3d56"/>
      <rect id="Rectangle_196" data-name="Rectangle 196" width="12.618" height="1.18" transform="translate(2.343 5.309)" fill="#3f3d56"/>
      <path id="Path_690" data-name="Path 690" d="M799.926,191.35s3.407,4.366,2.982,7.454,7.028-4.259,7.028-4.259-2.556-5.324-1.171-7.88S799.926,191.35,799.926,191.35Z" transform="translate(-685.003 -173.319)" fill="#ffb9b9"/>
      <path id="Path_691" data-name="Path 691" d="M804.776,705.452s4.472,4.9,3.727,5.963-13.843,5.111-15.333,4.9-2.236-1.278-1.7-1.6,3.94-2.13,3.94-2.13l2.875-3.3s2.13-1.171,2.13-1.81S804.776,705.452,804.776,705.452Z" transform="translate(-677.927 -599.041)" fill="#2f2e41"/>
      <path id="Path_692" data-name="Path 692" d="M814.782,735.579a20.58,20.58,0,0,1-2.023,2.875c-.319.106,1.6,3.94,1.6,3.94l4.472-1.384,2.449-2.023-.532-2.768Z" transform="translate(-695.493 -623.737)" fill="#ffb9b9"/>
      <path id="Path_693" data-name="Path 693" d="M770.666,442.574l-2.13,9.477s-7.347,16.5-2.236,19.38l11.181,21.4,5.963-2.662-10.009-21.935L778.013,443Z" transform="translate(-655.956 -383.548)" fill="#d0cde1"/>
      <path id="Path_694" data-name="Path 694" d="M770.666,442.574l-2.13,9.477s-7.347,16.5-2.236,19.38l11.181,21.4,5.963-2.662-10.009-21.935L778.013,443Z" transform="translate(-655.956 -383.548)" opacity="0.1"/>
      <path id="Path_695" data-name="Path 695" d="M797.875,447.938h-1.08a60.2,60.2,0,0,0,.548,9.8c.745,5.431,2.662,17.889,2.662,17.889s-.213,2.343.426,3.088.745-.213.852,1.491,1.118,13.549,1.118,13.549.692,2.423-.053,2.956-2.236,3.407-1.171,3.833,8.412.958,8.731.639,0-20.338,0-20.338a32.008,32.008,0,0,0-.426-4.259c-.213-.213-1.171-3.088-.852-3.727a8.965,8.965,0,0,0,.107-2.875c0-.319-.958,0-.107-1.384s.958-12.458.958-12.458,4.579-7.028,3.194-8.838Z" transform="translate(-682.42 -387.421)" fill="#d0cde1"/>
      <circle id="Ellipse_268" data-name="Ellipse 268" cx="7.028" cy="7.028" r="7.028" transform="translate(110.876 5.572)" fill="#ffb9b9"/>
      <path id="Path_696" data-name="Path 696" d="M802.005,226.365s-4.259,1.065-5.963,3.62l-1.491.319V231.8s-2.768,8.838-2.13,12.671,0,11.287-1.065,13.31-1.384,2.449-.852,3.3,1.278,3.727.745,5,0,2.556,4.9,2.875,11.82.319,11.82-1.384-.426-6.5,0-7.773a6.062,6.062,0,0,0,.426-3.3c-.213-1.171.426-14.269.426-14.269S808.927,229.134,802.005,226.365Z" transform="translate(-677.073 -206.311)" fill="#2f2e41"/>
      <path id="Path_697" data-name="Path 697" d="M753.156,408.9l-5.857,8.731s-6.176,5.644-3.94,8.2,8.093-7.454,8.093-7.454l6.389-7.241Z" transform="translate(-638.233 -355.945)" fill="#ffb9b9"/>
      <path id="Path_698" data-name="Path 698" d="M768.793,748.188s-.213-1.384-.958-1.384-5.75,3.407-5.75,3.407-6.87,2.956-3.97,3.137c2.884.18,18.132.59,18.238.058s.319-5.783-.426-5.766-6.708,1.188-6.708,1.188Z" transform="translate(-650.143 -632.939)" fill="#2f2e41"/>
      <path id="Path_699" data-name="Path 699" d="M784.752,129.921a1.763,1.763,0,0,1-.8.181c-.287.016-.63,0-.783-.245a1.121,1.121,0,0,1-.1-.511,1.685,1.685,0,0,0-1.969-1.435,2.423,2.423,0,0,0,.314,1,2.137,2.137,0,0,1-1.879-.25l-.108,1.434a1.17,1.17,0,0,1-1.2-.041.667.667,0,0,1,.017-1.068c-.465-.1-1.035-.306-1.069-.78-.031-.433.428-.749.513-1.175.069-.347-.121-.724.013-1.051.177-.43.819-.54.948-.987a3.869,3.869,0,0,0-.006-.706c.059-.617.835-.873,1.453-.838a3.073,3.073,0,0,0,1.82-.129,5.279,5.279,0,0,0,.657-.614,1.951,1.951,0,0,1,2.265-.2,3.851,3.851,0,0,0,.743.463c.568.192,1.161-.172,1.754-.256a1.457,1.457,0,0,1,1.222.354,1,1,0,0,1,.182,1.205,1.959,1.959,0,0,1,1.046.015.675.675,0,0,1,.427.843,1.093,1.093,0,0,0-.133.271c-.031.186.148.344.328.4s.376.043.553.108c.73.267.555,1.434,1.129,1.957a4.583,4.583,0,0,0,.623.381,1.515,1.515,0,0,1,.534,1.831,1.68,1.68,0,0,0-.285.777c.033.391.452.605.746.865a1.735,1.735,0,0,1,.4,1.992c-.27.564-.856.991-.915,1.614-.026.271.055.541.051.812a1.674,1.674,0,0,1-.72,1.264,3.742,3.742,0,0,1-1.381.575c-.232.056-.509.143-.565.375-.067.275.24.525.208.807a.468.468,0,0,1-.188.3.955.955,0,0,1-1.327-.416,2.765,2.765,0,0,1-.182-1.548l.143-1.912c.045-.595.04-1.3-.445-1.649-.536-.384-1.317-.073-1.923-.333a1.762,1.762,0,0,1-.833-1.749,10.227,10.227,0,0,0,.109-2.053c-.14-.84-.888-1.4-1.642-.86C785.162,128.851,785.276,129.612,784.752,129.921Z" transform="translate(-666.348 -120.951)" fill="#2f2e41"/>
      <path id="Path_700" data-name="Path 700" d="M807.039,254.46s-4.259,1.7-4.259,5.324.213,8.412-.532,10.009-1.384,2.13-.958,3.407,1.171,1.065,0,2.023-1.065-.639-1.171.958,1.065,1.81,0,2.556-3.833,3.727-2.662,4.685,4.259,4.046,5.324,2.875,1.6-4.153,3.088-3.94,1.7.319,1.491-.745-1.171-1.065.106-1.384,1.81.426,1.384-.639-.745-1.491.106-2.662,1.278-1.491,1.171-2.662,2.343-11.713,2.343-11.713S813.215,253.608,807.039,254.46Z" transform="translate(-682.745 -229.295)" opacity="0.1"/>
      <path id="Path_701" data-name="Path 701" d="M800.54,253.278s-4.259,1.7-4.259,5.324.213,8.412-.532,10.009-1.384,2.13-.958,3.407,1.171,1.065,0,2.023-1.065-.639-1.171.958,1.065,1.81,0,2.556-3.833,3.727-2.662,4.685,4.259,4.046,5.324,2.875,1.6-4.153,3.088-3.94,1.7.319,1.491-.745-1.171-1.065.107-1.384,1.81.426,1.384-.639-.745-1.491.107-2.662,1.278-1.491,1.171-2.662,2.343-11.713,2.343-11.713S806.716,252.426,800.54,253.278Z" transform="translate(-677.418 -228.326)" opacity="0.1"/>
      <path id="Path_702" data-name="Path 702" d="M803.494,251.506s-4.259,1.7-4.259,5.324.213,8.412-.532,10.009-1.384,2.13-.958,3.407,1.171,1.065,0,2.023-1.065-.639-1.171.958,1.065,1.81,0,2.556-3.833,3.727-2.662,4.685,4.259,4.046,5.324,2.875,1.6-4.153,3.088-3.94,1.7.319,1.491-.745-1.171-1.065.107-1.384,1.81.426,1.384-.639-.745-1.491.107-2.662,1.278-1.491,1.171-2.662,2.343-11.713,2.343-11.713S809.67,250.654,803.494,251.506Z" transform="translate(-679.84 -226.873)" fill="#2f2e41"/>
      <line id="Line_26" data-name="Line 26" x1="97" transform="translate(50 121)" fill="none" stroke="#3f3d56" stroke-miterlimit="10" stroke-width="2"/>
      <rect id="Rectangle_197" data-name="Rectangle 197" width="12.618" height="1.18" transform="translate(53.535 86.161)" fill="#3f3d56"/>
      <rect id="Rectangle_198" data-name="Rectangle 198" width="12.618" height="1.18" transform="translate(53.535 88.816)" fill="#3f3d56"/>
      <rect id="Rectangle_199" data-name="Rectangle 199" width="12.618" height="1.18" transform="translate(53.535 91.47)" fill="#3f3d56"/>
      <path id="Path_703" data-name="Path 703" d="M500.107,626.421a17.461,17.461,0,0,1-15.035-8.649l-.091-.156,14.991-8.642V591.644h.181a17.388,17.388,0,1,1-.045,34.776Zm-14.631-8.674a17.029,17.029,0,1,0,14.856-25.74v17.175l-.09.052Z" transform="translate(-426.828 -505.747)" fill="#2f2e41"/>
      <circle id="Ellipse_269" data-name="Ellipse 269" cx="6.543" cy="6.543" r="6.543" transform="translate(66.736 96.743)" fill="#104CE5"/>
      <circle id="Ellipse_270" data-name="Ellipse 270" cx="3.263" cy="3.263" r="3.263" transform="translate(70.016 100.022)" fill="#ecf2f4"/>
      <rect id="Rectangle_200" data-name="Rectangle 200" width="4.326" height="4.326" transform="translate(58.877 14.4)" fill="#104ce5"/>
      <rect id="Rectangle_201" data-name="Rectangle 201" width="4.326" height="4.326" transform="translate(58.877 30.984)" fill="#104ce5"/>
      <rect id="Rectangle_202" data-name="Rectangle 202" width="4.326" height="4.326" transform="translate(58.877 44.503)" fill="#104ce5"/>
      <path id="Path_704" data-name="Path 704" d="M492.687,455.687H488V451h4.687Zm-4.326-.36h3.966v-3.966H488.36Z" transform="translate(-429.303 -390.455)" fill="#3f3d56"/>
    </g>
  </g>
</svg>
