<svg xmlns="http://www.w3.org/2000/svg" width="371.737" height="813.111" viewBox="0 0 371.737 813.111">
  <g id="Group_397" data-name="Group 397" transform="translate(-2.984 0.08)">
    <path id="Path_796" data-name="Path 796" d="M-9370.8-20195.08s-24.489,169.732-77.313,309.7-220.7,503.412-220.7,503.412h371.737v-813.111Z" transform="translate(9671.79 20195)" fill="#104ce5"/>
    <path id="Subtraction_1" data-name="Subtraction 1" d="M13921.666,20369.223c-3.516,0-7.023-.137-10.425-.4-3.939-.307-7.836-.8-11.582-1.459a110.062,110.062,0,0,1-11.175-2.572,98.717,98.717,0,0,1-10.654-3.721,89.847,89.847,0,0,1-10.013-4.918,83.216,83.216,0,0,1-9.259-6.152,78.784,78.784,0,0,1-15.785-16.178,83.2,83.2,0,0,1-6.161-9.859,89.556,89.556,0,0,1-4.782-10.645,99.026,99.026,0,0,1-3.453-11.295,110.39,110.39,0,0,1-2.173-11.812,128.327,128.327,0,0,1-.705-24.637,150.785,150.785,0,0,1,3.817-25.1,162.644,162.644,0,0,1,7.941-24.484c.825-1.986,1.7-3.979,2.594-5.918h176.365v127.682c-.559.42-1.13.842-1.7,1.254a152.2,152.2,0,0,1-20.621,12.52,167.446,167.446,0,0,1-46.637,15.443,151.419,151.419,0,0,1-24.146,2.246C13922.62,20369.219,13922.133,20369.223,13921.666,20369.223Z" transform="translate(-13641.643 -20210.07)" fill="#a1cdfb" opacity="0.1"/>
  </g>
</svg>
