<svg xmlns="http://www.w3.org/2000/svg" width="67.633" height="67.633" viewBox="0 0 67.633 67.633">
  <path id="nano-technology" d="M64.36,37.089a3.271,3.271,0,0,0-3.26,3.15l-7.314,2.286A7.646,7.646,0,0,0,48,38.268V26.025A4.327,4.327,0,0,0,50.588,19.5L63.044,6.264a3.27,3.27,0,1,0-1.956-2.991,3.229,3.229,0,0,0,.374,1.488L48.994,18.009a4.313,4.313,0,0,0-2.087-.555A4.357,4.357,0,0,0,42.7,20.726H28.275a7.641,7.641,0,0,0-6.458-6.458V6.344a3.273,3.273,0,1,0-2.182,0v7.924a7.608,7.608,0,0,0-5.747,10.926l-8.7,5.981a3.375,3.375,0,1,0,1.233,1.8l8.7-5.984a7.611,7.611,0,0,0,4.508,2.375V41.607a4.327,4.327,0,0,0-2.591,6.528L4.589,61.369A3.27,3.27,0,1,0,6.545,64.36a3.229,3.229,0,0,0-.374-1.488L18.641,49.624A4.11,4.11,0,0,0,21.5,50.1l3.489,7.556a3.267,3.267,0,1,0,2.281-.933c-.1,0-.2.021-.295.029l-3.5-7.579a4.343,4.343,0,0,0,1.457-2.268H39.358a7.641,7.641,0,0,0,6.458,6.458v7.924a3.273,3.273,0,1,0,2.182,0V53.364a7.565,7.565,0,0,0,6.439-8.759l7.316-2.287a3.267,3.267,0,1,0,2.607-5.229Zm-43.634-12a3.277,3.277,0,0,1-3.273-3.273h2.182a1.092,1.092,0,0,0,1.091,1.091Zm25.09,13.178a7.641,7.641,0,0,0-6.458,6.458H24.935a4.355,4.355,0,0,0-3.118-3.118V29.366a7.641,7.641,0,0,0,6.458-6.458H42.7a4.355,4.355,0,0,0,3.118,3.118Zm1.091,10.821V46.907A1.092,1.092,0,0,0,48,45.816h2.182A3.276,3.276,0,0,1,46.907,49.088Zm0,0" transform="translate(0 0)" fill="#2c81ff"/>
</svg>
