<svg xmlns="http://www.w3.org/2000/svg" xmlns:xlink="http://www.w3.org/1999/xlink" width="1101" height="1089" viewBox="0 0 1101 1089">
  <defs>
    <filter id="Ellipse_1098" x="0" y="0" width="1101" height="1089" filterUnits="userSpaceOnUse">
      <feOffset dy="3" input="SourceAlpha"/>
      <feGaussianBlur stdDeviation="18" result="blur"/>
      <feFlood flood-opacity="0.161"/>
      <feComposite operator="in" in2="blur"/>
      <feComposite in="SourceGraphic"/>
    </filter>
  </defs>
  <g id="pending" transform="translate(9675 4695)" opacity="0.35">
    <g transform="matrix(1, 0, 0, 1, -9675, -4695)" filter="url(#Ellipse_1098)">
      <ellipse id="Ellipse_1098-2" data-name="Ellipse 1098" cx="496.5" cy="490.5" rx="496.5" ry="490.5" transform="translate(54 51)" fill="#fff"/>
    </g>
    <g id="payment-method" transform="translate(-9440 -4469.023)">
      <g id="Group_1153" data-name="Group 1153" transform="translate(188.113 472.719)">
        <g id="Group_1152" data-name="Group 1152">
          <path id="Path_854" data-name="Path 854" d="M177.134,393.765a12.853,12.853,0,0,0-.7-2.315,12.494,12.494,0,0,0-1.133-2.118,11.967,11.967,0,0,0-3.4-3.4,12.154,12.154,0,0,0-2.131-1.133,11.566,11.566,0,0,0-2.3-.7,12.127,12.127,0,0,0-4.8,0,11.933,11.933,0,0,0-2.315.7,12.493,12.493,0,0,0-2.118,1.133,12.31,12.31,0,0,0-4.532,5.517,11.933,11.933,0,0,0-.7,2.315,11.831,11.831,0,0,0,0,4.8,11.566,11.566,0,0,0,.7,2.3A11.388,11.388,0,0,0,154.831,403a11.967,11.967,0,0,0,3.4,3.4,12.411,12.411,0,0,0,2.118,1.134,11.93,11.93,0,0,0,2.315.7,11.828,11.828,0,0,0,4.8,0,11.564,11.564,0,0,0,2.3-.7A12.159,12.159,0,0,0,171.9,406.4a11.967,11.967,0,0,0,3.4-3.4,12.155,12.155,0,0,0,1.133-2.131,12.437,12.437,0,0,0,.7-2.3,11.83,11.83,0,0,0,0-4.8Z" transform="translate(-152.75 -383.857)" fill="#104ce5"/>
        </g>
      </g>
      <g id="Group_1155" data-name="Group 1155" transform="translate(0 381.667)">
        <g id="Group_1154" data-name="Group 1154">
          <path id="Path_855" data-name="Path 855" d="M566.487,414.674c-.048-.123-.1-.245-.149-.366C555,387.786,528.42,377.983,496.959,388.728l-85.8,23.726c-4.961-15.022-17.334-27.805-34.828-34.3-.108-.039-.217-.079-.326-.116L281.7,346.031c-7.85-10.146-32.438-36.109-78.476-36.109-32.173,0-60.635,22.071-76.918,46.129H12.315A12.315,12.315,0,0,0,0,368.366V523.631a12.315,12.315,0,0,0,12.315,12.315H85.537a12.315,12.315,0,0,0,12.315-12.315V513h34.338a12.315,12.315,0,0,0,12.315-12.315v-3.544c20.017,1.746,26.6,5.543,44.985,16.144,14.138,8.153,35.506,20.474,73.986,37.775.179.08.36.156.541.228a110.542,110.542,0,0,0,39.621,7.469,98.161,98.161,0,0,0,40.8-8.736l189.642-67.9c.337-.121.67-.256,1-.406C553.2,473.373,580.208,449.872,566.487,414.674ZM73.222,511.315H24.63V380.68H73.222Zm46.653-22.948H97.852V380.68h22.023Zm405.36-29.245-189.557,67.87c-.166.059-.392.148-.555.214s-.332.139-.5.214c-26.4,12.133-51.494,4.869-61.329,1.046-37.169-16.725-57.008-28.165-71.5-36.523-20.152-11.621-29.863-17.221-57.289-19.486V373.268c11.674-19.133,34.311-38.718,58.717-38.718,41.854,0,59.589,27.223,60.286,28.321a12.316,12.316,0,0,0,6.533,5.212L367.917,401.3c15.632,5.867,23.893,19.253,20.1,32.6a24,24,0,0,1-29.482,16.563L248.2,415.5a12.315,12.315,0,1,0-7.441,23.48l110.527,35.025c.117.037.234.073.352.106a48.338,48.338,0,0,0,36.968-4.3,48.3,48.3,0,0,0,23.1-29.177q.425-1.5.752-2.993l92.466-25.615c13.354-4.562,30.885-6.206,38.69,11.771C551.69,444.909,530.693,456.519,525.235,459.122Z" transform="translate(0 -309.922)" fill="#104ce5"/>
        </g>
      </g>
      <g id="Group_1157" data-name="Group 1157" transform="translate(417.79 152.084)">
        <g id="Group_1156" data-name="Group 1156">
          <path id="Path_856" data-name="Path 856" d="M363.646,133.406a11.974,11.974,0,0,0-.714-2.315,12.14,12.14,0,0,0-4.532-5.517,12.493,12.493,0,0,0-2.118-1.133,12.266,12.266,0,0,0-7.118-.7,11.566,11.566,0,0,0-2.3.7,12.154,12.154,0,0,0-2.131,1.133,11.968,11.968,0,0,0-3.4,3.4,12.494,12.494,0,0,0-1.133,2.118,11.932,11.932,0,0,0-.7,2.315,11.83,11.83,0,0,0,0,4.8,11.566,11.566,0,0,0,.7,2.3,12.152,12.152,0,0,0,1.133,2.131,11.968,11.968,0,0,0,3.4,3.4,12.153,12.153,0,0,0,2.131,1.133,12.437,12.437,0,0,0,2.3.7,12.131,12.131,0,0,0,2.4.246,12.351,12.351,0,0,0,2.414-.246,13.034,13.034,0,0,0,2.3-.7,12.494,12.494,0,0,0,2.118-1.133,11.968,11.968,0,0,0,3.4-3.4,11.386,11.386,0,0,0,1.133-2.131,11.6,11.6,0,0,0,.714-2.3,12.439,12.439,0,0,0,0-4.8Z" transform="translate(-339.25 -123.498)" fill="#104ce5"/>
        </g>
      </g>
      <g id="Group_1159" data-name="Group 1159" transform="translate(36.564 0.023)">
        <g id="Group_1158" data-name="Group 1158">
          <path id="Path_857" data-name="Path 857" d="M611.345,41.732H538.123a12.315,12.315,0,0,0-12.315,12.315V64.68H491.47a12.315,12.315,0,0,0-12.315,12.315v3.544C459.138,78.792,452.554,75,434.171,64.4c-14.138-8.153-35.506-20.474-73.987-37.775-.179-.081-.358-.156-.542-.228-12.526-4.929-45.354-14.625-80.417,1.265L229.67,45.4,187.9,3.63a12.315,12.315,0,0,0-17.416,0L33.344,140.768a12.214,12.214,0,0,0,0,17.417L267.684,392.526c3.75,3.751,12.531,4.885,17.417,0l125.2-125.2c3.255.281,6.633.432,10.134.432,32.174,0,60.635-22.071,76.917-46.128H611.345a12.315,12.315,0,0,0,12.315-12.315V54.047A12.315,12.315,0,0,0,611.345,41.732ZM179.189,29.754l28.069,28.069a53.692,53.692,0,0,1-56.137,0ZM87.538,177.545l-28.069-28.07,28.069-28.069a53.694,53.694,0,0,1,0,56.138ZM276.394,366.4,248.33,338.337a53.619,53.619,0,0,1,56.126,0ZM322.2,320.6a78.26,78.26,0,0,0-91.612,0L105.28,195.287a78.262,78.262,0,0,0,0-91.622l28.1-28.1a78.262,78.262,0,0,0,91.622,0L251.638,102.2a48.812,48.812,0,0,0-36.645,26.851,70.19,70.19,0,1,0,80.7,86.891l41.581,14.112a78.625,78.625,0,0,0,13.045,62.416ZM247.326,199.522c.108.039.217.079.326.116L272.278,208a45.571,45.571,0,1,1-61.853-52.051C212.7,174.863,226.32,191.726,247.326,199.522Zm120.742,75.2a53.865,53.865,0,0,1-7.868-25.611,95.757,95.757,0,0,0,21.719,11.76ZM479.154,204.4c-11.672,19.135-34.31,38.72-58.716,38.72a89.635,89.635,0,0,1-12.847-.9l-.048-.007c-26.6-3.863-40.9-18.979-45.618-24.964-.251-.369-1.321-1.77-1.48-2a12.271,12.271,0,0,0-6.787-5.644l-97.915-33.232c-15.625-5.864-23.885-19.245-20.1-32.59l.007-.026a.287.287,0,0,0,.009-.031,23.993,23.993,0,0,1,29.47-16.518L375.464,162.17a12.315,12.315,0,0,0,7.441-23.48l-87.751-27.808-.766-.766c-.007-.007-.015-.016-.023-.023l-45.43-45.43L287.982,50.68c.132-.048.294-.108.425-.161l.129-.052q.251-.1.5-.214c26.4-12.133,51.492-4.871,61.328-1.046,37.171,16.725,57.01,28.165,71.505,36.523,20.152,11.622,29.863,17.221,57.287,19.486ZM525.808,197H503.785V89.31h22.023Zm73.222,0H550.438V66.362H599.03Z" transform="translate(-29.691 -0.023)" fill="#104ce5"/>
        </g>
      </g>
    </g>
  </g>
</svg>
