<svg xmlns="http://www.w3.org/2000/svg" width="24.023" height="17.253" viewBox="0 0 24.023 17.253">
  <g id="preview" transform="translate(0 0)">
    <path id="Path_593" data-name="Path 593" d="M23.966,86.71a15.617,15.617,0,0,0-3.083-3.279,15.243,15.243,0,0,0-3.742-2.249,13.338,13.338,0,0,0-10.26,0,15.243,15.243,0,0,0-3.742,2.249A15.607,15.607,0,0,0,.057,86.71a.352.352,0,0,0,0,.383,15.606,15.606,0,0,0,3.083,3.279,15.249,15.249,0,0,0,3.742,2.25,13.342,13.342,0,0,0,8.613.563.353.353,0,0,0-.185-.681,12.59,12.59,0,0,1-3.3.438A13.421,13.421,0,0,1,3.6,89.84,15.844,15.844,0,0,1,.782,86.9,15.844,15.844,0,0,1,3.6,83.964a13.421,13.421,0,0,1,8.409-3.1,13.422,13.422,0,0,1,8.409,3.1,15.844,15.844,0,0,1,2.82,2.938,15.708,15.708,0,0,1-6.375,5.071.353.353,0,0,0,.27.652,15.985,15.985,0,0,0,5.077-3.449,14.128,14.128,0,0,0,1.754-2.082.353.353,0,0,0,0-.383Zm0,0" transform="translate(0 -76.395)" fill="#0337bb"/>
    <path id="Path_594" data-name="Path 594" d="M149.523,112.219a5.242,5.242,0,1,0,5.242,5.242,5.248,5.248,0,0,0-5.242-5.242Zm0,9.778a4.536,4.536,0,1,1,4.537-4.536A4.542,4.542,0,0,1,149.523,122Zm0,0" transform="translate(-137.511 -106.954)" fill="#0337bb"/>
    <path id="Path_595" data-name="Path 595" d="M225.918,192.375a1.481,1.481,0,1,0,1.481,1.481A1.483,1.483,0,0,0,225.918,192.375Zm0,2.257a.776.776,0,1,1,.776-.776A.777.777,0,0,1,225.918,194.632Zm0,0" transform="translate(-213.907 -183.349)" fill="#0337bb"/>
    <path id="Path_596" data-name="Path 596" d="M248.837,1.833a.353.353,0,0,0,.353-.353V.353a.353.353,0,1,0-.705,0V1.481A.353.353,0,0,0,248.837,1.833Zm0,0" transform="translate(-236.826)" fill="#0337bb"/>
    <path id="Path_597" data-name="Path 597" d="M140.885,30.5a.353.353,0,0,0,.611-.353l-.564-.977a.353.353,0,0,0-.611.353Zm0,0" transform="translate(-133.693 -27.636)" fill="#0337bb"/>
    <path id="Path_598" data-name="Path 598" d="M344.849,30.631a.356.356,0,0,0,.482-.129l.564-.977a.353.353,0,1,0-.611-.353l-.564.977a.353.353,0,0,0,.129.482Zm0,0" transform="translate(-328.501 -27.636)" fill="#0337bb"/>
  </g>
</svg>
