<svg xmlns="http://www.w3.org/2000/svg" xmlns:xlink="http://www.w3.org/1999/xlink" width="455" height="776" viewBox="0 0 455 776">
  <defs>
    <filter id="Rectangle_617" x="0" y="0" width="455" height="776" filterUnits="userSpaceOnUse">
      <feOffset input="SourceAlpha"/>
      <feGaussianBlur stdDeviation="11" result="blur"/>
      <feFlood flood-color="#95afc0" flood-opacity="0.239"/>
      <feComposite operator="in" in2="blur"/>
      <feComposite in="SourceGraphic"/>
    </filter>
  </defs>
  <g id="price-1" transform="translate(-262 -3590)">
    <g transform="matrix(1, 0, 0, 1, 262, 3590)" filter="url(#Rectangle_617)">
      <rect id="Rectangle_617-2" data-name="Rectangle 617" width="389" height="710" rx="10" transform="translate(33 33)" fill="#fff"/>
    </g>
    <path id="Path_1309" data-name="Path 1309" d="M10,0H379c5.523,0,10,3.791,10,8.467V237.912c0,4.676-102.9-20.16-190.426-24.13S0,237.912,0,237.912V8.467C0,3.791,4.477,0,10,0Z" transform="translate(295 3623)" fill="#2c81ff"/>
    <text id="Inventoryio_Free" data-name="Inventoryio Free" transform="translate(576 3741)" fill="#ecf2f4" font-size="20" font-family="Montserrat-Bold, Montserrat" font-weight="700"><tspan x="-171.66" y="0">Inventoryio Free</tspan></text>
    <path id="Path_1310" data-name="Path 1310" d="M0,0S11.461-3.633,18.211-3.184,30.354-.236,36.615,0,50.635-3.4,57.99-3.184s11.875,3,19.2,3.184S89.352-3.184,97.139-3.184,108.01,0,117.9,0s8.7-3.184,18.805-3.184S148.385,0,158.333,0s10.25-3.184,18.167-3.184A29.647,29.647,0,0,1,190,0" transform="translate(394.5 3758.5)" fill="none" stroke="#f3f4f9" stroke-linecap="round" stroke-width="1"/>
    <g id="balloon" transform="translate(472.001 3802)">
      <g id="Group_1218" data-name="Group 1218">
        <g id="Group_1217" data-name="Group 1217">
          <path id="Path_1311" data-name="Path 1311" d="M34.131,14.221A7.119,7.119,0,0,0,27.02,7.111c-.135,0-.275.028-.409.04A9.942,9.942,0,0,0,8.894,4.284c-.12-.006-.239-.018-.361-.018A8.542,8.542,0,0,0,0,12.8c0,4.246,3.173,9.116,7.435,9.85l-.249.5a.709.709,0,0,0,.031.692.7.7,0,0,0,.522.316A3.14,3.14,0,0,1,7.23,25.2a4.262,4.262,0,0,0,0,5.055A2.689,2.689,0,0,1,7.822,32a.711.711,0,1,0,1.422,0,4.085,4.085,0,0,0-.83-2.528,2.851,2.851,0,0,1,0-3.477,4.281,4.281,0,0,0,.766-1.817h.064a.711.711,0,0,0,.636-1.029l-.25-.5a7.85,7.85,0,0,0,3.994-2.1,8.357,8.357,0,0,0,2.112.656l-1.373,1.831a.711.711,0,0,0,.569,1.137H16.3a3.9,3.9,0,0,1-.564,1.425,5.418,5.418,0,0,0,0,5.683,3.691,3.691,0,0,1,.617,2.136.711.711,0,0,0,1.422,0,5.049,5.049,0,0,0-.8-2.841,4,4,0,0,1,0-4.272,5.213,5.213,0,0,0,.751-2.13H19.2a.711.711,0,0,0,.569-1.137l-1.373-1.831a8.716,8.716,0,0,0,3.458-1.4,7.026,7.026,0,0,0,4.083,2.82l-.262.523a.711.711,0,0,0,.636,1.029h.076a3.458,3.458,0,0,0,.791,1.511,1.878,1.878,0,0,1,0,2.666,3.22,3.22,0,0,0-.867,2.222.711.711,0,1,0,1.422,0,1.836,1.836,0,0,1,.555-1.333,3.282,3.282,0,0,0,0-4.444,2.8,2.8,0,0,1-.428-.655.7.7,0,0,0,.477-.3.709.709,0,0,0,.031-.692l-.262-.524C31.524,21.872,34.131,17.723,34.131,14.221Zm-25.6,7.111c-3.939,0-7.111-4.668-7.111-8.533a7.1,7.1,0,0,1,6.64-7.063,9.878,9.878,0,0,0-.951,4.219,12.4,12.4,0,0,0,5.181,9.857A5.939,5.939,0,0,1,8.533,21.332Zm7.822,1.422.711-.948.711.948H16.354Zm.711-2.844c-4.805,0-8.533-5.351-8.533-9.955a8.533,8.533,0,1,1,17.065,0C25.6,14.559,21.871,19.91,17.065,19.91Zm9.955,1.422a5.235,5.235,0,0,1-4.055-2.413A12.525,12.525,0,0,0,27.02,9.955a9.936,9.936,0,0,0-.112-1.411c.038,0,.073-.011.112-.011a5.7,5.7,0,0,1,5.688,5.688C32.709,17.422,30.084,21.332,27.02,21.332Z" fill="#fff"/>
          <path id="Path_1312" data-name="Path 1312" d="M153.834,52.752a7.086,7.086,0,0,0-3.9,5.579.712.712,0,0,0,.628.785.763.763,0,0,0,.079,0,.711.711,0,0,0,.706-.633,5.67,5.67,0,0,1,3.125-4.464.711.711,0,1,0-.635-1.272Z" transform="translate(-139.93 -49.166)" fill="#fff"/>
          <path id="Path_1313" data-name="Path 1313" d="M44.292,129.356a5.654,5.654,0,0,0-1.625,3.977.711.711,0,1,0,1.422,0,4.242,4.242,0,0,1,1.219-2.982.711.711,0,1,0-1.017-.994Z" transform="translate(-39.823 -120.534)" fill="#fff"/>
        </g>
      </g>
    </g>
    <g id="Group_1219" data-name="Group 1219" transform="translate(18 271)">
      <text id="p.m" transform="translate(513 3633)" fill="#95afc0" font-size="15" font-family="Montserrat-Bold, Montserrat" font-weight="700"><tspan x="0" y="0">p.m</tspan></text>
      <text id="R00.00" transform="translate(400 3633)" fill="#2e344c" font-size="30" font-family="Montserrat-Bold, Montserrat" font-weight="700"><tspan x="0" y="0">R00.00</tspan></text>
    </g>
    <g id="Group_1220" data-name="Group 1220" transform="translate(17 271)">
      <rect id="Rectangle_618" data-name="Rectangle 618" width="389" height="44" transform="translate(278 3684)" fill="#a1cdfb" opacity="0.1"/>
      <text id="_1_user" data-name="1 user" transform="translate(451 3712)" fill="#2e344c" font-size="15" font-family="Montserrat-SemiBold, Montserrat" font-weight="600"><tspan x="0" y="0">1 user</tspan></text>
    </g>
    <rect id="Rectangle_618-2" data-name="Rectangle 618" width="389" height="44" transform="translate(295 3999)" fill="#fff" opacity="0.1"/>
    <text id="Max_20_items" data-name="Max 20 items" transform="translate(440 4027)" fill="#2e344c" font-size="15" font-family="Montserrat-SemiBold, Montserrat" font-weight="600"><tspan x="0" y="0">Max 20 items</tspan></text>
    <rect id="Rectangle_618-3" data-name="Rectangle 618" width="389" height="44" transform="translate(295 4043)" fill="#a1cdfb" opacity="0.1"/>
    <text id="_20_Sale_orders_p.m" data-name="20 Sale orders p.m" transform="translate(419 4071)" fill="#2e344c" font-size="15" font-family="Montserrat-SemiBold, Montserrat" font-weight="600"><tspan x="0" y="0">20 Sale orders p.m</tspan></text>
    <rect id="Rectangle_618-4" data-name="Rectangle 618" width="389" height="44" transform="translate(295 4087)" fill="#fff" opacity="0.1"/>
    <rect id="Rectangle_619" data-name="Rectangle 619" width="389" height="44" transform="translate(295 4175)" fill="#fff" opacity="0.1"/>
    <text id="_1_module" data-name="1 module" transform="translate(455 4115)" fill="#2f2e41" font-size="15" font-family="Montserrat-SemiBold, Montserrat" font-weight="600"><tspan x="0" y="0">1 module</tspan></text>
    <text id="Communications" transform="translate(423 4203)" fill="#d3d8df" font-size="15" font-family="Montserrat-SemiBold, Montserrat" font-weight="600"><tspan x="0" y="0">Communications</tspan></text>
    <rect id="Rectangle_618-5" data-name="Rectangle 618" width="389" height="44" transform="translate(295 4131)" fill="#a1cdfb" opacity="0.1"/>
    <text id="_10_Reports" data-name="10 Reports" transform="translate(449 4159)" fill="#333" font-size="15" font-family="Montserrat-SemiBold, Montserrat" font-weight="600"><tspan x="0" y="0">10 Reports</tspan></text>
    <g id="Group_1225" data-name="Group 1225" transform="translate(92 3499)">
      <rect id="Rectangle_610" data-name="Rectangle 610" width="196" height="50" rx="10" transform="translate(300 751)" fill="#d3d8df"/>
      <text id="Get_started" data-name="Get started" transform="translate(356 781)" fill="#fff" font-size="13" font-family="Montserrat-Bold, Montserrat" font-weight="700"><tspan x="0" y="0">Get started</tspan></text>
    </g>
  </g>
</svg>
