<svg xmlns="http://www.w3.org/2000/svg" width="219.068" height="222.764" viewBox="0 0 219.068 222.764">
  <g id="price-tag" transform="translate(2 2.5)">
    <g id="Group_105" data-name="Group 105" transform="translate(0.501 18.455)">
      <path id="Path_219" data-name="Path 219" d="M110.191,5,3.233,112.84a9.336,9.336,0,0,0,0,13.2L78.77,201.576a9.336,9.336,0,0,0,13.2,0L196.114,94.614V5Zm49.015,51.672a14.763,14.763,0,1,1,14.763-14.763A14.764,14.764,0,0,1,159.205,56.672Z" transform="translate(-0.501 -5)" fill="none" stroke="#104CE5" stroke-width="5"/>
      <path id="Path_220" data-name="Path 220" d="M65.027,7A29.527,29.527,0,1,0,94.554,36.527,29.528,29.528,0,0,0,65.027,7Zm0,44.29A14.763,14.763,0,1,1,79.79,36.527,14.764,14.764,0,0,1,65.027,51.29Z" transform="translate(93.678 0.382)" fill="none" stroke="#104CE5" stroke-width="5"/>
    </g>
    <path id="Path_221" data-name="Path 221" d="M46.192,59.055a3.691,3.691,0,0,1-2.609-6.3L95.254,1.082A3.69,3.69,0,0,1,100.473,6.3L48.8,57.973A3.681,3.681,0,0,1,46.192,59.055Z" transform="translate(113.014 0)" fill="#104CE5" stroke="#104CE5" stroke-width="5"/>
    <path id="Path_222" data-name="Path 222" d="M25.841,85.714a3.691,3.691,0,0,1-2.609-6.3L62.384,40.268A3.69,3.69,0,1,1,67.6,45.487L28.45,84.632A3.681,3.681,0,0,1,25.841,85.714Z" transform="translate(58.252 105.444)" fill="none" stroke="#104CE5" stroke-width="5"/>
    <path id="Path_223" data-name="Path 223" d="M39.981,43A3.7,3.7,0,1,1,42.6,36.686a3.751,3.751,0,0,1,1.07,2.621,3.8,3.8,0,0,1-1.07,2.621A3.735,3.735,0,0,1,39.981,43Z" transform="translate(96.304 95.961)" fill="none" stroke="#104CE5" stroke-width="5"/>
    <path id="Path_224" data-name="Path 224" d="M19.478,72.281a3.691,3.691,0,0,1-2.609-6.3L56.013,26.832a3.69,3.69,0,0,1,5.219,5.219L22.087,71.2A3.665,3.665,0,0,1,19.478,72.281Z" transform="translate(41.13 69.29)" fill="none" stroke="#104CE5" stroke-width="5"/>
    <path id="Path_225" data-name="Path 225" d="M27.963,64.181a3.691,3.691,0,0,1-2.609-6.3l26.1-26.1A3.69,3.69,0,1,1,56.67,37l-26.1,26.1A3.665,3.665,0,0,1,27.963,64.181Z" transform="translate(63.962 82.61)" fill="none" stroke="#104CE5" stroke-width="5"/>
    <path id="Path_226" data-name="Path 226" d="M20.892,56.033a3.691,3.691,0,0,1-2.609-6.3L23.5,44.51a3.69,3.69,0,1,1,5.219,5.219L23.5,54.952A3.681,3.681,0,0,1,20.892,56.033Z" transform="translate(44.935 116.859)" fill="none" stroke="#104CE5" stroke-width="5"/>
    <path id="Path_227" data-name="Path 227" d="M10.993,70.864a3.691,3.691,0,0,1-2.609-6.3L47.528,25.418a3.69,3.69,0,0,1,5.219,5.219L13.6,69.782A3.672,3.672,0,0,1,10.993,70.864Z" transform="translate(18.298 65.485)" fill="none" stroke="#104CE5" stroke-width="5"/>
    <path id="Path_228" data-name="Path 228" d="M25.13,28.148a3.655,3.655,0,0,1-3.691-3.691,3.677,3.677,0,0,1,1.111-2.621,3.813,3.813,0,0,1,5.2,0,3.729,3.729,0,0,1,1.07,2.621,3.864,3.864,0,0,1-1.07,2.621A3.815,3.815,0,0,1,25.13,28.148Z" transform="translate(56.342 56.004)" fill="none" stroke="#104CE5" stroke-width="5"/>
    <path id="Path_229" data-name="Path 229" d="M16.651,46.537A3.66,3.66,0,0,1,14.03,45.43a3.7,3.7,0,0,1,0-5.2,3.817,3.817,0,0,1,5.2,0,3.7,3.7,0,0,1,1.107,2.621,3.718,3.718,0,0,1-3.691,3.691Z" transform="translate(33.526 105.487)" fill="none" stroke="#104CE5" stroke-width="5"/>
    <path id="Path_230" data-name="Path 230" d="M25.13,47.948a3.7,3.7,0,1,1,2.621-6.311,3.743,3.743,0,0,1,0,5.241A3.8,3.8,0,0,1,25.13,47.948Z" transform="translate(56.342 109.284)" fill="none" stroke="#104CE5" stroke-width="5"/>
  </g>
</svg>
