<svg xmlns="http://www.w3.org/2000/svg" xmlns:xlink="http://www.w3.org/1999/xlink" width="1280" height="800" viewBox="0 0 1280 800">
  <defs>
    <clipPath id="clip-path">
      <rect width="198" height="50" fill="none"/>
    </clipPath>
    <clipPath id="clip-prodghost">
      <rect width="1280" height="800"/>
    </clipPath>
  </defs>
  <g id="prodghost" clip-path="url(#clip-prodghost)">
    <rect width="1280" height="800" fill="#fff"/>
    <rect id="Rectangle_44" data-name="Rectangle 44" width="1010" height="628" transform="translate(154 134)" fill="#fff" opacity="0.51"/>
    <rect id="Rectangle_45" data-name="Rectangle 45" width="285" height="194" transform="translate(176 166)" fill="#e9e9e9" opacity="0.51"/>
    <rect id="Rectangle_49" data-name="Rectangle 49" width="170" height="4" transform="translate(176 555)" fill="#e9e9e9" opacity="0.51"/>
    <rect id="Rectangle_52" data-name="Rectangle 52" width="170" height="4" transform="translate(176 716)" fill="#e9e9e9" opacity="0.51"/>
    <rect id="Rectangle_49-2" data-name="Rectangle 49" width="170" height="4" transform="translate(176 566)" fill="#e9e9e9" opacity="0.51"/>
    <rect id="Rectangle_53" data-name="Rectangle 53" width="170" height="4" transform="translate(176 727)" fill="#e9e9e9" opacity="0.51"/>
    <rect id="Rectangle_49-3" data-name="Rectangle 49" width="215" height="4" transform="translate(176 577)" fill="#e9e9e9" opacity="0.51"/>
    <rect id="Rectangle_54" data-name="Rectangle 54" width="215" height="4" transform="translate(176 738)" fill="#e9e9e9" opacity="0.51"/>
    <rect id="Rectangle_49-4" data-name="Rectangle 49" width="170" height="4" transform="translate(176 588)" fill="#e9e9e9" opacity="0.51"/>
    <rect id="Rectangle_55" data-name="Rectangle 55" width="170" height="4" transform="translate(176 749)" fill="#e9e9e9" opacity="0.51"/>
    <rect id="Rectangle_49-5" data-name="Rectangle 49" width="194" height="4" transform="translate(176 599)" fill="#e9e9e9" opacity="0.51"/>
    <rect id="Rectangle_56" data-name="Rectangle 56" width="194" height="4" transform="translate(176 760)" fill="#e9e9e9" opacity="0.51"/>
    <rect id="Rectangle_49-6" data-name="Rectangle 49" width="170" height="4" transform="translate(176 610)" fill="#e9e9e9" opacity="0.51"/>
    <rect id="Rectangle_57" data-name="Rectangle 57" width="170" height="4" transform="translate(176 771)" fill="#e9e9e9" opacity="0.51"/>
    <rect id="Rectangle_49-7" data-name="Rectangle 49" width="186" height="4" transform="translate(176 621)" fill="#e9e9e9" opacity="0.51"/>
    <rect id="Rectangle_51" data-name="Rectangle 51" width="538" height="64" transform="translate(176 465)" fill="#e9e9e9" opacity="0.51"/>
    <rect id="Rectangle_50" data-name="Rectangle 50" width="538" height="64" transform="translate(176 642)" fill="#e9e9e9" opacity="0.51"/>
    <rect id="Rectangle_59" data-name="Rectangle 59" width="538" height="43" transform="translate(176 97)" fill="#e9e9e9" opacity="0.51"/>
    <rect id="Rectangle_47" data-name="Rectangle 47" width="285" height="50" transform="translate(517 166)" fill="#e9e9e9" opacity="0.51"/>
    <rect id="Rectangle_58" data-name="Rectangle 58" width="1285" height="50" transform="translate(-5)" fill="#e9e9e9" opacity="0.51"/>
    <rect id="Rectangle_47-2" data-name="Rectangle 47" width="215" height="50" transform="translate(517 236)" fill="#e9e9e9" opacity="0.51"/>
    <rect id="Rectangle_47-3" data-name="Rectangle 47" width="142" height="50" transform="translate(517 306)" fill="#e9e9e9" opacity="0.51"/>
    <rect id="Rectangle_48" data-name="Rectangle 48" width="142" height="50" transform="translate(703 306)" fill="#e9e9e9" opacity="0.51"/>
    <g id="Repeat_Grid_2" data-name="Repeat Grid 2" transform="translate(176 372)" clip-path="url(#clip-path)">
      <g transform="translate(-178 -353)">
        <rect id="Rectangle_46" data-name="Rectangle 46" width="49" height="50" transform="translate(178 353)" fill="#e9e9e9" opacity="0.51"/>
      </g>
      <g transform="translate(-107 -353)">
        <rect id="Rectangle_46-2" data-name="Rectangle 46" width="49" height="50" transform="translate(178 353)" fill="#e9e9e9" opacity="0.51"/>
      </g>
      <g transform="translate(-36 -353)">
        <rect id="Rectangle_46-3" data-name="Rectangle 46" width="49" height="50" transform="translate(178 353)" fill="#e9e9e9" opacity="0.51"/>
      </g>
    </g>
  </g>
</svg>
