<svg xmlns="http://www.w3.org/2000/svg" width="1104.245" height="1137.095" viewBox="0 0 1104.245 1137.095">
  <g id="purchase" transform="translate(-17.294 -19.354)">
    <g id="Group_385" data-name="Group 385" transform="translate(17.294 19.353)">
      <path id="Path_818" data-name="Path 818" d="M0,30.073C0,44.179,12.218,60,25.68,60H159.7L321.805,815.1c2.669,12.906,13.484,22.866,24.875,22.913H963c13.565.222,26.044-14.113,26.044-29.926S976.569,777.935,963,778.16H366.743L341.064,658.467h647.62l73.43-314.2H273.653l-12.84-59.847h815.342l28.09-119.694H235.133l-30.5-142.136C201.816,9.857,191.048.144,179.761.149H25.68C10.91.149,0,15.967,0,30.073Zm462.241,897.7c-49.637,0-89.879,46.891-89.879,104.734s40.242,104.734,89.879,104.734,89.882-46.891,89.882-104.734S511.881,927.776,462.241,927.776Zm385.2,0c-49.64,0-89.882,46.891-89.882,104.734s40.242,104.734,89.882,104.734,89.879-46.891,89.879-104.734S897.081,927.776,847.444,927.776Z" transform="translate(0 -0.149)" fill="#104ce5" fill-rule="evenodd"/>
    </g>
  </g>
</svg>
