<svg xmlns="http://www.w3.org/2000/svg" width="1137.988" height="1167.132" viewBox="0 0 1137.988 1167.132">
  <g id="Group_389" data-name="Group 389" transform="translate(5739.815 15954.037)">
    <g id="purchase" transform="translate(-5724.815 -15939.037)">
      <g id="Group_388" data-name="Group 388" transform="translate(0 0)">
        <path id="Path_823" data-name="Path 823" d="M0,30.074C0,44.18,12.216,60,25.676,60h134l162.08,755.124c2.669,12.907,13.481,22.867,24.871,22.914H962.844c13.562.222,26.04-14.113,26.04-29.927s-12.477-30.149-26.04-29.923H366.682l-25.675-119.7H988.519l73.417-314.208H273.608L260.77,284.432h815.206l28.085-119.7H235.094L204.6,22.592C201.782,9.858,191.016.144,179.731.149H25.676C10.908.149,0,15.967,0,30.074ZM462.164,927.806c-49.629,0-89.864,46.893-89.864,104.737s40.235,104.737,89.864,104.737,89.867-46.893,89.867-104.737S511.8,927.806,462.164,927.806Zm385.139,0c-49.632,0-89.867,46.893-89.867,104.737s40.235,104.737,89.867,104.737,89.864-46.893,89.864-104.737S896.931,927.806,847.3,927.806Z" transform="translate(0 -0.149)" fill="none" stroke="#104ce5" stroke-width="30" fill-rule="evenodd"/>
      </g>
    </g>
  </g>
</svg>
