<svg xmlns="http://www.w3.org/2000/svg" width="46.084" height="46.088" viewBox="0 0 46.084 46.088">
  <g id="start-up" transform="translate(-0.001)">
    <path id="Path_297" data-name="Path 297" d="M45.888,1.39A1.35,1.35,0,0,0,44.7.2C34.01-.99,24.9,3.284,17.473,10.932a55.706,55.706,0,0,0-5.545,6.742,10.721,10.721,0,0,0-7.712,3.191L.4,24.684a1.35,1.35,0,0,0,1.3,2.259,18.8,18.8,0,0,1,3.709-.579,10.428,10.428,0,0,1,1.275.011C5.842,28,5.2,29.354,4.982,29.694a1.351,1.351,0,0,0,.188,1.674l2.21,2.21c-3.216,4.386-3.269,6.633-3.258,6.951a1.357,1.357,0,0,0,1.42,1.306c.754,0,2.916-.32,6.852-3.243l2.325,2.325A1.351,1.351,0,0,0,16.4,41.1c.364-.234,1.642-.853,3.174-1.654a32.984,32.984,0,0,1-.466,5.094A1.351,1.351,0,0,0,21.4,45.69l3.819-3.819a10.665,10.665,0,0,0,3.027-7.639A55.756,55.756,0,0,0,35.342,28.4C42.917,20.972,47.06,11.933,45.888,1.39Zm-2.583,1.39a26.964,26.964,0,0,1-.684,8.464,11.89,11.89,0,0,1-4.758-3.021,11.877,11.877,0,0,1-3.027-4.777,27.223,27.223,0,0,1,8.47-.666ZM5.234,23.666l.891-.891A8.526,8.526,0,0,1,10,20.572c-.728,1.156-1.377,2.259-1.95,3.278a10.845,10.845,0,0,0-2.814-.185Zm2.555,6.5c.292-.577.646-1.3,1.294-2.525l1.777,1.778q-.992,1.064-1.8,2.022Zm6.6-.517a3.993,3.993,0,0,1,3.1-1.188,4.038,4.038,0,0,1-1.19,3.1c-4.192,4.192-7.065,6.064-8.784,6.9.848-1.751,2.725-4.66,6.874-8.809Zm1.519,8.638L14.518,36.9q.954-.81,2.017-1.8l1.892,1.892c-1.244.664-1.763.914-2.516,1.3Zm7.4,1.672L22.23,41.042a13.177,13.177,0,0,0-.066-3c.993-.559,2.071-1.193,3.2-1.9a7.963,7.963,0,0,1-2.054,3.821Zm-2.426-4.336L18.464,33.2c1.791-1.971,1.725-3.871,1.725-6.09a1.35,1.35,0,0,0-1.35-1.35c-2.073,0-4.068-.111-6.09,1.725l-2.312-2.312C16.75,14.107,24.047,7.1,32.246,4.213a14.542,14.542,0,0,0,3.708,5.919,14.549,14.549,0,0,0,5.892,3.7c-2.9,8.154-9.91,15.446-20.96,21.794Zm0,0" transform="translate(0 0)" fill="#0337bb"/>
    <path id="Path_298" data-name="Path 298" d="M261.716,113.809a6.752,6.752,0,1,0,0,9.548A6.76,6.76,0,0,0,261.716,113.809Zm-1.91,7.639a4.051,4.051,0,1,1,0-5.729A4.056,4.056,0,0,1,259.806,121.447Zm0,0" transform="translate(-227.672 -101.767)" fill="#0337bb"/>
  </g>
</svg>
