<svg id="search-nav" xmlns="http://www.w3.org/2000/svg" width="19.91" height="18.67" viewBox="0 0 19.91 18.67">
  <path id="Path_546" data-name="Path 546" d="M19.789,17.455,14,12.032A7.075,7.075,0,0,0,15.762,7.39,7.656,7.656,0,0,0,7.881,0,7.656,7.656,0,0,0,0,7.39a7.656,7.656,0,0,0,7.881,7.39,8.168,8.168,0,0,0,4.951-1.648l5.784,5.423a.435.435,0,0,0,.587,0l.586-.55A.372.372,0,0,0,19.789,17.455ZM7.881,13.224A6.044,6.044,0,0,1,1.659,7.39,6.044,6.044,0,0,1,7.881,1.556,6.044,6.044,0,0,1,14.1,7.39,6.044,6.044,0,0,1,7.881,13.224Z" transform="translate(0 0)" fill="#333"/>
</svg>
