<svg xmlns="http://www.w3.org/2000/svg" width="28.27" height="26.799" viewBox="0 0 28.27 26.799">
  <path id="search-nav" d="M25.115,22.154l-7.341-6.883a8.98,8.98,0,0,0,2.23-5.892C20.005,4.207,15.518,0,10,0S0,4.207,0,9.379s4.487,9.379,10,9.379a10.367,10.367,0,0,0,6.283-2.091l7.341,6.883a.552.552,0,0,0,.745,0l.744-.7A.472.472,0,0,0,25.115,22.154ZM10,16.784a7.671,7.671,0,0,1-7.9-7.4,7.671,7.671,0,0,1,7.9-7.4,7.671,7.671,0,0,1,7.9,7.4A7.671,7.671,0,0,1,10,16.784Z" transform="translate(1.5 1.5)" fill="#333" stroke="#333" stroke-width="3"/>
</svg>
