<svg xmlns="http://www.w3.org/2000/svg" width="1103.83" height="965.309" viewBox="0 0 1103.83 965.309">
  <g id="selling" transform="translate(-20.9 -21.9)">
    <g id="Group_386" data-name="Group 386" transform="translate(20.9 21.9)">
      <path id="Path_819" data-name="Path 819" d="M1084.033,538.766H891.039c-15.755,0-19.693,7.124-19.693,17.81v99.737L725.615,610.006H520.8c-39.387,0-70.9,17.81-74.835,53.43v14.248c0,39.182,35.448,74.8,74.835,74.8H725.615s-303.277,35.62-362.357,35.62S99.367,649.189,20.593,659.875C16.655,659.875.9,663.437.9,670.561v39.182c0,64.116,256.013,252.9,330.848,252.9,78.773,0,374.173-46.306,374.173-46.306l161.485-60.555v96.175c0,14.248,3.939,14.248,19.693,14.248h200.872c15.755,0,15.755-7.124,15.755-21.372V556.576c3.939-10.686-3.939-17.81-19.693-17.81Zm-55.141,356.2H950.119V610.006h78.773V894.969ZM335.687.9C154.508.9,4.839,136.257,4.839,300.11S154.508,599.32,335.687,599.32,666.535,463.963,666.535,300.11C666.535,132.695,516.865.9,335.687.9Zm23.632,466.625h0V510.27c0,14.248-3.939,21.372-19.693,21.372s-19.693-10.686-19.693-21.372V467.525H256.913c-15.755,0-23.632-3.562-23.632-17.81s7.877-17.81,23.632-17.81H359.319c27.571,0,47.264-28.5,47.264-49.868,0-28.5-23.632-56.992-47.264-56.992h-51.2c-55.141,0-98.467-39.182-98.467-85.489-3.939-53.43,43.325-92.613,94.528-92.613h15.755V97.075c0-14.248,3.939-21.372,19.693-21.372s19.693,7.124,19.693,21.372v49.868h51.2c15.755,0,23.632,3.562,23.632,17.81s-11.816,17.81-23.632,17.81H308.116c-27.571,0-51.2,28.5-51.2,49.868,0,28.5,23.632,56.992,47.264,56.992h55.141c55.141,0,98.467,39.182,98.467,89.051,3.939,49.868-43.325,89.051-98.467,89.051Z" transform="translate(-0.9 -0.9)" fill="#104ce5"/>
    </g>
  </g>
</svg>
