<svg xmlns="http://www.w3.org/2000/svg" width="1132.547" height="993.548" viewBox="0 0 1132.547 993.548">
  <g id="selling" transform="translate(-5.9 -6.9)">
    <g id="Group_391" data-name="Group 391" transform="translate(22.4 23.4)">
      <g id="Group_390" data-name="Group 390" transform="translate(0 0)">
        <path id="Path_824" data-name="Path 824" d="M1082.766,537.784H890c-15.736,0-19.67,7.111-19.67,17.778v99.555L724.767,608.9H520.2c-39.341,0-70.813,17.778-74.747,53.333V676.45c0,39.111,35.407,74.666,74.747,74.666H724.767s-302.922,35.555-361.933,35.555S99.251,648.006,20.57,658.672c-3.934,0-19.67,3.555-19.67,10.667V708.45c0,64,255.714,252.442,330.461,252.442,78.681,0,373.735-46.222,373.735-46.222l161.3-60.444v96c0,14.222,3.934,14.222,19.67,14.222H1086.7c15.736,0,15.736-7.111,15.736-21.333V555.562c3.934-10.667-3.934-17.778-19.67-17.778Zm-55.077,355.553H949.008V608.9h78.681V893.337ZM335.295.9C154.328.9,4.834,136.01,4.834,299.564S154.328,598.228,335.295,598.228s330.461-135.11,330.461-298.664C665.756,132.454,516.262.9,335.295.9Zm23.6,465.774h0V509.34c0,14.222-3.934,21.333-19.67,21.333s-19.67-10.667-19.67-21.333V466.674H256.614c-15.736,0-23.6-3.556-23.6-17.778s7.868-17.778,23.6-17.778H358.9c27.538,0,47.209-28.444,47.209-49.777,0-28.444-23.6-56.888-47.209-56.888H307.756c-55.077,0-98.351-39.111-98.351-85.333-3.934-53.333,43.275-92.444,94.417-92.444h15.736V96.9c0-14.222,3.934-21.333,19.67-21.333S358.9,82.677,358.9,96.9v49.777h51.143c15.736,0,23.6,3.556,23.6,17.778s-11.8,17.778-23.6,17.778H307.756c-27.538,0-51.143,28.444-51.143,49.777,0,28.444,23.6,56.888,47.209,56.888H358.9c55.077,0,98.351,39.111,98.351,88.888,3.934,49.777-43.275,88.888-98.351,88.888Z" transform="translate(-0.9 -0.9)" fill="rgba(255,255,255,0.7)"/>
      </g>
    </g>
    <g id="Group_393" data-name="Group 393" transform="translate(20.9 21.9)">
      <g id="Group_392" data-name="Group 392" transform="translate(0 0)">
        <path id="Path_825" data-name="Path 825" d="M1082.766,537.784H890c-15.736,0-19.67,7.111-19.67,17.778v99.555L724.767,608.9H520.2c-39.341,0-70.813,17.778-74.747,53.333V676.45c0,39.111,35.407,74.666,74.747,74.666H724.767s-302.922,35.555-361.933,35.555S99.251,648.006,20.57,658.672c-3.934,0-19.67,3.555-19.67,10.667V708.45c0,64,255.714,252.442,330.461,252.442,78.681,0,373.735-46.222,373.735-46.222l161.3-60.444v96c0,14.222,3.934,14.222,19.67,14.222H1086.7c15.736,0,15.736-7.111,15.736-21.333V555.562c3.934-10.667-3.934-17.778-19.67-17.778Zm-55.077,355.553H949.008V608.9h78.681V893.337ZM335.295.9C154.328.9,4.834,136.01,4.834,299.564S154.328,598.228,335.295,598.228s330.461-135.11,330.461-298.664C665.756,132.454,516.262.9,335.295.9Zm23.6,465.774h0V509.34c0,14.222-3.934,21.333-19.67,21.333s-19.67-10.667-19.67-21.333V466.674H256.614c-15.736,0-23.6-3.556-23.6-17.778s7.868-17.778,23.6-17.778H358.9c27.538,0,47.209-28.444,47.209-49.777,0-28.444-23.6-56.888-47.209-56.888H307.756c-55.077,0-98.351-39.111-98.351-85.333-3.934-53.333,43.275-92.444,94.417-92.444h15.736V96.9c0-14.222,3.934-21.333,19.67-21.333S358.9,82.677,358.9,96.9v49.777h51.143c15.736,0,23.6,3.556,23.6,17.778s-11.8,17.778-23.6,17.778H307.756c-27.538,0-51.143,28.444-51.143,49.777,0,28.444,23.6,56.888,47.209,56.888H358.9c55.077,0,98.351,39.111,98.351,88.888,3.934,49.777-43.275,88.888-98.351,88.888Z" transform="translate(-0.9 -0.9)" fill="rgba(0,0,0,0)" stroke="#104ce5" stroke-width="30"/>
      </g>
    </g>
  </g>
</svg>
