<svg xmlns="http://www.w3.org/2000/svg" width="80.008" height="66.22" viewBox="0 0 80.008 66.22">
  <g id="send" transform="translate(0 -45.117)">
    <path id="Path_572" data-name="Path 572" d="M79.383,45.356a1.275,1.275,0,0,0-1.241-.138L8.276,73.412,0,76.847,25.008,86.971h.028v.014l6.69,23.353a1.379,1.379,0,0,0,2.3.593L47.961,96.682l18.8,7.393a2.723,2.723,0,0,0,3.724-2.124l9.49-55.161A1.358,1.358,0,0,0,79.383,45.356ZM38.871,92.985l.028-.1.041.014Z" fill="#2c81ff"/>
    <path id="Path_573" data-name="Path 573" d="M231.708,354.714l-13.932,14.249a1.519,1.519,0,0,0,.345-.621l4.5-17.325.069-.083,5.987,2.51,2.676,1.131Z" transform="translate(-183.747 -258.032)" fill="#2c81ff"/>
    <path id="Path_574" data-name="Path 574" d="M214.6,47.124,174.05,94.6l-.041-.014-.028.1L169.484,112a1.516,1.516,0,0,1-.345.621,1.379,1.379,0,0,1-2.3-.593l-6.69-23.353v-.014h-.014v-.014Z" transform="translate(-135.11 -1.694)" fill="#104ce5"/>
  </g>
</svg>
