<svg xmlns="http://www.w3.org/2000/svg" width="26.143" height="25.308" viewBox="0 0 26.143 25.308">
  <g id="settings-white" transform="translate(0 -0.428)">
    <path id="Path_1063" data-name="Path 1063" d="M17.537,12.019a2.716,2.716,0,0,1,1.811-.446l7.143-7.145-4-4L15.347,7.573a2.7,2.7,0,0,1-.465,1.833Z" transform="translate(-0.348)" fill="#f3f4f9"/>
    <path id="Path_1064" data-name="Path 1064" d="M4.749,21.1l-.259-.259L3.135,21.934.854,25.529l.584.584,3.6-2.281L6.13,22.481l-.26-.263,4.543-4.544L9.284,16.561Z" transform="translate(-0.02 -0.378)" fill="#f3f4f9"/>
    <path id="Path_1065" data-name="Path 1065" d="M10.942,8.137a5.568,5.568,0,0,0-6.825-6.88L7.274,4.414,6.445,7.506l-3.1.828L.193,5.179a5.575,5.575,0,0,0,7.117,6.756l.018.018L20.316,24.941a2.632,2.632,0,1,0,3.722-3.722ZM22.4,24.5a1,1,0,1,1,1.007-1A1,1,0,0,1,22.4,24.5Z" transform="translate(0 -0.015)" fill="#f3f4f9"/>
  </g>
</svg>
