<svg xmlns="http://www.w3.org/2000/svg" width="108.572" height="93.51" viewBox="0 0 108.572 93.51">
  <g id="shopping-nav" transform="translate(2.5 2.5)">
    <path id="Path_641" data-name="Path 641" d="M33.362,60.674H88.381a3.034,3.034,0,0,0,2.917-2.2L103.432,16a3.033,3.033,0,0,0-2.917-3.867H26.366L24.2,2.376A3.034,3.034,0,0,0,21.235,0H3.033a3.034,3.034,0,1,0,0,6.067H18.8c.384,1.729,10.378,46.7,10.953,49.289A9.1,9.1,0,0,0,33.37,72.808h55.01a3.034,3.034,0,1,0,0-6.067H33.37a3.033,3.033,0,0,1-.008-6.067ZM96.493,18.2l-10.4,36.4H35.8l-8.09-36.4Zm0,0" transform="translate(0 0)" fill="#333" stroke="#333" stroke-width="5"/>
    <path id="Path_642" data-name="Path 642" d="M150,369.1a9.1,9.1,0,1,0,9.1-9.1A9.111,9.111,0,0,0,150,369.1Zm9.1-3.034a3.034,3.034,0,1,1-3.034,3.034A3.038,3.038,0,0,1,159.1,366.067Zm0,0" transform="translate(-119.663 -287.192)" fill="#333"/>
    <path id="Path_643" data-name="Path 643" d="M362,369.1a9.1,9.1,0,1,0,9.1-9.1A9.111,9.111,0,0,0,362,369.1Zm9.1-3.034a3.034,3.034,0,1,1-3.033,3.034A3.038,3.038,0,0,1,371.1,366.067Zm0,0" transform="translate(-288.788 -287.192)" fill="#333"/>
  </g>
</svg>
