<svg xmlns="http://www.w3.org/2000/svg" xmlns:xlink="http://www.w3.org/1999/xlink" width="414" height="896" viewBox="0 0 414 896">
  <defs>
    <clipPath id="clip-shop-ghost-mobile">
      <rect width="414" height="896"/>
    </clipPath>
  </defs>
  <g id="shop-ghost-mobile" clip-path="url(#clip-shop-ghost-mobile)">
    <rect width="414" height="896" fill="#fff"/>
    <g id="Group_34" data-name="Group 34" transform="translate(2 1)">
      <rect id="Rectangle_63" data-name="Rectangle 63" width="163" height="180" rx="15" transform="translate(36 163)" fill="#f4f4f4"/>
      <rect id="Rectangle_64" data-name="Rectangle 64" width="163" height="180" rx="15" transform="translate(212 163)" fill="#f4f4f4"/>
    </g>
    <g id="Group_35" data-name="Group 35" transform="translate(-36 -94)">
      <rect id="Rectangle_63-2" data-name="Rectangle 63" width="397" height="21" transform="translate(43 101)" fill="#f4f4f4"/>
    </g>
    <g id="Group_36" data-name="Group 36" transform="translate(-36 -65)">
      <rect id="Rectangle_63-3" data-name="Rectangle 63" width="397" height="85" transform="translate(43 101)" fill="#f4f4f4"/>
    </g>
    <g id="Group_37" data-name="Group 37" transform="translate(247.813 31.3)">
      <rect id="Rectangle_63-4" data-name="Rectangle 63" width="86" height="21" transform="translate(43.188 100.7)" fill="#f4f4f4"/>
    </g>
    <g id="Group_34-2" data-name="Group 34" transform="translate(2 201)">
      <rect id="Rectangle_63-5" data-name="Rectangle 63" width="163" height="180" rx="15" transform="translate(36 163)" fill="#f4f4f4"/>
      <rect id="Rectangle_64-2" data-name="Rectangle 64" width="163" height="180" rx="15" transform="translate(212 163)" fill="#f4f4f4"/>
    </g>
    <g id="Group_34-3" data-name="Group 34" transform="translate(2 401)">
      <rect id="Rectangle_63-6" data-name="Rectangle 63" width="163" height="180" rx="15" transform="translate(36 163)" fill="#f4f4f4"/>
      <rect id="Rectangle_64-3" data-name="Rectangle 64" width="163" height="180" rx="15" transform="translate(212 163)" fill="#f4f4f4"/>
    </g>
    <g id="Group_34-4" data-name="Group 34" transform="translate(2 601)">
      <rect id="Rectangle_63-7" data-name="Rectangle 63" width="163" height="180" rx="15" transform="translate(36 163)" fill="#f4f4f4"/>
      <rect id="Rectangle_64-4" data-name="Rectangle 64" width="163" height="180" rx="15" transform="translate(212 163)" fill="#f4f4f4"/>
    </g>
  </g>
</svg>
