<svg id="shopping-nav" xmlns="http://www.w3.org/2000/svg" width="20.93" height="18.396" viewBox="0 0 20.93 18.396">
  <path id="Path_641" data-name="Path 641" d="M6.743,12.264h11.12a.613.613,0,0,0,.59-.445l2.453-8.584a.613.613,0,0,0-.59-.782H5.329L4.891.48a.613.613,0,0,0-.6-.48H.613a.613.613,0,1,0,0,1.226H3.8l2.214,9.962a1.839,1.839,0,0,0,.731,3.527H17.864a.613.613,0,1,0,0-1.226H6.745a.613.613,0,0,1,0-1.226ZM19.5,3.679l-2.1,7.358H7.237L5.6,3.679Zm0,0" transform="translate(0 0)" fill="#333"/>
  <path id="Path_642" data-name="Path 642" d="M150,361.84a1.84,1.84,0,1,0,1.84-1.84A1.842,1.842,0,0,0,150,361.84Zm1.84-.613a.613.613,0,1,1-.613.613A.614.614,0,0,1,151.84,361.226Zm0,0" transform="translate(-143.868 -345.284)" fill="#333"/>
  <path id="Path_643" data-name="Path 643" d="M362,361.84a1.84,1.84,0,1,0,1.84-1.84A1.842,1.842,0,0,0,362,361.84Zm1.84-.613a.613.613,0,1,1-.613.613A.614.614,0,0,1,363.84,361.226Zm0,0" transform="translate(-347.202 -345.284)" fill="#333"/>
</svg>
