<svg xmlns="http://www.w3.org/2000/svg" xmlns:xlink="http://www.w3.org/1999/xlink" width="400" height="407" viewBox="0 0 400 407">
  <defs>
    <linearGradient id="linear-gradient" x1="0.5" y1="1" x2="0.5" gradientUnits="objectBoundingBox">
      <stop offset="0" stop-color="gray" stop-opacity="0.251"/>
      <stop offset="0.54" stop-color="gray" stop-opacity="0.122"/>
      <stop offset="1" stop-color="gray" stop-opacity="0.102"/>
    </linearGradient>
  </defs>
  <g id="shopping" transform="translate(-809 -107)">
    <ellipse id="Ellipse_49" data-name="Ellipse 49" cx="200" cy="203.5" rx="200" ry="203.5" transform="translate(809 107)" fill="#9ab6ff"/>
    <g id="undraw_window_shopping_b96y" transform="translate(878.056 166)">
      <rect id="Rectangle_86" data-name="Rectangle 86" width="246.035" height="160.47" transform="translate(16.155 36.865)" fill="#ededf4"/>
      <ellipse id="Ellipse_50" data-name="Ellipse 50" cx="20.819" cy="3.3" rx="20.819" ry="3.3" transform="translate(37.484 165.088)" fill="#3b477b"/>
      <rect id="Rectangle_87" data-name="Rectangle 87" width="6.6" height="120.861" transform="translate(55.003 47.527)" fill="#3b477b"/>
      <circle id="Ellipse_51" data-name="Ellipse 51" cx="8.38" cy="8.38" r="8.38" transform="translate(49.923 42.448)" fill="#3b477b"/>
      <path id="Path_273" data-name="Path 273" d="M418.812,218.53s-3.3,7.111-5.838,21.829L398.5,224.372s3.888-1.569,8.017-3.33a31.333,31.333,0,0,1,12.294-2.512Z" transform="translate(-341.973 -160.085)" fill="#0337bb"/>
      <path id="Path_274" data-name="Path 274" d="M418.812,218.53s-3.3,7.111-5.838,21.829L398.5,224.372s3.888-1.569,8.017-3.33a31.333,31.333,0,0,1,12.294-2.512Z" transform="translate(-341.973 -160.085)" opacity="0.08"/>
      <path id="Path_275" data-name="Path 275" d="M354.574,218.53s4.569,13.456,4.81,18.787v6.349h26.661v-6.6a75.638,75.638,0,0,0-10.966-11.236,32.4,32.4,0,0,0-20.508-7.3Z" transform="translate(-314.296 -160.085)" fill="#0337bb"/>
      <path id="Path_276" data-name="Path 276" d="M355.009,278.878s-6.856,8.139-7.363,17.759,4.318,38.341,4.318,38.341,16.249,5.838,32.5,0c0,0,5.08-29.454,4.569-38.848s-10.282-21.71-10.282-21.71Z" transform="translate(-309.91 -195.297)" fill="#0337bb"/>
      <path id="Path_277" data-name="Path 277" d="M412.57,266.861a12.385,12.385,0,0,1,5.331.762,13.223,13.223,0,0,0,4.7,1.11" transform="translate(-350.837 -190.517)" opacity="0.08"/>
      <path id="Path_278" data-name="Path 278" d="M412.57,270.951a12.385,12.385,0,0,1,5.331.762,13.222,13.222,0,0,0,4.7,1.11" transform="translate(-350.837 -193.093)" opacity="0.08"/>
      <path id="Path_279" data-name="Path 279" d="M412.57,276.471a12.384,12.384,0,0,1,5.331.762,13.223,13.223,0,0,0,4.7,1.11" transform="translate(-350.837 -196.571)" opacity="0.08"/>
      <path id="Path_280" data-name="Path 280" d="M364.907,286.82s-2.031,5.331-1.776,6.094-2.031,5.331-2.031,5.331" transform="translate(-318.41 -203.109)" opacity="0.08"/>
      <path id="Path_281" data-name="Path 281" d="M369.027,295.74s-2.031,5.331-1.776,6.094-2.031,5.331-2.031,5.331" transform="translate(-321.006 -208.729)" opacity="0.08"/>
      <path id="Path_282" data-name="Path 282" d="M437.27,286.82s2.031,5.331,1.776,6.094,2.031,5.331,2.031,5.331" transform="translate(-366.399 -203.109)" opacity="0.08"/>
      <path id="Path_283" data-name="Path 283" d="M433.15,295.74s2.031,5.331,1.776,6.094,2.031,5.331,2.031,5.331" transform="translate(-363.803 -208.729)" opacity="0.08"/>
      <ellipse id="Ellipse_52" data-name="Ellipse 52" cx="20.819" cy="3.3" rx="20.819" ry="3.3" transform="translate(116.956 181.082)" fill="#3b477b"/>
      <rect id="Rectangle_88" data-name="Rectangle 88" width="6.6" height="120.861" transform="translate(134.474 63.525)" fill="#3b477b"/>
      <circle id="Ellipse_53" data-name="Ellipse 53" cx="8.38" cy="8.38" r="8.38" transform="translate(129.394 58.445)" fill="#3b477b"/>
      <path id="Path_284" data-name="Path 284" d="M532,344.133,501.78,386.025l8.38,3.3s-1.524,1.524-.507,2.286c0,0,3.555,3.3,12.949,3.807,0,0,2.793-3.807,8.38,1.269s12.442,1.017,12.442,1.017a9.037,9.037,0,0,1,10.914-.241c5.838,4.07,13.2-2.031,13.2-2.031s3.807-5.587,11.932-3.555,8.139-5.587,8.139-5.587L556.907,343.13Z" transform="translate(-407.042 -238.585)" fill="#0337bb"/>
      <g id="Group_120" data-name="Group 120" transform="translate(94.738 105.547)" opacity="0.08">
        <path id="Path_285" data-name="Path 285" d="M713.34,474.219a6.707,6.707,0,0,0,4.88-.507A11.62,11.62,0,0,0,713.34,474.219Z" transform="translate(-635.068 -426.359)" fill="#fff"/>
        <path id="Path_286" data-name="Path 286" d="M517.267,393.319c-1.014-.762.5-2.283.5-2.283l-8.38-3.3,22.6-41.9L501.78,387.733l8.38,3.3s-1.524,1.524-.507,2.286c0,0,3.555,3.3,12.949,3.807a3.575,3.575,0,0,1,1.154-.925C519.143,395.054,517.267,393.319,517.267,393.319Z" transform="translate(-501.78 -345.84)" fill="#fff"/>
        <path id="Path_287" data-name="Path 287" d="M585.445,483.392c-5.587-5.08-8.38-1.269-8.38-1.269-.314,0-.625-.037-.925-.059a14.363,14.363,0,0,1,1.687,1.332,10.169,10.169,0,0,0,10.53,1.85,9.813,9.813,0,0,1-2.912-1.854Z" transform="translate(-548.628 -430.837)" fill="#fff"/>
        <path id="Path_288" data-name="Path 288" d="M648.957,487.025a8.745,8.745,0,0,0-9.087-.858,10.627,10.627,0,0,1,1.48.858c2.849,1.979,6.056,1.547,8.6.581A7.9,7.9,0,0,1,648.957,487.025Z" transform="translate(-588.78 -433.689)" fill="#fff"/>
      </g>
      <path id="Path_289" data-name="Path 289" d="M601.788,306.967h-28.44s-1.776-21.581-4.318-24.881a28.894,28.894,0,0,1,3.2-1.169,47.865,47.865,0,0,1,5.18-1.3,50.619,50.619,0,0,1,18.277-.167,48.973,48.973,0,0,1,5.232,1.221q2.049.6,4.158,1.413S600.008,302.4,601.788,306.967Z" transform="translate(-449.411 -197.994)" fill="#0337bb"/>
      <path id="Path_290" data-name="Path 290" d="M586.367,308.522h-3.781c-.048-4.776-3.548-20.219-4.906-26.054a47.875,47.875,0,0,1,5.18-1.3C583.152,287.315,585.672,304.005,586.367,308.522Z" transform="translate(-454.86 -199.549)" fill="#fff" opacity="0.08"/>
      <path id="Path_291" data-name="Path 291" d="M640.362,281.921c-1.313,5.635-4.913,21.459-4.961,26.294H631.62c.7-4.562,3.259-21.514,3.507-27.515A48.967,48.967,0,0,1,640.362,281.921Z" transform="translate(-488.844 -199.253)" fill="#fff" opacity="0.08"/>
      <ellipse id="Ellipse_54" data-name="Ellipse 54" cx="20.819" cy="3.3" rx="20.819" ry="3.3" transform="translate(195.924 165.85)" fill="#3b477b"/>
      <rect id="Rectangle_89" data-name="Rectangle 89" width="6.6" height="120.861" transform="translate(213.438 48.289)" fill="#3b477b"/>
      <circle id="Ellipse_55" data-name="Ellipse 55" cx="8.38" cy="8.38" r="8.38" transform="translate(208.362 43.21)" fill="#3b477b"/>
      <path id="Path_292" data-name="Path 292" d="M813.86,258.3c-.24-.818-.481-1.587-.714-2.279V246.59l3.049-12.949c-7.111-10.411-17.019,0-17.019,0-10.918-9.649-16.5,0-16.5,0,.762,1.776,2.538,12.949,2.538,12.949v10.729c-4.04,8.461-5.25,17.866-4.695,27.29l1.9,32.325s18.281,7.111,33.516,0l1.524-27.1A92.976,92.976,0,0,0,813.86,258.3Z" transform="translate(-582.57 -166.689)" fill="#0337bb"/>
      <g id="Group_121" data-name="Group 121" transform="translate(197.957 62.318)" opacity="0.08">
        <path id="Path_293" data-name="Path 293" d="M838.157,233.885s3.6-3.777,8.021-4.517c-4.025-1.3-8.017,1.11-10.178,2.8A24.6,24.6,0,0,1,838.157,233.885Z" transform="translate(-815.565 -228.997)"/>
        <path id="Path_294" data-name="Path 294" d="M786.6,317.745l-1.9-32.325c-.555-9.423.655-18.832,4.7-27.29V247.4s-1.776-11.173-2.538-12.949a9.344,9.344,0,0,1,6.071-4.181c-6.549-1.824-9.878,3.929-9.878,3.929.762,1.776,2.538,12.949,2.538,12.949v10.729c-4.04,8.461-5.25,17.866-4.695,27.29l1.9,32.325a55.5,55.5,0,0,0,16.667,3.137,54.756,54.756,0,0,1-12.86-2.886Z" transform="translate(-780.767 -229.575)"/>
      </g>
      <g id="Group_122" data-name="Group 122" transform="translate(205.746 62.324)" opacity="0.08">
        <path id="Path_295" data-name="Path 295" d="M809.005,234.22a17.1,17.1,0,0,1,1.824-1.591c-3.7-2.656-6.711-3.026-9.009-2.479A16.459,16.459,0,0,1,809.005,234.22Z" transform="translate(-801.82 -229.593)"/>
        <path id="Path_296" data-name="Path 296" d="M845.133,258.3c-.24-.818-.481-1.587-.714-2.279V246.59l3.049-12.949c-3-4.388-6.489-5.076-9.527-4.406a9.856,9.856,0,0,1,5.716,4.406l-3.049,12.949v9.427c.233.692.47,1.461.714,2.279a92.97,92.97,0,0,1,3.6,31.515l-1.524,27.1a35.421,35.421,0,0,1-13.582,3.119,37.6,37.6,0,0,0,17.389-3.119l1.547-27.1A92.97,92.97,0,0,0,845.133,258.3Z" transform="translate(-819.461 -229.014)"/>
      </g>
      <rect id="Rectangle_90" data-name="Rectangle 90" width="22.199" height="11.839" transform="translate(25.96 197.568)" fill="#ededf4"/>
      <rect id="Rectangle_91" data-name="Rectangle 91" width="22.199" height="11.839" transform="translate(48.343 209.962)" fill="#ededf4"/>
      <rect id="Rectangle_92" data-name="Rectangle 92" width="22.199" height="11.839" transform="translate(70.727 197.568)" fill="#ededf4"/>
      <rect id="Rectangle_93" data-name="Rectangle 93" width="22.199" height="11.839" transform="translate(70.912 222.171)" fill="#ededf4"/>
      <rect id="Rectangle_94" data-name="Rectangle 94" width="22.199" height="11.839" transform="translate(93.111 209.962)" fill="#ededf4"/>
      <rect id="Rectangle_95" data-name="Rectangle 95" width="22.199" height="11.839" transform="translate(115.494 197.568)" fill="#ededf4"/>
      <rect id="Rectangle_96" data-name="Rectangle 96" width="22.199" height="11.839" transform="translate(137.878 209.962)" fill="#ededf4"/>
      <rect id="Rectangle_97" data-name="Rectangle 97" width="22.199" height="11.839" transform="translate(160.261 197.568)" fill="#ededf4"/>
      <rect id="Rectangle_98" data-name="Rectangle 98" width="22.199" height="11.839" transform="translate(160.446 222.171)" fill="#ededf4"/>
      <rect id="Rectangle_99" data-name="Rectangle 99" width="22.199" height="11.839" transform="translate(182.645 209.962)" fill="#ededf4"/>
      <rect id="Rectangle_100" data-name="Rectangle 100" width="22.199" height="11.839" transform="translate(239.992 197.753)" fill="#ededf4"/>
      <rect id="Rectangle_101" data-name="Rectangle 101" width="22.199" height="11.839" transform="translate(217.423 210.332)" fill="#ededf4"/>
      <rect id="Rectangle_102" data-name="Rectangle 102" width="22.199" height="11.839" transform="translate(42.424 24.973)" fill="#ededf4"/>
      <rect id="Rectangle_103" data-name="Rectangle 103" width="22.199" height="11.839" transform="translate(64.622 12.394)" fill="#ededf4"/>
      <rect id="Rectangle_104" data-name="Rectangle 104" width="22.199" height="11.839" transform="translate(87.006)" fill="#ededf4"/>
      <rect id="Rectangle_105" data-name="Rectangle 105" width="22.199" height="11.839" transform="translate(87.191 24.604)" fill="#ededf4"/>
      <rect id="Rectangle_106" data-name="Rectangle 106" width="22.199" height="11.839" transform="translate(109.39 12.394)" fill="#ededf4"/>
      <rect id="Rectangle_107" data-name="Rectangle 107" width="22.199" height="11.839" transform="translate(131.958 24.973)" fill="#ededf4"/>
      <rect id="Rectangle_108" data-name="Rectangle 108" width="22.199" height="11.839" transform="translate(154.157 12.394)" fill="#ededf4"/>
      <rect id="Rectangle_109" data-name="Rectangle 109" width="22.199" height="11.839" transform="translate(176.54)" fill="#ededf4"/>
      <rect id="Rectangle_110" data-name="Rectangle 110" width="22.199" height="11.839" transform="translate(176.725 24.604)" fill="#ededf4"/>
      <rect id="Rectangle_111" data-name="Rectangle 111" width="22.199" height="11.839" transform="translate(198.924 12.394)" fill="#ededf4"/>
      <path id="Path_297" data-name="Path 297" d="M109.431,99.64,43.76,161.212v12.28L125.71,99.64Z" transform="translate(-27.605 -62.775)" fill="#fff" opacity="0.3"/>
      <path id="Path_298" data-name="Path 298" d="M43.76,190.1v24.788L188.051,98.922,166.777,98.5Z" transform="translate(-27.605 -62.057)" fill="#fff" opacity="0.3"/>
      <path id="Path_299" data-name="Path 299" d="M313.628,519.553l.03-.056.033-.07.022-.059a.881.881,0,0,0,.022-.093v-.348a2.382,2.382,0,0,0-.777-1.661,3.611,3.611,0,0,0-2.508-1.217c-5.328-.252-11.31-9.379-11.31-9.379l-.241.2a23.976,23.976,0,0,1-1.6-3.837h.592V502.9h0v-.133h0l-.821-8.509,2.22-25.48a22.853,22.853,0,0,0,1.535-4.765,8.435,8.435,0,0,0,.17-1.85v-.133a8.576,8.576,0,0,0-.969-3.951l-9.312-17.94c.318.033.518.037.518.037,2.745-3.918.988-9.745-.969-13.944.411-.222.688-.37.688-.37a1.341,1.341,0,0,1-.266-.141l.266-.129c-1.6-.581-2.908-5.18-3.518-7.77l.892-3.256a15.51,15.51,0,0,1,4.292,1.3s-.122-.252-.333-.7h0l.315.155s-.122-.244-.326-.685h0c-1.132-2.46-4.85-11.1-4.943-18.688a18.587,18.587,0,0,1,.266-3.015,15.046,15.046,0,0,0,.233-2.878,11.51,11.51,0,0,0-6.068-10.607s-3.611-2.96-4.44-6.475a5.206,5.206,0,0,0-2.131-2.856,16.793,16.793,0,0,1,3.186-7.3c.159-.03.314-.059.47-.1q.274-.37.536-.681a9.753,9.753,0,0,0,7.107-9.294,9.619,9.619,0,0,0-4.27-7.955c.248-.03.525-.218.858-.74a2.771,2.771,0,0,0,.137-2.457,4.466,4.466,0,0,0-1.128-1.506,11.474,11.474,0,0,0-2.475-1.78,17.663,17.663,0,0,0-6.66-2.756,17.847,17.847,0,0,0-3.681.074l-5.587.5c-2.656.237-5.624.629-7.27,2.671s-1.4,5.028-3.052,7.03c-1.221,1.48-3.226,2.094-4.732,3.293-2.76,2.2-3.489,6.108-2.849,9.516s2.409,6.5,3.911,9.645,2.79,6.56,2.36,9.989c-.37,2.96-1.979,5.668-2.553,8.606a12.672,12.672,0,0,0,.448,6.523,2.731,2.731,0,0,0,.636,1.151,1.021,1.021,0,0,1,.277.27,3.2,3.2,0,0,0,2.15.607,15.187,15.187,0,0,1,5.446.8,5.6,5.6,0,0,1,1.554.988,3.7,3.7,0,0,1,1.132,2.871c-.155,1.628-1.558,3.33-.677,4.71h.144a1.842,1.842,0,0,0,.133.252,10.468,10.468,0,0,0,2.812.07,41.284,41.284,0,0,1,.37,4.673,7.945,7.945,0,0,1-.762,3.966h.277a3.248,3.248,0,0,1-.277.562l1.091-.081a76.03,76.03,0,0,1-4.569,6.756,14.429,14.429,0,0,0-3.23,9.013,13.179,13.179,0,0,0,.052,1.447,11.676,11.676,0,0,0,3.6,7.684,15.263,15.263,0,0,1,1.066,4.584,4,4,0,0,1-.233,1.35V464.2l-3.33,12.675a45.766,45.766,0,0,0-.633,7.67c0,3.7.459,8.021,2.3,11.21l2.779,13.216.277.03v3.7c-.34-.3-.555-.5-.555-.5l-.825,8.091h.026l-.026.263s4.725,1.08,18.059,1.347h2.823l.562-.026h.167l.37-.022h.181l.344-.026h.159l.411-.041h.059l.44-.052h.122l.292-.044.137-.022.263-.044.122-.022.3-.063h.048l.329-.078.081-.022.226-.059.1-.03.2-.059.085-.026.218-.078h.037l.233-.1.048-.022.163-.078.059-.03.133-.074.052-.03.144-.089h.019l.148-.111h.018l.1-.092.03-.03.081-.085.022-.026.078-.1h0a1.178,1.178,0,0,0,.07-.118h0a1.017,1.017,0,0,0,.048-.107v-.022a.947.947,0,0,0,.026-.1v-.022a.919.919,0,0,0,0-.107h0a.931.931,0,0,0,0-.2c.144-.973-1.332-1.913-2.627-1.913-2.779,0-11.947-7.821-12.5-8.362-.233-.226-.655-.155-1.176.1a17.051,17.051,0,0,1-1.325-1.347,1.184,1.184,0,0,0,.277-.644l-.037-.093a1.157,1.157,0,0,0,.037-.178s-1.887-4.584-1.965-6.778a2.318,2.318,0,0,1,.019-.233l.226-19.357a12.615,12.615,0,0,1,2.312-7.03,14.493,14.493,0,0,0,2.464-7.855l3.852-14.033a68.483,68.483,0,0,1,9.716,11.8,79.236,79.236,0,0,0-1.95,16.379v.133A34.3,34.3,0,0,0,286.49,487a69.281,69.281,0,0,1,1.48,13.519c0,1.532-.074,2.394-.074,2.394h0v.133h0v.133h.555v3.478l-.141-.107-3.474,6.068.074.07-.074.2s5.835,5.92,20.282,7.551l.807.085.229.022.559.048h.215l.7.052h0l.636.033h2.471l.414-.033h.063l.34-.041h.115l.24-.041.1-.018.3-.067h.044l.222-.067.085-.03.155-.059.078-.03.189-.093.041-.026.126-.078.059-.041.085-.067.048-.044a1.158,1.158,0,0,0,.092-.1l.037-.048Z" transform="translate(-245.62 -233.768)" fill="url(#linear-gradient)"/>
      <path id="Path_300" data-name="Path 300" d="M354.485,564.392s8.265,12.265,3.733,18.932c0,0-6.66,0-5.065-7.2a25.585,25.585,0,0,0-.533-13.064Z" transform="translate(-313.067 -377.146)" fill="#f7c4a7"/>
      <path id="Path_301" data-name="Path 301" d="M292.8,790.565v9.6l8.532.8,3.2-4.81-.8-1.332S300,791.9,299.2,789.229,292.8,790.565,292.8,790.565Z" transform="translate(-275.379 -519.06)" fill="#f7c4a7"/>
      <path id="Path_302" data-name="Path 302" d="M294.278,807.43s5.786-6.478,6.933-5.331c.533.533,9.331,8.265,12,8.265s6.134,4.266-6.66,4-17.33-1.332-17.33-1.332l.8-8S292.946,807.962,294.278,807.43Z" transform="translate(-273.124 -527.66)" opacity="0.1"/>
      <path id="Path_303" data-name="Path 303" d="M294.278,808.15s5.786-6.478,6.933-5.331c.533.533,9.331,8.265,12,8.265s6.134,4.266-6.66,4-17.33-1.332-17.33-1.332l.792-7.992S292.946,808.682,294.278,808.15Z" transform="translate(-273.124 -528.114)" fill="#f3b5b7"/>
      <path id="Path_304" data-name="Path 304" d="M360.54,775.97v7.466l4.532,3.733,5.065-1.332,1.332-2.934A23.747,23.747,0,0,1,368,772.77Z" transform="translate(-318.057 -509.268)" fill="#f7c4a7"/>
      <path id="Path_305" data-name="Path 305" d="M358.376,797.821h3.2l3.33-2.8s5.742,9.024,10.851,9.272a3.429,3.429,0,0,1,2.4,1.206c1.336,1.547,1.95,3.814-7.525,2.723-13.859-1.583-19.457-7.44-19.457-7.44l3.33-6Z" transform="translate(-312.16 -523.135)" opacity="0.1"/>
      <path id="Path_306" data-name="Path 306" d="M358.363,798.537h3.2l3.33-2.8s5.742,9.024,10.851,9.272a3.43,3.43,0,0,1,2.4,1.206c1.336,1.547,1.95,3.814-7.525,2.723-13.867-1.6-19.464-7.466-19.464-7.466l3.33-6Z" transform="translate(-312.148 -523.57)" fill="#f3b5b7"/>
      <path id="Path_307" data-name="Path 307" d="M350.583,548.053s1.6,8.532,3.733,9.331c0,0-4.532,2.135-3.733,4.266l-3.733-17.33,4.532.533Z" transform="translate(-309.432 -365.34)" opacity="0.1"/>
      <path id="Path_308" data-name="Path 308" d="M350.583,547.333s1.6,8.532,3.733,9.331c0,0-4.532,2.135-3.733,4.266L346.85,543.6l4.532.518Z" transform="translate(-309.432 -364.886)" fill="#fc6681"/>
      <path id="Path_309" data-name="Path 309" d="M350.583,547.333s1.6,8.532,3.733,9.331c0,0-4.532,2.135-3.733,4.266L346.85,543.6l4.532.518Z" transform="translate(-309.432 -364.886)" opacity="0.1"/>
      <path id="Path_310" data-name="Path 310" d="M330.577,581.08l15.909,31.563a8.655,8.655,0,0,1,.766,5.587,23.093,23.093,0,0,1-1.48,4.714l-2.135,25.329.788,8.532h-9.582a64.093,64.093,0,0,0-1.332-16c-1.865-9.338,1.332-22.939,1.332-22.939s-5.864-9.6-12.531-14.4S330.577,581.08,330.577,581.08Z" transform="translate(-292.892 -388.499)" opacity="0.1"/>
      <path id="Path_311" data-name="Path 311" d="M330.577,580.35l15.909,31.563a8.654,8.654,0,0,1,.766,5.587,23.094,23.094,0,0,1-1.48,4.714l-2.127,25.344.781,8.509h-9.582a64.1,64.1,0,0,0-1.332-16c-1.865-9.338,1.332-22.939,1.332-22.939s-5.864-9.6-12.531-14.4S330.577,580.35,330.577,580.35Z" transform="translate(-292.892 -388.039)" fill="#575988"/>
      <path id="Path_312" data-name="Path 312" d="M330.577,580.72l15.909,31.563a8.654,8.654,0,0,1,.766,5.587,23.09,23.09,0,0,1-1.48,4.714l-2.135,25.329.788,8.532h-9.582a64.1,64.1,0,0,0-1.332-16c-1.865-9.338,1.332-22.939,1.332-22.939s-5.864-9.6-12.531-14.4S330.577,580.72,330.577,580.72Z" transform="translate(-292.892 -388.272)" opacity="0.05"/>
      <path id="Path_313" data-name="Path 313" d="M286.4,542.88a96.608,96.608,0,0,1-5.738,9,14.389,14.389,0,0,0-3.052,10.071,11.713,11.713,0,0,0,3.459,7.6s1.6,4,.8,6.134V594.61l-3.2,12.531s-2.135,11.732,1.6,18.4l2.667,13.064s8.532,1.066,8.8-1.6c0,0-2.135-5.331-1.85-7.2l.215-19.139a12.727,12.727,0,0,1,2.22-6.959,14.68,14.68,0,0,0,2.368-7.77L308.8,542.88Z" transform="translate(-265.781 -364.432)" opacity="0.1"/>
      <path id="Path_314" data-name="Path 314" d="M286.4,542.16a96.625,96.625,0,0,1-5.738,9,14.389,14.389,0,0,0-3.052,10.071,11.713,11.713,0,0,0,3.459,7.6s1.6,4,.8,6.134V593.9l-3.2,12.531s-2.135,11.732,1.6,18.4l2.667,13.064s8.532,1.066,8.8-1.6c0,0-2.135-5.331-1.85-7.2l.215-19.139a12.727,12.727,0,0,1,2.22-6.959,14.678,14.678,0,0,0,2.368-7.769L308.8,542.16Z" transform="translate(-265.781 -363.979)" fill="#575988"/>
      <path id="Path_315" data-name="Path 315" d="M343.577,593.863s1.85,12-4.81,15.731c0,0-2.668-1.85,1.066-8l.266-8.265Z" transform="translate(-303.758 -396.217)" fill="#f7c4a7"/>
      <path id="Path_316" data-name="Path 316" d="M370.644,817.956c-12.6-1.454-18.373-6.43-19.32-7.326l-.144.392s5.6,5.864,19.464,7.466c7.092.818,8.532-.248,8.247-1.48C378.625,817.981,376.682,818.651,370.644,817.956Z" transform="translate(-312.16 -533.121)" opacity="0.1"/>
      <path id="Path_317" data-name="Path 317" d="M306.49,830.85c-11.839-.248-16.616-1.18-17.252-1.317l-.078.784s4.532,1.065,17.33,1.332c7.966.167,9.619-1.424,9.109-2.649C315.158,830.029,312.8,830.994,306.49,830.85Z" transform="translate(-273.086 -544.695)" opacity="0.1"/>
      <path id="Path_318" data-name="Path 318" d="M292.44,611.379s6.4,0,8.265-1.6,6.4,0,6.4,0" transform="translate(-275.153 -406.134)" opacity="0.1"/>
      <path id="Path_319" data-name="Path 319" d="M281.668,625.437c-3.733-6.66-1.6-18.4-1.6-18.4l3.2-12.531V575.575c.8-2.135-.8-6.134-.8-6.134a11.7,11.7,0,0,1-3.459-7.6,14.388,14.388,0,0,1,3.052-10.071,96.62,96.62,0,0,0,5.738-9h21.259l.07-.266h-22.4a96.61,96.61,0,0,1-5.738,9,14.389,14.389,0,0,0-3.071,10.075,11.713,11.713,0,0,0,3.459,7.6s1.6,4,.8,6.134v18.932l-3.2,12.531s-2.135,11.732,1.6,18.4l2.668,13.064s.4.052,1.032.1Z" transform="translate(-265.979 -364.199)" opacity="0.1"/>
      <path id="Path_320" data-name="Path 320" d="M314.672,395.92s-6.134,5.583-6.382,12-10.4-1.332-10.4-1.332,7.733-3.467,7.2-13.6Z" transform="translate(-278.586 -269.998)" fill="#f7c4a7"/>
      <path id="Path_321" data-name="Path 321" d="M296.9,425.572s-8.265-3.2-9.867,10.4l1.85,17.866s3.2,13.6,1.066,17.063c0,0,21.866-1.85,28.263,1.6,0,0-6.4-13.319-4.81-22.665s-5.6-12.8-5.6-12.8-3.467-2.934-4.266-6.4S296.9,425.572,296.9,425.572Z" transform="translate(-271.744 -290.319)" opacity="0.1"/>
      <path id="Path_322" data-name="Path 322" d="M296.878,424.126s-8.265-3.215-9.878,10.4l1.524,14.592c.2,1.942.5,3.877.877,5.794.807,4.1,2.087,12.017.533,14.544,0,0,21.866-1.85,28.263,1.6,0,0-6.4-13.319-4.81-22.665s-5.6-12.8-5.6-12.8-3.467-2.934-4.266-6.4S296.878,424.126,296.878,424.126Z" transform="translate(-271.725 -289.407)" fill="#fc6681"/>
      <path id="Path_323" data-name="Path 323" d="M309.38,472.25l9.6,35.462s3.733,8.532,2.135,10.933c0,0,4.266,2.135,6.134,0s-4-26.664-4-26.664L319.78,472.25Z" transform="translate(-285.825 -319.934)" opacity="0.1"/>
      <path id="Path_324" data-name="Path 324" d="M310.1,471.53l9.582,35.462s3.733,8.532,2.135,10.933c0,0,4.266,2.135,6.134,0s-4-26.664-4-26.664l-3.467-19.731Z" transform="translate(-286.279 -319.48)" fill="#fc6681"/>
      <path id="Path_325" data-name="Path 325" d="M337.84,487.75s2.668,7.733,4,8.532.533,6.66.533,6.66" transform="translate(-303.756 -329.699)" opacity="0.1"/>
      <path id="Path_326" data-name="Path 326" d="M316.94,397.481c1.454.888,2.838,3.33,4.665,3.33a9.623,9.623,0,0,0,2.261-.27,24.536,24.536,0,0,1,2.808-3.2l-9.6-2.934C317.173,396.3,317.332,396.031,316.94,397.481Z" transform="translate(-290.588 -270.893)" opacity="0.1"/>
      <circle id="Ellipse_56" data-name="Ellipse 56" cx="9.597" cy="9.597" r="9.597" transform="translate(21.424 110.19)" fill="#f7c4a7"/>
      <g id="Group_123" data-name="Group 123" transform="translate(15.289 134.402)" opacity="0.1">
        <path id="Path_327" data-name="Path 327" d="M291.361,469.371c1.48-2.63.207-10.389-.588-14.429-.37-1.917-.673-3.851-.877-5.794l-1.524-14.592c1-8.484,4.591-10.43,7.152-10.692-2.423-.241-7.3.581-8.484,10.692l1.524,14.592q.305,2.914.877,5.794c.807,4.1,2.087,12.017.533,14.544C289.985,469.474,290.481,469.433,291.361,469.371Z" transform="translate(-287.04 -423.83)"/>
        <path id="Path_328" data-name="Path 328" d="M330.28,545.847c5.92.03,12.209.488,15.2,2.1,0,0-.115-.24-.311-.677C341.553,546.106,335.626,545.821,330.28,545.847Z" transform="translate(-314.282 -500.703)"/>
      </g>
      <path id="Path_329" data-name="Path 329" d="M282.715,353.538a18.448,18.448,0,0,1-3.829,5.505,8.818,8.818,0,0,0-2.96,6.308c-.592,4.569-1.143,9.438.855,13.586a24.8,24.8,0,0,1,1.68,3.474c.673,2.257,0,4.688-.9,6.874a40.522,40.522,0,0,1-4.728,8.583c-1.11,1.535-2.36,3.067-2.756,4.917-.266,1.239-.167,2.642-.951,3.637-1.047,1.328-3.06,1.225-4.736,1-.844-1.376.5-3.049.647-4.654a4.339,4.339,0,0,0-2.845-4.07,14.112,14.112,0,0,0-5.228-.784,3.02,3.02,0,0,1-2.061-.6,2.724,2.724,0,0,1-.61-1.14,12.89,12.89,0,0,1-.407-6.367c.551-2.9,2.1-5.572,2.449-8.51.411-3.4-.825-6.782-2.268-9.889s-3.141-6.164-3.755-9.534.085-7.233,2.734-9.408c1.447-1.188,3.367-1.8,4.54-3.256,1.587-1.972,1.373-4.947,2.93-6.941s4.44-2.4,6.974-2.642l5.361-.492a12.485,12.485,0,0,1,9.926,2.653,7.178,7.178,0,0,1,3.193,2.982,2.812,2.812,0,0,1-.133,2.427c-.984,1.583-1.45.055-2.22.414C282.471,348.106,283.333,351.947,282.715,353.538Z" transform="translate(-248.483 -235.981)" opacity="0.1"/>
      <path id="Path_330" data-name="Path 330" d="M282,352.811a18.445,18.445,0,0,1-3.826,5.5,8.818,8.818,0,0,0-2.96,6.308c-.592,4.569-1.143,9.438.855,13.586a24.792,24.792,0,0,1,1.68,3.474c.673,2.257,0,4.688-.9,6.874a40.522,40.522,0,0,1-4.728,8.583c-1.11,1.535-2.36,3.067-2.756,4.917-.266,1.239-.167,2.642-.951,3.637-1.047,1.328-3.06,1.225-4.736,1-.844-1.376.5-3.049.647-4.654a4.34,4.34,0,0,0-2.845-4.07,14.116,14.116,0,0,0-5.228-.784,3.019,3.019,0,0,1-2.061-.6,2.724,2.724,0,0,1-.61-1.14,12.89,12.89,0,0,1-.407-6.367c.551-2.9,2.1-5.572,2.449-8.509.411-3.4-.825-6.782-2.268-9.89s-3.141-6.164-3.755-9.534.085-7.233,2.734-9.409c1.447-1.188,3.367-1.8,4.54-3.256,1.587-1.972,1.373-4.947,2.93-6.941s4.44-2.4,6.974-2.642l5.361-.492a12.485,12.485,0,0,1,9.926,2.653,7.177,7.177,0,0,1,3.193,2.982,2.812,2.812,0,0,1-.133,2.427c-.984,1.583-1.45.055-2.22.414C281.757,347.38,282.619,351.209,282,352.811Z" transform="translate(-248.035 -235.521)" fill="#965d7b"/>
    </g>
  </g>
</svg>
