<svg xmlns="http://www.w3.org/2000/svg" xmlns:xlink="http://www.w3.org/1999/xlink" width="490" height="534" viewBox="0 0 490 534">
  <defs>
    <linearGradient id="linear-gradient" x1="0.5" y1="1" x2="0.5" gradientUnits="objectBoundingBox">
      <stop offset="0" stop-color="gray" stop-opacity="0.251"/>
      <stop offset="0.54" stop-color="gray" stop-opacity="0.122"/>
      <stop offset="1" stop-color="gray" stop-opacity="0.102"/>
    </linearGradient>
    <linearGradient id="linear-gradient-2" x1="0.5" y1="1" x2="0.5" y2="0" xlink:href="#linear-gradient"/>
    <linearGradient id="linear-gradient-3" x1="0.5" y1="1" x2="0.5" y2="-0.001" xlink:href="#linear-gradient"/>
  </defs>
  <g id="shopping" transform="translate(-527 -138)">
    <g id="Group_138" data-name="Group 138" transform="translate(-157 17)">
      <ellipse id="Ellipse_49" data-name="Ellipse 49" cx="200" cy="203.5" rx="200" ry="203.5" transform="translate(774 121)" fill="rgba(154,182,255,0.27)"/>
      <g id="shopping-2" data-name="shopping" transform="translate(-125 254)">
        <ellipse id="Ellipse_49-2" data-name="Ellipse 49" cx="84" cy="85.5" rx="84" ry="85.5" transform="translate(809 107)" fill="rgba(135,146,32,0.55)"/>
        <g id="undraw_window_shopping_b96y" transform="translate(837.987 131.786)">
          <rect id="Rectangle_86" data-name="Rectangle 86" width="103.358" height="67.413" transform="translate(6.81 15.487)" fill="#ededf4"/>
          <ellipse id="Ellipse_50" data-name="Ellipse 50" cx="8.746" cy="1.386" rx="8.746" ry="1.386" transform="translate(15.77 69.352)" fill="#3b477b"/>
          <rect id="Rectangle_87" data-name="Rectangle 87" width="2.773" height="50.773" transform="translate(23.13 19.966)" fill="#3b477b"/>
          <circle id="Ellipse_51" data-name="Ellipse 51" cx="3.52" cy="3.52" r="3.52" transform="translate(20.996 17.832)" fill="#3b477b"/>
          <path id="Path_273" data-name="Path 273" d="M407.033,218.53a40.2,40.2,0,0,0-2.453,9.17l-6.08-6.716s1.634-.659,3.368-1.4a13.163,13.163,0,0,1,5.165-1.055Z" transform="translate(-374.73 -193.977)" fill="#0337bb"/>
          <path id="Path_274" data-name="Path 274" d="M407.033,218.53a40.2,40.2,0,0,0-2.453,9.17l-6.08-6.716s1.634-.659,3.368-1.4a13.163,13.163,0,0,1,5.165-1.055Z" transform="translate(-374.73 -193.977)" opacity="0.08"/>
          <path id="Path_275" data-name="Path 275" d="M354.572,218.53s1.919,5.653,2.02,7.893v2.667h11.2v-2.773a31.776,31.776,0,0,0-4.607-4.72,13.61,13.61,0,0,0-8.615-3.065Z" transform="translate(-337.628 -193.977)" fill="#0337bb"/>
          <path id="Path_276" data-name="Path 276" d="M350.718,276.293a14.4,14.4,0,0,0-3.093,7.46c-.213,4.041,1.814,16.107,1.814,16.107a22.377,22.377,0,0,0,13.653,0s2.134-12.373,1.919-16.32-4.319-9.12-4.319-9.12Z" transform="translate(-331.749 -241.181)" fill="#0337bb"/>
          <path id="Path_277" data-name="Path 277" d="M412.57,266.845a5.2,5.2,0,0,1,2.24.32,5.555,5.555,0,0,0,1.974.466" transform="translate(-386.613 -234.773)" opacity="0.08"/>
          <path id="Path_278" data-name="Path 278" d="M412.57,270.935a5.2,5.2,0,0,1,2.24.32,5.554,5.554,0,0,0,1.974.466" transform="translate(-386.613 -238.227)" opacity="0.08"/>
          <path id="Path_279" data-name="Path 279" d="M412.57,276.455a5.2,5.2,0,0,1,2.24.32,5.555,5.555,0,0,0,1.974.466" transform="translate(-386.613 -242.889)" opacity="0.08"/>
          <path id="Path_280" data-name="Path 280" d="M362.7,286.82a12.27,12.27,0,0,0-.746,2.56,8.92,8.92,0,0,1-.853,2.24" transform="translate(-343.143 -251.653)" opacity="0.08"/>
          <path id="Path_281" data-name="Path 281" d="M366.819,295.74a12.27,12.27,0,0,0-.746,2.56,8.92,8.92,0,0,1-.853,2.24" transform="translate(-346.622 -259.187)" opacity="0.08"/>
          <path id="Path_282" data-name="Path 282" d="M437.27,286.82a12.268,12.268,0,0,1,.746,2.56,8.921,8.921,0,0,0,.853,2.24" transform="translate(-407.474 -251.653)" opacity="0.08"/>
          <path id="Path_283" data-name="Path 283" d="M433.15,295.74a12.27,12.27,0,0,1,.746,2.56,8.92,8.92,0,0,0,.853,2.24" transform="translate(-403.994 -259.187)" opacity="0.08"/>
          <ellipse id="Ellipse_52" data-name="Ellipse 52" cx="8.746" cy="1.386" rx="8.746" ry="1.386" transform="translate(49.156 76.071)" fill="#3b477b"/>
          <rect id="Rectangle_88" data-name="Rectangle 88" width="2.773" height="50.773" transform="translate(56.515 26.687)" fill="#3b477b"/>
          <circle id="Ellipse_53" data-name="Ellipse 53" cx="3.52" cy="3.52" r="3.52" transform="translate(54.381 24.553)" fill="#3b477b"/>
          <path id="Path_284" data-name="Path 284" d="M514.474,343.551l-12.694,17.6,3.52,1.388s-.64.64-.213.961c0,0,1.494,1.386,5.44,1.6,0,0,1.173-1.6,3.52.533s5.227.427,5.227.427a3.8,3.8,0,0,1,4.585-.1c2.453,1.71,5.547-.853,5.547-.853a4.607,4.607,0,0,1,5.013-1.494c3.413.853,3.419-2.347,3.419-2.347l-12.9-18.133Z" transform="translate(-461.958 -299.211)" fill="#0337bb"/>
          <g id="Group_120" data-name="Group 120" transform="translate(39.822 44.34)" opacity="0.08">
            <path id="Path_285" data-name="Path 285" d="M713.34,473.885a2.818,2.818,0,0,0,2.05-.213A4.881,4.881,0,0,0,713.34,473.885Z" transform="translate(-680.458 -453.779)" fill="#fff"/>
            <path id="Path_286" data-name="Path 286" d="M508.286,365.786c-.426-.32.211-.959.211-.959l-3.52-1.386,9.493-17.6-12.691,17.6,3.52,1.388s-.64.64-.213.961c0,0,1.494,1.386,5.44,1.6a1.5,1.5,0,0,1,.485-.389A6.587,6.587,0,0,1,508.286,365.786Z" transform="translate(-501.78 -345.84)" fill="#fff"/>
            <path id="Path_287" data-name="Path 287" d="M580.049,481.861c-2.347-2.134-3.52-.533-3.52-.533-.132,0-.263-.016-.389-.025a6.037,6.037,0,0,1,.709.56,4.272,4.272,0,0,0,4.423.777A4.123,4.123,0,0,1,580.049,481.861Z" transform="translate(-564.582 -459.783)" fill="#fff"/>
            <path id="Path_288" data-name="Path 288" d="M643.687,486.011a3.674,3.674,0,0,0-3.817-.361,4.456,4.456,0,0,1,.622.361,3.788,3.788,0,0,0,3.612.244A3.322,3.322,0,0,1,643.687,486.011Z" transform="translate(-618.407 -463.605)" fill="#fff"/>
          </g>
          <path id="Path_289" data-name="Path 289" d="M582.791,290.576H570.844s-.746-9.066-1.814-10.452a12.143,12.143,0,0,1,1.344-.491,20.111,20.111,0,0,1,2.176-.546,21.265,21.265,0,0,1,7.678-.07,20.57,20.57,0,0,1,2.2.513q.861.25,1.747.594S582.044,288.656,582.791,290.576Z" transform="translate(-518.755 -244.796)" fill="#0337bb"/>
          <path id="Path_290" data-name="Path 290" d="M581.329,292.661h-1.588c-.02-2.007-1.491-8.494-2.061-10.945a20.114,20.114,0,0,1,2.176-.546C579.979,283.752,581.037,290.763,581.329,292.661Z" transform="translate(-526.061 -246.882)" fill="#fff" opacity="0.08"/>
          <path id="Path_291" data-name="Path 291" d="M635.293,281.213c-.552,2.367-2.064,9.015-2.084,11.046H631.62c.294-1.916,1.369-9.038,1.473-11.559A20.571,20.571,0,0,1,635.293,281.213Z" transform="translate(-571.617 -246.485)" fill="#fff" opacity="0.08"/>
          <ellipse id="Ellipse_54" data-name="Ellipse 54" cx="8.746" cy="1.386" rx="8.746" ry="1.386" transform="translate(82.33 69.673)" fill="#3b477b"/>
          <rect id="Rectangle_89" data-name="Rectangle 89" width="2.773" height="50.773" transform="translate(89.688 20.286)" fill="#3b477b"/>
          <circle id="Ellipse_55" data-name="Ellipse 55" cx="3.52" cy="3.52" r="3.52" transform="translate(87.555 18.152)" fill="#3b477b"/>
          <path id="Path_292" data-name="Path 292" d="M794.448,241.318c-.1-.343-.2-.667-.3-.957V236.4l1.281-5.44c-2.987-4.374-7.15,0-7.15,0-4.587-4.053-6.933,0-6.933,0,.32.746,1.066,5.44,1.066,5.44V240.9a23.255,23.255,0,0,0-1.972,11.464l.8,13.58s7.68,2.987,14.08,0l.64-11.386A39.058,39.058,0,0,0,794.448,241.318Z" transform="translate(-697.262 -202.831)" fill="#0337bb"/>
          <g id="Group_121" data-name="Group 121" transform="translate(83.184 26.179)" opacity="0.08">
            <path id="Path_293" data-name="Path 293" d="M836.906,231.05a7.026,7.026,0,0,1,3.37-1.9c-1.691-.547-3.368.466-4.276,1.175A10.34,10.34,0,0,1,836.906,231.05Z" transform="translate(-827.415 -228.997)"/>
            <path id="Path_294" data-name="Path 294" d="M783.218,266.812l-.8-13.58a23.253,23.253,0,0,1,1.972-11.464v-4.507s-.746-4.694-1.066-5.44a3.925,3.925,0,0,1,2.551-1.756,3.709,3.709,0,0,0-4.15,1.651c.32.746,1.066,5.44,1.066,5.44v4.507a23.253,23.253,0,0,0-1.972,11.464l.8,13.58a23.314,23.314,0,0,0,7,1.318,23,23,0,0,1-5.4-1.212Z" transform="translate(-780.767 -229.772)"/>
          </g>
          <g id="Group_122" data-name="Group 122" transform="translate(86.456 26.182)" opacity="0.08">
            <path id="Path_295" data-name="Path 295" d="M804.838,231.734a7.183,7.183,0,0,1,.766-.668,4.586,4.586,0,0,0-3.785-1.041A6.914,6.914,0,0,1,804.838,231.734Z" transform="translate(-801.82 -229.79)"/>
            <path id="Path_296" data-name="Path 296" d="M836.253,241.318c-.1-.343-.2-.667-.3-.957V236.4l1.281-5.44a3.652,3.652,0,0,0-4-1.851,4.14,4.14,0,0,1,2.4,1.851l-1.281,5.44v3.96c.1.291.2.614.3.957a39.055,39.055,0,0,1,1.514,13.239l-.64,11.386a14.88,14.88,0,0,1-5.706,1.31,15.8,15.8,0,0,0,7.3-1.31l.65-11.383A39.054,39.054,0,0,0,836.253,241.318Z" transform="translate(-825.468 -229.014)"/>
          </g>
          <rect id="Rectangle_90" data-name="Rectangle 90" width="9.326" height="4.974" transform="translate(10.929 82.997)" fill="#ededf4"/>
          <rect id="Rectangle_91" data-name="Rectangle 91" width="9.326" height="4.974" transform="translate(20.332 88.204)" fill="#ededf4"/>
          <rect id="Rectangle_92" data-name="Rectangle 92" width="9.326" height="4.974" transform="translate(29.735 82.997)" fill="#ededf4"/>
          <rect id="Rectangle_93" data-name="Rectangle 93" width="9.326" height="4.974" transform="translate(29.813 93.333)" fill="#ededf4"/>
          <rect id="Rectangle_94" data-name="Rectangle 94" width="9.326" height="4.974" transform="translate(39.139 88.204)" fill="#ededf4"/>
          <rect id="Rectangle_95" data-name="Rectangle 95" width="9.326" height="4.974" transform="translate(48.542 82.997)" fill="#ededf4"/>
          <rect id="Rectangle_96" data-name="Rectangle 96" width="9.326" height="4.974" transform="translate(57.945 88.204)" fill="#ededf4"/>
          <rect id="Rectangle_97" data-name="Rectangle 97" width="9.326" height="4.974" transform="translate(67.348 82.997)" fill="#ededf4"/>
          <rect id="Rectangle_98" data-name="Rectangle 98" width="9.326" height="4.974" transform="translate(67.426 93.333)" fill="#ededf4"/>
          <rect id="Rectangle_99" data-name="Rectangle 99" width="9.326" height="4.974" transform="translate(76.752 88.204)" fill="#ededf4"/>
          <rect id="Rectangle_100" data-name="Rectangle 100" width="9.326" height="4.974" transform="translate(100.843 83.075)" fill="#ededf4"/>
          <rect id="Rectangle_101" data-name="Rectangle 101" width="9.326" height="4.974" transform="translate(91.362 88.359)" fill="#ededf4"/>
          <rect id="Rectangle_102" data-name="Rectangle 102" width="9.326" height="4.974" transform="translate(17.845 10.491)" fill="#ededf4"/>
          <rect id="Rectangle_103" data-name="Rectangle 103" width="9.326" height="4.974" transform="translate(27.171 5.207)" fill="#ededf4"/>
          <rect id="Rectangle_104" data-name="Rectangle 104" width="9.326" height="4.974" transform="translate(36.574)" fill="#ededf4"/>
          <rect id="Rectangle_105" data-name="Rectangle 105" width="9.326" height="4.974" transform="translate(36.652 10.336)" fill="#ededf4"/>
          <rect id="Rectangle_106" data-name="Rectangle 106" width="9.326" height="4.974" transform="translate(45.977 5.207)" fill="#ededf4"/>
          <rect id="Rectangle_107" data-name="Rectangle 107" width="9.326" height="4.974" transform="translate(55.458 10.491)" fill="#ededf4"/>
          <rect id="Rectangle_108" data-name="Rectangle 108" width="9.326" height="4.974" transform="translate(64.784 5.207)" fill="#ededf4"/>
          <rect id="Rectangle_109" data-name="Rectangle 109" width="9.326" height="4.974" transform="translate(74.187)" fill="#ededf4"/>
          <rect id="Rectangle_110" data-name="Rectangle 110" width="9.326" height="4.974" transform="translate(74.265 10.336)" fill="#ededf4"/>
          <rect id="Rectangle_111" data-name="Rectangle 111" width="9.326" height="4.974" transform="translate(83.59 5.207)" fill="#ededf4"/>
          <path id="Path_297" data-name="Path 297" d="M71.348,99.64,43.76,125.506v5.159L78.187,99.64Z" transform="translate(-36.95 -84.153)" fill="#fff" opacity="0.3"/>
          <path id="Path_298" data-name="Path 298" d="M43.76,136.982V147.4l60.616-48.718L95.439,98.5Z" transform="translate(-36.95 -83.191)" fill="#fff" opacity="0.3"/>
          <path id="Path_299" data-name="Path 299" d="M274.157,412.81l.012-.023.014-.029.009-.025a.378.378,0,0,0,.009-.039v-.146a1,1,0,0,0-.326-.7,1.517,1.517,0,0,0-1.054-.511c-2.238-.106-4.751-3.94-4.751-3.94l-.1.082a10.072,10.072,0,0,1-.671-1.612h.249v-.056h0v-.056h0l-.345-3.575.933-10.7a9.6,9.6,0,0,0,.645-2,3.542,3.542,0,0,0,.071-.777v-.056a3.6,3.6,0,0,0-.407-1.66l-3.912-7.537c.134.014.218.016.218.016,1.153-1.646.415-4.094-.407-5.858l.289-.155a.563.563,0,0,1-.112-.059l.112-.054c-.671-.244-1.222-2.176-1.478-3.264l.375-1.368a6.515,6.515,0,0,1,1.8.546s-.051-.106-.14-.3h0l.132.065s-.051-.1-.137-.288h0a22.036,22.036,0,0,1-2.076-7.851,7.812,7.812,0,0,1,.112-1.267,6.321,6.321,0,0,0,.1-1.209,4.835,4.835,0,0,0-2.549-4.456,6.058,6.058,0,0,1-1.865-2.72,2.187,2.187,0,0,0-.9-1.2,7.055,7.055,0,0,1,1.338-3.067c.067-.012.132-.025.2-.04q.115-.155.225-.286a4.1,4.1,0,0,0,2.986-3.9,4.041,4.041,0,0,0-1.794-3.342c.1-.012.221-.092.361-.311a1.164,1.164,0,0,0,.057-1.032,1.876,1.876,0,0,0-.474-.633,4.821,4.821,0,0,0-1.04-.748,7.42,7.42,0,0,0-2.8-1.158,7.5,7.5,0,0,0-1.547.031l-2.347.21a4.269,4.269,0,0,0-3.054,1.122c-.692.858-.587,2.112-1.282,2.953a11.857,11.857,0,0,1-1.988,1.383,4.117,4.117,0,0,0-1.2,4,16.969,16.969,0,0,0,1.643,4.052,7.737,7.737,0,0,1,.992,4.2c-.155,1.243-.832,2.381-1.072,3.615a5.323,5.323,0,0,0,.188,2.74,1.147,1.147,0,0,0,.267.483.429.429,0,0,1,.117.113,1.344,1.344,0,0,0,.9.255,6.38,6.38,0,0,1,2.288.334,2.354,2.354,0,0,1,.653.415,1.554,1.554,0,0,1,.476,1.206c-.065.684-.654,1.4-.284,1.979h.061a.777.777,0,0,0,.056.106,4.4,4.4,0,0,0,1.181.03,17.347,17.347,0,0,1,.155,1.963,3.338,3.338,0,0,1-.32,1.666h.117a1.365,1.365,0,0,1-.117.236l.459-.034a31.94,31.94,0,0,1-1.92,2.838,6.062,6.062,0,0,0-1.357,3.786,5.538,5.538,0,0,0,.022.608,4.905,4.905,0,0,0,1.514,3.228,6.411,6.411,0,0,1,.448,1.926,1.678,1.678,0,0,1-.1.567v8.043l-1.4,5.325a19.227,19.227,0,0,0-.266,3.222,9.781,9.781,0,0,0,.965,4.709l1.167,5.552.117.012v1.554c-.143-.124-.233-.211-.233-.211l-.347,3.4h.011l-.011.11a44.121,44.121,0,0,0,7.586.566H260.8l.236-.011h.07l.155-.009h.076l.145-.011h.067l.173-.017h.025l.185-.022h.051l.123-.019.057-.009.11-.019.051-.009.127-.026h.02l.138-.033.034-.009.095-.025.04-.012.082-.025.036-.011.092-.033h.016l.1-.04.02-.009.068-.033.025-.012.056-.031.022-.012.061-.037h.008l.062-.047h.008l.044-.039.012-.012.034-.036.009-.011.033-.042h0a.491.491,0,0,0,.03-.05h0a.42.42,0,0,0,.02-.045v-.009a.4.4,0,0,0,.011-.04v-.009a.39.39,0,0,0,0-.045h0a.39.39,0,0,0,0-.085c.061-.409-.56-.8-1.1-.8-1.167,0-5.019-3.286-5.252-3.513-.1-.095-.275-.065-.494.042a7.158,7.158,0,0,1-.556-.566.5.5,0,0,0,.117-.27l-.016-.039a.488.488,0,0,0,.016-.075,12.389,12.389,0,0,1-.825-2.847.975.975,0,0,1,.008-.1l.095-8.132a5.3,5.3,0,0,1,.971-2.953,6.089,6.089,0,0,0,1.035-3.3l1.618-5.9a28.772,28.772,0,0,1,4.081,4.958,33.285,33.285,0,0,0-.819,6.881v.056a14.41,14.41,0,0,0,.255,2.838,29.1,29.1,0,0,1,.622,5.679c0,.643-.031,1.006-.031,1.006h0v.056h0v.056h.233v1.461l-.059-.045-1.459,2.549.031.03-.031.082s2.451,2.487,8.52,3.172l.339.036.1.009.235.02h.09l.294.022h0l.267.014h1.038l.174-.014h.026l.143-.017h.048l.1-.017.044-.008.124-.028h.019l.093-.028.036-.012.065-.025.033-.012.079-.039.017-.011.053-.033.025-.017.036-.028.02-.019a.484.484,0,0,0,.039-.042l.016-.02Z" transform="translate(-245.564 -292.753)" fill="url(#linear-gradient)"/>
          <path id="Path_300" data-name="Path 300" d="M353.4,563.619s3.472,5.152,1.568,7.953c0,0-2.8,0-2.128-3.025a10.748,10.748,0,0,0-.224-5.488Z" transform="translate(-335.981 -484.959)" fill="#f7c4a7"/>
          <path id="Path_301" data-name="Path 301" d="M292.8,789.258v4.032l3.584.336,1.344-2.021-.336-.56a6.451,6.451,0,0,1-1.9-2.349C295.153,787.577,292.8,789.258,292.8,789.258Z" transform="translate(-285.458 -675.201)" fill="#f7c4a7"/>
          <path id="Path_302" data-name="Path 302" d="M291.345,804.259s2.431-2.722,2.913-2.24c.224.224,3.92,3.472,5.04,3.472s2.577,1.792-2.8,1.68a41.3,41.3,0,0,1-7.28-.56l.336-3.36S290.785,804.483,291.345,804.259Z" transform="translate(-282.435 -686.729)" opacity="0.1"/>
          <path id="Path_303" data-name="Path 303" d="M291.345,804.979s2.431-2.722,2.913-2.24c.224.224,3.92,3.472,5.04,3.472s2.577,1.792-2.8,1.68a41.3,41.3,0,0,1-7.28-.56l.333-3.357S290.785,805.2,291.345,804.979Z" transform="translate(-282.435 -687.337)" fill="#f3b5b7"/>
          <path id="Path_304" data-name="Path 304" d="M360.54,774.114v3.137l1.9,1.568,2.128-.56.56-1.233a9.976,9.976,0,0,1-1.456-4.257Z" transform="translate(-342.67 -662.074)" fill="#f7c4a7"/>
          <path id="Path_305" data-name="Path 305" d="M354.2,796.057h1.344l1.4-1.177s2.412,3.791,4.559,3.9a1.44,1.44,0,0,1,1.01.507c.561.65.819,1.6-3.161,1.144-5.822-.665-8.174-3.126-8.174-3.126l1.4-2.521Z" transform="translate(-334.765 -680.663)" opacity="0.1"/>
          <path id="Path_306" data-name="Path 306" d="M354.186,796.759h1.344l1.4-1.177s2.412,3.791,4.559,3.9a1.441,1.441,0,0,1,1.01.507c.561.65.819,1.6-3.161,1.144-5.825-.671-8.177-3.136-8.177-3.136l1.4-2.521Z" transform="translate(-334.748 -681.246)" fill="#f3b5b7"/>
          <path id="Path_307" data-name="Path 307" d="M348.418,545.888s.671,3.584,1.568,3.92c0,0-1.9.9-1.568,1.792l-1.568-7.28,1.9.224Z" transform="translate(-331.108 -469.131)" opacity="0.1"/>
          <path id="Path_308" data-name="Path 308" d="M348.418,545.168s.671,3.584,1.568,3.92c0,0-1.9.9-1.568,1.792l-1.568-7.28,1.9.218Z" transform="translate(-331.108 -468.523)" fill="#fc6681"/>
          <path id="Path_309" data-name="Path 309" d="M348.418,545.168s.671,3.584,1.568,3.92c0,0-1.9.9-1.568,1.792l-1.568-7.28,1.9.218Z" transform="translate(-331.108 -468.523)" opacity="0.1"/>
          <path id="Path_310" data-name="Path 310" d="M324.789,581.08l6.683,13.259a3.636,3.636,0,0,1,.322,2.347,9.7,9.7,0,0,1-.622,1.98l-.9,10.64.331,3.584h-4.026a26.925,26.925,0,0,0-.56-6.721c-.783-3.923.56-9.636.56-9.636a24.683,24.683,0,0,0-5.264-6.049C318.516,588.467,324.789,581.08,324.789,581.08Z" transform="translate(-308.935 -500.178)" opacity="0.1"/>
          <path id="Path_311" data-name="Path 311" d="M324.789,580.35l6.683,13.259a3.636,3.636,0,0,1,.322,2.347,9.7,9.7,0,0,1-.622,1.98l-.894,10.647.328,3.575h-4.026a26.925,26.925,0,0,0-.56-6.721c-.783-3.923.56-9.636.56-9.636a24.683,24.683,0,0,0-5.264-6.049C318.516,587.734,324.789,580.35,324.789,580.35Z" transform="translate(-308.935 -499.561)" fill="#575988"/>
          <path id="Path_312" data-name="Path 312" d="M324.789,580.72l6.683,13.259a3.635,3.635,0,0,1,.322,2.347,9.7,9.7,0,0,1-.622,1.98l-.9,10.64.331,3.584h-4.026a26.925,26.925,0,0,0-.56-6.721c-.783-3.923.56-9.636.56-9.636a24.682,24.682,0,0,0-5.264-6.049C318.516,588.107,324.789,580.72,324.789,580.72Z" transform="translate(-308.935 -499.874)" opacity="0.05"/>
          <path id="Path_313" data-name="Path 313" d="M281.278,542.88a40.588,40.588,0,0,1-2.411,3.78,6.045,6.045,0,0,0-1.282,4.231,4.92,4.92,0,0,0,1.453,3.191,4.812,4.812,0,0,1,.336,2.577v7.953l-1.344,5.264s-.9,4.929.671,7.729l1.121,5.488s3.584.448,3.7-.672a10.186,10.186,0,0,1-.777-3.025l.09-8.04a5.346,5.346,0,0,1,.933-2.924,6.167,6.167,0,0,0,.995-3.264l5.931-22.29Z" transform="translate(-272.592 -467.915)" opacity="0.1"/>
          <path id="Path_314" data-name="Path 314" d="M281.278,542.16a40.6,40.6,0,0,1-2.411,3.78,6.044,6.044,0,0,0-1.282,4.231,4.921,4.921,0,0,0,1.453,3.191,4.812,4.812,0,0,1,.336,2.577v7.956l-1.344,5.264s-.9,4.929.671,7.729l1.121,5.488s3.584.448,3.7-.671a10.186,10.186,0,0,1-.777-3.025l.09-8.04a5.347,5.347,0,0,1,.933-2.924,6.166,6.166,0,0,0,.995-3.264l5.931-22.293Z" transform="translate(-272.592 -467.307)" fill="#575988"/>
          <path id="Path_315" data-name="Path 315" d="M340.253,593.554s.777,5.04-2.021,6.609c0,0-1.121-.777.448-3.36l.112-3.472Z" transform="translate(-323.502 -510.524)" fill="#f7c4a7"/>
          <path id="Path_316" data-name="Path 316" d="M359.357,813.707c-5.294-.611-7.718-2.7-8.116-3.077l-.061.165s2.352,2.464,8.177,3.137c2.979.343,3.584-.1,3.464-.622C362.709,813.718,361.893,814,359.357,813.707Z" transform="translate(-334.765 -694.05)" opacity="0.1"/>
          <path id="Path_317" data-name="Path 317" d="M296.44,829.777a43.342,43.342,0,0,1-7.247-.553l-.033.329a41.275,41.275,0,0,0,7.28.559c3.346.07,4.041-.6,3.827-1.113C300.082,829.432,299.09,829.838,296.44,829.777Z" transform="translate(-282.384 -709.565)" opacity="0.1"/>
          <path id="Path_318" data-name="Path 318" d="M292.44,610.04s2.689,0,3.472-.671,2.689,0,2.689,0" transform="translate(-285.154 -523.818)" opacity="0.1"/>
          <path id="Path_319" data-name="Path 319" d="M279.471,577.347c-1.568-2.8-.671-7.729-.671-7.729l1.344-5.264V556.4a4.812,4.812,0,0,0-.336-2.577,4.914,4.914,0,0,1-1.453-3.191,6.044,6.044,0,0,1,1.282-4.231,40.579,40.579,0,0,0,2.411-3.78h8.931l.03-.112H281.6a40.584,40.584,0,0,1-2.411,3.78,6.045,6.045,0,0,0-1.29,4.232,4.921,4.921,0,0,0,1.453,3.191,4.812,4.812,0,0,1,.336,2.577v7.953l-1.344,5.264s-.9,4.929.671,7.729l1.121,5.488s.169.022.434.042Z" transform="translate(-272.857 -467.603)" opacity="0.1"/>
          <path id="Path_320" data-name="Path 320" d="M304.94,394.221s-2.577,2.345-2.681,5.04-4.369-.56-4.369-.56a5.791,5.791,0,0,0,3.025-5.712Z" transform="translate(-289.757 -341.322)" fill="#f7c4a7"/>
          <path id="Path_321" data-name="Path 321" d="M291.175,425.382s-3.472-1.344-4.145,4.369l.777,7.506s1.344,5.712.448,7.168c0,0,9.186-.777,11.873.671,0,0-2.689-5.6-2.021-9.521a4.873,4.873,0,0,0-2.352-5.376,6.016,6.016,0,0,1-1.792-2.689C293.628,426.053,291.175,425.382,291.175,425.382Z" transform="translate(-280.585 -368.563)" opacity="0.1"/>
          <path id="Path_322" data-name="Path 322" d="M291.15,423.935s-3.472-1.351-4.15,4.367l.64,6.13c.085.816.21,1.629.368,2.434.339,1.724.877,5.048.224,6.11,0,0,9.186-.777,11.873.671,0,0-2.689-5.6-2.021-9.521a4.873,4.873,0,0,0-2.352-5.376,6.016,6.016,0,0,1-1.792-2.689C293.606,424.6,291.15,423.935,291.15,423.935Z" transform="translate(-280.56 -367.339)" fill="#fc6681"/>
          <path id="Path_323" data-name="Path 323" d="M309.38,472.25l4.032,14.9s1.568,3.584.9,4.593c0,0,1.792.9,2.577,0s-1.68-11.2-1.68-11.2l-1.456-8.289Z" transform="translate(-299.461 -408.263)" opacity="0.1"/>
          <path id="Path_324" data-name="Path 324" d="M310.1,471.53l4.026,14.9s1.568,3.584.9,4.593c0,0,1.792.9,2.577,0s-1.68-11.2-1.68-11.2l-1.456-8.289Z" transform="translate(-300.07 -407.655)" fill="#fc6681"/>
          <path id="Path_325" data-name="Path 325" d="M337.84,487.75s1.121,3.248,1.68,3.584.224,2.8.224,2.8" transform="translate(-323.498 -421.354)" opacity="0.1"/>
          <path id="Path_326" data-name="Path 326" d="M316.94,395.7c.611.373,1.192,1.4,1.96,1.4a4.042,4.042,0,0,0,.95-.113,10.312,10.312,0,0,1,1.18-1.343L317,394.41A2.62,2.62,0,0,1,316.94,395.7Z" transform="translate(-305.846 -342.521)" opacity="0.1"/>
          <circle id="Ellipse_56" data-name="Ellipse 56" cx="4.032" cy="4.032" r="4.032" transform="translate(9.023 46.29)" fill="#f7c4a7"/>
          <g id="Group_123" data-name="Group 123" transform="translate(6.446 56.461)" opacity="0.1">
            <path id="Path_327" data-name="Path 327" d="M288.855,442.961c.622-1.105.087-4.364-.247-6.062-.155-.805-.283-1.618-.368-2.434l-.64-6.13c.42-3.564,1.929-4.381,3-4.492-1.018-.1-3.065.244-3.564,4.492l.64,6.13q.128,1.224.368,2.434c.339,1.724.877,5.048.224,6.11C288.277,443,288.486,442.988,288.855,442.961Z" transform="translate(-287.04 -423.83)"/>
            <path id="Path_328" data-name="Path 328" d="M330.28,545.846c2.487.012,5.129.205,6.383.883,0,0-.048-.1-.131-.284A23.125,23.125,0,0,0,330.28,545.846Z" transform="translate(-323.559 -526.881)"/>
          </g>
          <path id="Path_329" data-name="Path 329" d="M263.806,345.1a7.75,7.75,0,0,1-1.609,2.313,3.7,3.7,0,0,0-1.243,2.65c-.249,1.919-.48,3.965.359,5.707a10.42,10.42,0,0,1,.706,1.459,4.423,4.423,0,0,1-.376,2.888,17.023,17.023,0,0,1-1.986,3.606,5.789,5.789,0,0,0-1.158,2.066,3.559,3.559,0,0,1-.4,1.528c-.44.558-1.285.514-1.989.418-.354-.578.21-1.281.272-1.955a1.823,1.823,0,0,0-1.2-1.71,5.928,5.928,0,0,0-2.2-.33,1.269,1.269,0,0,1-.866-.252,1.144,1.144,0,0,1-.256-.479,5.415,5.415,0,0,1-.171-2.675c.232-1.22.881-2.341,1.029-3.575a7.844,7.844,0,0,0-.953-4.155,17.02,17.02,0,0,1-1.578-4.005,4.149,4.149,0,0,1,1.149-3.952c.608-.5,1.414-.755,1.907-1.368.667-.828.577-2.078,1.231-2.916a4.068,4.068,0,0,1,2.93-1.11l2.252-.207a5.245,5.245,0,0,1,4.17,1.114,3.016,3.016,0,0,1,1.341,1.253,1.181,1.181,0,0,1-.056,1.02c-.413.665-.609.023-.933.174C263.7,342.823,264.066,344.437,263.806,345.1Z" transform="translate(-249.402 -295.72)" opacity="0.1"/>
          <path id="Path_330" data-name="Path 330" d="M263.094,344.376a7.749,7.749,0,0,1-1.607,2.311,3.7,3.7,0,0,0-1.243,2.65c-.249,1.919-.48,3.965.359,5.707a10.415,10.415,0,0,1,.706,1.459,4.423,4.423,0,0,1-.376,2.888A17.021,17.021,0,0,1,258.946,363a5.791,5.791,0,0,0-1.158,2.066,3.558,3.558,0,0,1-.4,1.528c-.44.558-1.285.514-1.989.418-.354-.578.21-1.281.272-1.955a1.823,1.823,0,0,0-1.2-1.71,5.93,5.93,0,0,0-2.2-.329,1.269,1.269,0,0,1-.866-.252,1.145,1.145,0,0,1-.256-.479,5.415,5.415,0,0,1-.171-2.675c.232-1.22.881-2.341,1.029-3.575a7.844,7.844,0,0,0-.953-4.155,17.02,17.02,0,0,1-1.578-4.005,4.149,4.149,0,0,1,1.149-3.952c.608-.5,1.414-.755,1.907-1.368.667-.828.577-2.078,1.231-2.916a4.068,4.068,0,0,1,2.93-1.11l2.252-.207a5.245,5.245,0,0,1,4.17,1.114,3.015,3.015,0,0,1,1.341,1.253,1.181,1.181,0,0,1-.056,1.02c-.413.665-.609.023-.933.174C262.992,342.095,263.354,343.7,263.094,344.376Z" transform="translate(-248.802 -295.103)" fill="#965d7b"/>
        </g>
      </g>
      <g id="Group_137" data-name="Group 137" transform="translate(506 87)">
        <ellipse id="Ellipse_49-3" data-name="Ellipse 49" cx="111" cy="113" rx="111" ry="113" transform="translate(377 342)" fill="rgba(240,255,26,0.6)"/>
        <g id="undraw_online_shopping_ga73_1_" data-name="undraw_online_shopping_ga73 (1)" transform="translate(416.679 404.164)">
          <path id="Path_352" data-name="Path 352" d="M204.98,119.011c-5.745,3.634-13.2,3.4-19.727,1.508s-12.529-5.257-18.888-7.65a66.705,66.705,0,0,0-16.6-3.908c-8.108-.838-17.163.182-22.813,6.057-6.292,6.543-5.809,18.345,1,24.348,3.461,3.055,7.994,4.554,11.947,6.938s7.61,6.346,7.274,10.95c-.311,4.261-3.934,7.532-7.683,9.584-2.9,1.586-6.468,3.317-6.817,6.6-.337,3.178,2.663,5.669,5.529,7.085a34.348,34.348,0,0,0,30.179-.117c3.322-1.674,6.377-3.9,9.861-5.2,9.149-3.426,19.229.023,28.917,1.284a63.776,63.776,0,0,0,24.6-1.618c4.8-1.28,9.613-3.237,12.983-6.883,2.43-2.629,3.941-5.956,5.366-9.24q2.273-5.256,4.37-10.586a24.557,24.557,0,0,0,1.882-6.591c.393-4.135-1.261-8.223-3.515-11.713A34.953,34.953,0,0,0,201.068,122" transform="translate(-118.409 -101.846)" fill="#0337bb" opacity="0.1"/>
          <ellipse id="Ellipse_63" data-name="Ellipse 63" cx="18.445" cy="3.606" rx="18.445" ry="3.606" transform="translate(0 99.259)" fill="#0337bb" opacity="0.1"/>
          <ellipse id="Ellipse_64" data-name="Ellipse 64" cx="38.665" cy="3.606" rx="38.665" ry="3.606" transform="translate(34.577 91.727)" fill="#0337bb" opacity="0.1"/>
          <path id="Path_353" data-name="Path 353" d="M824.35,423.369s5.421-9.6,13.589-12.366a16.709,16.709,0,0,0,8.462-6.33,28.152,28.152,0,0,0,2.5-4.494" transform="translate(-724.863 -353.713)" fill="none" stroke="#535461" stroke-miterlimit="10" stroke-width="2"/>
          <path id="Path_354" data-name="Path 354" d="M1009.263,361.484c-.931.9-5.263,1.836-5.263,1.836s1.064-4.3,1.994-5.2a2.347,2.347,0,0,1,3.269,3.369Z" transform="translate(-880.101 -316.792)" fill="#0337bb"/>
          <path id="Path_355" data-name="Path 355" d="M990.265,414.835c-1.272.251-5.415-1.32-5.415-1.32s3.23-3.033,4.5-3.286a2.348,2.348,0,1,1,.915,4.606Z" transform="translate(-863.553 -362.358)" fill="#0337bb"/>
          <path id="Path_356" data-name="Path 356" d="M933.509,477.515c-1.223-.424-4.009-3.871-4.009-3.871s4.32-.989,5.544-.565a2.348,2.348,0,1,1-1.536,4.437Z" transform="translate(-815.724 -416.614)" fill="#0337bb"/>
          <path id="Path_357" data-name="Path 357" d="M869.505,512.522c-1.279-.211-4.605-3.14-4.605-3.14s4.09-1.7,5.369-1.495a2.347,2.347,0,0,1-.764,4.631Z" transform="translate(-759.903 -446.769)" fill="#0337bb"/>
          <path id="Path_358" data-name="Path 358" d="M958.26,395.436c0,1.3,2.345,5.056,2.345,5.056s2.348-3.759,2.349-5.055a2.348,2.348,0,0,0-4.695,0Z" transform="translate(-840.576 -347.635)" fill="#0337bb"/>
          <path id="Path_359" data-name="Path 359" d="M887.62,433.228c.387,1.237,3.749,4.123,3.749,4.123s1.117-4.289.73-5.525a2.349,2.349,0,0,0-4.484,1.4Z" transform="translate(-779.438 -379.634)" fill="#0337bb"/>
          <path id="Path_360" data-name="Path 360" d="M825.925,486.5c.172,1.285,3,4.7,3,4.7s1.825-4.037,1.652-5.323a2.347,2.347,0,0,0-4.653.625Z" transform="translate(-726.206 -426.009)" fill="#0337bb"/>
          <path id="Path_361" data-name="Path 361" d="M1009.263,361.484c-.931.9-5.263,1.836-5.263,1.836s1.064-4.3,1.994-5.2a2.347,2.347,0,0,1,3.269,3.369Z" transform="translate(-880.101 -316.792)" opacity="0.25"/>
          <path id="Path_362" data-name="Path 362" d="M990.265,414.835c-1.272.251-5.415-1.32-5.415-1.32s3.23-3.033,4.5-3.286a2.348,2.348,0,1,1,.915,4.606Z" transform="translate(-863.553 -362.358)" opacity="0.25"/>
          <path id="Path_363" data-name="Path 363" d="M933.509,477.515c-1.223-.424-4.009-3.871-4.009-3.871s4.32-.989,5.544-.565a2.348,2.348,0,1,1-1.536,4.437Z" transform="translate(-815.724 -416.614)" opacity="0.25"/>
          <path id="Path_364" data-name="Path 364" d="M869.505,512.522c-1.279-.211-4.605-3.14-4.605-3.14s4.09-1.7,5.369-1.495a2.347,2.347,0,0,1-.764,4.631Z" transform="translate(-759.903 -446.769)" opacity="0.25"/>
          <path id="Path_365" data-name="Path 365" d="M958.26,395.436c0,1.3,2.345,5.056,2.345,5.056s2.348-3.759,2.349-5.055a2.348,2.348,0,0,0-4.695,0Z" transform="translate(-840.576 -347.635)" opacity="0.25"/>
          <path id="Path_366" data-name="Path 366" d="M887.62,433.228c.387,1.237,3.749,4.123,3.749,4.123s1.117-4.289.73-5.525a2.349,2.349,0,0,0-4.484,1.4Z" transform="translate(-779.438 -379.634)" opacity="0.25"/>
          <path id="Path_367" data-name="Path 367" d="M825.925,486.5c.172,1.285,3,4.7,3,4.7s1.825-4.037,1.652-5.323a2.347,2.347,0,0,0-4.653.625Z" transform="translate(-726.206 -426.009)" opacity="0.25"/>
          <path id="Path_368" data-name="Path 368" d="M826.65,371.374s1.064-10.974,7.4-16.811a16.714,16.714,0,0,0,5.172-9.216,28.128,28.128,0,0,0,.462-5.117" transform="translate(-726.85 -301.91)" fill="none" stroke="#535461" stroke-miterlimit="10" stroke-width="2"/>
          <path id="Path_369" data-name="Path 369" d="M923.146,293.031c-.485,1.2-4.067,3.8-4.067,3.8s-.772-4.363-.287-5.571a2.347,2.347,0,0,1,4.348,1.754Z" transform="translate(-806.333 -258.411)" fill="#0337bb"/>
          <path id="Path_370" data-name="Path 370" d="M923.694,345.53c-1.06.746-5.484.989-5.484.989s1.724-4.077,2.784-4.828a2.347,2.347,0,1,1,2.7,3.839Z" transform="translate(-805.968 -302.803)" fill="#0337bb"/>
          <path id="Path_371" data-name="Path 371" d="M890.383,426.144c-1.291.109-5.233-1.915-5.233-1.915s3.548-2.654,4.84-2.763a2.347,2.347,0,1,1,.393,4.677Z" transform="translate(-777.401 -372.1)" fill="#0337bb"/>
          <path id="Path_372" data-name="Path 372" d="M848.2,483.623c-1.254.325-5.482-1-5.482-1s3.049-3.216,4.3-3.541a2.347,2.347,0,1,1,1.178,4.544Z" transform="translate(-740.737 -421.825)" fill="#0337bb"/>
          <path id="Path_373" data-name="Path 373" d="M882.6,347.119c.526,1.185,4.193,3.669,4.193,3.669s.624-4.386.1-5.571a2.348,2.348,0,1,0-4.293,1.9Z" transform="translate(-775.019 -305.011)" fill="#0337bb"/>
          <path id="Path_374" data-name="Path 374" d="M833.5,410.648c.856.973,5.1,2.249,5.1,2.249s-.717-4.373-1.572-5.347a2.35,2.35,0,1,0-3.533,3.1Z" transform="translate(-732.259 -359.39)" fill="#0337bb"/>
          <path id="Path_375" data-name="Path 375" d="M798.681,484.369c.679,1.1,4.646,3.079,4.646,3.079s.033-4.431-.645-5.536a2.347,2.347,0,0,0-4,2.457Z" transform="translate(-702.381 -423.372)" fill="#0337bb"/>
          <path id="Path_376" data-name="Path 376" d="M281.84,0V95.863h68.949V0Z" transform="translate(-243.542)" fill="url(#linear-gradient-2)"/>
          <rect id="Rectangle_117" data-name="Rectangle 117" width="67.74" height="3.654" transform="translate(38.903 0.841)" fill="#f6f7f9"/>
          <g id="Group_124" data-name="Group 124" transform="translate(38.903 0.841)" opacity="0.2">
            <rect id="Rectangle_118" data-name="Rectangle 118" width="67.74" height="3.654" fill="#0337bb"/>
          </g>
          <rect id="Rectangle_119" data-name="Rectangle 119" width="67.74" height="90.527" transform="translate(38.903 4.495)" fill="#f6f7f9"/>
          <circle id="Ellipse_65" data-name="Ellipse 65" cx="0.62" cy="0.62" r="0.62" transform="translate(40.065 2.048)" fill="#f6f7f9"/>
          <circle id="Ellipse_66" data-name="Ellipse 66" cx="0.62" cy="0.62" r="0.62" transform="translate(41.745 2.048)" fill="#f6f7f9"/>
          <circle id="Ellipse_67" data-name="Ellipse 67" cx="0.62" cy="0.62" r="0.62" transform="translate(43.424 2.048)" fill="#f6f7f9"/>
          <g id="Group_125" data-name="Group 125" transform="translate(50.993 10.076)" opacity="0.2">
            <rect id="Rectangle_120" data-name="Rectangle 120" width="43.559" height="1.705" fill="#0337bb"/>
          </g>
          <rect id="Rectangle_121" data-name="Rectangle 121" width="5.787" height="1.705" transform="translate(88.764 10.076)" fill="#0337bb"/>
          <g id="Group_126" data-name="Group 126" transform="translate(44.75 44.927)" opacity="0.2">
            <rect id="Rectangle_122" data-name="Rectangle 122" width="27.411" height="19.634" fill="#0337bb" opacity="0.2"/>
          </g>
          <g id="Group_127" data-name="Group 127" transform="translate(44.75 19.458)" opacity="0.2">
            <rect id="Rectangle_123" data-name="Rectangle 123" width="27.411" height="19.634" fill="#0337bb" opacity="0.2"/>
          </g>
          <g id="Group_128" data-name="Group 128" transform="translate(44.75 70.065)" opacity="0.2">
            <rect id="Rectangle_124" data-name="Rectangle 124" width="27.411" height="19.634" fill="#0337bb" opacity="0.2"/>
          </g>
          <g id="Group_129" data-name="Group 129" transform="translate(73.385 44.927)" opacity="0.2">
            <rect id="Rectangle_125" data-name="Rectangle 125" width="27.411" height="19.634" fill="#0337bb" opacity="0.2"/>
          </g>
          <g id="Group_130" data-name="Group 130" transform="translate(73.385 19.458)" opacity="0.2">
            <rect id="Rectangle_126" data-name="Rectangle 126" width="27.411" height="19.634" fill="#0337bb" opacity="0.2"/>
          </g>
          <g id="Group_131" data-name="Group 131" transform="translate(73.385 70.065)" opacity="0.2">
            <rect id="Rectangle_127" data-name="Rectangle 127" width="27.411" height="19.634" fill="#0337bb" opacity="0.2"/>
          </g>
          <path id="Path_377" data-name="Path 377" d="M1006.84,692.73s.97,1.268-.447,3.181-2.582,3.533-2.113,4.723c0,0,2.138-3.555,3.878-3.6S1008.754,694.867,1006.84,692.73Z" transform="translate(-880.251 -606.51)" fill="#3acc6c"/>
          <path id="Path_378" data-name="Path 378" d="M1007.182,692.73a1.559,1.559,0,0,1,.2.4c1.7,1.995,2.6,3.856.97,3.9-1.519.044-3.344,2.761-3.78,3.448a1.529,1.529,0,0,0,.052.156s2.137-3.555,3.878-3.6S1009.1,694.867,1007.182,692.73Z" transform="translate(-880.593 -606.51)" opacity="0.1"/>
          <path id="Path_379" data-name="Path 379" d="M1035.634,702.8c0,.446-.05.807-.111.807s-.113-.361-.113-.807.063-.236.125-.236S1035.634,702.354,1035.634,702.8Z" transform="translate(-907.243 -614.965)" fill="#ffd037"/>
          <path id="Path_380" data-name="Path 380" d="M1036.75,706.6c-.391.213-.734.342-.762.288s.264-.272.655-.485.238-.057.272,0S1037.142,706.386,1036.75,706.6Z" transform="translate(-907.74 -618.226)" fill="#ffd037"/>
          <path id="Path_381" data-name="Path 381" d="M972.266,692.73s-.97,1.268.447,3.181,2.582,3.533,2.113,4.723c0,0-2.138-3.555-3.878-3.6S970.348,694.867,972.266,692.73Z" transform="translate(-850.797 -606.51)" fill="#3acc6c"/>
          <path id="Path_382" data-name="Path 382" d="M972.266,692.73a1.563,1.563,0,0,0-.2.4c-1.7,1.995-2.6,3.856-.97,3.9,1.521.044,3.344,2.761,3.78,3.448a1.252,1.252,0,0,1-.052.156s-2.138-3.555-3.878-3.6S970.348,694.867,972.266,692.73Z" transform="translate(-850.797 -606.51)" opacity="0.1"/>
          <path id="Path_383" data-name="Path 383" d="M972.84,702.8c0,.446.05.807.113.807s.111-.361.111-.807-.062-.236-.124-.236S972.84,702.354,972.84,702.8Z" transform="translate(-853.175 -614.965)" fill="#ffd037"/>
          <path id="Path_384" data-name="Path 384" d="M966.752,706.6c.393.213.734.342.764.288s-.265-.272-.656-.485-.238-.057-.272,0S966.361,706.386,966.752,706.6Z" transform="translate(-847.705 -618.226)" fill="#ffd037"/>
          <ellipse id="Ellipse_68" data-name="Ellipse 68" cx="10.137" cy="1.556" rx="10.137" ry="1.556" transform="translate(113.891 100.713)" fill="#0337bb" opacity="0.1"/>
          <path id="Path_385" data-name="Path 385" d="M976.974,734.588l-.049.4-.068.56-.029.232-.068.56-.03.234-.068.558-.776,6.36c-.069.568-1,1.01-2.116,1.01H969.74c-1.12,0-2.038-.442-2.114-1.01l-.777-6.362-.068-.558-.029-.234-.069-.56-.029-.232-.068-.56-.049-.4c-.038-.314.469-.586,1.1-.586h8.244C976.51,734,977.013,734.272,976.974,734.588Z" transform="translate(-847.727 -642.171)" fill="#65617d"/>
          <path id="Path_386" data-name="Path 386" d="M885.028,683.01l-.068.558h-10.2l-.068-.558Z" transform="translate(-755.831 -590.198)" fill="#9d9cb5"/>
          <path id="Path_387" data-name="Path 387" d="M885.545,688.84l-.068.56H875.469l-.069-.56Z" transform="translate(-756.444 -595.235)" fill="#9d9cb5"/>
          <path id="Path_388" data-name="Path 388" d="M886.07,694.67l-.068.56h-9.814l-.068-.56Z" transform="translate(-757.066 -600.273)" fill="#9d9cb5"/>
          <path id="Path_389" data-name="Path 389" d="M683.744,225.18s-.249-.621,1.428-.466,6.491.69,8.573.222,3.322-.618,3.2,0-3.6,2.015-3.6,2.015l-4.5.466-3.323-.529-1.784-1.056Z" transform="translate(-603.351 -201.928)" fill="#0337bb"/>
          <path id="Path_390" data-name="Path 390" d="M696.977,224.929c-.125.618-3.6,2.015-3.6,2.015l-4.5.466-3.323-.527-1.783-1.056.012-.652a.272.272,0,0,1,.1-.3c.153-.136.512-.242,1.333-.166,1.678.155,6.491.689,8.573.22,1.7-.382,2.834-.552,3.125-.272A.272.272,0,0,1,696.977,224.929Z" transform="translate(-603.38 -201.921)" opacity="0.1"/>
          <path id="Path_391" data-name="Path 391" d="M683.907,243.567a19.444,19.444,0,0,0-7.993,3.54,1.482,1.482,0,0,0-.637-.757,2.239,2.239,0,0,0-.647-.272.652.652,0,0,0-.591.255,3.346,3.346,0,0,0-.526.779,32.967,32.967,0,0,0-7.973-3.562v-.435a2.4,2.4,0,0,1,.031-.306c.016-.117.037-.22.063-.346.408-2.074,2.019-6.812,2.019-6.812h1.822l3.533.734,3.975-.243,4-.833.519-.109c.866.679,1.848,5.436,2.234,7.46.049.257.087.469.115.625C683.889,243.462,683.907,243.567,683.907,243.567Z" transform="translate(-587.633 -211.152)" fill="#0337bb"/>
          <path id="Path_392" data-name="Path 392" d="M666.215,245.511c.1-1.991,1.686-6.305,1.954-7.021h-.5s-1.707,5.028-2.053,6.99a.051.051,0,0,0,0,.015c-.01.053-.019.1-.026.154-.016.117-.027.22-.031.306v.435a33.025,33.025,0,0,1,7.972,3.562,3.347,3.347,0,0,1,.526-.779C672.848,248.071,668.256,246.278,666.215,245.511Z" transform="translate(-587.65 -213.995)" fill="#0337bb"/>
          <path id="Path_393" data-name="Path 393" d="M745.786,243.245c-.012-.069-.027-.149-.043-.238-.02-.114-.045-.243-.072-.387h0c-.386-2.027-1.368-6.785-2.234-7.46l-.519.109c.315.847,2.347,6.374,2.174,7.453a24.335,24.335,0,0,0-7.882,3.593,1.482,1.482,0,0,1,.637.757,19.445,19.445,0,0,1,7.993-3.54S745.82,243.427,745.786,243.245Z" transform="translate(-649.564 -211.117)" fill="#0337bb"/>
          <path id="Path_394" data-name="Path 394" d="M667.135,244.6c.1-1.991,1.686-6.305,1.954-7.02h-.5s-1.707,5.028-2.053,6.989v.015q-.015.082-.024.155c-.016.117-.027.22-.031.306v.435a32.989,32.989,0,0,1,7.972,3.562,3.29,3.29,0,0,1,.525-.779C673.766,247.164,669.176,245.366,667.135,244.6Z" transform="translate(-588.445 -213.209)" opacity="0.1"/>
          <path id="Path_395" data-name="Path 395" d="M666.215,245.511c.1-1.991,1.686-6.305,1.954-7.021h-.5s-1.707,5.028-2.053,6.99a.051.051,0,0,0,0,.015c-.01.053-.019.1-.026.154-.016.117-.027.22-.031.306v.435a33.025,33.025,0,0,1,7.972,3.562,3.347,3.347,0,0,1,.526-.779C672.848,248.071,668.256,246.278,666.215,245.511Z" transform="translate(-587.65 -213.995)" fill="#0337bb"/>
          <path id="Path_396" data-name="Path 396" d="M744.884,242.325l-.043-.238c-.022-.114-.045-.242-.072-.387h0c-.385-2.026-1.368-6.784-2.234-7.46l-.518.11c.315.847,2.347,6.374,2.174,7.453a24.354,24.354,0,0,0-7.882,3.591,1.485,1.485,0,0,1,.637.758,19.423,19.423,0,0,1,7.992-3.541S744.918,242.51,744.884,242.325Z" transform="translate(-648.786 -210.322)" opacity="0.1"/>
          <path id="Path_397" data-name="Path 397" d="M745.786,243.245c-.012-.069-.027-.149-.043-.238-.02-.114-.045-.243-.072-.387h0c-.386-2.027-1.368-6.785-2.234-7.46l-.519.109c.315.847,2.347,6.374,2.174,7.453a24.335,24.335,0,0,0-7.882,3.593,1.482,1.482,0,0,1,.637.757,19.445,19.445,0,0,1,7.993-3.54S745.82,243.427,745.786,243.245Z" transform="translate(-649.564 -211.117)" fill="#0337bb"/>
          <path id="Path_398" data-name="Path 398" d="M677.739,250.711s3.153,1.984,3.889-.921l.7.188s.231,3.219-4.8,1.382Z" transform="translate(-597.994 -223.759)" opacity="0.1"/>
          <path id="Path_399" data-name="Path 399" d="M677.739,248.881s3.153,1.984,3.889-.921l.7.188s.231,3.219-4.8,1.382Z" transform="translate(-597.994 -222.178)" fill="#0337bb"/>
          <path id="Path_400" data-name="Path 400" d="M752.07,249.676s.408,2.374,4.727,1.223l-.152-.448s-2.95,1.223-4.02-.9Z" transform="translate(-662.405 -223.552)" opacity="0.1"/>
          <path id="Path_401" data-name="Path 401" d="M752.07,247.846s.408,2.374,4.727,1.223l-.152-.448s-2.95,1.223-4.02-.9Z" transform="translate(-662.405 -221.971)" fill="#0337bb"/>
          <path id="Path_402" data-name="Path 402" d="M730.91,247.191v4.954h.766s1.06-.382,1.036-2.609a14.373,14.373,0,0,0-.186-2.826Z" transform="translate(-644.12 -221.098)" opacity="0.1"/>
          <path id="Path_403" data-name="Path 403" d="M730,246.281v4.954h.766s1.06-.382,1.035-2.609a14.247,14.247,0,0,0-.187-2.826Z" transform="translate(-643.334 -220.312)" fill="#0337bb"/>
          <path id="Path_404" data-name="Path 404" d="M694.973,229.37c-.312.582-3.15,1.537-3.651,1.7l-.076.024s-.179.046-.48.109a12.614,12.614,0,0,1-4.484.234c-.223-.043-.454-.091-.689-.136l-.544-.118c-1.767-.393-3.594-.906-3.919-1.359,0,0,.088-1.477.386-1.438s3.62,1.438,3.62,1.438l.048.007c.086.011.28.035.553.067a15.754,15.754,0,0,0,4.575-.022c.058-.016.113-.033.166-.052.092-.031.189-.064.288-.1,1.574-.557,3.93-1.555,3.93-1.555A1.046,1.046,0,0,1,694.973,229.37Z" transform="translate(-601.105 -205.077)" opacity="0.1"/>
          <path id="Path_405" data-name="Path 405" d="M696.977,225.846c-.125.618-3.6,2.015-3.6,2.015l-4.5.466-3.323-.527-1.783-1.056.012-.652a.272.272,0,0,1,.1-.3c.591.179,3.533,1.417,3.533,1.417l.047.007c.086.011.28.035.553.067a15.755,15.755,0,0,0,4.575-.022c.058-.016.113-.033.166-.052.092-.03.189-.064.288-.1,1.423-.5,3.487-1.368,3.869-1.529A.272.272,0,0,1,696.977,225.846Z" transform="translate(-603.38 -202.839)" opacity="0.1"/>
          <path id="Path_406" data-name="Path 406" d="M694.973,227.521c-.312.582-3.15,1.535-3.651,1.7l-.076.026s-.179.045-.48.107a12.617,12.617,0,0,1-4.484.234c-.223-.044-.454-.091-.689-.136l-.544-.118c-1.767-.393-3.594-.906-3.919-1.359,0,0,.088-1.477.386-1.436s3.62,1.436,3.62,1.436l.048.007c.086.011.28.037.553.067a15.754,15.754,0,0,0,4.575-.022c.058-.016.113-.033.166-.052.092-.03.189-.064.288-.1,1.574-.557,3.93-1.555,3.93-1.555A1.051,1.051,0,0,1,694.973,227.521Z" transform="translate(-601.105 -203.479)" fill="#0337bb"/>
          <circle id="Ellipse_69" data-name="Ellipse 69" cx="0.497" cy="0.497" r="0.497" transform="translate(86.831 25.115)" opacity="0.1"/>
          <circle id="Ellipse_70" data-name="Ellipse 70" cx="0.497" cy="0.497" r="0.497" transform="translate(86.831 24.99)" fill="#0337bb"/>
          <path id="Path_407" data-name="Path 407" d="M711.579,238.577l-.136,1.4-.544-.118.136-1.351C711.112,238.524,711.308,238.549,711.579,238.577Z" transform="translate(-626.829 -214.012)" opacity="0.1"/>
          <path id="Path_408" data-name="Path 408" d="M710.679,238.577l-.136,1.4-.544-.118.136-1.351C710.211,238.524,710.408,238.549,710.679,238.577Z" transform="translate(-626.052 -214.012)" fill="#0337bb"/>
          <path id="Path_409" data-name="Path 409" d="M748.759,239.089l-.076.026s-.178.045-.48.107l-.463-1.33c.058-.016.114-.033.167-.052.092-.03.189-.064.288-.1Z" transform="translate(-658.663 -213.347)" opacity="0.1"/>
          <path id="Path_410" data-name="Path 410" d="M749.679,239.089l-.076.026s-.179.045-.48.107l-.463-1.33c.058-.016.113-.033.166-.052.092-.03.189-.064.288-.1Z" transform="translate(-659.458 -213.347)" fill="#0337bb"/>
          <g id="Group_132" data-name="Group 132" transform="translate(49.875 21.882)" opacity="0.5">
            <path id="Path_411" data-name="Path 411" d="M497.169,219.5a3.587,3.587,0,0,1,1.806.5,10.126,10.126,0,0,0,2.557,0c.9-.2,1.359-.9,1.53-.7a9.431,9.431,0,0,1,.175,2.082l-.777,2.082-1.756,1.3-2.783-.8L497,221.6Z" transform="translate(-491.871 -219.259)" fill="#0337bb"/>
            <path id="Path_412" data-name="Path 412" d="M503.237,221.406l-.777,2.082-1.756,1.3-2.783-.8L497,221.631l.175-2.106h.041a3.685,3.685,0,0,1,1.767.5,10.125,10.125,0,0,0,2.557,0c.857-.19,1.309-.834,1.495-.726h0a.084.084,0,0,1,.029.022A9.255,9.255,0,0,1,503.237,221.406Z" transform="translate(-491.871 -219.286)" opacity="0.1"/>
            <path id="Path_413" data-name="Path 413" d="M503.237,221.492l-.777,2.082-1.756,1.3-2.783-.8L497,221.718l.175-2.106h.041c.155.664.815,2.763,2.919,2.911,2.163.151,2.778-2.423,2.905-3.132a.084.084,0,0,1,.029.022A9.524,9.524,0,0,1,503.237,221.492Z" transform="translate(-491.871 -219.372)" opacity="0.1"/>
            <path id="Path_414" data-name="Path 414" d="M464.553,219.721s.451,2.934,2.96,3.109,2.934-3.31,2.934-3.31,3.636,1.192,4.484,3.317,1.48,3.831,1.48,3.831-.272.476-.578.526a22,22,0,0,0-2.382,1.48,29.07,29.07,0,0,0,.2,4.313c.226.25.151,1.329-.527,1.279s-5.366-1.1-9.376-.226c0,0-1.68.6-1.631-.376s.125-4.814.125-4.814-2.533-1.1-2.682-1.1-.527-.2-.126-.852a15.755,15.755,0,0,0,.9-2.884A7.146,7.146,0,0,1,464.553,219.721Z" transform="translate(-459.255 -219.485)" fill="#0337bb"/>
            <path id="Path_415" data-name="Path 415" d="M555.63,259.77s.753.552.578.978S555.63,259.77,555.63,259.77Z" transform="translate(-542.534 -254.265)" opacity="0.1"/>
            <path id="Path_416" data-name="Path 416" d="M563.416,263.67a1.358,1.358,0,0,0,0,.749" transform="translate(-549.216 -257.635)" opacity="0.1"/>
            <path id="Path_417" data-name="Path 417" d="M566.17,273.8s.1.679-.2.751" transform="translate(-551.469 -266.389)" opacity="0.1"/>
            <path id="Path_418" data-name="Path 418" d="M485.623,258.48s-1.4,1.223-.928,1.705" transform="translate(-481.153 -253.15)" opacity="0.1"/>
            <path id="Path_419" data-name="Path 419" d="M485.688,280.26s-.023,1.279.364,1.379" transform="translate(-482.096 -271.971)" opacity="0.1"/>
            <path id="Path_420" data-name="Path 420" d="M515.4,307.822a4.4,4.4,0,0,1,1.2-.626" transform="translate(-507.771 -295.246)" opacity="0.1"/>
            <path id="Path_421" data-name="Path 421" d="M522.4,312.464s1.03-.728,1.306-.679" transform="translate(-513.819 -299.21)" opacity="0.1"/>
          </g>
          <g id="Group_133" data-name="Group 133" transform="translate(78.228 46.802)" opacity="0.5">
            <path id="Path_422" data-name="Path 422" d="M687,402.65s8.2.389,12.284.15l-.09,1.076-7.218.951-2.136-.658Z" transform="translate(-684.405 -402.65)" fill="#0337bb"/>
            <path id="Path_423" data-name="Path 423" d="M699.29,402.8l-.09,1.076-7.217.951-2.138-.658L687,402.65s.168.01.469.022h0c1.78.078,8.19.328,11.709.136Z" transform="translate(-684.405 -402.65)" opacity="0.1"/>
            <path id="Path_424" data-name="Path 424" d="M685.625,418.1c-1.585.951-7.084.03-7.084.03l-1.525-5.435-1.7,5.529c-2.42.867-7.413-.389-7.413-.389l1.943-11.958.336-1.648.317-1.582,3.079.927s.925.628,4.782.448,4.423-1.223,4.423-1.223c.17.049.332.648.495,1.393a14.881,14.881,0,0,0,.761,2.942C684.519,407.912,685.625,418.1,685.625,418.1Z" transform="translate(-667.9 -402.65)" fill="#0337bb"/>
            <path id="Path_425" data-name="Path 425" d="M697.771,405.072a14.119,14.119,0,0,1-6.4,1.836c-.733.09-6.7-1.8-6.7-1.8l.317-1.58,3.079.927s.925.628,4.782.448,4.423-1.223,4.423-1.223C697.446,403.73,697.608,404.328,697.771,405.072Z" transform="translate(-682.391 -403.41)" opacity="0.1"/>
            <path id="Path_426" data-name="Path 426" d="M699.29,402.8l-.09,1.076-7.217.951-2.138-.658L687,402.65s.168.01.469.022h0l2.609.785s.925.628,4.782.448c3.029-.136,4.029-.815,4.318-1.1Z" transform="translate(-684.405 -402.65)" opacity="0.1"/>
            <path id="Path_427" data-name="Path 427" d="M697.771,404.192a14.119,14.119,0,0,1-6.4,1.836c-.733.09-6.7-1.8-6.7-1.8l.317-1.58,3.079.927s.925.628,4.782.448,4.423-1.223,4.423-1.223C697.446,402.848,697.608,403.448,697.771,404.192Z" transform="translate(-682.391 -402.65)" fill="#0337bb"/>
            <circle id="Ellipse_71" data-name="Ellipse 71" cx="0.314" cy="0.314" r="0.314" transform="translate(9.251 2.465)" opacity="0.1"/>
            <circle id="Ellipse_72" data-name="Ellipse 72" cx="0.314" cy="0.314" r="0.314" transform="translate(9.251 2.345)" fill="none" stroke="#0337bb" stroke-miterlimit="10" stroke-width="1"/>
            <path id="Path_428" data-name="Path 428" d="M679.23,463.58s.553,1.644.942,1.614S679.23,463.58,679.23,463.58Z" transform="translate(-677.69 -455.3)" opacity="0.1"/>
            <path id="Path_429" data-name="Path 429" d="M676.59,475.46s.344.987.7,1.151" transform="translate(-675.409 -465.566)" opacity="0.1"/>
            <path id="Path_430" data-name="Path 430" d="M676.59,483.05a4.336,4.336,0,0,0,.866.852" transform="translate(-675.409 -472.125)" opacity="0.1"/>
            <path id="Path_431" data-name="Path 431" d="M784,437.3s.508.762,0,.927" transform="translate(-768.223 -432.592)" opacity="0.1"/>
            <path id="Path_432" data-name="Path 432" d="M783.558,445.321c-.59-.7-.225.951-.225.951S783.709,445.5,783.558,445.321Z" transform="translate(-767.551 -439.373)" opacity="0.1"/>
            <path id="Path_433" data-name="Path 433" d="M783.177,452.69s-.9,1.33-.717,1.48" transform="translate(-766.872 -445.89)" opacity="0.1"/>
            <path id="Path_434" data-name="Path 434" d="M685.89,425.965a6.545,6.545,0,0,1-2.31-.527l.049-.11c.022.011,2.216.963,3.4.249a1.69,1.69,0,0,0,.749-1.427l.12.009a1.8,1.8,0,0,1-.807,1.519A2.311,2.311,0,0,1,685.89,425.965Z" transform="translate(-681.449 -421.228)" opacity="0.1"/>
            <path id="Path_435" data-name="Path 435" d="M685.89,425.086a6.545,6.545,0,0,1-2.31-.527l.049-.109c.022.01,2.216.962,3.4.247a1.69,1.69,0,0,0,.749-1.427l.12.01a1.8,1.8,0,0,1-.807,1.519A2.31,2.31,0,0,1,685.89,425.086Z" transform="translate(-681.449 -420.468)" fill="#0337bb"/>
            <path id="Path_436" data-name="Path 436" d="M755.188,427.256a1.862,1.862,0,0,1-.815-.175,2.092,2.092,0,0,1-1.042-1.526l.12-.015a1.994,1.994,0,0,0,.976,1.434c.742.357,1.8.136,3.125-.679l.061.1A4.94,4.94,0,0,1,755.188,427.256Z" transform="translate(-741.721 -422.43)" opacity="0.1"/>
            <path id="Path_437" data-name="Path 437" d="M755.188,426.376a1.859,1.859,0,0,1-.815-.175,2.091,2.091,0,0,1-1.042-1.526l.12-.015a1.994,1.994,0,0,0,.976,1.434c.742.357,1.8.136,3.125-.679l.061.1A4.94,4.94,0,0,1,755.188,426.376Z" transform="translate(-741.721 -421.669)" fill="#0337bb"/>
          </g>
          <path id="Path_438" data-name="Path 438" d="M503.34,404s1.542,2.154,2.59,1.945,1.151-.439,2.082-1.945l.764,1.757-.9,2.174-1.065,1.379-2.258-.355-.731-2.468Z" transform="translate(-447.474 -357.014)" fill="#0337bb"/>
          <path id="Path_439" data-name="Path 439" d="M508.776,405.73l-.9,2.174-1.065,1.379-2.258-.355-.731-2.468-.481-2.487s.136.188.348.446c.518.618,1.5,1.646,2.242,1.495,1.033-.207,1.148-.433,2.045-1.883l.037-.061Z" transform="translate(-447.474 -356.988)" opacity="0.1"/>
          <path id="Path_440" data-name="Path 440" d="M508.776,405.756l-.9,2.174-1.065,1.379-2.258-.355-.731-2.468L503.34,404s.136.188.348.446c.337,1.087,1.061,2.831,2.242,2.816,1.333-.015,1.871-2.223,2.045-3.2l.037-.061Z" transform="translate(-447.474 -357.014)" opacity="0.1"/>
          <path id="Path_441" data-name="Path 441" d="M490.505,401.773s-.523-.062-.251.586.773,2.78.523,3.219-.125,1.631-1.212,1.862l.313,1.233a27.425,27.425,0,0,1-.062,3.116,16.519,16.519,0,0,0-.1,2.821,4.917,4.917,0,0,1-.145,1.8.574.574,0,0,0,.272.919c.544.125,2.863.189,3.282.314a30.325,30.325,0,0,0,3.386,0s1.254-.167,1.568-.272.376-.355.272-.836a32.283,32.283,0,0,1-.481-4.411c.1-.439.126-4.725.126-4.725a1.2,1.2,0,0,1-.815-1.067c0-.795-.314-2.927.334-4.264,0,0-.523-.359-.606-.295a3.365,3.365,0,0,1-.872-.166s-.408,3.638-2.113,3.658-2.465-3.658-2.465-3.658S491.468,401.272,490.505,401.773Z" transform="translate(-435.455 -354.851)" fill="#0337bb"/>
          <path id="Path_442" data-name="Path 442" d="M515.49,489.38s.352.857.939.982S515.49,489.38,515.49,489.38Z" transform="translate(-457.973 -430.792)" opacity="0.1"/>
          <path id="Path_443" data-name="Path 443" d="M511.49,494.3s1.136.92,1.087,1.109" transform="translate(-454.517 -435.044)" opacity="0.1"/>
          <path id="Path_444" data-name="Path 444" d="M494.72,454.3s.9.606.9,1.045" transform="translate(-440.025 -400.479)" opacity="0.1"/>
          <path id="Path_445" data-name="Path 445" d="M496.527,461.525a4.9,4.9,0,0,0-.417-1.065" transform="translate(-441.226 -405.802)" opacity="0.1"/>
          <path id="Path_446" data-name="Path 446" d="M496.11,470.76a7.83,7.83,0,0,1,.417.962" transform="translate(-441.226 -414.702)" opacity="0.1"/>
          <path id="Path_447" data-name="Path 447" d="M542.976,459.53s-1.17.356-1.067.795" transform="translate(-480.796 -404.998)" opacity="0.1"/>
          <path id="Path_448" data-name="Path 448" d="M541.91,478.341s1.533-1.777,1.072-1.735S541.91,478.341,541.91,478.341Z" transform="translate(-480.803 -419.753)" opacity="0.1"/>
          <g id="Group_134" data-name="Group 134" transform="translate(53.974 46.646)" opacity="0.1">
            <path id="Path_449" data-name="Path 449" d="M545.931,425.966c0-.367-.067-1.019-.075-1.746-.008.834.075,1.606.075,2.018a1.2,1.2,0,0,0,.815,1.065v-.272A1.2,1.2,0,0,1,545.931,425.966Z" transform="translate(-538.186 -421.132)"/>
            <path id="Path_450" data-name="Path 450" d="M551.855,486.689a2.1,2.1,0,0,1,.037.216,1.36,1.36,0,0,0-.037-.488c-.09-.408-.454-3.025-.492-4.047A38.757,38.757,0,0,0,551.855,486.689Z" transform="translate(-542.943 -471.38)"/>
            <path id="Path_451" data-name="Path 451" d="M491.348,469.5a12.2,12.2,0,0,1,.124-2.038,11.821,11.821,0,0,0,.079-1.845,9.382,9.382,0,0,1-.079,1.574A14.586,14.586,0,0,0,491.348,469.5Z" transform="translate(-491.085 -456.906)"/>
            <path id="Path_452" data-name="Path 452" d="M495.3,402.045c.961-.5.94-.167.94-.167s.753,3.68,2.465,3.658,2.12-3.658,2.12-3.658a3.409,3.409,0,0,0,.878.166c.083-.064.361.136.515.234.029-.072.058-.143.092-.211,0,0-.523-.359-.607-.295a3.4,3.4,0,0,1-.878-.166s-.408,3.638-2.113,3.658-2.465-3.658-2.465-3.658.02-.334-.94.167c0,0-.425-.049-.307.42C495.066,402.018,495.3,402.045,495.3,402.045Z" transform="translate(-494.221 -401.497)"/>
            <path id="Path_453" data-name="Path 453" d="M489.549,503.725c.136-.05.173-.981.164-1.495-.007.516-.054,1.181-.164,1.223s-.163.272-.121.493C489.45,503.829,489.493,503.744,489.549,503.725Z" transform="translate(-489.414 -488.542)"/>
            <path id="Path_454" data-name="Path 454" d="M491.623,429.979a1.168,1.168,0,0,0,.064-.558.716.716,0,0,1-.064.287c-.251.439-.126,1.631-1.213,1.862l.065.255C491.492,431.56,491.378,430.409,491.623,429.979Z" transform="translate(-490.275 -425.626)"/>
          </g>
          <path id="Path_455" data-name="Path 455" d="M507.358,586.438c-.514.935-5.728,0-5.728,0l.014-.094.1-.724h5.494l.1.723Z" transform="translate(-445.996 -513.954)" fill="#0337bb"/>
          <path id="Path_456" data-name="Path 456" d="M507.358,590.79c-.514.935-5.728,0-5.728,0l.014-.094c.25,0,4.022-.09,5.707,0Z" transform="translate(-445.996 -518.307)" opacity="0.1"/>
          <path id="Path_457" data-name="Path 457" d="M473.451,591.381h0s-.935.234-2.385,4.161a43.391,43.391,0,0,0-1.964,9s-.815,1.381,2.665,1.473c0,0-.28.912,1.684.772a10.153,10.153,0,0,0,1.681-.139s1.262-.795,1.824-.655a2.954,2.954,0,0,1,1.519.7c.607.514,2.549.3,2.572-.092a3.679,3.679,0,0,0,0-.586s2.969.187,2.408-1.964-1.029-5.681-1.029-5.681-1.519-6.9-3.25-6.99S473.451,591.381,473.451,591.381Z" transform="translate(-417.817 -518.898)" fill="#0337bb"/>
          <rect id="Rectangle_128" data-name="Rectangle 128" width="11.974" height="0.094" transform="matrix(0.092, -0.996, 0.996, 0.092, 53.908, 87.122)" opacity="0.1"/>
          <rect id="Rectangle_129" data-name="Rectangle 129" width="12.555" height="0.094" transform="translate(57.264 87.744) rotate(-89.78)" opacity="0.1"/>
          <path id="Path_458" data-name="Path 458" d="M535.18,611.6" transform="translate(-474.987 -536.404)" fill="none" stroke="#0337bb" stroke-miterlimit="10" stroke-width="1"/>
          <rect id="Rectangle_130" data-name="Rectangle 130" width="0.094" height="12.61" transform="translate(60.153 75.19) rotate(-2.13)" opacity="0.1"/>
          <path id="Path_459" data-name="Path 459" d="M548.291,621.995a60.272,60.272,0,0,0-1.4-12.142l.091-.023a60.644,60.644,0,0,1,1.4,12.169Z" transform="translate(-485.106 -534.875)" opacity="0.1"/>
          <path id="Path_460" data-name="Path 460" d="M502.369,596.8s-.163.094,0,.544" transform="translate(-446.572 -523.615)" opacity="0.1"/>
          <path id="Path_461" data-name="Path 461" d="M505.024,596.8s-.444.28,0,.749" transform="translate(-448.759 -523.615)" opacity="0.1"/>
          <path id="Path_462" data-name="Path 462" d="M536.9,596.8s.607.584.467.749" transform="translate(-476.474 -523.615)" opacity="0.1"/>
          <path id="Path_463" data-name="Path 463" d="M540.5,595.77s.1.7.446.889" transform="translate(-479.584 -522.725)" opacity="0.1"/>
          <g id="Group_135" data-name="Group 135" transform="translate(81.726 71.57)" opacity="0.5">
            <path id="Path_464" data-name="Path 464" d="M722.273,585.28s2.294-.913,3.286.2-.679,2.47-.679,2.47l-.7,1.4-1.65-.181-.389-1.935Z" transform="translate(-718.268 -584.926)" fill="#0337bb"/>
            <path id="Path_465" data-name="Path 465" d="M724.88,587.932l-.7,1.4-1.65-.175-.389-1.934.136-1.955.037-.014c.291-.107,2.254-.792,3.193.151a.745.745,0,0,1,.056.057C726.551,586.571,724.88,587.932,724.88,587.932Z" transform="translate(-718.268 -584.913)" opacity="0.1"/>
            <path id="Path_466" data-name="Path 466" d="M724.88,590.1l-.7,1.4-1.65-.175-.389-1.934.136-1.955.037-.014a3.756,3.756,0,0,0,1.17,2.31l.019.014.466-.038a4.016,4.016,0,0,0,1.538-2.139.757.757,0,0,1,.056.057C726.551,588.737,724.88,590.1,724.88,590.1Z" transform="translate(-718.268 -587.079)" opacity="0.1"/>
            <path id="Path_467" data-name="Path 467" d="M704.262,595.6s-.505,6.438-.368,7.216-.292.836-.292.836-1.829.408-2.174.136a2.08,2.08,0,0,0-.934-.325,4.818,4.818,0,0,1-1.965.079,4.477,4.477,0,0,0-1.614-.136s-.777.467-.992.37-.486-.058-1.109-.232-.973-.332-.643-1.4a22.5,22.5,0,0,0,.021-4.863,20.75,20.75,0,0,0-.487-2.582c-.273-1.182.466-.934.466-.934,1.733-.894,1.012-2.646.741-3.423s.155-.815.368-.815,1.031-.7,1.031-.7l.332-.3,1.011-.908a3.9,3.9,0,0,0,1.2,2.519l.019.015.466-.039a4.259,4.259,0,0,0,1.594-2.31,2.946,2.946,0,0,0,.777.739,13.314,13.314,0,0,0,1.382.856c.815.487.215.973.215.973-.992,3.384.408,3.533.408,3.533C704.748,594.058,704.262,595.6,704.262,595.6Z" transform="translate(-693.644 -587.252)" fill="#0337bb"/>
            <path id="Path_468" data-name="Path 468" d="M713.672,601.69s-.292.156-.292.33" transform="translate(-710.698 -599.41)" opacity="0.1"/>
            <path id="Path_469" data-name="Path 469" d="M714.73,604.12s-.389.408-.321.526" transform="translate(-711.581 -601.51)" opacity="0.1"/>
            <path id="Path_470" data-name="Path 470" d="M715.53,608s-.292.311-.175.486" transform="translate(-712.381 -604.863)" opacity="0.1"/>
            <path id="Path_471" data-name="Path 471" d="M717.055,591.773l-1.223,1.181a5.37,5.37,0,0,0-.992-2.806l1.011-.908A3.891,3.891,0,0,0,717.055,591.773Z" transform="translate(-711.96 -588.652)" opacity="0.1"/>
            <path id="Path_472" data-name="Path 472" d="M717.924,590.053l-1.223,1.182a5.376,5.376,0,0,0-.991-2.807l1.011-.908A3.907,3.907,0,0,0,717.924,590.053Z" transform="translate(-712.712 -587.166)" fill="#0337bb"/>
            <path id="Path_473" data-name="Path 473" d="M738.8,591.435c-.489.764-1.4,2.78-1.4,2.78l-.973-1.205a4.264,4.264,0,0,0,1.594-2.31A3.054,3.054,0,0,0,738.8,591.435Z" transform="translate(-730.616 -589.914)" opacity="0.1"/>
            <path id="Path_474" data-name="Path 474" d="M737.939,589.732c-.488.765-1.4,2.782-1.4,2.782l-.97-1.2a4.259,4.259,0,0,0,1.594-2.31A3.077,3.077,0,0,0,737.939,589.732Z" transform="translate(-729.873 -588.445)" fill="#0337bb"/>
            <path id="Path_475" data-name="Path 475" d="M745.658,686.14a11.924,11.924,0,0,1-.328,1.867" transform="translate(-738.307 -672.385)" opacity="0.1"/>
            <path id="Path_476" data-name="Path 476" d="M760.33,688.43a6.522,6.522,0,0,1,.136,1.556" transform="translate(-751.268 -674.363)" opacity="0.1"/>
            <path id="Path_477" data-name="Path 477" d="M723.087,689s-.213,1.186,0,1.322" transform="translate(-719.004 -674.856)" opacity="0.1"/>
            <path id="Path_478" data-name="Path 478" d="M713.5,687.71a14.788,14.788,0,0,0-.136,1.654" transform="translate(-710.677 -673.741)" opacity="0.1"/>
            <path id="Path_479" data-name="Path 479" d="M759.253,637.47s-.544.428-.505.544" transform="translate(-749.9 -630.328)" opacity="0.1"/>
            <path id="Path_480" data-name="Path 480" d="M761.1,639.48s-1.041.875-.52.777S761.1,639.48,761.1,639.48Z" transform="translate(-751.361 -632.065)" opacity="0.1"/>
          </g>
          <path id="Path_481" data-name="Path 481" d="M160.807,372.791l.007-.009-.012-.01h0l-.073-.049.015.011a.243.243,0,0,0-.321.071l-.03.042h0l-1.651,2.375-.288.423c-.871-.262-2.286.841-3,1.474-.045.039-.087.076-.125.111-.057-.128-.091-.209-.091-.209-.035.389-1.408.972-1.728,1.184a1.156,1.156,0,0,1-.478.16,5.824,5.824,0,0,0-1.1-3.032l-2.792-3.553a3.136,3.136,0,0,1,.285-1.885c.023-.046.046-.092.072-.136h.014a3.091,3.091,0,0,0-.175.928c.007.241.23,1.406.544,1.359a.171.171,0,0,0,.16-.076,1.9,1.9,0,0,0,.26-1.243,2.547,2.547,0,0,1-.045.4c.02-.38-.023-.783-.023-1.069,0-.114,0-.227.008-.341h.034v0h.035a3.752,3.752,0,0,0,1.705-.791.915.915,0,0,0,.641-.3.624.624,0,0,1-.121.582,1.015,1.015,0,0,0,.834-.65,2.266,2.266,0,0,0,.106-1.087,7.556,7.556,0,0,1-.08-1.1,4.065,4.065,0,0,0,.033-.6,1.163,1.163,0,0,0-.033-.182h.011a.272.272,0,0,0,.194-.076.906.906,0,0,0,.245-.533,4.536,4.536,0,0,0,.144-1.265c-.008.129-.024.26-.043.389a1.709,1.709,0,0,0-.357-1.319,2.605,2.605,0,0,0-.833-.529.61.61,0,0,1-.272-.194.787.787,0,0,1-.084-.337,2.173,2.173,0,0,0-1.447-1.495,3.177,3.177,0,0,0-2.725-.09,8.65,8.65,0,0,0-1.087.83c-.459.349-.989.594-1.48.9a2.964,2.964,0,0,0-1.192,1.215,5.728,5.728,0,0,0-.045,2.624,4.271,4.271,0,0,1-1.637,3.669,1.47,1.47,0,0,0-.36.311.389.389,0,0,0-.03.444c.058.076.151.12.215.192a.609.609,0,0,1,.053.559,3.5,3.5,0,0,1-.951,1.612c.02.144.2.2.344.223a7.925,7.925,0,0,0,1.162.084h.167c-.018.045-.037.092-.056.143a4.519,4.519,0,0,0-.393,1.93,27.286,27.286,0,0,1,.356,5.249,38.554,38.554,0,0,0,.345,5.449s.075.37.2.921c-.336.791-.719,1.669-.91,2.021a8.07,8.07,0,0,0,1.135,5.907s.544.777.408,1.059a1.325,1.325,0,0,0,.024.777l.211,4.66a12.08,12.08,0,0,1-.1,1.424,8.79,8.79,0,0,1-1.855,1.894c-.637.26-5.391,6.025-5.391,6.025s.038.069.113.182l-.136.155-.912,1.057-.072.083c-.171-.033-1.311-.239-2.215-.3h-.09v-.016a3.377,3.377,0,0,0-.951.026.305.305,0,0,0-.158.082c-.308.378-.474,6.308-.474,6.308s.329,2.969,1.359,3.135a.542.542,0,0,0,.163.03h.045a1.419,1.419,0,0,0,1.223-.762,1.178,1.178,0,0,0,.1-.272,2.19,2.19,0,0,1,.2-1.258c.321-.73.92-2.014.92-2.014s1.087-1.143.893-1.7c.03-.045.065-.094.1-.149.408-.582,1.234-1.73,1.9-2.5a1.982,1.982,0,0,1,.136-.147,3.337,3.337,0,0,0,.758.219,2.76,2.76,0,0,0,1.4-1.294,7.693,7.693,0,0,1,1.472-1.7l-.022.173-.023,5.672a4.05,4.05,0,0,0,.7.385v.136a18.2,18.2,0,0,1-.147,2.417l-.02.126c-.084-.06-.158-.08-.2-.034a6.254,6.254,0,0,0-.352,2.189v.062c-.034.622-.389,1.527.679,1.574.8.034,4.244.086,6.086.113a4.1,4.1,0,0,0,2.718-.963c.586-.5.94-1.1.143-1.537-.049-.027-.1-.053-.158-.079l-1.767-.272-3.018-1.541s-.018-.932-.38-.777a1.02,1.02,0,0,0-.306.121c-.018-.034-.037-.071-.054-.109a3.472,3.472,0,0,1-.372-1.571,1.109,1.109,0,0,1,.007-.149,3,3,0,0,0,.25-.257,10.365,10.365,0,0,1,.215-2.518c.238-.4.974-4.449.974-4.449a1.918,1.918,0,0,1,.5-1.2c.476-.447.308-1.742.308-1.742a2.1,2.1,0,0,0,.879-1.506c.213-1.152.9-3.669.9-3.669a20.122,20.122,0,0,0,1.332-6.071,17.767,17.767,0,0,1,.136-3.578l.3-5.468v-.084c.118.09.2.163.2.163v-.06c.043.037.068.06.068.06s.152-2.481.1-3.465a6.755,6.755,0,0,0,2.174-.984c.106-.352,1.533-1.465,1.533-1.465a.236.236,0,0,1-.087-.033c.045-.02.091-.045.136-.071.935-.5,2.672-1.962,2.379-2.854l1.9-2.73A.463.463,0,0,0,160.807,372.791Z" transform="translate(-127.001 -318.875)" fill="url(#linear-gradient-3)"/>
          <path id="Path_482" data-name="Path 482" d="M298.622,482.38a1.24,1.24,0,0,1-.455.173c-.594.018-1.087-1.59-1.087-1.59s.169-.171.438-.408c.8-.708,2.466-2.015,3.249-1.284C301.65,480.087,299.651,481.826,298.622,482.38Z" transform="translate(-269.242 -421.87)" fill="#ecb4b6"/>
          <path id="Path_483" data-name="Path 483" d="M217.365,764.247l-2.192,2.366s-2.027.023-1.631-1.1a4.093,4.093,0,0,0,.169-.745,18.291,18.291,0,0,0,.143-2.394c0-.525-.008-.893-.008-.893s3.192-1.4,2.866.058a2.737,2.737,0,0,0-.065.554,3.47,3.47,0,0,0,.364,1.556A3.523,3.523,0,0,0,217.365,764.247Z" transform="translate(-197.012 -665.4)" fill="#ecb4b6"/>
          <path id="Path_484" data-name="Path 484" d="M217.365,781.882l-2.192,2.366s-2.027.023-1.631-1.1a4.09,4.09,0,0,0,.169-.745,4.674,4.674,0,0,1,.705.885s1.4.408,1.783-.815a2.075,2.075,0,0,1,.815-1.188,3.517,3.517,0,0,0,.351.592Z" transform="translate(-197.012 -683.035)" opacity="0.1"/>
          <path id="Path_485" data-name="Path 485" d="M219.731,785.232a3.987,3.987,0,0,1-2.669.951c-1.807-.026-5.184-.079-5.968-.111-1.049-.046-.7-.942-.667-1.559v-.061a6.151,6.151,0,0,1,.345-2.167c.209-.209.925.932.925.932s1.4.408,1.783-.815,1.166-1.341,1.166-1.341c.355-.154.372.769.372.769l2.96,1.526,1.737.272c.056.026.106.052.154.078C220.654,784.145,220.306,784.735,219.731,785.232Z" transform="translate(-194.293 -682.822)" fill="#c17174"/>
          <circle id="Ellipse_73" data-name="Ellipse 73" cx="0.128" cy="0.128" r="0.128" transform="translate(19.842 99.802)" fill="#fff" opacity="0.25"/>
          <circle id="Ellipse_74" data-name="Ellipse 74" cx="0.128" cy="0.128" r="0.128" transform="translate(21.044 100.398)" fill="#fff" opacity="0.25"/>
          <circle id="Ellipse_75" data-name="Ellipse 75" cx="0.128" cy="0.128" r="0.128" transform="translate(21.66 100.673)" fill="#fff" opacity="0.25"/>
          <circle id="Ellipse_76" data-name="Ellipse 76" cx="0.128" cy="0.128" r="0.128" transform="translate(22.942 101.165)" fill="#fff" opacity="0.25"/>
          <circle id="Ellipse_77" data-name="Ellipse 77" cx="0.128" cy="0.128" r="0.128" transform="translate(22.29 100.956)" fill="#fff" opacity="0.25"/>
          <path id="Path_486" data-name="Path 486" d="M219.731,802.183a3.987,3.987,0,0,1-2.669.951c-1.807-.026-5.184-.079-5.968-.111-1.049-.046-.7-.942-.667-1.559l6.586.408s2.7-.408,2.854-1.212C220.654,801.1,220.306,801.686,219.731,802.183Z" transform="translate(-194.293 -699.773)" fill="#c17174"/>
          <path id="Path_487" data-name="Path 487" d="M219.731,802.183a3.987,3.987,0,0,1-2.669.951c-1.807-.026-5.184-.079-5.968-.111-1.049-.046-.7-.942-.667-1.559l6.586.408s2.7-.408,2.854-1.212C220.654,801.1,220.306,801.686,219.731,802.183Z" transform="translate(-194.293 -699.773)" fill="#fff" opacity="0.25"/>
          <path id="Path_488" data-name="Path 488" d="M160.077,732.069a4.547,4.547,0,0,0-.66.663c-.654.758-1.462,1.9-1.863,2.47-.155.223-.249.363-.249.363l-.875-.129s-.943-1.445-.931-1.479.747-1.586.747-1.586l.284-.333.9-1.046.408-.473S160.867,731.5,160.077,732.069Z" transform="translate(-146.9 -639.164)" fill="#ecb4b6"/>
          <path id="Path_489" data-name="Path 489" d="M157.554,744.866c-.155.223-.249.363-.249.363l-.875-.129s-.943-1.444-.931-1.478.747-1.589.747-1.589l.284-.333.092.018h.223c-.781.815.057,2.609.057,2.609A.953.953,0,0,1,157.554,744.866Z" transform="translate(-146.9 -648.825)" opacity="0.1"/>
          <path id="Path_490" data-name="Path 490" d="M138.976,745.135s-.583,1.258-.9,1.981a2.187,2.187,0,0,0-.2,1.246,1.221,1.221,0,0,1-.1.272,1.373,1.373,0,0,1-1.193.755h-.057c-1.063-.027-1.4-3.112-1.4-3.112s.163-5.872.466-6.251a.291.291,0,0,1,.154-.082,3.262,3.262,0,0,1,.936-.026c.961.069,2.2.306,2.2.306h.221c-.781.815.057,2.61.057,2.61a.96.96,0,0,1,.664.558C140.116,743.919,138.976,745.135,138.976,745.135Z" transform="translate(-129.299 -647.267)" fill="#c17174"/>
          <circle id="Ellipse_78" data-name="Ellipse 78" cx="0.128" cy="0.128" r="0.128" transform="translate(8.266 95.992)" fill="#fff" opacity="0.25"/>
          <circle id="Ellipse_79" data-name="Ellipse 79" cx="0.128" cy="0.128" r="0.128" transform="translate(8.202 97.01)" fill="#fff" opacity="0.25"/>
          <path id="Path_491" data-name="Path 491" d="M137.15,748.444a1.373,1.373,0,0,1-1.193.756H135.9c-1.063-.027-1.4-3.112-1.4-3.112s.163-5.872.466-6.251a.291.291,0,0,1,.154-.082,3.262,3.262,0,0,1,.936-.026c-.018,1.056-.068,4.392,0,4.723A28.615,28.615,0,0,0,137.15,748.444Z" transform="translate(-128.755 -647.103)" fill="#c17174"/>
          <path id="Path_492" data-name="Path 492" d="M137.15,748.444a1.373,1.373,0,0,1-1.193.756H135.9c-1.063-.027-1.4-3.112-1.4-3.112s.163-5.872.466-6.251a.291.291,0,0,1,.154-.082,3.262,3.262,0,0,1,.936-.026c-.018,1.056-.068,4.392,0,4.723A28.615,28.615,0,0,0,137.15,748.444Z" transform="translate(-128.755 -647.103)" fill="#fff" opacity="0.25"/>
          <path id="Path_493" data-name="Path 493" d="M135.891,749.524c-1.063-.027-1.4-3.112-1.4-3.112s.163-5.872.466-6.251a.291.291,0,0,1,.154-.082,4.261,4.261,0,0,1,.242,2.68c-.332,3.059.068,3.252.068,3.252A27.217,27.217,0,0,1,135.891,749.524Z" transform="translate(-128.746 -647.425)" fill="#c17174"/>
          <path id="Path_494" data-name="Path 494" d="M135.891,749.524c-1.063-.027-1.4-3.112-1.4-3.112s.163-5.872.466-6.251a.291.291,0,0,1,.154-.082,4.261,4.261,0,0,1,.242,2.68c-.332,3.059.068,3.252.068,3.252A27.217,27.217,0,0,1,135.891,749.524Z" transform="translate(-128.746 -647.425)" opacity="0.1"/>
          <path id="Path_495" data-name="Path 495" d="M298.622,491.915a1.239,1.239,0,0,1-.455.173c-.594.018-1.087-1.59-1.087-1.59s.169-.171.438-.408A5.722,5.722,0,0,0,298.622,491.915Z" transform="translate(-269.242 -431.406)" opacity="0.1"/>
          <path id="Path_496" data-name="Path 496" d="M276.718,490.705a1.494,1.494,0,0,0,.8-.174c.314-.209,1.661-.787,1.7-1.171,0,0,.8,1.957,1.258,2.027,0,0-1.4,1.1-1.5,1.45s-2.832,1.207-2.832,1.207Z" transform="translate(-251.148 -430.775)" fill="#ff748e"/>
          <path id="Path_497" data-name="Path 497" d="M276.718,490.705a1.494,1.494,0,0,0,.8-.174c.314-.209,1.661-.787,1.7-1.171,0,0,.8,1.957,1.258,2.027,0,0-1.4,1.1-1.5,1.45s-2.832,1.207-2.832,1.207Z" transform="translate(-251.148 -430.775)" opacity="0.1"/>
          <path id="Path_498" data-name="Path 498" d="M172.323,732.069a4.544,4.544,0,0,0-.66.663,4.714,4.714,0,0,1-1.992-1.739l.408-.473S173.112,731.5,172.323,732.069Z" transform="translate(-159.146 -639.164)" opacity="0.1"/>
          <path id="Path_499" data-name="Path 499" d="M177.439,669a13.663,13.663,0,0,1-2.335,2.541c-.625.257-5.285,5.965-5.285,5.965a4.486,4.486,0,0,0,2.843,2.143,2.72,2.72,0,0,0,1.375-1.281c.374-.886,3.309-3.389,3.309-3.389Z" transform="translate(-159.275 -586.004)" fill="#5e5a6b"/>
          <path id="Path_500" data-name="Path 500" d="M177.439,669a13.663,13.663,0,0,1-2.335,2.541c-.625.257-5.285,5.965-5.285,5.965a4.486,4.486,0,0,0,2.843,2.143,2.72,2.72,0,0,0,1.375-1.281c.374-.886,3.309-3.389,3.309-3.389Z" transform="translate(-159.275 -586.004)" opacity="0.1"/>
          <path id="Path_501" data-name="Path 501" d="M187.78,725.189a7.456,7.456,0,0,0,1.556,0C190.256,725.1,189.563,725.66,187.78,725.189Z" transform="translate(-174.795 -634.549)" opacity="0.1"/>
          <path id="Path_502" data-name="Path 502" d="M184.69,729.62s1.223.7,1.7.349S185.931,730.306,184.69,729.62Z" transform="translate(-172.124 -638.387)" opacity="0.1"/>
          <path id="Path_503" data-name="Path 503" d="M218.986,761.529a2.74,2.74,0,0,0-.065.554,2.5,2.5,0,0,1-2.792.28c0-.524-.008-.893-.008-.893S219.312,760.067,218.986,761.529Z" transform="translate(-199.284 -665.385)" opacity="0.1"/>
          <path id="Path_504" data-name="Path 504" d="M218.265,540.935l-.034.644-.291,5.415a17.024,17.024,0,0,0-.136,3.541,19.927,19.927,0,0,1-1.31,6.02s-.679,2.494-.886,3.635a2.08,2.08,0,0,1-.862,1.495s.163,1.281-.3,1.724a1.913,1.913,0,0,0-.489,1.188s-.723,4.009-.951,4.405a10.628,10.628,0,0,0-.211,2.494c-1.514,1.794-3.727.163-3.727.163l.023-5.616s.629-5.173,1.1-5.9a7.172,7.172,0,0,0,.466-2.7l-.208-4.62a1.246,1.246,0,0,1-.023-.769c.143-.28-.4-1.048-.4-1.048a8.025,8.025,0,0,1-1.113-5.843c.382-.692,1.511-3.495,1.511-3.495l1.559-.909,2.817.083Z" transform="translate(-192.9 -475.19)" fill="#5e5a6b"/>
          <path id="Path_505" data-name="Path 505" d="M230.1,744.15s.368,1.276.664,1.416S230.1,744.15,230.1,744.15Z" transform="translate(-211.364 -650.942)" opacity="0.1"/>
          <path id="Path_506" data-name="Path 506" d="M233.83,712.9s.951.753,1.359.751S233.83,712.9,233.83,712.9Z" transform="translate(-214.587 -623.939)" opacity="0.1"/>
          <path id="Path_507" data-name="Path 507" d="M228.57,423.173v1.538l-1.015-.437-1.012-.436-2.2-2.167a16.687,16.687,0,0,1-2.676-2.163c-.533-.588-.8-1.144-.332-1.438a2.924,2.924,0,0,0,.61-.534,10.033,10.033,0,0,0,1.215-1.794c.015-.026.03-.052.043-.078.454-.833.754-1.544.754-1.544a9.186,9.186,0,0,1,2.1.989c.067.046.129.094.189.143.458.375.686.815.264,1.245a3.258,3.258,0,0,0-.3.359h0a2.932,2.932,0,0,0-.188.294c-.024.046-.049.091-.071.136a3.134,3.134,0,0,0-.28,1.866Z" transform="translate(-203.578 -365.759)" fill="#ecb4b6"/>
          <path id="Path_508" data-name="Path 508" d="M274.4,394.359c.053.092.126.171.175.265a1.273,1.273,0,0,1,.077.652,3.708,3.708,0,0,0,.068,1.041,4.85,4.85,0,0,1,.217.919,2.41,2.41,0,0,1-.439,1.241.893.893,0,0,0,.639-.3.62.62,0,0,1-.117.575.988.988,0,0,0,.815-.643,2.241,2.241,0,0,0,.1-1.087,7.421,7.421,0,0,1-.079-1.094,4,4,0,0,0,.031-.6,2.165,2.165,0,0,0-.511-1.06l-.473-.65a.335.335,0,0,0-.136-.124C274.322,393.31,274.27,394.133,274.4,394.359Z" transform="translate(-249.589 -347.917)" fill="#464353"/>
          <path id="Path_509" data-name="Path 509" d="M239.708,416.479a3.258,3.258,0,0,0-.3.359h0a2.932,2.932,0,0,0-.188.294c-.024.046-.049.091-.071.136a3.669,3.669,0,0,1-2.746-1.484c-.015-.02-.03-.041-.043-.062.015-.026.03-.052.043-.077.454-.833.754-1.544.754-1.544a9.188,9.188,0,0,1,2.1.989c.067.046.129.094.189.143C239.9,415.61,240.125,416.045,239.708,416.479Z" transform="translate(-216.773 -365.742)" opacity="0.1"/>
          <path id="Path_510" data-name="Path 510" d="M238.709,386.125a3.669,3.669,0,0,1-3.005,3.609,3.709,3.709,0,0,1-.665.06H234.9a3.669,3.669,0,1,1,3.8-3.669Z" transform="translate(-212.461 -338.4)" fill="#ecb4b6"/>
          <path id="Path_511" data-name="Path 511" d="M253.347,454.563s1.848,1.042,1.375.163l-2.412-3.566h0l2.738,3.518s1.748,2.4.792,4.055a6.143,6.143,0,0,0,.023,1.7,29.529,29.529,0,0,1-.046,3.8s-.654-.606-1-.491-2.814.322-2.814.322Z" transform="translate(-230.288 -397.766)" opacity="0.1"/>
          <path id="Path_512" data-name="Path 512" d="M256.067,541.393l-.034.644c-.221-.16-.53-.34-.735-.272-.349.117-2.818.328-2.818.328l.113-.8Z" transform="translate(-230.703 -475.648)" opacity="0.1"/>
          <path id="Path_513" data-name="Path 513" d="M253.831,454.563s1.849,1.042,1.375.163l-2.412-3.566h0l2.738,3.518s1.747,2.4.792,4.055a6.144,6.144,0,0,0,.023,1.7,29.529,29.529,0,0,1-.046,3.8s-.652-.606-1-.491-2.82.328-2.82.328Z" transform="translate(-230.703 -397.766)" fill="#464353"/>
          <path id="Path_514" data-name="Path 514" d="M218.992,446.481a12.733,12.733,0,0,1-.568,2.454,24.823,24.823,0,0,1-.749,4.293c-.423.984-.234,2.331-.466,4.824a3.156,3.156,0,0,1-.764,1.931,2.862,2.862,0,0,1-2.28.785l-.171-.014c-1.166-.116-2.284-5.732-2.284-5.732a39.543,39.543,0,0,1-.326-5.435,26.754,26.754,0,0,0-.346-5.192,4.51,4.51,0,0,1,.385-1.911c.121-.318.22-.544.22-.544a5.63,5.63,0,0,1,1.049-1.911.962.962,0,0,1,.692-.291,1.73,1.73,0,0,1,.863.272.246.246,0,0,1,.03.02s4.242,4.335,4.638,5.336A2.562,2.562,0,0,1,218.992,446.481Z" transform="translate(-194.876 -387.898)" opacity="0.1"/>
          <path id="Path_515" data-name="Path 515" d="M217.963,445.988a12.8,12.8,0,0,1-.569,2.453,24.9,24.9,0,0,1-.746,4.289c-.42.978-.232,2.331-.466,4.824a3.163,3.163,0,0,1-.764,1.931,2.867,2.867,0,0,1-2.28.785l-.171-.014c-1.166-.117-2.284-5.733-2.284-5.733a39.493,39.493,0,0,1-.326-5.429,26.854,26.854,0,0,0-.349-5.2,4.514,4.514,0,0,1,.385-1.911c.121-.318.22-.537.22-.537a5.63,5.63,0,0,1,1.049-1.911.951.951,0,0,1,.692-.289,1.7,1.7,0,0,1,.863.272l.03.019s4.242,4.335,4.638,5.336A2.51,2.51,0,0,1,217.963,445.988Z" transform="translate(-193.986 -387.474)" fill="#ff748e"/>
          <path id="Path_516" data-name="Path 516" d="M225.19,614.38s-.962.856-1.294.815S225.19,614.38,225.19,614.38Z" transform="translate(-205.965 -538.806)" opacity="0.1"/>
          <path id="Path_517" data-name="Path 517" d="M226.9,620.345a13.785,13.785,0,0,1-1.317.544C225.284,620.961,226.513,620.224,226.9,620.345Z" transform="translate(-207.423 -543.949)" opacity="0.1"/>
          <path id="Path_518" data-name="Path 518" d="M264.44,525.62s1.5.018,1.73.489S264.924,525.427,264.44,525.62Z" transform="translate(-241.037 -462.089)" opacity="0.1"/>
          <path id="Path_519" data-name="Path 519" d="M262.89,531.8a5.466,5.466,0,0,1,1.5.524C264.742,532.6,262.89,531.8,262.89,531.8Z" transform="translate(-239.698 -467.448)" opacity="0.1"/>
          <path id="Path_520" data-name="Path 520" d="M243.613,510.84s-.136,4.736-.655,5.349S243.613,510.84,243.613,510.84Z" transform="translate(-222.36 -449.336)" opacity="0.1"/>
          <path id="Path_521" data-name="Path 521" d="M237.571,607.321s-.965,4.177.97,4.435S239.878,607,239.878,607Z" transform="translate(-217.611 -532.429)" opacity="0.1"/>
          <path id="Path_522" data-name="Path 522" d="M237.065,606.828s-.959,4.177.972,4.438,1.336-4.756,1.336-4.756Z" transform="translate(-217.176 -532.006)" fill="#ecb4b6"/>
          <path id="Path_523" data-name="Path 523" d="M222.786,385.73a1.414,1.414,0,0,1-.136-.254c-.257-.535-.917-.272-1.4-.018l-.258.333a2.072,2.072,0,0,0-.295.455,3.443,3.443,0,0,0-.124.408c-.067.236-.164.462-.253.693a8.056,8.056,0,0,0-.515,2.4,3.708,3.708,0,0,1-.666.06h-.016v-.016c.024-.092.045-.186.064-.28h0a4.848,4.848,0,0,0,.037-1.6v-.035c-.018-.118-.041-.238-.05-.356-.045.082-.088.164-.136.249a2.662,2.662,0,0,1-1.151,1.325,2.361,2.361,0,0,1-.7.158,3.993,3.993,0,0,0-.875.145.544.544,0,0,0-.254.154.75.75,0,0,0-.128.383,3.087,3.087,0,0,1-.136.531,4.658,4.658,0,0,1-1.141,1.7l-.126.122a2.366,2.366,0,0,1-.756.523,2.31,2.31,0,0,1-.8.12c.121-.318.22-.537.22-.537a5.63,5.63,0,0,1,1.049-1.911.951.951,0,0,1,.692-.289,10.262,10.262,0,0,0,1.258-1.871,3.669,3.669,0,1,1,6.6-2.582Z" transform="translate(-196.562 -338.41)" opacity="0.1"/>
          <path id="Path_524" data-name="Path 524" d="M212.936,366.993a2.5,2.5,0,0,0-.815-.523.621.621,0,0,1-.265-.193.807.807,0,0,1-.082-.333,2.164,2.164,0,0,0-1.419-1.488,3.093,3.093,0,0,0-2.672-.09,8.67,8.67,0,0,0-1.061.823c-.451.345-.97.587-1.451.889a2.851,2.851,0,0,0-1.169,1.2,5.7,5.7,0,0,0-.043,2.6,4.27,4.27,0,0,1-1.606,3.639,1.4,1.4,0,0,0-.353.308.387.387,0,0,0-.029.439c.056.076.148.12.209.19a.6.6,0,0,1,.052.554,3.468,3.468,0,0,1-.932,1.594c.019.144.193.2.336.222a7.627,7.627,0,0,0,1.14.083,1.916,1.916,0,0,0,1.594-.643,4.328,4.328,0,0,0,1.408-2.355.776.776,0,0,1,.128-.383.575.575,0,0,1,.254-.154c.507-.174,1.087-.088,1.575-.3a3.1,3.1,0,0,0,1.284-1.574c.011.118.033.238.052.357a4.831,4.831,0,0,1-.1,1.919,3.982,3.982,0,0,0-.213,1.074c.007.272.283,1.692.645,1.266s.23-1.366.23-1.893a8.092,8.092,0,0,1,.534-2.888c.087-.23.186-.457.253-.693a3.721,3.721,0,0,1,.122-.408,2.13,2.13,0,0,1,.3-.455l.26-.333c.484-.257,1.144-.518,1.4.018.1.205.151.432.408.232a.913.913,0,0,0,.239-.527A2.45,2.45,0,0,0,212.936,366.993Z" transform="translate(-186.477 -322.536)" fill="#464353"/>
          <path id="Path_525" data-name="Path 525" d="M220.209,465.9a2.28,2.28,0,0,0-4.431-.655.349.349,0,0,0-.016.049c-.537,1.608-.3,5.679-.3,5.679a24.63,24.63,0,0,0,.326,3.643c.257.909.978,3.518.978,3.941a4.872,4.872,0,0,0,.951,2.144c.281.117.424,1.025.493,1.188s.272,2.284.272,2.284,2.634-.163,2.68-.583a15.007,15.007,0,0,0-.583-2.47,4.755,4.755,0,0,1-.523-1.514c-.06-.675-.424-.982-.352-1.449s-.211-.7-.211-1a7.455,7.455,0,0,0-.209-1.118s-.443-.351-.372-.769-.629-1.258-.443-1.561a3.153,3.153,0,0,0,.232-1.049s.234-3.355.4-4.264a9.031,9.031,0,0,1,1.118-2.377S220.211,465.979,220.209,465.9Z" transform="translate(-198.668 -408.618)" opacity="0.1"/>
          <path id="Path_526" data-name="Path 526" d="M218.328,480.176a2.867,2.867,0,0,1-2.28.785c-.084-.318-.207-.709-.385-.783a4.871,4.871,0,0,1-.951-2.143c0-.419-.722-3.03-.978-3.941a24.633,24.633,0,0,1-.326-3.642s-.234-4.077.3-5.68a.142.142,0,0,1,.016-.048,2.28,2.28,0,0,1,4.431.655v.116a9.166,9.166,0,0,0-1.118,2.377c-.167.909-.394,4.264-.394,4.264a3.165,3.165,0,0,1-.234,1.049c-.186.3.512,1.143.443,1.561a.957.957,0,0,0,.372.769,7.445,7.445,0,0,1,.209,1.12c0,.3.28.535.211,1s.3.769.363,1.445A3.766,3.766,0,0,0,218.328,480.176Z" transform="translate(-196.896 -408.165)" opacity="0.1"/>
          <path id="Path_527" data-name="Path 527" d="M219.179,465.394a2.28,2.28,0,0,0-4.431-.655l-.016.048c-.537,1.609-.3,5.68-.3,5.68a24.619,24.619,0,0,0,.326,3.642c.257.909.978,3.519.978,3.941a4.879,4.879,0,0,0,.951,2.144c.281.117.424,1.026.493,1.189s.272,2.283.272,2.283,2.634-.163,2.68-.582a15.056,15.056,0,0,0-.582-2.47,4.755,4.755,0,0,1-.525-1.515c-.06-.675-.432-.978-.361-1.445s-.211-.7-.211-1a7.456,7.456,0,0,0-.209-1.118.951.951,0,0,1-.372-.769c.071-.42-.629-1.258-.443-1.561a3.147,3.147,0,0,0,.232-1.048s.234-3.356.4-4.266a9.029,9.029,0,0,1,1.118-2.377A.593.593,0,0,0,219.179,465.394Z" transform="translate(-197.778 -408.178)" fill="#ff748e"/>
          <path id="Path_528" data-name="Path 528" d="M217.88,519.625c.069-.071,1.4-1.538,1.817-1.014S217.88,519.625,217.88,519.625Z" transform="translate(-200.804 -455.954)" opacity="0.1"/>
          <path id="Path_529" data-name="Path 529" d="M218.78,528.766c.052-.053,1.328-.1,1.643-.815S218.78,528.766,218.78,528.766Z" transform="translate(-201.582 -463.958)" opacity="0.1"/>
          <g id="Group_136" data-name="Group 136" transform="translate(14.862 45.378)" opacity="0.1">
            <path id="Path_530" data-name="Path 530" d="M206.383,436.758a.36.36,0,0,1,.069.126.544.544,0,0,0-.069-.476c-.062-.072-.154-.114-.211-.19l-.011-.019a.36.36,0,0,0,.011.368C206.236,436.644,206.32,436.688,206.383,436.758Z" transform="translate(-205.501 -430.217)"/>
            <path id="Path_531" data-name="Path 531" d="M220.28,395.317v-.4c-.024-.476-.113-.963-.136-1.44a17.413,17.413,0,0,0,.136,1.79C220.28,395.283,220.279,395.3,220.28,395.317Z" transform="translate(-217.619 -393.302)"/>
            <path id="Path_532" data-name="Path 532" d="M257.145,442.673c-.323.379-.578-.712-.633-1.143a1.779,1.779,0,0,0-.012.226c.008.272.283,1.692.645,1.266a1.863,1.863,0,0,0,.255-1.231A1.465,1.465,0,0,1,257.145,442.673Z" transform="translate(-249.038 -434.823)"/>
            <path id="Path_533" data-name="Path 533" d="M209.36,416.668a4.681,4.681,0,0,1,.05.552,4.776,4.776,0,0,0-.05-.9c-.018-.118-.041-.238-.052-.357a3.1,3.1,0,0,1-1.283,1.575c-.493.213-1.068.129-1.575.3a.544.544,0,0,0-.254.154.758.758,0,0,0-.128.383,4.347,4.347,0,0,1-1.409,2.355,1.916,1.916,0,0,1-1.594.643,7.8,7.8,0,0,1-1.139-.083.868.868,0,0,1-.171-.045c-.053.06-.109.117-.166.173.019.144.194.2.337.221a7.613,7.613,0,0,0,1.139.083,1.916,1.916,0,0,0,1.594-.643,4.339,4.339,0,0,0,1.409-2.355.763.763,0,0,1,.128-.383.56.56,0,0,1,.254-.154c.507-.174,1.087-.088,1.575-.3a3.087,3.087,0,0,0,1.283-1.574C209.319,416.429,209.342,416.548,209.36,416.668Z" transform="translate(-201.59 -412.727)"/>
            <path id="Path_534" data-name="Path 534" d="M266.453,393.074a.919.919,0,0,1-.24.527c-.256.2-.307-.027-.408-.232-.257-.535-.917-.272-1.4-.018l-.26.333a2.072,2.072,0,0,0-.295.455,3.215,3.215,0,0,0-.122.408c-.068.236-.166.462-.254.692a8.134,8.134,0,0,0-.533,2.888v.144a8.113,8.113,0,0,1,.531-2.681c.088-.23.186-.457.254-.693a3.207,3.207,0,0,1,.122-.408,2.074,2.074,0,0,1,.295-.455l.26-.333c.484-.257,1.144-.518,1.4.018.1.205.151.432.408.232a.914.914,0,0,0,.24-.527,4.606,4.606,0,0,0,.136-1.253A5.987,5.987,0,0,1,266.453,393.074Z" transform="translate(-254.603 -392.17)"/>
          </g>
          <path id="Path_535" data-name="Path 535" d="M311.82,463.257l.072.049a.288.288,0,0,1-.075-.408l3.24-4.694a.287.287,0,0,1,.4-.073l-.072-.05a.463.463,0,0,1,.118.644l-3.04,4.412A.465.465,0,0,1,311.82,463.257Z" transform="translate(-281.93 -403.746)" fill="#464353"/>
          <path id="Path_536" data-name="Path 536" d="M.236,0H.3V6.286H.236A.236.236,0,0,1,0,6.05V.238A.236.236,0,0,1,.236,0Z" transform="translate(33.295 54.219) rotate(34.56)" fill="#9f9eff"/>
          <rect id="Rectangle_131" data-name="Rectangle 131" width="0.058" height="0.512" rx="0.029" transform="translate(33.06 55.041) rotate(34.56)" fill="#464353"/>
          <path id="Path_537" data-name="Path 537" d="M811.774,325.341A2.347,2.347,0,1,1,809.427,323a2.347,2.347,0,0,1,2.347,2.341Zm-2.619,1.242,1.742-1.741a.152.152,0,0,0,0-.213l-.215-.215a.149.149,0,0,0-.213,0l-1.42,1.42-.663-.66a.153.153,0,0,0-.215,0l-.213.215a.149.149,0,0,0,0,.213l.984.984a.149.149,0,0,0,.213,0Z" transform="translate(-709.94 -287.021)" fill="#3acc6c"/>
          <path id="Path_538" data-name="Path 538" d="M602.563,514.847a2.347,2.347,0,1,1-2.347-2.347A2.347,2.347,0,0,1,602.563,514.847Zm-2.619,1.242,1.747-1.741a.151.151,0,0,0,0-.215l-.22-.207a.151.151,0,0,0-.215,0l-1.42,1.413-.663-.663a.15.15,0,0,0-.213,0l-.215.213a.154.154,0,0,0,0,.215l.984.984a.151.151,0,0,0,.215,0Z" transform="translate(-529.158 -450.77)" fill="#3acc6c"/>
          <path id="Path_539" data-name="Path 539" d="M602.563,703.507a2.347,2.347,0,1,1-2.347-2.347A2.347,2.347,0,0,1,602.563,703.507Zm-2.619,1.242,1.747-1.741a.151.151,0,0,0,0-.215l-.213-.213a.151.151,0,0,0-.215,0l-1.42,1.42-.663-.663a.149.149,0,0,0-.213,0l-.215.213a.154.154,0,0,0,0,.215l.984.984a.151.151,0,0,0,.215,0Z" transform="translate(-529.158 -613.794)" fill="#3acc6c"/>
        </g>
      </g>
    </g>
    <g id="undraw_online_groceries_a02y" transform="translate(741 223)">
      <rect id="Rectangle_112" data-name="Rectangle 112" width="141.17" height="0.609" transform="translate(68.028 196.704)" fill="#3f3d56"/>
      <path id="Path_331" data-name="Path 331" d="M822.657,403.153a2.994,2.994,0,0,1-.585,4.409l-14.61,10.031-6.433,4.289a1.769,1.769,0,0,1-2.35-.352h0a1.769,1.769,0,0,1,.481-2.65l6.231-3.618,10.875-10.357-6.991-7.509,5.178-3.884Z" transform="translate(-639.805 -309.988)" fill="#a0616a"/>
      <path id="Path_332" data-name="Path 332" d="M531.251,610.67h-3.574l-2.123-29.517,9.063-.259Z" transform="translate(-382.756 -423.058)" fill="#a0616a"/>
      <path id="Path_333" data-name="Path 333" d="M732.364,783.049c-.953.435-1.751-3.089-2.555-2.3a8.641,8.641,0,0,1-8.692,1.726l1.05-.012a1.406,1.406,0,0,1-.886-1.832h0a1.406,1.406,0,0,1,.975-.87l2.391-.6,3.755-6.6,3.833-.259h0a9.157,9.157,0,0,1,1.694,7.811C733.581,781.535,733.044,782.74,732.364,783.049Z" transform="translate(-583.609 -585.857)" fill="#2f2e41"/>
      <path id="Path_334" data-name="Path 334" d="M618.827,606.507h-3.574l-2.123-29.517,9.321-1.812Z" transform="translate(-446.536 -418.894)" fill="#a0616a"/>
      <path id="Path_335" data-name="Path 335" d="M819.94,782.355c-.953.435-1.751-3.089-2.555-2.3a8.641,8.641,0,0,1-8.692,1.726l1.05-.012a1.405,1.405,0,0,1-.886-1.831h0a1.406,1.406,0,0,1,.975-.87l2.391-.6,3.755-6.6,4.092-.518.1.169a10.55,10.55,0,0,1,1.131,8.626A3.609,3.609,0,0,1,819.94,782.355Z" transform="translate(-647.39 -585.163)" fill="#2f2e41"/>
      <path id="Path_336" data-name="Path 336" d="M829.512,368.9a7.237,7.237,0,0,0-6.489,5.847L816.983,363.6a3.3,3.3,0,0,1,1.052-4.194h0a3.3,3.3,0,0,1,4.486.657Z" transform="translate(-653.168 -284.709)" fill="#0337bb"/>
      <path id="Path_337" data-name="Path 337" d="M766.588,507.31c-14.688,6.5-29.72,7.3-45.053,3.107,5.6-21.716,12.21-41.351,12.17-57.481l15.018-1.295,2.312,3.666a81.324,81.324,0,0,1,11.16,28.465Z" transform="translate(-583.914 -352.322)" fill="#2f2e41"/>
      <circle id="Ellipse_57" data-name="Ellipse 57" cx="7.768" cy="7.768" r="7.768" transform="translate(150.308 51.677)" fill="#a0616a"/>
      <path id="Path_338" data-name="Path 338" d="M583.383,244.3l-9.58.518-1.554-8.545,7.768-1.294Z" transform="translate(-416.762 -171.132)" fill="#a0616a"/>
      <path id="Path_339" data-name="Path 339" d="M774.775,376.6l-10.5.3-5.3.74c-2.6-8.592-4.791-17.164.518-24.339l6.214-6.214,9.321-.259.124.07a7.506,7.506,0,0,1,3.439,8.733C776.283,363.139,774.8,370.237,774.775,376.6Z" transform="translate(-609.19 -275.982)" fill="#0337bb"/>
      <path id="Path_340" data-name="Path 340" d="M753.015,438.152l-.651,8.9a1.982,1.982,0,0,1-1.845,1.833h0a1.982,1.982,0,0,1-2.113-2.025l.207-8.706,6.473-24.6.259-15.018,7.25-.259-.518,17.348Z" transform="translate(-603.483 -313.458)" fill="#a0616a"/>
      <path id="Path_341" data-name="Path 341" d="M780.585,365.561a7.237,7.237,0,0,0-8.545,1.813l.356-12.68a3.3,3.3,0,0,1,3.011-3.1h0a3.3,3.3,0,0,1,3.554,2.815Z" transform="translate(-620.696 -279.447)" fill="#0337bb"/>
      <path id="Path_342" data-name="Path 342" d="M793.479,307.743H769.658c5.557-14.715,7.349-28.4,0-40.133.126-3.523,4.644-6.577,8.153-6.239h0c4.144.4,9.713,3.444,10.489,7.534Z" transform="translate(-618.961 -213.732)" fill="#2f2e41"/>
      <path id="Path_343" data-name="Path 343" d="M313.64,133.1h-1.087V103.338a17.227,17.227,0,0,0-17.227-17.227H232.265a17.227,17.227,0,0,0-17.227,17.227V266.63a17.227,17.227,0,0,0,17.227,17.227h63.061a17.227,17.227,0,0,0,17.227-17.227V154.29h1.087Z" transform="translate(-215.038 -86.111)" fill="#3f3d56"/>
      <path id="Path_344" data-name="Path 344" d="M308.762,102.606h-8.232a6.112,6.112,0,0,1-5.659,8.42H258.745a6.112,6.112,0,0,1-5.659-8.42H245.4a12.865,12.865,0,0,0-12.865,12.865V278.523A12.865,12.865,0,0,0,245.4,291.388h63.364a12.865,12.865,0,0,0,12.865-12.865V115.471a12.865,12.865,0,0,0-12.865-12.865Z" transform="translate(-227.78 -98.124)" fill="#fff"/>
      <rect id="Rectangle_113" data-name="Rectangle 113" width="66.841" height="57.331" transform="translate(15.88 29.952)" fill="#e6e6e6"/>
      <circle id="Ellipse_58" data-name="Ellipse 58" cx="4.891" cy="4.891" r="4.891" transform="translate(30.824 89.457)" fill="#0337bb"/>
      <path id="Path_345" data-name="Path 345" d="M127.336,340.272H125.3v-2.038h-.815v2.038h-2.038v.815h2.038v2.038h.815v-2.038h2.038Z" transform="translate(-89.175 -246.332)" fill="#fff"/>
      <circle id="Ellipse_59" data-name="Ellipse 59" cx="4.891" cy="4.891" r="4.891" transform="translate(56.637 89.457)" fill="#0337bb"/>
      <rect id="Rectangle_114" data-name="Rectangle 114" width="0.815" height="4.891" transform="translate(63.973 93.94) rotate(90)" fill="#fff"/>
      <path id="Path_346" data-name="Path 346" d="M389.622,222.66H384.34a.7.7,0,0,0-.7.7v2.318a.7.7,0,0,0,.7.7h.875v3.474h3.531v-3.474h.875a.7.7,0,0,0,.7-.7V223.36A.7.7,0,0,0,389.622,222.66Z" transform="translate(-337.829 -185.558)" fill="#0337bb"/>
      <path id="Path_347" data-name="Path 347" d="M381.88,253.379a27.157,27.157,0,0,1-4.724-16.1.573.573,0,0,0-.447-.572v-1H371.13v.988h-.077a.572.572,0,0,0-.572.573c0,.014,0,.028,0,.042a24.784,24.784,0,0,1-4.452,16.482,1.578,1.578,0,0,0-.286.956l.61,18.869a1.633,1.633,0,0,0,1.619,1.577h12.618a1.634,1.634,0,0,0,1.62-1.6l.235-18.32A3.306,3.306,0,0,0,381.88,253.379Z" transform="translate(-324.796 -195.059)" fill="#3f3d56"/>
      <path id="Path_348" data-name="Path 348" d="M393.506,225.44a1.511,1.511,0,1,1-3.022,0" transform="translate(-342.813 -187.583)" opacity="0.2"/>
      <path id="Path_349" data-name="Path 349" d="M385.317,314.708h-1.528a4.01,4.01,0,0,0-7.927,0h-1.528a1.128,1.128,0,0,0-1.115,1.3l1.66,10.788h9.53l2.016-10.752a1.128,1.128,0,0,0-1.108-1.335Z" transform="translate(-330.23 -250.12)" fill="#0337bb"/>
      <rect id="Rectangle_115" data-name="Rectangle 115" width="66.841" height="57.331" transform="translate(15.88 110.65)" fill="#e6e6e6"/>
      <circle id="Ellipse_60" data-name="Ellipse 60" cx="4.891" cy="4.891" r="4.891" transform="translate(30.824 170.155)" fill="#0337bb"/>
      <path id="Path_350" data-name="Path 350" d="M127.336,637.272H125.3v-2.038h-.815v2.038h-2.038v.815h2.038v2.038h.815v-2.038h2.038Z" transform="translate(-89.175 -462.633)" fill="#fff"/>
      <circle id="Ellipse_61" data-name="Ellipse 61" cx="4.891" cy="4.891" r="4.891" transform="translate(56.637 170.155)" fill="#0337bb"/>
      <rect id="Rectangle_116" data-name="Rectangle 116" width="0.815" height="4.891" transform="translate(63.973 174.639) rotate(90)" fill="#fff"/>
      <path id="Path_351" data-name="Path 351" d="M354.708,557.58h.037a6.26,6.26,0,0,0,5.862-3.926,20.491,20.491,0,1,0-27.3,11.224A6.207,6.207,0,0,0,340.2,563.6,20.424,20.424,0,0,1,354.708,557.58Z" transform="translate(-292.249 -406.201)" fill="#fff"/>
      <circle id="Ellipse_62" data-name="Ellipse 62" cx="6.767" cy="6.767" r="6.767" transform="translate(45.165 131.642)" fill="#f9a825"/>
    </g>
  </g>
</svg>
