<svg xmlns="http://www.w3.org/2000/svg" width="113" height="33" viewBox="0 0 113 33">
  <g id="sign-in-home" transform="translate(-951 -20.058)">
    <g id="Rectangle_222" data-name="Rectangle 222" transform="translate(951 20.058)" fill="none" stroke="#0337bb" stroke-width="2">
      <rect width="113" height="33" rx="16.5" stroke="none"/>
      <rect x="1" y="1" width="111" height="31" rx="15.5" fill="none"/>
    </g>
    <g id="Group_323" data-name="Group 323" transform="translate(965.529 24.963)">
      <text id="Sign_in" data-name="Sign in" transform="translate(0.471 16.095)" fill="#0337bb" font-size="12" font-family="Montserrat-Bold, Montserrat" font-weight="700"><tspan x="0" y="0">Sign in</tspan></text>
      <g id="Group_322" data-name="Group 322" transform="translate(58.391)">
        <g id="Group_311" data-name="Group 311">
          <path id="Path_617" data-name="Path 617" d="M12.359,0A12.359,12.359,0,1,1,0,12.359,12.359,12.359,0,0,1,12.359,0Z" fill="#ecf2f4"/>
        </g>
        <g id="lock" transform="translate(7.414 6.18)">
          <g id="Group_317" data-name="Group 317" transform="translate(0)">
            <path id="Path_625" data-name="Path 625" d="M73.063,4.661h-.777V3.625a3.625,3.625,0,1,0-7.251,0V4.661h-.777A.259.259,0,0,0,64,4.92v6.474a1.037,1.037,0,0,0,1.036,1.036h7.251a1.037,1.037,0,0,0,1.036-1.036V4.92A.259.259,0,0,0,73.063,4.661Zm-3.627,5.41a.259.259,0,0,1-.257.288H68.143a.259.259,0,0,1-.257-.288L68.049,8.6a1.025,1.025,0,0,1-.424-.833,1.036,1.036,0,1,1,2.072,0,1.025,1.025,0,0,1-.424.833Zm1.3-5.41H66.59V3.625a2.072,2.072,0,0,1,4.143,0Z" transform="translate(-64)" fill="#0337bb"/>
          </g>
        </g>
      </g>
    </g>
  </g>
</svg>
