<svg xmlns="http://www.w3.org/2000/svg" width="24" height="18.377" viewBox="0 0 24 18.377">
  <path id="sign-in-alt-solid" d="M19.5,82H15.562A.564.564,0,0,1,15,81.438V79.563A.564.564,0,0,1,15.562,79H19.5A1.5,1.5,0,0,0,21,77.5v-9A1.5,1.5,0,0,0,19.5,67H15.562A.564.564,0,0,1,15,66.438V64.563A.564.564,0,0,1,15.562,64H19.5A4.5,4.5,0,0,1,24,68.5v9A4.5,4.5,0,0,1,19.5,82Zm-2.2-9.422L9.422,64.7a1.127,1.127,0,0,0-1.922.8V70H1.125A1.122,1.122,0,0,0,0,71.125v4.5A1.122,1.122,0,0,0,1.125,76.75H7.5v4.5a1.127,1.127,0,0,0,1.922.8L17.3,74.172A1.135,1.135,0,0,0,17.3,72.578Z" transform="translate(0 -64)" fill="#f5f6fa"/>
</svg>
