<svg xmlns="http://www.w3.org/2000/svg" width="359" height="359" viewBox="0 0 359 359">
  <g id="Group_380" data-name="Group 380" transform="translate(-1283 -387)">
    <circle id="Ellipse_220" data-name="Ellipse 220" cx="179.5" cy="179.5" r="179.5" transform="translate(1283 387)" fill="#ecf2f4"/>
    <g id="undraw_fingerprint_swrc" transform="translate(1294.603 454.115)">
      <ellipse id="Ellipse_271" data-name="Ellipse 271" cx="157.28" cy="7.95" rx="157.28" ry="7.95" transform="translate(0 192.538)" fill="#104CE5"/>
      <ellipse id="Ellipse_272" data-name="Ellipse 272" cx="61.544" cy="3.111" rx="61.544" ry="3.111" transform="translate(191.549 210.513)" fill="#104CE5"/>
      <ellipse id="Ellipse_273" data-name="Ellipse 273" cx="61.544" cy="3.111" rx="61.544" ry="3.111" transform="translate(75.36 218.809)" fill="#104CE5"/>
      <path id="Path_775" data-name="Path 775" d="M821.265,399.3s10.455-.153,8.228,2.991-10.869,2.924-10.869,2.924Z" transform="translate(-585.734 -330.36)" fill="#ffb9b9"/>
      <path id="Path_776" data-name="Path 776" d="M706.613,287.149l10.581,14.365,9.148,10.929s9.478,9.887,10.535,11.255,4.163.976,3.5,3.06-1.647,5.555-2.679,5.916-5.881-.26-6.237-.946-23.013-13.492-31.1-22.709l-7.7-5.223-.115-8.837Z" transform="translate(-503.242 -256.976)" fill="#6c63ff"/>
      <path id="Path_777" data-name="Path 777" d="M706.613,287.149l10.581,14.365,9.148,10.929s9.478,9.887,10.535,11.255,4.163.976,3.5,3.06-1.647,5.555-2.679,5.916-5.881-.26-6.237-.946-23.013-13.492-31.1-22.709l-7.7-5.223-.115-8.837Z" transform="translate(-503.242 -256.976)" fill="#ff6584"/>
      <path id="Path_778" data-name="Path 778" d="M706.613,287.149l10.581,14.365,9.148,10.929s9.478,9.887,10.535,11.255,4.163.976,3.5,3.06-1.647,5.555-2.679,5.916-5.881-.26-6.237-.946-23.013-13.492-31.1-22.709l-7.7-5.223-.115-8.837Z" transform="translate(-503.242 -256.976)" opacity="0.1"/>
      <path id="Path_779" data-name="Path 779" d="M704.664,223.367l2.2,5.185h1.948l-2.765-13.135c0-8.431-4.069-15.555-12.5-15.555h0a10.659,10.659,0,0,0-10.659,10.659V223.4a5.149,5.149,0,0,0,5.149,5.149h15.116Z" transform="translate(-496.917 -199.861)" fill="#2f2e41"/>
      <path id="Path_780" data-name="Path 780" d="M595.275,651.361s-3.111,4.148-3.111,5.185-1.728,1.383-2.765,2.42-2.074.691-1.383,1.728-8.642,7.259-8.642,7.259l-8.987,11.753,2.42,2.074,6.913-7.259-1.037,12.79,9.679,8.987s4.148.691,4.494,0-3.457-7.6-3.457-7.6.346-6.222,2.42-8.642a35.265,35.265,0,0,0,3.457-4.839s-1.037-1.383,1.383-1.728.691-2.42.691-2.42a7.068,7.068,0,0,1,2.765-.346c2.074,0,11.407-10.024,11.407-10.024Z" transform="translate(-423.305 -495.291)" fill="#2f2e41"/>
      <path id="Path_781" data-name="Path 781" d="M749.066,678.435s-1.383,4.839,1.037,7.6,0,2.074,0,2.074a3.484,3.484,0,0,1-1.037,3.111,4.275,4.275,0,0,0-1.383,3.111s-1.728,3.457-1.383,5.531.346,12.444.346,12.444H750.1v-8.987l6.913,8.987H774.3a2.759,2.759,0,0,0-2.074-2.074c-1.728-.346-6.913,0-7.95-7.259,0,0-.346-4.148-1.037-4.839a5.464,5.464,0,0,1-.691-4.839c.691-1.728,0-2.42,1.037-3.111a3.156,3.156,0,0,0,.691-3.8c-.691-1.037-2.765-2.765-.346-3.8s2.42-6.222,2.42-6.222Z" transform="translate(-538.38 -511.65)" fill="#2f2e41"/>
      <path id="Path_782" data-name="Path 782" d="M656.2,419.459s-3.8,3.111,1.037,15.9,6.913,29.382,6.913,29.382-4.839,4.148-4.839,6.222-21.432,15.209-20.049,21.086S665.882,508.988,668.3,508.3s14.172-33.876,14.172-33.876-4.494-36.641-4.839-36.987-10.716-17.284-10.716-17.284l-6.222-12.79Z" transform="translate(-468.332 -335.635)" fill="#2f2e41"/>
      <path id="Path_783" data-name="Path 783" d="M656.2,419.459s-3.8,3.111,1.037,15.9,6.913,29.382,6.913,29.382-4.839,4.148-4.839,6.222-21.432,15.209-20.049,21.086S665.882,508.988,668.3,508.3s14.172-33.876,14.172-33.876-4.494-36.641-4.839-36.987-10.716-17.284-10.716-17.284l-6.222-12.79Z" transform="translate(-468.332 -335.635)" opacity="0.1"/>
      <path id="Path_784" data-name="Path 784" d="M686.293,403a27.334,27.334,0,0,0,3.8,20.394c6.568,10.37,14.172,31.8,14.172,31.8s7.259,22.468,4.148,38.715c0,0-1.037,2.074,1.728,2.074s31.8-.691,29.382-7.95S726.391,446.9,726.391,446.9l-13.827-34.221-.691-10.37-5.185-7.95H695.972Z" transform="translate(-498.768 -327.128)" fill="#2f2e41"/>
      <path id="Path_785" data-name="Path 785" d="M531.394,449.361s-10.456,0-8.183,3.111,10.911,2.765,10.911,2.765Z" transform="translate(-392.224 -363.116)" fill="#ffb9b9"/>
      <path id="Path_786" data-name="Path 786" d="M702.01,242.861s.691,4.839-1.728,5.531,9.679,5.876,9.679,5.876,2.42-8.3,3.457-9.333S702.01,242.861,702.01,242.861Z" transform="translate(-508.089 -227.997)" fill="#ffb9b9"/>
      <path id="Path_787" data-name="Path 787" d="M702.01,242.861s.691,4.839-1.728,5.531,9.679,5.876,9.679,5.876,2.42-8.3,3.457-9.333S702.01,242.861,702.01,242.861Z" transform="translate(-508.089 -227.997)" opacity="0.1"/>
      <path id="Path_788" data-name="Path 788" d="M669.719,257.536s-10.716-3.111-11.061-4.148-2.765,1.383-3.8,3.111-3.111,3.8-4.148,3.8-8.642,4.494-10.37,12.444a16.167,16.167,0,0,1-2.963,6.985,6.669,6.669,0,0,0-1.342,3.457.337.337,0,0,1-.189.274c-.691.346,14.518,14.864,14.518,14.864s5.876-1.383,6.913,0-.691,3.8-1.728,5.185-3.457,8.3-2.074,9.333,8.642-9.333,12.79-7.259a10.805,10.805,0,0,0,8.3.346s1.728,5.531,4.494,5.531,3.457-4.494,2.42-5.876-5.185-4.148-3.111-7.95,2.765-10.716,2.765-10.716,5.531-6.568-4.494-14.518c0,0-3.457-9.679-4.494-10.37s-2.765-1.037-2.765-1.728S669.719,257.536,669.719,257.536Z" transform="translate(-466.12 -234.722)" fill="#ff6584"/>
      <path id="Path_789" data-name="Path 789" d="M575.883,335.861l-10.37,14.518-8.987,11.061s-9.333,10.024-10.37,11.407-4.148,1.037-3.457,3.111,1.728,5.531,2.765,5.876,5.876-.346,6.222-1.037,22.814-13.827,30.765-23.16l7.618-5.335-.014-8.838Z" transform="translate(-405.123 -288.85)" fill="#ff6584"/>
      <path id="Path_790" data-name="Path 790" d="M697.783,384.938l20.037.639a.87.87,0,0,1,.844.87v.32a.87.87,0,0,1-.909.869l-20.037-.959a.87.87,0,0,1-.831-.869h0a.87.87,0,0,1,.9-.87Z" transform="translate(-506.078 -320.962)" fill="#2f2e41"/>
      <ellipse id="Ellipse_274" data-name="Ellipse 274" cx="0.346" cy="1.901" rx="0.346" ry="1.901" transform="translate(211.895 63.949)" fill="#2f2e41"/>
      <circle id="Ellipse_275" data-name="Ellipse 275" cx="9.679" cy="9.679" r="9.679" transform="translate(191.155 1.037)" fill="#ffb9b9"/>
      <path id="Path_791" data-name="Path 791" d="M693.29,200.324a40.712,40.712,0,0,0-6.973-.462A11.936,11.936,0,0,0,674.381,211.8l-4.494,16.754h8.747l1.623-6.222,2.3,6.222h4.4l.378-3.739,1.49,3.739h4.9c-3.673-8.311-5.627-15.887-.8-20.563,3.259.444,6.007-.429,6.455-2.2C699.908,203.757,697.176,201.309,693.29,200.324Z" transform="translate(-488.411 -199.861)" fill="#2f2e41"/>
      <path id="Path_792" data-name="Path 792" d="M736.683,277.722" transform="translate(-532.117 -250.808)" fill="#2f2e41"/>
      <path id="Path_793" data-name="Path 793" d="M168.583,293.222a4.844,4.844,0,0,1-4.217-7.259c6.153-10.37,24.854-34.6,65.712-34.6,17.7,0,33.219,4.7,46.112,13.965a78.232,78.232,0,0,1,19.392,20.36,4.8,4.8,0,0,1-1.279,6.706,4.917,4.917,0,0,1-6.775-1.279c-5.15-7.466-20.775-30.142-57.45-30.142-35.811,0-51.989,20.878-57.277,29.831a4.772,4.772,0,0,1-4.217,2.42Z" transform="translate(-157.21 -233.559)" fill="#104ce5"/>
      <path id="Path_794" data-name="Path 794" d="M260.954,422.164a4.817,4.817,0,0,1-1.21-.138c-29.624-7.432-40.685-37.367-41.135-38.611l-.069-.276c-.242-.864-6.187-21.4,2.938-33.426,4.183-5.5,10.543-8.3,18.943-8.3,7.812,0,13.447,2.454,17.318,7.536,3.18,4.148,4.459,9.264,5.7,14.207,2.592,10.266,4.459,15.659,15.244,16.212a11.133,11.133,0,0,0,9.61-4.943c4.77-6.5,5.6-17.111,2-26.444-4.632-12.1-21.017-34.878-49.915-34.878a50.676,50.676,0,0,0-32.769,11.545,53.2,53.2,0,0,0-16.385,24.128c-5.323,16.869,1.659,43.381,1.728,43.623a4.795,4.795,0,0,1-3.457,5.876,4.909,4.909,0,0,1-5.98-3.422c-.311-1.21-7.778-29.486-1.625-48.981a61.435,61.435,0,0,1,97.79-28.138c8.78,7.259,15.97,17.007,19.7,26.755,4.77,12.444,3.491,26.409-3.249,35.535-4.494,6.084-10.889,9.264-17.975,8.918-18.459-.933-21.777-13.965-24.2-23.471-2.489-9.748-4.079-14.449-13.585-14.449-5.22,0-8.884,1.452-11.165,4.459-3.111,4.114-3.353,10.543-3.007,15.209l.011.146a39.381,39.381,0,0,0,5.258,16.835c4.8,8.274,14.532,20.963,30.681,25.018a4.8,4.8,0,0,1,3.526,5.842,4.907,4.907,0,0,1-4.736,3.63Z" transform="translate(-167.52 -267.65)" fill="#104ce5"/>
      <path id="Path_795" data-name="Path 795" d="M257.778,455.024a4.922,4.922,0,0,1-3.56-1.521c-11.856-12.582-18.562-26.651-21.086-44.246v-.1c-1.417-11.649.657-28.137,10.819-39.475,7.5-8.365,18.044-12.617,31.283-12.617,15.659,0,27.965,7.363,35.639,21.259a59.755,59.755,0,0,1,6.706,20.567,4.883,4.883,0,1,1-9.714,1,50.037,50.037,0,0,0-5.7-17.18c-5.945-10.612-15-16-26.962-16-10.336,0-18.424,3.146-23.989,9.368-8.02,8.953-9.575,22.745-8.469,31.871,2.212,15.555,8.123,27.93,18.562,38.992a4.781,4.781,0,0,1-.242,6.81A4.9,4.9,0,0,1,257.778,455.024Z" transform="translate(-202.367 -302.722)" fill="#104ce5"/>
      <circle id="Ellipse_276" data-name="Ellipse 276" cx="6.222" cy="6.222" r="6.222" transform="translate(66.714 94.714)" fill="#104CE5"/>
    </g>
  </g>
</svg>
