<svg xmlns="http://www.w3.org/2000/svg" width="359" height="359" viewBox="0 0 359 359">
  <g id="Group_382" data-name="Group 382" transform="translate(-1283 -387)">
    <circle id="Ellipse_220" data-name="Ellipse 220" cx="179.5" cy="179.5" r="179.5" transform="translate(1283 387)" fill="#ecf2f4"/>
    <g id="undraw_profile_6l1l" transform="translate(1308 375)">
      <line id="Line_27" data-name="Line 27" x2="52.269" transform="translate(0 299.344)" fill="none" stroke="#3f3d56" stroke-miterlimit="10" stroke-width="1"/>
      <rect id="Rectangle_217" data-name="Rectangle 217" width="232.06" height="157.12" rx="19.398" transform="translate(76.514 106.171)" fill="#f2f2f2"/>
      <rect id="Rectangle_218" data-name="Rectangle 218" width="232.06" height="157.12" rx="19.398" transform="translate(69.429 96.253)" fill="none" stroke="#3f3d56" stroke-miterlimit="10" stroke-width="1"/>
      <line id="Line_28" data-name="Line 28" x2="232.06" transform="translate(69.429 111.316)" fill="none" stroke="#3f3d56" stroke-miterlimit="10" stroke-width="1"/>
      <rect id="Rectangle_219" data-name="Rectangle 219" width="63.289" height="9.761" rx="4.88" transform="translate(208.129 146.632)" fill="#104CE5" opacity="0.3"/>
      <rect id="Rectangle_220" data-name="Rectangle 220" width="87.534" height="7.872" rx="3.936" transform="translate(196.007 173.711)" fill="#104CE5" opacity="0.3"/>
      <rect id="Rectangle_221" data-name="Rectangle 221" width="87.534" height="7.872" rx="3.936" transform="translate(196.007 195.122)" fill="#104CE5" opacity="0.3"/>
      <rect id="Rectangle_222" data-name="Rectangle 222" width="87.534" height="7.872" rx="3.936" transform="translate(196.007 216.533)" fill="#104CE5" opacity="0.3"/>
      <rect id="Rectangle_223" data-name="Rectangle 223" width="63.289" height="9.761" rx="4.88" transform="translate(211.278 143.483)" fill="none" stroke="#3f3d56" stroke-miterlimit="10" stroke-width="1"/>
      <rect id="Rectangle_224" data-name="Rectangle 224" width="87.534" height="7.872" rx="3.936" transform="translate(199.156 170.562)" fill="none" stroke="#3f3d56" stroke-miterlimit="10" stroke-width="1"/>
      <rect id="Rectangle_225" data-name="Rectangle 225" width="87.534" height="7.872" rx="3.936" transform="translate(199.156 191.974)" fill="none" stroke="#3f3d56" stroke-miterlimit="10" stroke-width="1"/>
      <rect id="Rectangle_226" data-name="Rectangle 226" width="87.534" height="7.872" rx="3.936" transform="translate(199.156 213.385)" fill="none" stroke="#3f3d56" stroke-miterlimit="10" stroke-width="1"/>
      <circle id="Ellipse_277" data-name="Ellipse 277" cx="4.723" cy="4.723" r="4.723" transform="translate(82.339 100.976)" fill="#2c81ff" opacity="0.3"/>
      <circle id="Ellipse_278" data-name="Ellipse 278" cx="4.723" cy="4.723" r="4.723" transform="translate(95.563 100.976)" fill="#2c81ff" opacity="0.3"/>
      <circle id="Ellipse_279" data-name="Ellipse 279" cx="4.723" cy="4.723" r="4.723" transform="translate(108.788 100.976)" fill="#2c81ff" opacity="0.3"/>
      <circle id="Ellipse_280" data-name="Ellipse 280" cx="4.723" cy="4.723" r="4.723" transform="translate(84.228 99.087)" fill="none" stroke="#3f3d56" stroke-miterlimit="10" stroke-width="1"/>
      <circle id="Ellipse_281" data-name="Ellipse 281" cx="4.723" cy="4.723" r="4.723" transform="translate(97.452 99.087)" fill="none" stroke="#3f3d56" stroke-miterlimit="10" stroke-width="1"/>
      <circle id="Ellipse_282" data-name="Ellipse 282" cx="4.723" cy="4.723" r="4.723" transform="translate(110.677 99.087)" fill="none" stroke="#3f3d56" stroke-miterlimit="10" stroke-width="1"/>
      <path id="Path_797" data-name="Path 797" d="M511.585,585.31a46.95,46.95,0,0,1-.734-12.079s-4-17.565-7.144-19.2h0c-.048.062-1.575,2.064-1.769,8.257a25.466,25.466,0,0,1-2.424,10.421,92.342,92.342,0,0,1,.309,12.6Z" transform="translate(-368.837 -338.549)" fill="#6c63ff"/>
      <path id="Path_798" data-name="Path 798" d="M456.049,298.379H383.485A7.485,7.485,0,0,0,376,305.864v96.809a7.485,7.485,0,0,0,7.485,7.485h25.459c-.85-3.526-1.907-9.034-.837-12.863v0c.05-.179.1-.355.163-.526a19.994,19.994,0,0,0,.722-7.668,15.936,15.936,0,0,0,0-6.685c-.786-3.67-1.337-7.275-1.337-7.275a47.014,47.014,0,0,1-.055-7.823c.008-.065.018-.127.027-.191l-.209-.048s1.114-5.047,1.508-8.258c.093-.758.215-1.719.347-2.744a6.587,6.587,0,0,1-1.068-.271c-3.539-1.245-4.653-12.518-4.653-12.518v-3.572s-1.18-5.473,2.949-7.9a48.017,48.017,0,0,1,5.676-3.018c.03-.022.06-.041.091-.065A3.483,3.483,0,0,0,413.3,327.4q.008-.135,0-.268a6.4,6.4,0,0,0-1.8-3.461l-2.164-2.6a2.541,2.541,0,0,1-.557-.9,2.079,2.079,0,0,1-.059-.568q0-.106,0-.212.018-.969.053-1.938c.02-.564.162-1.276.715-1.392.287-.06.668.045.82-.206a.493.493,0,0,0,.037-.334c0,.008,0,.017,0,.025l-.006-.031a7.066,7.066,0,0,1-.2-1.381,1.838,1.838,0,0,1,.089-.62c.32-.937,1.423-1.321,2.4-1.5A4.159,4.159,0,0,0,415.3,310.9a8.491,8.491,0,0,1,.532-.747,2.087,2.087,0,0,1,1-.5,5.51,5.51,0,0,1,3.623.322,3.192,3.192,0,0,0,1.461.472c.537-.034,1-.412,1.526-.5a2.17,2.17,0,0,1,2.1,1.253,3.1,3.1,0,0,1,.388,1.582,2.176,2.176,0,0,1-.555,1.493c-.368.391-.918.659-1.071,1.174-.062.21-.048.435-.1.647-.007.026-.018.051-.027.077l.031.039a6.685,6.685,0,0,1-3.253,10.4c0,.066-.005.133,0,.2a2.888,2.888,0,0,0,.894,2.224l5.84,2.395s3.516-.426,4.784,4.821a9.076,9.076,0,0,1,.217,2.663,7.944,7.944,0,0,0,.963,3.986c1.442,2.884,1.114,9.5-1.835,10.159a9.383,9.383,0,0,1-3.987.331l-.006.116c.046,1.242.488,11.955,2.093,13.252.444.358.359.6-.005.764h0s0,.069.01.193c.048.784.3,3.767,1.37,5.465,1.246,1.966,1.115,13.306,1.115,13.306l.851,6.685s-.524,4.129,0,4.85c.3.409.658,6.739.915,12.144h21.893a7.485,7.485,0,0,0,7.485-7.485V305.864a7.485,7.485,0,0,0-7.485-7.485Z" transform="translate(-284.215 -163.397)" fill="#104ce5"/>
      <rect id="Rectangle_227" data-name="Rectangle 227" width="87.534" height="111.779" rx="23.772" transform="translate(84.228 126.48)" fill="none" stroke="#3f3d56" stroke-miterlimit="10" stroke-width="1"/>
      <path id="Path_799" data-name="Path 799" d="M177.228,399.965s-2.936-.868-3.566.077.859,7.792.859,7.792l6.469.393-2.258-5.7Z" transform="translate(-145.481 -232.747)" fill="#2f2e41"/>
      <path id="Path_800" data-name="Path 800" d="M102.7,579.347s5.886,12.923,1.353,12.517-6.292-12.517-6.292-12.517Z" transform="translate(-93.583 -355.897)" fill="#a0616a"/>
      <path id="Path_801" data-name="Path 801" d="M234.038,572.469s-2.582,13.964,1.718,12.472,3.075-13.668,3.075-13.668Z" transform="translate(-186.426 -350.365)" fill="#a0616a"/>
      <path id="Path_802" data-name="Path 802" d="M153.669,385.313s-.068,6.5,2.436,6.834-1.421,3.789-1.421,3.789l-4.466.88-6.428-.473-2.842-3.654s5.007-2.368,2.842-9.743Z" transform="translate(-123.175 -221.336)" fill="#a0616a"/>
      <path id="Path_803" data-name="Path 803" d="M153.669,385.313s-.068,6.5,2.436,6.834-1.421,3.789-1.421,3.789l-4.466.88-6.428-.473-2.842-3.654s5.007-2.368,2.842-9.743Z" transform="translate(-123.175 -221.336)" opacity="0.1"/>
      <path id="Path_804" data-name="Path 804" d="M154.668,564.924s3.18,6.834.677,28.282c0,0,.744,7.578.135,9s-5.616,20.7-5.616,20.7-6.428,1.421-7.307-2.842c0,0,.88-6.089.812-7.037s1.421-11.3,1.421-11.3L141.745,581.7l-2.3,18.065s0,5.21-.744,6.36,0,24.29,0,24.29,2.1,3.518-1.083,3.586-6.022-.068-6.292-2.3-.406-4.466-1.083-5.819-1.556-16.847-1.353-22.26-4.466-33.221-2.977-36.13S154.668,564.924,154.668,564.924Z" transform="translate(-112.672 -346.007)" fill="#2f2e41"/>
      <circle id="Ellipse_283" data-name="Ellipse 283" cx="8.119" cy="8.119" r="8.119" transform="translate(18.924 150.175)" fill="#a0616a"/>
      <path id="Path_805" data-name="Path 805" d="M135.474,409.311s4.939,3.654,12.111.744c0,0,2.368-1.15,2.165-2.909s4.939,14.141,4.939,14.141l5.21,27.673-.271,11.3s-2.3-1.15-9.472,1.421-18.877-2.909-18.877-2.909l.406-29.026.406-16.915,1.083-3.721S133.715,408.093,135.474,409.311Z" transform="translate(-116.55 -237.824)" fill="#f2f2f2"/>
      <path id="Path_806" data-name="Path 806" d="M182.063,399.88s1.2-.194,2.345,1.633a9.778,9.778,0,0,0,3.857,2.977s6.563.406,7.51,3.924,3.315,8.322,4.466,17.186,3.451,23,3.789,24.155-.474,4.669.474,5.751-6.7,1.083-6.7,1.083-.677-5.548-1.15-5.548-.338,3.721.135,6.428-3.451,0-3.451,0-3.045-12.382-5.954-23.546-4.6-17.321-4.059-19.824,2.03-9.675.947-10.352S182.063,399.88,182.063,399.88Z" transform="translate(-151.343 -232.934)" fill="#2f2e41"/>
      <path id="Path_807" data-name="Path 807" d="M108.927,399.874a73.7,73.7,0,0,0-6.233,4.142c-4.466,3.18-7.51,5.616-7.51,5.616s-1.759,1.353-2.842,9.4-3.518,28.891-2.571,31.529,1.286,4.195.947,5.751,7.1,1.489,7.24,1.15-.2-6.5.135-6.631,2.165,3.654,2.5,6.834,4.263,5.683,5.142,5.683,5.413-18.336,5.48-30.853-1.489-23.072-2.639-24.561S108.927,399.874,108.927,399.874Z" transform="translate(-87.964 -232.934)" fill="#2f2e41"/>
      <path id="Path_808" data-name="Path 808" d="M175.77,734.483a1.907,1.907,0,0,1,2.436-1.015,3.288,3.288,0,0,0,3.18-1.218s1.015-.135.338,1.15-1.218,2.165-1.218,2.165,4.06,9.269,1.421,11.5a5.658,5.658,0,0,1-5.683.88s-2.977-2.1-2.842-7.646a12.36,12.36,0,0,0-1.759-4.6c-1.624-2.842-2.842-7.172-.88-7.984a10.63,10.63,0,0,1,2.467-.842s-.918,4.2,1.454,5.667Z" transform="translate(-142.907 -456.972)" fill="#3f3d56"/>
      <path id="Path_809" data-name="Path 809" d="M144.608,776.448s-1.624-3.045,1.083-3.383,5.616-.541,5.48.88-.474,3.586-.474,3.586l.474,1.556s.135,3.857.609,4.33,3.045,4.533-2.436,4.533-7.1-.609-6.631-1.895.609-7.646.609-7.646Z" transform="translate(-124.331 -488.45)" fill="#3f3d56"/>
      <path id="Path_810" data-name="Path 810" d="M138.027,338.456s3.789,1.015,5.751,1.421,1.759-.744,1.759-.744,2.571.338,2.436.068,1.083-1.691-.338-3.315-1.015-2.842-1.015-2.842H145.4l-.338-.474H143.17s-1.421-.541-5.142,0-8.8.677-9.2,2.909-2.5,5.007-1.759,6.292,5.007,6.563,5.413,8.8,2.3,2.729,2.233,1.331-1.963-6.27-.339-6.473S138.772,341.095,138.027,338.456Z" transform="translate(-113.555 -186.658)" fill="#2f2e41"/>
    </g>
  </g>
</svg>
