<svg xmlns="http://www.w3.org/2000/svg" width="128.28" height="89.754" viewBox="0 0 128.28 89.754">
  <g id="Group_379" data-name="Group 379" transform="translate(5553.071 20470.248)">
    <rect id="Rectangle_217" data-name="Rectangle 217" width="123.995" height="83.953" rx="19.398" transform="translate(-5548.786 -20464.447)" fill="#f2f2f2"/>
    <rect id="Rectangle_218" data-name="Rectangle 218" width="123.995" height="83.953" rx="19.398" transform="translate(-5552.571 -20469.748)" fill="none" stroke="#3f3d56" stroke-miterlimit="10" stroke-width="1"/>
    <line id="Line_28" data-name="Line 28" x2="123.995" transform="translate(-5552.571 -20461.699)" fill="none" stroke="#3f3d56" stroke-miterlimit="10" stroke-width="1"/>
    <rect id="Rectangle_219" data-name="Rectangle 219" width="33.817" height="5.216" rx="2.608" transform="translate(-5478.46 -20442.828)" fill="#104CE5" opacity="0.3"/>
    <rect id="Rectangle_220" data-name="Rectangle 220" width="46.771" height="4.206" rx="2.103" transform="translate(-5484.938 -20428.359)" fill="#104CE5" opacity="0.3"/>
    <rect id="Rectangle_221" data-name="Rectangle 221" width="46.771" height="4.206" rx="2.103" transform="translate(-5484.938 -20416.918)" fill="#104CE5" opacity="0.3"/>
    <rect id="Rectangle_222" data-name="Rectangle 222" width="46.771" height="4.206" rx="2.103" transform="translate(-5484.938 -20405.479)" fill="#104CE5" opacity="0.3"/>
    <rect id="Rectangle_223" data-name="Rectangle 223" width="33.817" height="5.216" rx="2.608" transform="translate(-5476.778 -20444.51)" fill="none" stroke="#3f3d56" stroke-miterlimit="10" stroke-width="1"/>
    <rect id="Rectangle_224" data-name="Rectangle 224" width="46.771" height="4.206" rx="2.103" transform="translate(-5483.255 -20430.043)" fill="none" stroke="#3f3d56" stroke-miterlimit="10" stroke-width="1"/>
    <rect id="Rectangle_225" data-name="Rectangle 225" width="46.771" height="4.206" rx="2.103" transform="translate(-5483.255 -20418.602)" fill="none" stroke="#3f3d56" stroke-miterlimit="10" stroke-width="1"/>
    <rect id="Rectangle_226" data-name="Rectangle 226" width="46.771" height="4.206" rx="2.103" transform="translate(-5483.255 -20407.162)" fill="none" stroke="#3f3d56" stroke-miterlimit="10" stroke-width="1"/>
    <circle id="Ellipse_277" data-name="Ellipse 277" cx="2.524" cy="2.524" r="2.524" transform="translate(-5545.673 -20467.223)" fill="#2c81ff" opacity="0.3"/>
    <circle id="Ellipse_278" data-name="Ellipse 278" cx="2.524" cy="2.524" r="2.524" transform="translate(-5538.607 -20467.223)" fill="#2c81ff" opacity="0.3"/>
    <circle id="Ellipse_279" data-name="Ellipse 279" cx="2.524" cy="2.524" r="2.524" transform="translate(-5531.541 -20467.223)" fill="#2c81ff" opacity="0.3"/>
    <circle id="Ellipse_280" data-name="Ellipse 280" cx="2.524" cy="2.524" r="2.524" transform="translate(-5544.664 -20468.234)" fill="none" stroke="#3f3d56" stroke-miterlimit="10" stroke-width="1"/>
    <circle id="Ellipse_281" data-name="Ellipse 281" cx="2.524" cy="2.524" r="2.524" transform="translate(-5537.598 -20468.234)" fill="none" stroke="#3f3d56" stroke-miterlimit="10" stroke-width="1"/>
    <circle id="Ellipse_282" data-name="Ellipse 282" cx="2.524" cy="2.524" r="2.524" transform="translate(-5530.532 -20468.234)" fill="none" stroke="#3f3d56" stroke-miterlimit="10" stroke-width="1"/>
    <path id="Path_797" data-name="Path 797" d="M505.963,570.742a25.086,25.086,0,0,1-.392-6.454s-2.136-9.386-3.817-10.261h0c-.026.033-.842,1.1-.945,4.412a13.607,13.607,0,0,1-1.3,5.568,49.342,49.342,0,0,1,.165,6.734Z" transform="translate(-6019.358 -20960.07)" fill="#6c63ff"/>
    <path id="Path_798" data-name="Path 798" d="M418.772,298.379H380a4,4,0,0,0-4,4v51.727a4,4,0,0,0,4,4h13.6c-.454-1.884-1.019-4.827-.447-6.873h0c.027-.1.055-.19.087-.281a10.683,10.683,0,0,0,.386-4.1,8.515,8.515,0,0,0,0-3.572c-.42-1.961-.714-3.887-.714-3.887a25.12,25.12,0,0,1-.029-4.18c0-.035.01-.068.015-.1l-.111-.026s.6-2.7.805-4.413c.05-.405.115-.919.186-1.466a3.519,3.519,0,0,1-.571-.145c-1.891-.665-2.486-6.689-2.486-6.689v-1.909s-.63-2.924,1.576-4.22a25.665,25.665,0,0,1,3.033-1.613l.049-.035a1.862,1.862,0,0,0,.553-.712q0-.072,0-.143a3.418,3.418,0,0,0-.964-1.849l-1.156-1.389a1.358,1.358,0,0,1-.3-.482,1.111,1.111,0,0,1-.031-.3q0-.057,0-.113.009-.518.028-1.036c.011-.3.087-.682.382-.744.154-.032.357.024.438-.11a.264.264,0,0,0,.02-.178s0,.009,0,.014l0-.017a3.774,3.774,0,0,1-.109-.738.981.981,0,0,1,.047-.331c.171-.5.76-.706,1.281-.8a2.222,2.222,0,0,0,1.431-.592,4.533,4.533,0,0,1,.284-.4,1.115,1.115,0,0,1,.533-.269,2.944,2.944,0,0,1,1.936.172,1.706,1.706,0,0,0,.781.252c.287-.018.532-.22.815-.269a1.16,1.16,0,0,1,1.12.669,1.657,1.657,0,0,1,.207.845,1.163,1.163,0,0,1-.3.8c-.2.209-.491.352-.572.627-.033.112-.026.233-.055.346,0,.014-.01.027-.014.041l.017.021a3.572,3.572,0,0,1-1.738,5.555c0,.035,0,.071,0,.107a1.543,1.543,0,0,0,.478,1.189l3.12,1.28s1.879-.228,2.556,2.576a4.849,4.849,0,0,1,.116,1.423,4.245,4.245,0,0,0,.514,2.13c.77,1.541.6,5.078-.981,5.428a5.014,5.014,0,0,1-2.131.177l0,.062c.025.664.261,6.388,1.118,7.081.237.192.192.321,0,.408h0s0,.037.005.1a7.228,7.228,0,0,0,.732,2.92c.666,1.051.6,7.109.6,7.109l.455,3.572a7.95,7.95,0,0,0,0,2.591,57.527,57.527,0,0,1,.489,6.489h11.7a4,4,0,0,0,4-4V302.378a4,4,0,0,0-4-4Z" transform="translate(-5916.626 -20747.432)" fill="#104ce5"/>
    <rect id="Rectangle_227" data-name="Rectangle 227" width="46.771" height="59.726" rx="23.386" transform="translate(-5544.664 -20453.596)" fill="none" stroke="#3f3d56" stroke-miterlimit="10" stroke-width="1"/>
  </g>
</svg>
