<svg xmlns="http://www.w3.org/2000/svg" width="91" height="27" viewBox="0 0 91 27">
  <g id="sign-in-home" transform="translate(-951.001 -20)">
    <g id="Rectangle_222" data-name="Rectangle 222" transform="translate(951.001 20)" fill="none" stroke="#0337bb" stroke-width="1">
      <rect width="91" height="27" rx="13.5" stroke="none"/>
      <rect x="0.5" y="0.5" width="90" height="26" rx="13" fill="none"/>
    </g>
    <g id="Group_323" data-name="Group 323" transform="translate(-5)">
      <text id="Sign_in" data-name="Sign in" transform="translate(968.001 38)" fill="#0337bb" font-size="11" font-family="Montserrat-Bold, Montserrat" font-weight="700"><tspan x="0" y="0">Sign in</tspan></text>
      <g id="Group_322" data-name="Group 322">
        <g id="Group_311" data-name="Group 311" transform="translate(1015.001 24)">
          <path id="Path_617" data-name="Path 617" d="M10,0A10,10,0,1,1,0,10,10,10,0,0,1,10,0Z" fill="#ecf2f4"/>
        </g>
        <g id="lock" transform="translate(957 29)">
          <g id="Group_317" data-name="Group 317" transform="translate(64)">
            <path id="Path_625" data-name="Path 625" d="M71.333,3.771H70.7V2.933a2.933,2.933,0,1,0-5.867,0v.838H64.21a.209.209,0,0,0-.21.21V9.219a.839.839,0,0,0,.838.838H70.7a.839.839,0,0,0,.838-.838V3.981A.209.209,0,0,0,71.333,3.771ZM68.4,8.148a.21.21,0,0,1-.208.233h-.838a.21.21,0,0,1-.208-.233l.132-1.189a.829.829,0,0,1-.343-.674.838.838,0,1,1,1.676,0,.829.829,0,0,1-.343.674Zm1.049-4.377H66.1V2.933a1.676,1.676,0,0,1,3.352,0Z" transform="translate(-64)" fill="#0337bb"/>
          </g>
        </g>
      </g>
    </g>
  </g>
</svg>
