<svg xmlns="http://www.w3.org/2000/svg" width="212" height="212" viewBox="0 0 212 212">
  <g id="Group_399" data-name="Group 399" transform="translate(-517 -1997)">
    <circle id="Ellipse_220" data-name="Ellipse 220" cx="106" cy="106" r="106" transform="translate(517 1997)" fill="#ecf2f4"/>
    <g id="undraw_mobile_login_ikmv" transform="translate(534 2021)">
      <path id="Path_655" data-name="Path 655" d="M68.248,281.112,81.736,259.9,51.53,240.694l-15.6,24.531,24.984,15.887Z" transform="translate(-28.136 -188.477)" fill="#f0f0f0"/>
      <path id="Path_656" data-name="Path 656" d="M350.909,574.725H317.5V568h33.409Zm-32.975-.434h32.541v-5.857H317.934Z" transform="translate(-291.684 -475.474)" fill="#3f3d56"/>
      <circle id="Ellipse_240" data-name="Ellipse 240" cx="2" cy="2" r="2" transform="translate(53 94)" fill="#104CE5"/>
      <circle id="Ellipse_241" data-name="Ellipse 241" cx="2" cy="2" r="2" transform="translate(47 94)" fill="#104CE5"/>
      <circle id="Ellipse_242" data-name="Ellipse 242" cx="2" cy="2" r="2" transform="translate(41 94)" fill="#104CE5"/>
      <circle id="Ellipse_243" data-name="Ellipse 243" cx="2" cy="2" r="2" transform="translate(35 94)" fill="#104CE5"/>
      <circle id="Ellipse_244" data-name="Ellipse 244" cx="2" cy="2" r="2" transform="translate(29 94)" fill="#104CE5"/>
      <path id="Path_657" data-name="Path 657" d="M538.607,166.014V149.527h8.244V141.5H506.5v40.351h34.494v-3.945a5.6,5.6,0,0,1,5.6-5.6h.257v-6.291Z" transform="translate(-439.682 -141.5)" fill="#f0f0f0"/>
      <rect id="Rectangle_172" data-name="Rectangle 172" width="27" height="6" transform="translate(117 104)" fill="#104CE5"/>
      <rect id="Rectangle_173" data-name="Rectangle 173" width="40" height="4" transform="translate(110 77)" fill="#f0f0f0"/>
      <rect id="Rectangle_174" data-name="Rectangle 174" width="168" height="1" transform="translate(0 133)" fill="#3f3d56"/>
      <path id="Path_658" data-name="Path 658" d="M719.644,385.765H670.317a5.824,5.824,0,0,1-5.817-5.817v-91.63a5.824,5.824,0,0,1,5.817-5.817h49.326a5.824,5.824,0,0,1,5.817,5.817v91.63A5.824,5.824,0,0,1,719.644,385.765ZM670.317,282.934a5.389,5.389,0,0,0-5.383,5.383v91.63a5.389,5.389,0,0,0,5.383,5.383h49.326a5.39,5.39,0,0,0,5.383-5.383v-91.63a5.39,5.39,0,0,0-5.383-5.383Z" transform="translate(-563.405 -251.911)" fill="#3f3d56"/>
      <path id="Path_659" data-name="Path 659" d="M773.3,293.1a1.3,1.3,0,1,1,1.3-1.3A1.3,1.3,0,0,1,773.3,293.1Zm0-2.169a.868.868,0,1,0,.868.868A.868.868,0,0,0,773.3,290.934Z" transform="translate(-647.583 -258.176)" fill="#3f3d56"/>
      <rect id="Rectangle_175" data-name="Rectangle 175" width="9.545" height="0.434" transform="translate(128.972 33.409)" fill="#3f3d56"/>
      <path id="Path_660" data-name="Path 660" d="M864.855,311.5v17.355A17.356,17.356,0,0,1,847.5,311.5Z" transform="translate(-706.704 -274.62)" fill="#2c81ff"/>
      <path id="Path_661" data-name="Path 661" d="M735.085,401.833H681.5V310.5h53.585Zm-53.151-.434h52.717V310.934H681.934Z" transform="translate(-576.717 -273.837)" fill="#3f3d56"/>
      <ellipse id="Ellipse_245" data-name="Ellipse 245" cx="5.5" cy="6" rx="5.5" ry="6" transform="translate(140 41)" fill="#104CE5" opacity="0.1"/>
      <ellipse id="Ellipse_246" data-name="Ellipse 246" cx="5.5" cy="6" rx="5.5" ry="6" transform="translate(139 42)" fill="#104ce5"/>
      <rect id="Rectangle_176" data-name="Rectangle 176" width="7" height="3" transform="translate(108 41)" fill="#3f3d56"/>
      <rect id="Rectangle_177" data-name="Rectangle 177" width="8" height="3" transform="translate(112 69)" fill="#3f3d56"/>
      <path id="Path_662" data-name="Path 662" d="M753.417,492.14H713.5V486.5h39.917Zm-39.483-.434h39.05v-4.773h-39.05Z" transform="translate(-601.775 -411.655)" fill="#3f3d56"/>
      <rect id="Rectangle_178" data-name="Rectangle 178" width="40" height="6" transform="translate(110 92)" fill="#f0f0f0"/>
      <rect id="Rectangle_179" data-name="Rectangle 179" width="8" height="3" transform="translate(112 86)" fill="#3f3d56"/>
      <path id="Path_663" data-name="Path 663" d="M753.417,568.141H713.5V562.5h39.917Zm-39.483-.434h39.05v-4.773h-39.05Z" transform="translate(-601.775 -471.167)" fill="#3f3d56"/>
      <path id="Path_664" data-name="Path 664" d="M769.835,619.574H742.5V613.5h27.335Zm-26.9-.434H769.4v-5.207H742.934Z" transform="translate(-624.483 -511.103)" fill="#3f3d56"/>
      <path id="Path_665" data-name="Path 665" d="M876.836,494.669a2.17,2.17,0,0,1-3.842,1.382l0,0a2.169,2.169,0,1,1,3.781-1.894v0h0A2.215,2.215,0,0,1,876.836,494.669Z" transform="translate(-726.278 -416.353)" fill="#2c81ff"/>
      <path id="Path_666" data-name="Path 666" d="M878.4,497.8a2.17,2.17,0,0,1-3.842,1.382l0,0a2.219,2.219,0,0,1-.061-.512,2.17,2.17,0,0,1,3.842-1.382v0h0A2.212,2.212,0,0,1,878.4,497.8Z" transform="translate(-727.847 -419.485)" opacity="0.1"/>
      <ellipse id="Ellipse_247" data-name="Ellipse 247" cx="2" cy="2.5" rx="2" ry="2.5" transform="translate(147 77)" fill="#104CE5"/>
      <path id="Path_667" data-name="Path 667" d="M876.836,570.669a2.17,2.17,0,0,1-3.842,1.382l0,0a2.169,2.169,0,1,1,3.781-1.894v0h0A2.216,2.216,0,0,1,876.836,570.669Z" transform="translate(-726.278 -475.865)" fill="#2c81ff"/>
      <path id="Path_668" data-name="Path 668" d="M878.4,573.8a2.17,2.17,0,0,1-3.842,1.382l0,0a2.219,2.219,0,0,1-.061-.512,2.17,2.17,0,0,1,3.842-1.382h0A2.212,2.212,0,0,1,878.4,573.8Z" transform="translate(-727.847 -478.997)" opacity="0.1"/>
      <ellipse id="Ellipse_248" data-name="Ellipse 248" cx="2" cy="2.5" rx="2" ry="2.5" transform="translate(147 94)" fill="#104CE5"/>
      <rect id="Rectangle_180" data-name="Rectangle 180" width="11" height="11" transform="translate(102 11)" fill="#f0f0f0"/>
      <path id="Path_669" data-name="Path 669" d="M860.1,208.707a2.6,2.6,0,1,1,2.6-2.6A2.6,2.6,0,0,1,860.1,208.707Zm0-4.773a2.169,2.169,0,1,0,2.169,2.169A2.169,2.169,0,0,0,860.1,203.934Z" transform="translate(-714.535 -190.05)" fill="#3f3d56"/>
      <path id="Path_670" data-name="Path 670" d="M585.141,374.141H579.5V368.5h5.641Zm-5.207-.434h4.773v-4.773h-4.773Z" transform="translate(-496.845 -319.254)" fill="#3f3d56"/>
      <path id="Path_671" data-name="Path 671" d="M981.141,568.141H975.5V562.5h5.641Zm-5.207-.434h4.773v-4.773h-4.773Z" transform="translate(-806.936 -471.167)" fill="#3f3d56"/>
      <path id="Path_672" data-name="Path 672" d="M488.5,386.5l.968.521,3.294,1.775,5.317,2.865,3.1-5.749a4.67,4.67,0,0,0-1.9-6.332,6.2,6.2,0,0,0-7.242.983l0,0a6.21,6.21,0,0,0-1.166,1.535Z" transform="translate(-425.589 -327.345)" fill="#2f2e41"/>
      <path id="Path_673" data-name="Path 673" d="M339.9,540.592l-.65,7.146-2.436.325-1.624-8.12Z" transform="translate(-262.473 -422.806)" fill="#ffb8b8"/>
      <path id="Path_674" data-name="Path 674" d="M535.446,715.882s3.086-1.624,3.735-.325c0,0-.487,3.9,1.462,4.385s2.761,3.9,0,4.223-4.547-.65-5.522-.65,0-3.411,0-3.411Z" transform="translate(-461.755 -590.625)" fill="#2f2e41"/>
      <path id="Path_675" data-name="Path 675" d="M266.316,540.592l.65,7.146,2.436.325,1.624-8.12Z" transform="translate(-208.541 -422.806)" fill="#ffb8b8"/>
      <path id="Path_676" data-name="Path 676" d="M456.853,715.882s-3.086-1.624-3.735-.325c0,0,.487,3.9-1.462,4.385s-2.761,3.9,0,4.223,4.548-.65,5.522-.65,0-3.411,0-3.411Z" transform="translate(-395.343 -590.625)" fill="#2f2e41"/>
      <circle id="Ellipse_249" data-name="Ellipse 249" cx="4.223" cy="4.223" r="4.223" transform="translate(66.87 52.01)" fill="#ffb8b8"/>
      <path id="Path_677" data-name="Path 677" d="M464.067,408.989l3.411,5.36,4.06-.325,6.659.487s.629-1.257,1.142-2.48a9.61,9.61,0,0,0,.645-1.905c.162-1.137-2.111-2.274-2.111-2.274s-.089-.016-.239-.052c-.2-.047-.5-.125-.838-.239-.755-.257-1.663-.692-1.847-1.333-.325-1.137,2.111-2.761,2.111-2.761l-2.923-2.761s-2.6,3.607-5.751,4.429a5.017,5.017,0,0,1-.555.114l-.028,0A4.324,4.324,0,0,0,464.067,408.989Z" transform="translate(-406.454 -344.473)" fill="#ffb8b8"/>
      <path id="Path_678" data-name="Path 678" d="M451.953,432.149l-1.786,1.462s-1.462,6.984-.974,8.933a9.226,9.226,0,0,1-.162,4.06c0,.325-1.462,12.505-1.462,12.505s-2.923,6.5.162,5.847,1.949-7.146,1.949-7.146l3.735-11.369v-9.582Z" transform="translate(-392.554 -369.095)" fill="#ffb8b8"/>
      <path id="Path_679" data-name="Path 679" d="M529.1,438.138l1.3.974.65,13.642,4.872,11.693s3.573,5.684,1.3,5.847-3.735-5.847-3.735-5.847L529.1,453.242l-.65-10.881Z" transform="translate(-456.869 -373.785)" fill="#ffb8b8"/>
      <path id="Path_680" data-name="Path 680" d="M465.263,442.629a12.219,12.219,0,0,0,8.445,1.462s1.462,2.923.65,4.547.974,5.522,1.3,6.009a91.009,91.009,0,0,1,5.36,21.438c1.3,10.881,4.872,18.352,1.786,19.327s-9.42,2.111-10.069,1.137-1.624-25.174-1.624-25.174l-1.786,9.257s2.436,15.754.65,16.079-12.993-.65-12.668-2.6,3.573-12.181,3.573-12.181-.162-20.464,3.086-24.361a4.663,4.663,0,0,0-.487-4.872c-1.786-2.761-1.624-7.146-1.624-7.146S463.152,445.552,465.263,442.629Z" transform="translate(-401.154 -377.301)" fill="#2f2e41"/>
      <path id="Path_681" data-name="Path 681" d="M282.913,279.735l2.733,6.014.65-.325-2.828-5.8Z" transform="translate(-221.537 -218.959)" fill="#2f2e41"/>
      <path id="Path_682" data-name="Path 682" d="M522.737,432.306l2.051,4.513.492-.044-.167-.768-1.538-3.463C523.377,432.5,523.072,432.42,522.737,432.306Z" transform="translate(-452.396 -369.218)" fill="#2f2e41"/>
      <path id="Path_683" data-name="Path 683" d="M492.525,387.025a2.673,2.673,0,0,0,4.9.477c-2.054-2.686-.292-4.374,3.045-5.65a2.671,2.671,0,0,0-.287-2.962,6.223,6.223,0,0,0-5.092,1.676l0,0-2.371,4.4A2.66,2.66,0,0,0,492.525,387.025Z" transform="translate(-428.644 -327.35)" fill="#2f2e41"/>
      <ellipse id="Ellipse_250" data-name="Ellipse 250" cx="0.568" cy="0.974" rx="0.568" ry="0.974" transform="translate(68.007 55.746)" fill="#ffb8b8"/>
      <path id="Path_684" data-name="Path 684" d="M522.408,383.875l4.882,2.212.895-1.975a4.677,4.677,0,0,0-.942-1.97l-3.36-1.522Z" transform="translate(-452.139 -328.745)" fill="#2f2e41"/>
      <ellipse id="Ellipse_251" data-name="Ellipse 251" cx="2" cy="2.5" rx="2" ry="2.5" transform="translate(80 94)" fill="#104CE5"/>
      <circle id="Ellipse_252" data-name="Ellipse 252" cx="1.418" cy="1.418" r="1.418" transform="translate(10.938 108.77)" fill="#ff6584"/>
      <rect id="Rectangle_181" data-name="Rectangle 181" width="0.434" height="16.143" transform="translate(19.086 117.577)" fill="#3f3d56"/>
      <circle id="Ellipse_253" data-name="Ellipse 253" cx="2.283" cy="2.283" r="2.283" transform="translate(17.02 115.294)" fill="#3f3d56"/>
      <path id="Path_685" data-name="Path 685" d="M262.167,706.721s-.326-7.014-7.012-6.2" transform="translate(-242.864 -579.195)" fill="#3f3d56"/>
    </g>
  </g>
</svg>
