<svg id="smart-cart" xmlns="http://www.w3.org/2000/svg" width="22.642" height="22.161" viewBox="0 0 22.642 22.161">
  <g id="Group_142" data-name="Group 142" transform="translate(0 0)">
    <path id="Path_545" data-name="Path 545" d="M18.52,14.671a3.963,3.963,0,0,0,1.442-2L22.642,4.9H5.41L5.22,2.831A2.88,2.88,0,0,0,4.267.941,3,3,0,0,0,2.262.178H0V1.909H2.262a1.187,1.187,0,0,1,1.2,1.076L4.843,18.008v.008a2.923,2.923,0,0,0,2.451,2.578,2.625,2.625,0,0,0,4.925.057H14.3a2.554,2.554,0,1,0,0-1.731H12.219a2.627,2.627,0,0,0-4.867-.1,1.177,1.177,0,0,1-.75-.974l-.22-2.391H16.13A4.006,4.006,0,0,0,18.52,14.671Zm-1.771,4.292a.823.823,0,1,1-.84.822A.832.832,0,0,1,16.749,18.963Zm-6.982,0a.823.823,0,1,1-.84.822A.832.832,0,0,1,9.767,18.963ZM6.223,13.726h0l-.654-7.1h14.61l-1.9,5.5-.007.022a2.27,2.27,0,0,1-2.146,1.578Z" transform="translate(0 -0.178)" fill="#333"/>
  </g>
</svg>
