<svg id="smart-cart" xmlns="http://www.w3.org/2000/svg" width="27.303" height="26.723" viewBox="0 0 27.303 26.723">
  <g id="Group_142" data-name="Group 142" transform="translate(0 0)">
    <path id="Path_545" data-name="Path 545" d="M22.332,17.654a4.779,4.779,0,0,0,1.738-2.415L27.3,5.867H6.524l-.229-2.49A3.473,3.473,0,0,0,5.146,1.1,3.615,3.615,0,0,0,2.727.178H0V2.266H2.727a1.431,1.431,0,0,1,1.444,1.3L5.839,21.678v.01A3.525,3.525,0,0,0,8.8,24.8a3.166,3.166,0,0,0,5.939.068h2.5a3.08,3.08,0,1,0,0-2.088h-2.5a3.167,3.167,0,0,0-5.869-.118,1.419,1.419,0,0,1-.9-1.174L7.7,18.6H19.45A4.831,4.831,0,0,0,22.332,17.654ZM20.2,22.83a.992.992,0,1,1-1.013.992A1,1,0,0,1,20.2,22.83Zm-8.42,0a.992.992,0,1,1-1.013.992A1,1,0,0,1,11.777,22.83ZM7.5,16.514h0l-.788-8.56H24.333l-2.286,6.63-.009.027a2.737,2.737,0,0,1-2.587,1.9Z" transform="translate(0 -0.178)" fill="#333"/>
  </g>
</svg>
