<svg xmlns="http://www.w3.org/2000/svg" width="17.782" height="17.405" viewBox="0 0 17.782 17.405">
  <g id="smart-cart" transform="translate(0)">
    <g id="Group_142" data-name="Group 142" transform="translate(0 0)">
      <path id="Path_545" data-name="Path 545" d="M14.545,11.56a3.112,3.112,0,0,0,1.132-1.573l2.105-6.1H4.249L4.1,2.262A2.262,2.262,0,0,0,3.351.778a2.354,2.354,0,0,0-1.575-.6H0v1.36H1.776a.932.932,0,0,1,.941.845L3.8,14.181v.006a2.3,2.3,0,0,0,1.925,2.025,2.062,2.062,0,0,0,3.868.044h1.631a2.006,2.006,0,1,0,0-1.36H9.6a2.063,2.063,0,0,0-3.822-.077.924.924,0,0,1-.589-.765l-.173-1.878h7.655A3.146,3.146,0,0,0,14.545,11.56Zm-1.391,3.371a.646.646,0,1,1-.659.646A.653.653,0,0,1,13.154,14.931Zm-5.484,0a.646.646,0,1,1-.659.646A.653.653,0,0,1,7.67,14.931ZM4.887,10.818h0L4.374,5.243H15.848L14.359,9.561l-.006.018a1.783,1.783,0,0,1-1.685,1.239Z" transform="translate(0 -0.178)" fill="#333"/>
    </g>
  </g>
</svg>
