<svg id="stat-store" xmlns="http://www.w3.org/2000/svg" width="16" height="16" viewBox="0 0 16 16">
  <g id="Group_79" data-name="Group 79">
    <g id="Group_78" data-name="Group 78">
      <path id="Path_186" data-name="Path 186" d="M187.733,257.867a.267.267,0,0,0,.267.267h1.067a.267.267,0,0,0,.267-.267v-1.6a.267.267,0,0,0-.267-.267H188a.267.267,0,0,0-.267.267v1.6Zm.533-1.333h.533V257.6h-.533Z" transform="translate(-181.866 -248)" fill="rgba(255,246,244,0.57)"/>
      <path id="Path_187" data-name="Path 187" d="M188,155.734h1.067a.267.267,0,0,0,.267-.267v-1.6a.267.267,0,0,0-.267-.267H188a.267.267,0,0,0-.267.267v1.6A.267.267,0,0,0,188,155.734Zm.267-1.6h.533V155.2h-.533Z" transform="translate(-181.867 -148.801)" fill="rgba(255,246,244,0.57)"/>
      <path id="Path_188" data-name="Path 188" d="M119.87,5.029l3.863-2.318L127.6,5.029a.267.267,0,0,0,.275-.457L124,2.249V.533h1.333v.533h-.8a.267.267,0,0,0,0,.533H125.6a.267.267,0,0,0,.267-.267V.267A.267.267,0,0,0,125.6,0h-1.867a.267.267,0,0,0-.267.267V2.249L119.6,4.571a.267.267,0,0,0,.275.457Z" transform="translate(-115.733)" fill="rgba(255,246,244,0.57)"/>
      <path id="Path_189" data-name="Path 189" d="M52.533,258.134a.267.267,0,0,0,.267-.267v-1.6a.267.267,0,0,0-.267-.267H51.467a.267.267,0,0,0-.267.267v.533a.267.267,0,1,0,.533,0v-.267h.533v1.333A.267.267,0,0,0,52.533,258.134Z" transform="translate(-49.6 -248.001)" fill="rgba(255,246,244,0.57)"/>
      <path id="Path_190" data-name="Path 190" d="M137.067,187.2v-7.733a.267.267,0,1,0-.533,0V187.2a.267.267,0,1,0,.533,0Z" transform="translate(-132.267 -173.6)" fill="rgba(255,246,244,0.57)"/>
      <path id="Path_191" data-name="Path 191" d="M102.667,362.135h9.067a.267.267,0,0,0,0-.533h-2.4v-2.667h.267a.267.267,0,1,0,0-.533h-4.8a.267.267,0,1,0,0,.533h.267V361.6h-2.4a.267.267,0,0,0,0,.533Zm4.8-1.6a.267.267,0,1,0,0-.533v-1.067H108.8V361.6h-1.333v-1.067Zm-1.867-1.6h1.333V360a.267.267,0,0,0,0,.533V361.6H105.6Z" transform="translate(-99.2 -347.202)" fill="rgba(255,246,244,0.57)"/>
      <path id="Path_192" data-name="Path 192" d="M410.934,366.933h-1.067a.267.267,0,0,0-.267.267v1.6a.267.267,0,0,0,.267.267h1.067a.267.267,0,0,0,.267-.267v-1.6A.267.267,0,0,0,410.934,366.933Zm-.267,1.6h-.533v-1.067h.533Z" transform="translate(-396.801 -355.466)" fill="rgba(255,246,244,0.57)"/>
      <path id="Path_193" data-name="Path 193" d="M410.934,264.533h-1.067a.267.267,0,0,0-.267.267v1.6a.267.267,0,0,0,.267.267h1.067a.267.267,0,0,0,.267-.267v-1.6A.267.267,0,0,0,410.934,264.533Zm-.267,1.6h-.533v-1.067h.533Z" transform="translate(-396.801 -256.266)" fill="rgba(255,246,244,0.57)"/>
      <path id="Path_194" data-name="Path 194" d="M79.734,494.933h-11.2a.267.267,0,0,0,0,.533h11.2a.267.267,0,0,0,0-.533Z" transform="translate(-66.134 -479.466)" fill="rgba(255,246,244,0.57)"/>
      <path id="Path_195" data-name="Path 195" d="M396,187.733a.267.267,0,0,0-.267.267v.267H392.8a.267.267,0,1,0,0,.533h2.933v8.8a.267.267,0,0,0,.533,0V188A.267.267,0,0,0,396,187.733Z" transform="translate(-380.267 -181.866)" fill="rgba(255,246,244,0.57)"/>
      <path id="Path_196" data-name="Path 196" d="M273.067,257.867a.267.267,0,0,0,.267.267H274.4a.267.267,0,0,0,.267-.267v-1.6A.267.267,0,0,0,274.4,256h-1.067a.267.267,0,0,0-.267.267Zm.533-1.333h.533V257.6H273.6v-1.067Z" transform="translate(-264.534 -248)" fill="rgba(255,246,244,0.57)"/>
      <path id="Path_197" data-name="Path 197" d="M2.667,310.667c0-.035-.015-3.467-1.333-3.467S0,310.632,0,310.667a1.336,1.336,0,0,0,1.067,1.306v1.36a.267.267,0,1,0,.533,0v-1.36A1.336,1.336,0,0,0,2.667,310.667Zm-1.333.8a.8.8,0,0,1-.8-.8c0-1.329.357-2.933.8-2.933s.8,1.6.8,2.933A.8.8,0,0,1,1.333,311.467Z" transform="translate(0 -297.6)" fill="rgba(255,246,244,0.57)"/>
      <path id="Path_198" data-name="Path 198" d="M358.934,178.934v-8a.267.267,0,1,0-.533,0v8a.267.267,0,1,0,.533,0Z" transform="translate(-347.201 -165.334)" fill="rgba(255,246,244,0.57)"/>
      <path id="Path_199" data-name="Path 199" d="M273.334,155.734H274.4a.267.267,0,0,0,.267-.267v-1.6a.267.267,0,0,0-.267-.267h-1.067a.267.267,0,0,0-.267.267v1.6A.267.267,0,0,0,273.334,155.734Zm.267-1.6h.533V155.2H273.6Z" transform="translate(-264.534 -148.801)" fill="rgba(255,246,244,0.57)"/>
      <path id="Path_200" data-name="Path 200" d="M.267,191.2a.267.267,0,0,0,.267-.267V188.8H3.467a.267.267,0,1,0,0-.533H.533V188A.267.267,0,0,0,0,188v2.933A.267.267,0,0,0,.267,191.2Z" transform="translate(0 -181.868)" fill="rgba(255,246,244,0.57)"/>
    </g>
  </g>
</svg>
