<svg xmlns="http://www.w3.org/2000/svg" width="21.496" height="20.934" viewBox="0 0 21.496 20.934">
  <g id="stat-stock-and-hand" transform="translate(0 -0.745)" opacity="0.46">
    <path id="Path_160" data-name="Path 160" d="M18.371,15.649,13.926,17.8l-1.717-3.547L16.654,12.1ZM17.294,6.618,20.964,14.2l-2.222,1.075L15.071,7.694ZM15.337,18.4,21.5,15.532l-.144-.605-6.678,3.1a1.854,1.854,0,0,0-1.01-.042c-.06.014-.12.032-.178.051L8.9,9.366A1.162,1.162,0,0,0,7.828,7.531c-.11.014-.15.026-.228.033a7.836,7.836,0,0,1-3.073-.928c-.006-.111-.011-.222-.017-.333A1.722,1.722,0,0,0,2.928,4.527,1.685,1.685,0,0,0,1.152,6.109c.132,2.164.131,2.694.124,4.768H1.254c.013.276.026.733.04,1.009a1.66,1.66,0,0,0,.4,1.033s0,.008,0,.01a10.35,10.35,0,0,1,.459,1.285C1.762,16.084.52,17.953.039,19.805a1.089,1.089,0,0,0,2.1.578c.485-1.866,1.968-3.752,2.366-5.639a1.217,1.217,0,0,0,.026-.275,9.5,9.5,0,0,1,2.349,5.461c.119,1.389,2.3,1.4,2.176,0a11.794,11.794,0,0,0-4.407-8.223c-.008-.161-.015-.322-.023-.483h.008c0-1.3.007-.864-.019-2.165a10,10,0,0,0,2.8.637l0,.026A6.633,6.633,0,0,0,8.3,9.656a1.125,1.125,0,0,0,.17-.039l4.441,8.741a1.876,1.876,0,1,0,2.426.046Zm-1.093,2.017a.632.632,0,1,1,.468-.761A.633.633,0,0,1,14.243,20.421ZM14.7,8.063l1.717,3.547-4.445,2.151-1.717-3.547ZM2.895.745A1.635,1.635,0,1,1,1.259,2.38,1.635,1.635,0,0,1,2.895.745Z" fill="#fff"/>
  </g>
</svg>
