<svg xmlns="http://www.w3.org/2000/svg" width="15.347" height="15.355" viewBox="0 0 15.347 15.355">
  <g id="stat-users" transform="translate(-25.108 -24.989)" opacity="0.79">
    <path id="Path_146" data-name="Path 146" d="M38.734,283.281l-.079.043A1.086,1.086,0,0,0,37.364,283l0,0-.186.1a1.413,1.413,0,0,0-1.618-.146l-1,.545H33.219a1.926,1.926,0,0,1-.834-.191l-.183-.089a3.147,3.147,0,0,0-3.275.32l-.013.01-.443.394a1.536,1.536,0,0,1-.58.323l-.252-.826a.2.2,0,0,0-.191-.141H25.307a.2.2,0,0,0-.2.224l.714,5.855a.2.2,0,0,0,.2.175h3.213a.2.2,0,0,0,.191-.258L29,287.913l1.315-.831a.791.791,0,0,1,.577-.075l.012,0,2.674.492a3.46,3.46,0,0,0,2.138-.3l.024-.014,4.625-3.176a.2.2,0,0,0,.058-.267A1.27,1.27,0,0,0,38.734,283.281Zm-1.187.074a.681.681,0,0,1,.745.165l-1.754.946-.1.054a1.52,1.52,0,0,0-.24-.436Zm-1.8-.049,0,0a1.014,1.014,0,0,1,1.031.01l-.892.48a1.515,1.515,0,0,0-.57-.256Zm-9.55,5.851-.665-5.456H27.3l1.663,5.456Zm9.332-2.307a3.059,3.059,0,0,1-1.877.261l-2.667-.491a1.189,1.189,0,0,0-.867.117l-.009.005-1.227.776-.874-2.866a1.936,1.936,0,0,0,.728-.407l.437-.389a2.75,2.75,0,0,1,2.855-.275l.183.089a2.328,2.328,0,0,0,1.007.231H35a1.125,1.125,0,0,1,1.1.914l-1.289-.058a7.718,7.718,0,0,0-1.4.065.2.2,0,1,0,.055.4,7.307,7.307,0,0,1,1.33-.061l1.517.069h.009a.2.2,0,0,0,.2-.2c0-.032,0-.064,0-.1l.208-.11,2.2-1.186a.871.871,0,0,1,1.048.168Z" transform="translate(0 -249.212)" fill="#fff"/>
    <path id="Path_147" data-name="Path 147" d="M76.974,431.926a.628.628,0,1,0,.628-.628A.628.628,0,0,0,76.974,431.926Zm.628-.229a.229.229,0,1,1-.229.229.229.229,0,0,1,.229-.229Z" transform="translate(-50.142 -392.806)" fill="#fff"/>
    <path id="Path_148" data-name="Path 148" d="M213.562,27.16V26.5a1.514,1.514,0,1,0-3.027,0v.657a1.514,1.514,0,1,0,3.027,0Zm-2.628,0V26.5a1.115,1.115,0,1,1,2.23,0v.657a1.115,1.115,0,1,1-2.23,0Z" transform="translate(-179.264)" fill="#fff"/>
    <path id="Path_149" data-name="Path 149" d="M73.744,142.691h4.879a.2.2,0,0,0,.2-.2v-.458h3.34a.2.2,0,0,0,.2-.2V140.54a1.5,1.5,0,0,0-1.4-1.491.233.233,0,0,0-.205.114.915.915,0,0,1-1.444-.035.2.2,0,0,0-.165-.081,1.478,1.478,0,0,0-.734.214,1.676,1.676,0,0,0-1.17-.58.242.242,0,0,0-.206.12,1.074,1.074,0,0,1-1.694-.041.2.2,0,0,0-.165-.081,1.669,1.669,0,0,0-1.158.505c-.025.026-.049.052-.072.08a1.483,1.483,0,0,0-.68-.213.233.233,0,0,0-.205.114.915.915,0,0,1-1.444-.035.2.2,0,0,0-.165-.081A1.494,1.494,0,0,0,70,140.54v1.294a.2.2,0,0,0,.2.2h3.346v.458A.2.2,0,0,0,73.744,142.691Zm5.32-3.239a1.314,1.314,0,0,0,1.967.005,1.1,1.1,0,0,1,.933,1.083v1.095H78.823v-1.279a1.668,1.668,0,0,0-.184-.764A1.078,1.078,0,0,1,79.064,139.452Zm-3.969-.369a1.473,1.473,0,0,0,2.224.005,1.281,1.281,0,0,1,1.105,1.268v1.936H73.944v-1.936A1.288,1.288,0,0,1,75.095,139.083Zm-4.7,2.552V140.54a1.1,1.1,0,0,1,.972-1.088,1.314,1.314,0,0,0,1.967.005,1.087,1.087,0,0,1,.389.137,1.671,1.671,0,0,0-.182.761v1.279Z" transform="translate(-43.4 -109.911)" fill="#fff"/>
    <path id="Path_150" data-name="Path 150" d="M333.829,52.185V51.61a1.35,1.35,0,1,0-2.7,0v.575a1.35,1.35,0,0,0,2.7,0Zm-2.3,0V51.61a.951.951,0,0,1,1.9,0v.575a.951.951,0,0,1-1.9,0Z" transform="translate(-295.852 -24.431)" fill="#fff"/>
    <path id="Path_151" data-name="Path 151" d="M102.345,52.185V51.61a1.35,1.35,0,1,0-2.7,0v.575a1.35,1.35,0,0,0,2.7,0Zm-2.3,0V51.61a.951.951,0,0,1,1.9,0v.575a.951.951,0,0,1-1.9,0Z" transform="translate(-72.061 -24.431)" fill="#fff"/>
  </g>
</svg>
