<svg xmlns="http://www.w3.org/2000/svg" width="16.141" height="14.213" viewBox="0 0 16.141 14.213">
  <g id="state-orders" transform="translate(0 -29.25)">
    <g id="Group_60" data-name="Group 60" transform="translate(0 29.25)">
      <path id="Path_154" data-name="Path 154" d="M1.737,32.727A1.739,1.739,0,1,0,0,30.987,1.739,1.739,0,0,0,1.737,32.727Zm0-2.67a.93.93,0,1,1-.93.93A.931.931,0,0,1,1.737,30.058Z" transform="translate(0 -29.25)" fill="rgba(255,255,255,0.64)"/>
      <path id="Path_155" data-name="Path 155" d="M1.737,195.624A1.737,1.737,0,1,0,0,193.887,1.739,1.739,0,0,0,1.737,195.624Zm0-2.667a.93.93,0,1,1-.93.93A.931.931,0,0,1,1.737,192.958Z" transform="translate(0 -186.781)" fill="rgba(255,255,255,0.64)"/>
      <path id="Path_156" data-name="Path 156" d="M1.737,358.524A1.737,1.737,0,1,0,0,356.787,1.739,1.739,0,0,0,1.737,358.524Zm0-2.67a.93.93,0,1,1-.93.93A.931.931,0,0,1,1.737,355.854Z" transform="translate(0 -344.311)" fill="rgba(255,255,255,0.64)"/>
      <path id="Path_157" data-name="Path 157" d="M164.005,70.461h9.938a.405.405,0,1,0,0-.811h-9.938a.405.405,0,0,0,0,.811Z" transform="translate(-158.208 -68.318)" fill="rgba(255,255,255,0.64)"/>
      <path id="Path_158" data-name="Path 158" d="M164.005,233.361h9.938a.405.405,0,1,0,0-.811h-9.938a.405.405,0,0,0,0,.811Z" transform="translate(-158.208 -225.849)" fill="rgba(255,255,255,0.64)"/>
      <path id="Path_159" data-name="Path 159" d="M164.005,396.161h9.938a.405.405,0,1,0,0-.811h-9.938a.405.405,0,0,0,0,.811Z" transform="translate(-158.208 -383.283)" fill="rgba(255,255,255,0.64)"/>
    </g>
  </g>
</svg>
