<svg xmlns="http://www.w3.org/2000/svg" xmlns:xlink="http://www.w3.org/1999/xlink" width="815" height="411" viewBox="0 0 815 411">
  <defs>
    <linearGradient id="linear-gradient" x1="0.093" y1="0.676" x2="0.892" y2="-0.538" gradientUnits="objectBoundingBox">
      <stop offset="0" stop-color="#375db9"/>
      <stop offset="1" stop-color="#04216d"/>
    </linearGradient>
  </defs>
  <g id="store-placeholder" transform="translate(-201 -101)" opacity="0.4">
    <rect id="Rectangle_132" data-name="Rectangle 132" width="815" height="411" transform="translate(201 101)" fill="rgba(154,182,255,0.27)"/>
    <g id="Group_114" data-name="Group 114" transform="translate(-106.395 -40)" opacity="0.27">
      <g id="logo" transform="translate(607.481 181)">
        <g id="Group_2" data-name="Group 2" transform="translate(27.691 31.435)">
          <path id="Path_3" data-name="Path 3" d="M34.6,0H137.19a34.6,34.6,0,0,1,0,69.191H34.6A34.6,34.6,0,1,1,34.6,0Z" transform="matrix(0.454, 0.891, -0.891, 0.454, 61.742, 1.245)" fill="#375db9"/>
          <rect id="Rectangle_5" data-name="Rectangle 5" width="94.111" height="69.722" rx="34.861" transform="matrix(0.454, 0.891, -0.891, 0.454, 62.122, 1.197)" fill="url(#linear-gradient)"/>
          <rect id="Rectangle_4" data-name="Rectangle 4" width="169.4" height="67.866" rx="33.933" transform="translate(178.396 26.517) rotate(113)" fill="#375db9"/>
        </g>
        <g id="Ellipse_3" data-name="Ellipse 3" transform="translate(-0.086)" fill="none" stroke="#375db9" stroke-width="27">
          <circle cx="117" cy="117" r="117" stroke="none"/>
          <circle cx="117" cy="117" r="103.5" fill="none"/>
        </g>
      </g>
      <text id="Inventoryio" transform="translate(553.395 466)" fill="#375db9" font-size="52" font-family="Montserrat-Bold, Montserrat" font-weight="700" letter-spacing="0.073em"><tspan x="0" y="0">Inventory</tspan><tspan y="0" fill="#0337bb" font-size="68">io</tspan></text>
    </g>
  </g>
</svg>
