<svg xmlns="http://www.w3.org/2000/svg" width="463.398" height="446" viewBox="0 0 463.398 446">
  <g id="success" transform="translate(-765.602 -220)">
    <path id="Path_237" data-name="Path 237" d="M379.465,129.073C378.577,61.888,323.911,5.5,256.518,5.5c-42.934,0-83.25,23.209-105.508,56.658a61.768,61.768,0,0,0-95.947,51.468c0,1.182.108,2.332.178,3.506-.077,1.406-.178,2.827-.178,4.217C24.263,136.117,1,171.219,1,207.5c0,50.317,41.165,91.483,91.483,91.483H281.758c1.066,0,2.1-.124,3.151-.162,1.058.039,2.093.162,3.151.162h75.712a85.429,85.429,0,0,0,85.18-85.173C448.952,172.331,418.877,136.5,379.465,129.073Z" transform="translate(772.325 222.223)" fill="#104CE5"/>
    <path id="Path_238" data-name="Path 238" d="M370.5,313.432H294.791c-.8,0-1.606-.046-2.4-.108l-1.027-.062-.487.062c-.8.062-1.591.108-2.4.108H99.206A99.322,99.322,0,0,1,0,214.219c0-36.724,22.065-73.418,54.187-90.926-.062-.973-.124-1.946-.124-2.943A69.506,69.506,0,0,1,155.532,58.625C180.694,25.067,221.311,4.5,263.241,4.5c69.077,0,126.376,55.561,130.454,125.071,40.146,10.55,69.7,48.572,69.7,90.965A93,93,0,0,1,370.5,313.432Zm-79.141-15.6,2.085.085c.448.031.9.069,1.344.069H370.5a77.542,77.542,0,0,0,77.449-77.449c0-37.2-27.171-70.359-63.192-77.148l-6.21-1.166-.085-6.31c-.834-63.949-52.526-115.965-115.224-115.965-38.671,0-77.557,20.884-99.075,53.214l-4.279,6.434-6.434-4.279A54.04,54.04,0,0,0,69.51,120.35c0,.649.046,1.29.093,1.931l.093,1.56-.07,1.336c-.054.973-.116,1.946-.116,2.9v4.866l-4.387,2.093c-28.785,13.8-49.676,47.1-49.676,79.187a83.855,83.855,0,0,0,83.759,83.767H288.481c.456,0,.9-.039,1.344-.069Z" transform="translate(765.602 215.5)" fill="#104CE5"/>
    <g id="Group_110" data-name="Group 110" transform="translate(1105.431 342.274)">
      <path id="Path_239" data-name="Path 239" d="M83.64,22.621s-19.579-2.9-38.64,0" transform="translate(-37.281 -13.598)" fill="#104CE5"/>
      <path id="Path_240" data-name="Path 240" d="M51.712,37.078a7.725,7.725,0,0,1-1.151-15.362c19.98-3.043,40.084-.139,40.934-.008A7.725,7.725,0,0,1,89.24,36.993c-.185-.023-18.729-2.665-36.361-.008A7.493,7.493,0,0,1,51.712,37.078Z" transform="translate(-44 -20.332)" fill="#104CE5"/>
    </g>
    <g id="Ellipse_45" data-name="Ellipse 45" transform="translate(854 381)" fill="#67df5a" stroke="#67df5a" stroke-width="17">
      <ellipse cx="145.5" cy="142.5" rx="145.5" ry="142.5" stroke="none"/>
      <ellipse cx="145.5" cy="142.5" rx="137" ry="134" fill="none"/>
    </g>
    <g id="Group_113" data-name="Group 113" transform="translate(869.526 392.529)">
      <ellipse id="Ellipse_44" data-name="Ellipse 44" cx="131" cy="130.5" rx="131" ry="130.5" transform="translate(-0.526 0.471)" fill="#67df5a"/>
      <path id="Path_243" data-name="Path 243" d="M161.629,39.451A10.853,10.853,0,0,0,146.5,42.168L85.682,129.549,42.763,94.314a10.865,10.865,0,1,0-13.781,16.8L81,153.817a10.9,10.9,0,0,0,6.89,2.467,11.548,11.548,0,0,0,1.489-.1,10.925,10.925,0,0,0,7.434-4.554l67.535-97.042A10.889,10.889,0,0,0,161.629,39.451Z" transform="translate(40.354 27.512)" fill="#fff"/>
    </g>
  </g>
</svg>
