<svg id="support" xmlns="http://www.w3.org/2000/svg" width="18.36" height="18.36" viewBox="0 0 18.36 18.36">
  <path id="Path_582" data-name="Path 582" d="M3.229,14.2a1.5,1.5,0,0,0-.723.185,8.467,8.467,0,0,1,8.36-13.5.359.359,0,0,0,.142-.7A9.248,9.248,0,0,0,9.18,0a9.18,9.18,0,0,0-7.2,14.869A1.507,1.507,0,1,0,3.229,14.2Zm.558,2.064a.789.789,0,1,1,.231-.558A.783.783,0,0,1,3.787,16.262Zm0,0" transform="translate(0 0.001)" fill="#fff"/>
  <path id="Path_583" data-name="Path 583" d="M206.786,34.392a1.5,1.5,0,1,0-.53.486,8.467,8.467,0,0,1-8.343,13.5.359.359,0,1,0-.141.7,9.255,9.255,0,0,0,1.81.178,9.18,9.18,0,0,0,7.2-14.87Zm-1.811-.277a.789.789,0,1,1,.558.231A.784.784,0,0,1,204.975,34.115Zm0,0" transform="translate(-190.402 -30.901)" fill="#fff"/>
  <path id="Path_584" data-name="Path 584" d="M79.031,86.694a.359.359,0,0,0,.359.359h2.242a.359.359,0,0,0,.359-.359V86a5.615,5.615,0,0,0,1.346-.558l.491.491a.358.358,0,0,0,.507,0l1.585-1.586a.359.359,0,0,0,0-.507l-.49-.49A5.615,5.615,0,0,0,85.987,82h.693a.359.359,0,0,0,.359-.359V79.4a.359.359,0,0,0-.359-.359h-.693a5.617,5.617,0,0,0-.558-1.346l.488-.488a.359.359,0,0,0,0-.507L84.33,75.118a.359.359,0,0,0-.507,0l-.487.487a5.616,5.616,0,0,0-1.346-.558v-.689A.359.359,0,0,0,81.632,74H79.39a.359.359,0,0,0-.359.359v.689a5.61,5.61,0,0,0-1.346.558l-.487-.487a.359.359,0,0,0-.507,0L75.106,76.7a.358.358,0,0,0,0,.507l.488.488a5.614,5.614,0,0,0-.558,1.346h-.691a.359.359,0,0,0-.359.358v2.242a.358.358,0,0,0,.359.359h.693a5.616,5.616,0,0,0,.558,1.346l-.49.49a.359.359,0,0,0,0,.507l1.585,1.586a.359.359,0,0,0,.254.105h0a.359.359,0,0,0,.254-.105l.491-.491A5.62,5.62,0,0,0,79.031,86Zm-1.205-2.007a.359.359,0,0,0-.448.048l-.437.437-1.078-1.079.436-.436a.358.358,0,0,0,.048-.448,4.908,4.908,0,0,1-.679-1.639.359.359,0,0,0-.351-.283H74.7V79.761h.615a.359.359,0,0,0,.351-.283,4.909,4.909,0,0,1,.679-1.639.358.358,0,0,0-.048-.448l-.433-.434,1.079-1.078.433.433a.359.359,0,0,0,.448.048,4.906,4.906,0,0,1,1.639-.679.359.359,0,0,0,.283-.351v-.612h1.525v.612a.358.358,0,0,0,.283.351,4.91,4.91,0,0,1,1.639.679.358.358,0,0,0,.448-.048l.433-.433,1.079,1.078-.433.433a.359.359,0,0,0-.048.448,4.912,4.912,0,0,1,.679,1.639.358.358,0,0,0,.351.283h.616v1.525H85.7a.359.359,0,0,0-.351.283,4.907,4.907,0,0,1-.679,1.639.359.359,0,0,0,.048.448l.436.436-1.078,1.079-.437-.436a.359.359,0,0,0-.448-.048,4.912,4.912,0,0,1-1.639.679.359.359,0,0,0-.283.351v.619H79.748v-.619a.359.359,0,0,0-.283-.351A4.909,4.909,0,0,1,77.826,84.687Zm0,0" transform="translate(-71.331 -71.346)" fill="#fff"/>
  <path id="Path_585" data-name="Path 585" d="M179.3,176.334a2.963,2.963,0,1,0-2.963,2.963A2.966,2.966,0,0,0,179.3,176.334Zm-5.209,0a2.246,2.246,0,1,1,2.246,2.246A2.248,2.248,0,0,1,174.088,176.334Zm0,0" transform="translate(-167.154 -167.154)" fill="#fff"/>
  <path id="Path_586" data-name="Path 586" d="M338.437,18.526a.359.359,0,1,0-.253-.105A.361.361,0,0,0,338.437,18.526Zm0,0" transform="translate(-325.955 -17.17)" fill="#fff"/>
  <path id="Path_587" data-name="Path 587" d="M154.718,474.359a.359.359,0,1,0,.254.105A.362.362,0,0,0,154.718,474.359Zm0,0" transform="translate(-148.824 -457.349)" fill="#fff"/>
</svg>
