<svg xmlns="http://www.w3.org/2000/svg" width="1104.245" height="1137.096" viewBox="0 0 1104.245 1137.096">
  <g id="trolley-S1Mjb37PH" transform="translate(-22.25 -19.426)">
    <g id="Group_384" data-name="Group 384" transform="translate(22.25 19.425)">
      <path id="Path_815" data-name="Path 815" d="M1104.27,930.355H418.164c-18.465-43.882-59.323-78.306-111.406-93.864V0H.025V103.372h184.04V836.491c-71.347,21.347-122.692,78.1-122.692,145.548,0,85.643,82.39,155.057,184.04,155.057,80.057,0,147.416-43.26,172.752-103.37h686.1V930.355ZM245.413,1085.412c-67.726,0-122.692-46.312-122.692-103.37s54.966-103.374,122.692-103.374S368.1,924.98,368.1,982.042s-54.966,103.37-122.692,103.37Z" transform="translate(-0.025)" fill="#104ce5"/>
      <path id="Path_816" data-name="Path 816" d="M97.025,375.931H621.971V14.126H8.5V301.35c36.81,17.984,67.179,43.568,88.524,74.581ZM314.99,65.813l91.778,133.919h-61.1V324.248H284.316V199.732h-61.1L314.99,65.813Z" transform="translate(359.579 502.737)" fill="#104ce5"/>
      <path id="Path_817" data-name="Path 817" d="M376.56,3.531H315.239V158.6L253.874,81.065,192.509,158.6V3.531H8.5V339.5H376.56Z" transform="translate(359.595 125.668)" fill="#104ce5"/>
      <ellipse id="Ellipse_285" data-name="Ellipse 285" cx="61.365" cy="51.702" rx="61.365" ry="51.702" transform="translate(184.002 930.336)" fill="#104ce5"/>
    </g>
  </g>
</svg>
