<svg xmlns="http://www.w3.org/2000/svg" width="1091.579" height="1234.838" viewBox="0 0 1091.579 1234.838">
  <g id="trolley-S1Mjb37PH" transform="translate(-7.25 -4.426)">
    <g id="Group_387" data-name="Group 387" transform="translate(22.25 19.425)">
      <path id="Path_820" data-name="Path 820" d="M1061.608,985.781h-659.6c-17.752-46.5-57.031-82.971-107.1-99.456V0H.025V109.53h176.93V886.324C108.365,908.943,59,969.075,59,1040.543c0,90.745,79.207,164.295,176.93,164.295,76.964,0,141.72-45.838,166.077-109.529H1061.6V985.781ZM235.932,1150.075c-65.11,0-117.952-49.071-117.952-109.529s52.843-109.532,117.952-109.532,117.952,49.071,117.952,109.532-52.842,109.529-117.952,109.529Z" transform="translate(-0.025)" fill="none" stroke="#104ce5" stroke-width="30"/>
      <path id="Path_821" data-name="Path 821" d="M82.138,371.338H518.8V14.126H8.5V297.7a202.11,202.11,0,0,1,73.637,73.635ZM263.448,65.157l76.344,132.219H288.963V320.311H237.933V197.376H187.108l76.34-132.219Z" transform="translate(440.717 550.961)" fill="none" stroke="#104ce5" stroke-width="30"/>
      <path id="Path_822" data-name="Path 822" d="M314.664,3.531H263.655v153.1L212.61,80.081l-51.045,76.55V3.531H8.5v331.7H314.664Z" transform="translate(369.212 124.028)" fill="none" stroke="#104ce5" stroke-width="30"/>
      <circle id="Ellipse_286" data-name="Ellipse 286" cx="51.045" cy="51.045" r="51.045" transform="translate(179.873 1000.704)" fill="none" stroke="#104ce5" stroke-width="30"/>
    </g>
  </g>
</svg>
