<svg id="undraw_business_shop_qw5t" xmlns="http://www.w3.org/2000/svg" width="440.646" height="355.018" viewBox="0 0 440.646 355.018">
  <ellipse id="Ellipse_46" data-name="Ellipse 46" cx="217.707" cy="17.008" rx="217.707" ry="17.008" transform="translate(5.233 321)" fill="#104CE5"/>
  <path id="Path_277" data-name="Path 277" d="M768.218,583.641l2.041,14.964-14.283,1.36,2.041-18.364Z" transform="translate(-360.348 -277.23)" fill="#a0616a"/>
  <path id="Path_278" data-name="Path 278" d="M816.761,303.812s1.36,18.364,1.36,19.044-9.522,47.611-9.522,47.611-13.6,25.846,0,25.166,9.522-24.486,9.522-24.486L832.4,331.7l-6.121-27.887Z" transform="translate(-476.227 -202.808)" fill="#a0616a"/>
  <path id="Path_279" data-name="Path 279" d="M691.732,583.641l-2.04,14.964,14.283,1.36-2.04-18.364Z" transform="translate(-328.753 -277.23)" fill="#a0616a"/>
  <path id="Path_280" data-name="Path 280" d="M838.774,425.483l-3.4,4.761s-2.04,20.4,0,27.206S841.5,495.54,841.5,497.58s.68,3.4,0,4.081-2.721.68-1.36,2.041,1.36,5.441,1.36,5.441v3.4l8.842,50.332S844.9,569,848.977,569s19.044,0,18.364-6.8l-1.36-.68s-2.04-44.89-1.36-46.931,0-6.121,0-6.121-1.36-2.04,0-2.721,1.36-6.121,1.36-6.121l6.121-41.49s5.441,27.887,8.842,30.607,2.721,9.522,2.721,9.522l2.721,59.854s-2.721,6.8,0,8.162,14.283,6.121,14.963-.68,4.081-65.976,4.081-68.7-.68-4.081,0-6.121-.68-2.04,0-2.04-1.36-2.04-1.36-3.4V452.01s.68-6.8,1.36-8.162-.68-2.721,0-4.761-1.36-8.842-1.36-8.842l-30.607-8.162Z" transform="translate(-491.439 -259.184)" fill="#2e344c"/>
  <path id="Path_281" data-name="Path 281" d="M870.585,716.609s3.4-3.4-1.36-3.4a22.136,22.136,0,0,0-8.842,2.04l-3.4,12.243s-13.944,11.223,1.7,9.862,13.263-.34,13.263-.34,4.761-1.36,5.441-2.721-1.36-21.085-1.36-21.085S873.985,718.649,870.585,716.609Z" transform="translate(-499.444 -397.954)" fill="#ed5575"/>
  <path id="Path_282" data-name="Path 282" d="M935.949,716.609s-3.4-3.4,1.36-3.4a22.136,22.136,0,0,1,8.842,2.04l3.4,12.243s13.943,11.223-1.7,9.862-15.3-.34-15.3-.34-4.761-1.36-5.441-2.721,3.4-21.085,3.4-21.085S932.548,718.649,935.949,716.609Z" transform="translate(-535.561 -397.954)" fill="#ed5575"/>
  <circle id="Ellipse_47" data-name="Ellipse 47" cx="17.684" cy="17.684" r="17.684" transform="translate(338.493 11.903)" fill="#a0616a"/>
  <path id="Path_283" data-name="Path 283" d="M847.9,185.846s2.721,13.6,2.721,15.644,11.563,8.162,11.563,8.162L875.1,193.328s-8.162-11.563-8.162-14.283Z" transform="translate(-497.841 -143.336)" fill="#a0616a"/>
  <path id="Path_284" data-name="Path 284" d="M843.231,212.862s-5.928-1.578-7.725-4.19c0,0-18.8,18.473-18.8,21.874l14.964,26.526s0,9.522,1.36,10.2,0,0,0,2.721-4.081,20.4-2.721,23.125,2.721.68,1.36,4.761-4.761,25.846-4.761,25.846,12.243-4.081,29.927,2.721,38.769-2.721,38.769-2.721-5.441-12.243-4.081-16.324-3.4-11.563-3.4-11.563l-3.4-62.574s4.761-27.887,1.36-29.247l-6.8-2.721L857.5,198.623S852.073,212.182,843.231,212.862Z" transform="translate(-482.973 -152.668)" fill="#ecf2f4"/>
  <path id="Path_285" data-name="Path 285" d="M822.13,250.526l-6.8,4.761s-3.4,10.2,0,14.964,4.761,11.563,4.761,11.563l13.6-1.36Z" transform="translate(-481.596 -177.409)" fill="#ecf2f4"/>
  <path id="Path_286" data-name="Path 286" d="M828.379,121.71l-3.068-1.228s6.414-7.061,15.338-6.447l-2.51-2.763s6.135-2.456,11.712,3.991c2.932,3.389,6.324,7.373,8.439,11.861h3.285l-1.371,3.019,4.8,3.019-4.925-.542a16.707,16.707,0,0,1-.466,7.819l.132,2.386s-5.709-8.834-5.709-10.062v3.07s-3.068-2.763-3.068-4.605l-1.673,2.149L848.457,130l-10.318,3.377,1.673-2.763-6.414.921,2.51-3.377s-7.251,3.991-7.529,7.368-3.9,7.675-3.9,7.675l-1.673-3.07S820.292,126.315,828.379,121.71Z" transform="translate(-485.703 -110.812)" fill="#2f2e41"/>
  <rect id="Rectangle_78" data-name="Rectangle 78" width="270.282" height="189.864" transform="translate(76.495 148.015)" fill="#f2f2f2"/>
  <rect id="Rectangle_79" data-name="Rectangle 79" width="67.865" height="118.469" transform="translate(99.248 220.457)" fill="#3f3d56"/>
  <rect id="Rectangle_80" data-name="Rectangle 80" width="18.281" height="17.042" transform="translate(111.801 227.565)" fill="#f2f2f2"/>
  <rect id="Rectangle_81" data-name="Rectangle 81" width="18.281" height="17.042" transform="translate(136.279 227.565)" fill="#f2f2f2"/>
  <rect id="Rectangle_82" data-name="Rectangle 82" width="18.281" height="17.661" transform="translate(111.801 250.803)" fill="#f2f2f2"/>
  <rect id="Rectangle_83" data-name="Rectangle 83" width="18.281" height="17.661" transform="translate(136.279 250.803)" fill="#f2f2f2"/>
  <circle id="Ellipse_48" data-name="Ellipse 48" cx="4.315" cy="4.315" r="4.315" transform="translate(154.167 283.353)" fill="#6c63ff"/>
  <rect id="Rectangle_84" data-name="Rectangle 84" width="134.16" height="112.585" transform="translate(189.865 209.211)" fill="#3f3d56"/>
  <path id="Path_287" data-name="Path 287" d="M418.97,268.154H92.2L113.986,222.6l4.876-10.2,6.379-13.338,4.876-10.2,5.653-11.815H393.224l3.338,11.815,2.883,10.2,3.77,13.338,2.883,10.2Z" transform="translate(-43.948 -84.394)" fill="#3f3d56"/>
  <rect id="Rectangle_85" data-name="Rectangle 85" width="4.707" height="29.029" transform="translate(194.572 255.893)" fill="#6c63ff"/>
  <rect id="Rectangle_86" data-name="Rectangle 86" width="4.707" height="3.531" transform="translate(194.572 260.208)" fill="#f2f2f2"/>
  <rect id="Rectangle_87" data-name="Rectangle 87" width="4.707" height="3.531" transform="translate(194.572 277.076)" fill="#f2f2f2"/>
  <rect id="Rectangle_88" data-name="Rectangle 88" width="11.376" height="29.029" transform="translate(201.633 255.893)" fill="#6c63ff"/>
  <rect id="Rectangle_89" data-name="Rectangle 89" width="11.376" height="3.531" transform="translate(201.633 260.208)" fill="#f2f2f2"/>
  <rect id="Rectangle_90" data-name="Rectangle 90" width="11.376" height="3.531" transform="translate(201.633 277.076)" fill="#f2f2f2"/>
  <rect id="Rectangle_91" data-name="Rectangle 91" width="4.707" height="29.029" transform="translate(215.755 255.893)" fill="#6c63ff"/>
  <rect id="Rectangle_92" data-name="Rectangle 92" width="4.707" height="3.531" transform="translate(215.755 260.208)" fill="#f2f2f2"/>
  <rect id="Rectangle_93" data-name="Rectangle 93" width="4.707" height="3.531" transform="translate(215.755 277.076)" fill="#f2f2f2"/>
  <rect id="Rectangle_94" data-name="Rectangle 94" width="4.707" height="29.029" transform="translate(222.816 255.893)" fill="#6c63ff"/>
  <rect id="Rectangle_95" data-name="Rectangle 95" width="4.707" height="3.531" transform="translate(222.816 260.208)" fill="#f2f2f2"/>
  <rect id="Rectangle_96" data-name="Rectangle 96" width="4.707" height="3.531" transform="translate(222.816 277.076)" fill="#f2f2f2"/>
  <rect id="Rectangle_97" data-name="Rectangle 97" width="4.707" height="29.029" transform="translate(227.657 257.656) rotate(-20.654)" fill="#6c63ff"/>
  <rect id="Rectangle_98" data-name="Rectangle 98" width="4.707" height="3.531" transform="translate(229.179 261.693) rotate(-20.654)" fill="#f2f2f2"/>
  <rect id="Rectangle_99" data-name="Rectangle 99" width="4.707" height="3.531" transform="translate(235.129 277.477) rotate(-20.654)" fill="#f2f2f2"/>
  <rect id="Rectangle_100" data-name="Rectangle 100" width="11.376" height="29.029" transform="translate(308.334 255.893)" fill="#6c63ff"/>
  <rect id="Rectangle_101" data-name="Rectangle 101" width="11.376" height="3.531" transform="translate(308.334 260.208)" fill="#f2f2f2"/>
  <rect id="Rectangle_102" data-name="Rectangle 102" width="11.376" height="3.531" transform="translate(308.334 277.076)" fill="#f2f2f2"/>
  <rect id="Rectangle_103" data-name="Rectangle 103" width="4.707" height="29.029" transform="translate(300.88 255.893)" fill="#6c63ff"/>
  <rect id="Rectangle_104" data-name="Rectangle 104" width="4.707" height="3.531" transform="translate(300.88 260.208)" fill="#f2f2f2"/>
  <rect id="Rectangle_105" data-name="Rectangle 105" width="4.707" height="3.531" transform="translate(300.88 277.076)" fill="#f2f2f2"/>
  <rect id="Rectangle_106" data-name="Rectangle 106" width="4.707" height="29.029" transform="translate(293.819 255.893)" fill="#6c63ff"/>
  <rect id="Rectangle_107" data-name="Rectangle 107" width="4.707" height="3.531" transform="translate(293.819 260.208)" fill="#f2f2f2"/>
  <rect id="Rectangle_108" data-name="Rectangle 108" width="4.707" height="3.531" transform="translate(293.819 277.076)" fill="#f2f2f2"/>
  <rect id="Rectangle_109" data-name="Rectangle 109" width="29.029" height="4.707" transform="translate(279.046 283.159) rotate(-69.346)" fill="#6c63ff"/>
  <rect id="Rectangle_110" data-name="Rectangle 110" width="3.531" height="4.707" transform="translate(286.518 263.337) rotate(-69.346)" fill="#f2f2f2"/>
  <rect id="Rectangle_111" data-name="Rectangle 111" width="3.531" height="4.707" transform="translate(280.568 279.121) rotate(-69.346)" fill="#f2f2f2"/>
  <rect id="Rectangle_112" data-name="Rectangle 112" width="134.16" height="2.746" transform="translate(189.865 284.922)" fill="#f2f2f2"/>
  <rect id="Rectangle_113" data-name="Rectangle 113" width="24.714" height="29.029" transform="translate(248.315 255.893)" fill="#6c63ff"/>
  <rect id="Rectangle_114" data-name="Rectangle 114" width="12.553" height="5.492" transform="translate(254.395 262.17)" fill="#f2f2f2"/>
  <rect id="Rectangle_115" data-name="Rectangle 115" width="2.354" height="25.106" transform="translate(255.768 209.211)" fill="#f2f2f2"/>
  <circle id="Ellipse_49" data-name="Ellipse 49" cx="3.923" cy="3.923" r="3.923" transform="translate(253.022 230.394)" fill="#f2f2f2"/>
  <path id="Path_288" data-name="Path 288" d="M429.542,209.827h-274.2l4.876-10.2H426.658Z" transform="translate(-74.044 -95.156)" fill="#104CE5"/>
  <path id="Path_289" data-name="Path 289" d="M425.943,254.8H133.831l4.876-10.2H423.06Z" transform="translate(-63.793 -116.594)" fill="#104CE5"/>
  <path id="Path_290" data-name="Path 290" d="M864.99,262.223s-3.939,10.128-3.116,20.149a10.621,10.621,0,0,0,1.756,5.017h0L815.376,310.3s-21.8,2.257-16.362,11.78,25.166-4.761,25.166-4.761,51.692-7.482,55.773-14.964,6.8-38.769,6.8-38.769Z" transform="translate(-474.125 -182.984)" fill="#a0616a"/>
  <path id="Path_291" data-name="Path 291" d="M925.439,208.937h10.2s7.482,1.36,9.522,14.964,4.081,17,2.04,17-26.526-.68-26.526-1.36S925.439,208.937,925.439,208.937Z" transform="translate(-532.534 -157.585)" fill="#ecf2f4"/>
  <circle id="Ellipse_50" data-name="Ellipse 50" cx="52.333" cy="52.333" r="52.333" transform="translate(0 149.87)" fill="#ecf2f4"/>
  <path id="Path_294" data-name="Path 294" d="M45.007,0A45.007,45.007,0,1,1,0,45.007,45.007,45.007,0,0,1,45.007,0Z" transform="translate(7.327 157.197)" fill="#104CE5"/>
  <path id="Path_292" data-name="Path 292" d="M266.923,499.436v-6.551a15.21,15.21,0,0,1-8.735-2.854l1.37-4.345a13.963,13.963,0,0,0,8.221,2.789c4.054,0,6.794-2.659,6.794-6.356,0-3.567-2.227-5.772-6.451-7.718-5.823-2.594-9.42-5.578-9.42-11.22a10.2,10.2,0,0,1,8.621-10.442v-6.551h3.54v6.291a13.891,13.891,0,0,1,7.422,2.27l-1.427,4.281a12.616,12.616,0,0,0-7.193-2.205c-4.4,0-6.052,2.983-6.052,5.578,0,3.372,2.112,5.059,7.079,7.394,5.88,2.724,8.849,6.1,8.849,11.869a10.853,10.853,0,0,1-9.021,11.025v6.746Z" transform="translate(-216.746 -270.674)" fill="#f2f2f2"/>
</svg>
