<svg xmlns="http://www.w3.org/2000/svg" width="529.119" height="533.795" viewBox="0 0 529.119 533.795">
  <g id="user-nav" transform="translate(40.172 36.5)">
    <g id="Group_441" data-name="Group 441" transform="translate(11.328 223.472)">
      <g id="Group_440" data-name="Group 440">
        <path id="Path_657" data-name="Path 657" d="M224.387,257.323c-117.479,0-213.059,95.581-213.059,213.059a9.264,9.264,0,0,0,18.527,0c0-107.271,87.262-194.533,194.533-194.533s194.533,87.262,194.533,194.533a9.264,9.264,0,0,0,18.527,0C437.447,352.885,341.867,257.323,224.387,257.323Z" transform="translate(-11.328 -257.323)" fill="#333" stroke="#333" stroke-width="103"/>
      </g>
    </g>
    <g id="Group_443" data-name="Group 443" transform="translate(122.49)">
      <g id="Group_442" data-name="Group 442">
        <path id="Path_658" data-name="Path 658" d="M241.226,0a101.9,101.9,0,1,0,101.9,101.9A102.018,102.018,0,0,0,241.226,0Zm0,185.269A83.371,83.371,0,1,1,324.6,101.9,83.473,83.473,0,0,1,241.226,185.269Z" transform="translate(-139.328 0)" fill="#333" stroke="#333" stroke-width="73"/>
      </g>
    </g>
  </g>
</svg>
