<svg xmlns="http://www.w3.org/2000/svg" width="49.474" height="33.086" viewBox="0 0 49.474 33.086">
  <g id="Group_402" data-name="Group 402" transform="translate(13057 21711)">
    <g id="vision" transform="translate(-13057 -21711)">
      <g id="Group_401" data-name="Group 401" transform="translate(0 0)">
        <path id="Path_828" data-name="Path 828" d="M49.394,16.271C48.9,15.528,38.341.1,24.978.1S.892,15.713.4,16.271a1.869,1.869,0,0,0,0,1.859c.495.558,11.053,15.056,24.416,15.056S48.9,18.687,49.229,18.13a1.566,1.566,0,0,0,.165-1.859ZM24.978,30.212C14.585,30.212,5.677,20.174,3.2,17.2,5.677,13.855,14.585,3.074,24.978,3.074S44.28,13.855,46.754,17.2c-2.64,2.974-11.548,13.011-21.776,13.011Z" transform="translate(-0.15 -0.1)" fill="#375db9"/>
        <path id="Path_829" data-name="Path 829" d="M19.392,2C13.283,2,8.3,8.534,8.3,16.543s4.983,14.543,11.092,14.543,11.092-6.534,11.092-14.543S25.5,2,19.392,2ZM18.91,20.547c-1.768,0-3.376-1.9-3.376-4.426S16.981,11.7,18.91,11.7s3.376,1.9,3.376,4.426-1.608,4.426-3.376,4.426Z" transform="translate(5.827 -0.1)" fill="#375db9"/>
      </g>
    </g>
  </g>
</svg>
