<svg xmlns="http://www.w3.org/2000/svg" width="47.562" height="40.674" viewBox="0 0 47.562 40.674">
  <g id="Group_323" data-name="Group 323" transform="translate(-1348 -852)">
    <g id="Group_121" data-name="Group 121" transform="translate(1348 852.001)">
      <path id="Path_301" data-name="Path 301" d="M38.231,76.156a.962.962,0,0,1-.622-.228l-9.64-8.172H6.612A6.638,6.638,0,0,1,0,61.107V42.131a6.637,6.637,0,0,1,6.612-6.648H40.95a6.638,6.638,0,0,1,6.612,6.648V61.107a6.637,6.637,0,0,1-6.612,6.648H39.2v7.43a.971.971,0,0,1-.558.88A.959.959,0,0,1,38.231,76.156ZM6.612,37.424a4.7,4.7,0,0,0-4.681,4.707V61.107a4.7,4.7,0,0,0,4.681,4.707h21.71a.963.963,0,0,1,.622.229L37.265,73.1V66.785a.968.968,0,0,1,.965-.971H40.95a4.7,4.7,0,0,0,4.681-4.707V42.131a4.7,4.7,0,0,0-4.681-4.707Z" transform="translate(0 -35.483)" fill="#104CE5"/>
    </g>
    <g id="Group_125" data-name="Group 125" transform="translate(1355.269 860.929)">
      <g id="Group_122" data-name="Group 122" transform="translate(0 0)">
        <path id="Path_302" data-name="Path 302" d="M106.946,129.41H75.853a.971.971,0,0,1,0-1.941h31.093a.971.971,0,0,1,0,1.941Z" transform="translate(-74.888 -127.469)" fill="#104CE5"/>
      </g>
      <g id="Group_123" data-name="Group 123" transform="translate(0 6.215)">
        <path id="Path_303" data-name="Path 303" d="M106.946,193.444H75.853a.971.971,0,0,1,0-1.941h31.093a.971.971,0,0,1,0,1.941Z" transform="translate(-74.888 -191.503)" fill="#104CE5"/>
      </g>
      <g id="Group_124" data-name="Group 124" transform="translate(0 12.431)">
        <path id="Path_304" data-name="Path 304" d="M106.946,257.479H75.853a.971.971,0,0,1,0-1.941h31.093a.971.971,0,0,1,0,1.941Z" transform="translate(-74.888 -255.538)" fill="#104CE5"/>
      </g>
    </g>
  </g>
</svg>
