<svg xmlns="http://www.w3.org/2000/svg" width="866" height="989" viewBox="0 0 866 989">
  <g id="forgot-password-bg" transform="translate(0 -88)">
    <rect id="account-bg" width="866" height="989" transform="translate(0 88)" fill="#fff"/>
    <text id="Forgot_password_" data-name="Forgot password?" transform="translate(140 233.5)" fill="#2e344c" font-size="24" font-family="Montserrat-Bold, Montserrat" font-weight="700"><tspan x="0" y="0">Forgot password?</tspan></text>
    <text id="Happens_to_the_best_of_us_reset_here_-_business_as_usual" data-name="Happens to the best of us, reset here - business as usual" transform="translate(140 274.5)" fill="#95afc0" font-size="15" font-family="Montserrat-Medium, Montserrat" font-weight="500"><tspan x="0" y="0">Happens to the best of us, reset here - business as usual</tspan></text>
    <g id="Group_937" data-name="Group 937">
      <rect id="Rectangle_422" data-name="Rectangle 422" width="206.08" height="485" rx="40" transform="translate(285 329)" fill="#3742fa"/>
      <path id="Path_1143" data-name="Path 1143" d="M268.484,628.887,262.4,604.873A311.811,311.811,0,0,0,229.313,593l-.769,11.16-3.117-12.3C211.484,587.888,202,586.134,202,586.134s12.812,48.719,39.683,85.965l31.311,5.5-24.325,3.507a126.148,126.148,0,0,0,10.881,11.531c39.09,36.284,82.63,52.932,97.248,37.183s-5.221-57.93-44.311-94.214c-12.118-11.248-27.342-20.275-42.58-27.38Z" transform="translate(-55.135 79.822)" fill="#2ed573"/>
      <path id="Path_1144" data-name="Path 1144" d="M362.505,577.824l7.2-23.7a311.8,311.8,0,0,0-22.185-27.261l-6.427,9.156,3.687-12.136c-9.877-10.615-17.09-17.018-17.09-17.018s-14.215,48.328-10.465,94.1l23.961,20.893-22.636-9.571a126.154,126.154,0,0,0,3.354,15.5c14.708,51.267,43.374,88.023,64.029,82.1s25.475-52.289,10.767-103.556c-4.56-15.893-12.925-31.49-22.3-45.448Z" transform="translate(-91.25 104.805)" fill="#2ed573"/>
      <path id="Path_1145" data-name="Path 1145" d="M876.526,742.265l4.531-4.893a83.933,83.933,0,0,0-2.167-9.209l-2.633,1.461,2.32-2.505c-1.144-3.732-2.137-6.13-2.137-6.13s-9.124,10.031-13.6,21.555l3.345,7.876-4.356-4.979a33.951,33.951,0,0,0-1.01,4.146c-2.466,14.143.154,26.413,5.851,27.407s12.316-9.666,14.782-23.809a44.705,44.705,0,0,0-.056-13.626Z" transform="translate(-262.475 37.321)" fill="#2ed573"/>
      <path id="Path_1146" data-name="Path 1146" d="M969.1,757.784l6.408-1.847a83.95,83.95,0,0,0,2.905-9l-3.009-.11,3.281-.946c.95-3.785,1.339-6.353,1.339-6.353s-13,3.87-22.782,11.424l-1.207,8.471-1.155-6.514a33.935,33.935,0,0,0-3.008,3.028c-9.422,10.832-13.522,22.69-9.158,26.486s15.54-1.908,24.961-12.74a44.709,44.709,0,0,0,7-11.694Z" transform="translate(-288.027 31.48)" fill="#2ed573"/>
      <path id="Path_1147" data-name="Path 1147" d="M615.078,127.187V546.422a33.077,33.077,0,0,1-33.065,33.072H419.086A33.083,33.083,0,0,1,386,546.418V127.187a33.082,33.082,0,0,1,33.086-33.072h19.763a15.728,15.728,0,0,0,14.55,21.653h92.886a15.728,15.728,0,0,0,14.55-21.653h21.17a33.077,33.077,0,0,1,33.072,33.066Z" transform="translate(-113 234.886)" fill="#ebeef2"/>
      <path id="Path_1148" data-name="Path 1148" d="M512.2,340.124a16.353,16.353,0,0,1,8.185-14.17,16.362,16.362,0,1,0,0,28.338A16.352,16.352,0,0,1,512.2,340.124Z" transform="translate(-147.739 162.511)" fill="#fff"/>
      <path id="Path_1149" data-name="Path 1149" d="M542.234,340.124a16.353,16.353,0,0,1,8.185-14.17,16.362,16.362,0,1,0,0,28.338A16.352,16.352,0,0,1,542.234,340.124Z" transform="translate(-157.205 162.511)" fill="#fff"/>
      <circle id="Ellipse_345" data-name="Ellipse 345" cx="16.362" cy="16.362" r="16.362" transform="translate(388.769 486.273)" fill="#3742fa"/>
      <rect id="Rectangle_418" data-name="Rectangle 418" width="146.258" height="1.37" transform="translate(314.36 609.72)" fill="#fff"/>
      <circle id="Ellipse_346" data-name="Ellipse 346" cx="4.619" cy="4.619" r="4.619" transform="translate(314.361 591.929)" fill="#3742fa"/>
      <rect id="Rectangle_419" data-name="Rectangle 419" width="146.258" height="1.37" transform="translate(314.36 655.906)" fill="#fff"/>
      <circle id="Ellipse_347" data-name="Ellipse 347" cx="4.619" cy="4.619" r="4.619" transform="translate(314.361 638.117)" fill="#3742fa"/>
      <path id="Path_1150" data-name="Path 1150" d="M573.585,375.243H478.223a3.428,3.428,0,0,1-3.424-3.424V276.456a3.428,3.428,0,0,1,3.424-3.424h95.362a3.428,3.428,0,0,1,3.424,3.424v95.362A3.428,3.428,0,0,1,573.585,375.243ZM478.223,274.4a2.057,2.057,0,0,0-2.055,2.055v95.362a2.057,2.057,0,0,0,2.055,2.055h95.362a2.057,2.057,0,0,0,2.055-2.055V276.456a2.057,2.057,0,0,0-2.055-2.055Z" transform="translate(-141.109 178.498)" fill="#fff"/>
      <rect id="Rectangle_420" data-name="Rectangle 420" width="51.575" height="21.554" rx="4" transform="translate(409.043 686.612)" fill="#3742fa"/>
      <rect id="Rectangle_421" data-name="Rectangle 421" width="544.59" height="1.37" transform="translate(147.41 813.709)" fill="#95afc0"/>
      <path id="Path_1151" data-name="Path 1151" d="M835.76,419.2s-1.9,12.007,0,13.9-12.007,17.7-12.007,17.7L812.378,435s5.056-8.216,3.16-15.167Z" transform="translate(-247.5 132.434)" fill="#ffb8b8"/>
      <path id="Path_1152" data-name="Path 1152" d="M579.839,456.615l-8.219,87.843,3.157,68.252,15.167-4.423.635-61.3,17.7-53.084,10.741,57.509-1.266,58.14,18.959.633,1.266-64.46L640.2,455.7Z" transform="translate(-33.285 185.384)" fill="#d0cde1"/>
      <path id="Path_1153" data-name="Path 1153" d="M841.692,771.7v13.9s-3.16,10.112,6.952,9.479,9.479-5.056,9.479-5.056l-3.792-17.063Z" transform="translate(-256.591 21.339)" fill="#2f2e41"/>
      <path id="Path_1154" data-name="Path 1154" d="M791.894,771.7v13.9s3.16,10.111-6.952,9.479-9.479-5.056-9.479-5.056l3.792-17.063Z" transform="translate(-235.863 21.339)" fill="#2f2e41"/>
      <circle id="Ellipse_348" data-name="Ellipse 348" cx="14.535" cy="14.535" r="14.535" transform="translate(562.982 529.511)" fill="#ffb8b8"/>
      <path id="Path_1155" data-name="Path 1155" d="M822.059,448.232l1.264-6.32h3.16l6.111-8.79,5.265,5,1.264,29.7H804.995l3.16-31.6,4.6-3.1s-.81,10.685,8.038,10.685Z" transform="translate(-245.173 128.045)" fill="#3742fa"/>
      <path id="Path_1156" data-name="Path 1156" d="M807.915,444.743s5.233,6.625,13.044,6.157,15.394-6.789,15.394-6.789L847.1,526.267s-12.007,1.264-15.8-5.056l-29.07-.632.632-76.467Z" transform="translate(-244.301 124.581)" fill="#fff"/>
      <path id="Path_1157" data-name="Path 1157" d="M804.038,431.531,776.389,445.2l6.952,39.182s2.528,14.535,0,20.223-5.056,43.606-5.056,43.606,28.438,3.16,24.647-41.71S804.038,431.531,804.038,431.531Z" transform="translate(-236.158 128.546)" fill="#2f2e41"/>
      <path id="Path_1158" data-name="Path 1158" d="M792.076,566.12l3.792,3.792S807.243,589.5,812.3,582.551s-8.848-18.959-8.848-18.959l-6.32-5.056Z" transform="translate(-241.102 88.519)" fill="#ffb8b8"/>
      <path id="Path_1159" data-name="Path 1159" d="M845.314,431.531,872.683,445.2,863.2,491.968s.632,15.167,3.792,23.383,1.9,32.23,1.9,32.23-3.792,14.535-12.007-21.487S845.314,431.531,845.314,431.531Z" transform="translate(-257.88 128.546)" fill="#2f2e41"/>
      <path id="Path_1160" data-name="Path 1160" d="M865.262,536.2h-5.688s-18.959-2.528-17.7,5.056,18.959,5.688,18.959,5.688l6.952-.632Z" transform="translate(-256.778 95.685)" fill="#ffb8b8"/>
      <path id="Path_1161" data-name="Path 1161" d="M774.516,448.725l-4.424,1.9s-4.424,9.479-5.056,12.639-8.216,41.078-6.32,45.5,20.855,27.807,20.855,27.807l10.743-11.375-15.8-21.487,4.424-27.174Z" transform="translate(-230.492 123.127)" fill="#2f2e41"/>
      <path id="Path_1162" data-name="Path 1162" d="M871.145,449.648l8.362.706,1.75.558s17.695,48.029,13.9,55.613-20.223,21.487-20.223,21.487l-4.424-19.591,8.216-7.584-8.216-25.279Z" transform="translate(-265.822 122.836)" fill="#2f2e41"/>
      <path id="Path_1163" data-name="Path 1163" d="M835.024,387.329s3.8-7.135-4.563-7.784c0,0-7.605-4.541-13.689.649,0,0-5.324-1.3-6.845,2.595a2.664,2.664,0,0,1,1.521-3.243s-5.324-1.3-5.324,5.189c0,0-2.281,6.487,0,12.325s3.042,6.487,3.042,6.487-3.749-12.24,5.377-12.889,19.34-6.247,20.1.888,2.281,9.082,2.281,9.082S843.77,390.247,835.024,387.329Z" transform="translate(-245.209 145.51)" fill="#2f2e41"/>
    </g>
  </g>
</svg>
