<svg xmlns="http://www.w3.org/2000/svg" width="866" height="989" viewBox="0 0 866 989">
  <g id="reset-password-bg" transform="translate(0 -88)">
    <g id="Group_938" data-name="Group 938">
      <rect id="account-bg" width="866" height="989" transform="translate(0 88)" fill="#fff"/>
      <text id="Reset_password" data-name="Reset password" transform="translate(140 233.5)" fill="#2e344c" font-size="24" font-family="Montserrat-Bold, Montserrat" font-weight="700"><tspan x="0" y="0">Reset password</tspan></text>
      <path id="Path_1143" data-name="Path 1143" d="M268.484,628.887,262.4,604.873A311.811,311.811,0,0,0,229.313,593l-.769,11.16-3.117-12.3C211.484,587.888,202,586.134,202,586.134s12.812,48.719,39.683,85.965l31.311,5.5-24.325,3.507a126.148,126.148,0,0,0,10.881,11.531c39.09,36.284,82.63,52.932,97.248,37.183s-5.221-57.93-44.311-94.214c-12.118-11.248-27.342-20.275-42.58-27.38Z" transform="translate(-55.135 154.822)" fill="#2ed573"/>
      <path id="Path_1144" data-name="Path 1144" d="M362.505,577.824l7.2-23.7a311.8,311.8,0,0,0-22.185-27.261l-6.427,9.156,3.687-12.136c-9.877-10.615-17.09-17.018-17.09-17.018s-14.215,48.328-10.465,94.1l23.961,20.893-22.636-9.571a126.154,126.154,0,0,0,3.354,15.5c14.708,51.267,43.374,88.023,64.029,82.1s25.475-52.289,10.767-103.556c-4.56-15.893-12.925-31.49-22.3-45.448Z" transform="translate(-91.25 179.805)" fill="#2ed573"/>
      <path id="Path_1145" data-name="Path 1145" d="M876.526,742.265l4.531-4.893a83.933,83.933,0,0,0-2.167-9.209l-2.633,1.461,2.32-2.505c-1.144-3.732-2.137-6.13-2.137-6.13s-9.124,10.031-13.6,21.555l3.345,7.876-4.356-4.979a33.951,33.951,0,0,0-1.01,4.146c-2.466,14.143.154,26.413,5.851,27.407s12.316-9.666,14.782-23.809a44.705,44.705,0,0,0-.056-13.626Z" transform="translate(-262.475 112.322)" fill="#2ed573"/>
      <path id="Path_1146" data-name="Path 1146" d="M969.1,757.784l6.408-1.847a83.95,83.95,0,0,0,2.905-9l-3.009-.11,3.281-.946c.95-3.785,1.339-6.353,1.339-6.353s-13,3.87-22.782,11.424l-1.207,8.471-1.155-6.514a33.935,33.935,0,0,0-3.008,3.028c-9.422,10.832-13.522,22.69-9.158,26.486s15.54-1.908,24.961-12.74a44.709,44.709,0,0,0,7-11.694Z" transform="translate(-288.027 106.48)" fill="#2ed573"/>
      <text id="Now_that_we_have_verified_your_account_lets_create_a_new_password" data-name="Now that we have verified your account lets create a new password" transform="translate(140 259.5)" fill="#95afc0" font-size="15" font-family="Montserrat-Medium, Montserrat" font-weight="500"><tspan x="0" y="15">Now that we have verified your account lets create </tspan><tspan x="0" y="34">a new password</tspan></text>
      <path id="Path_1166" data-name="Path 1166" d="M573.37,362.355l-129.319-161.6a43.418,43.418,0,0,1-20.914,10.56c-24.345,4.795-48.121-11.831-53.1-37.133a46.9,46.9,0,0,1,16.191-45.689l-44.094-55.1L90.923,288.088,322.162,577.05Z" transform="translate(49.077 311.608)" fill="#3742fa"/>
      <line id="Line_77" data-name="Line 77" x2="596.038" transform="translate(195.143 890.131)" fill="none" stroke="#3f3d56" stroke-miterlimit="10" stroke-width="2"/>
      <circle id="Ellipse_349" data-name="Ellipse 349" cx="9.904" cy="9.904" r="9.904" transform="translate(545.865 413.299)" fill="none" stroke="#3742fa" stroke-miterlimit="10" stroke-width="2"/>
      <circle id="Ellipse_350" data-name="Ellipse 350" cx="9.904" cy="9.904" r="9.904" transform="translate(676.752 701.249)" fill="none" stroke="#3742fa" stroke-miterlimit="10" stroke-width="2"/>
      <circle id="Ellipse_351" data-name="Ellipse 351" cx="9.904" cy="9.904" r="9.904" transform="translate(244.669 438.133)" fill="none" stroke="#3742fa" stroke-miterlimit="10" stroke-width="2"/>
      <circle id="Ellipse_352" data-name="Ellipse 352" cx="36.457" cy="36.457" r="36.457" transform="translate(425.307 442.331)" fill="#d9eafc"/>
      <path id="Path_1167" data-name="Path 1167" d="M237.367,182.772h161.5a34.333,34.333,0,0,1,33.492,26.782l81.6,361.963a27.748,27.748,0,0,1-25.7,33.817l-166.027,8.18a36.658,36.658,0,0,1-37.877-30.089L238.07,327.513l-3.444.984-8.857-48.5,3.545-.886-12.922-71.435a21.138,21.138,0,0,1,20.975-24.9Z" transform="translate(7.936 275.646)" fill="#3f3d56"/>
      <path id="Path_1168" data-name="Path 1168" d="M385.417,194.4H404.27a23.726,23.726,0,0,1,23.181,18.669l78.33,359.01a14.7,14.7,0,0,1-13.4,17.8L326.887,600.726A19.04,19.04,0,0,1,306.9,585.1L240.065,214.03A16.677,16.677,0,0,1,256.477,194.4h17.884a7.87,7.87,0,0,1,7.6,5.824h0a6.948,6.948,0,0,0,6.709,5.142h84.9A11.877,11.877,0,0,0,385.417,194.4Z" transform="translate(0.128 271.823)" fill="#fff"/>
      <circle id="Ellipse_353" data-name="Ellipse 353" cx="24.701" cy="24.701" r="24.701" transform="translate(580.419 517.979)" fill="#2f2e41"/>
      <path id="Path_1173" data-name="Path 1173" d="M727.065,694.749l4.7,20.136H720.352l-4.7-22.821Z" transform="translate(-95.297 157.458)" fill="#9f616a"/>
      <path id="Path_1174" data-name="Path 1174" d="M645.065,696.064v18.794L633.654,716.2V696.064Z" transform="translate(-68.337 156.143)" fill="#9f616a"/>
      <path id="Path_1175" data-name="Path 1175" d="M817.727,451.128S816.385,479.99,815.042,482s-13.424,30.876-13.424,30.876l-6.041-18.794s9.4-15.438,8.055-24.164-.5-19.463-.5-19.463Z" transform="translate(-182.604 187.633)" fill="#9f616a"/>
      <circle id="Ellipse_354" data-name="Ellipse 354" cx="18.794" cy="18.794" r="18.794" transform="translate(578.07 531.367)" fill="#9f616a"/>
      <path id="Path_1176" data-name="Path 1176" d="M783.4,322.456s-.671,26.849,4.027,30.876-26.849.671-26.849.671,6.712-18.794,1.342-22.821S783.4,322.456,783.4,322.456Z" transform="translate(-171.096 229.719)" fill="#9f616a"/>
      <path id="Path_1177" data-name="Path 1177" d="M737.9,364.147s4.027-7.383,9.4-6.712,22.821,2.014,23.492,3.356,2.685,6.041,4.027,7.383,11.411,3.356,12.082,11.411-24.164,57.053-24.164,57.053,3.356,11.411,2.685,14.1,3.356,10.739,2.685,14.1,10.068,23.492,4.7,49.67v42.286s18.123,73.162,12.753,78.532-23.492,2.014-26.849,0S741.251,531.95,741.251,531.95l-6.712-34.232-.671,75.176s1.342,63.094-3.356,65.108-22.821,2.685-24.164-1.342c-1.047-3.141-6.177-86.713-8.384-123.346a136.861,136.861,0,0,1,2.955-37.706c2.794-12.671,6.849-27.558,11.47-33.6,8.726-11.411,14.1-47.656,14.1-47.656l-11.411-20.808s6.712-6.712,10.739-6.712S737.9,364.147,737.9,364.147Z" transform="translate(-150.428 218.232)" fill="#2f2e41"/>
      <path id="Path_1178" data-name="Path 1178" d="M818.161,383.456l3.54,2.409s2.5,43.233.488,45.918-16.013,1.374-17.068-.991S818.161,383.456,818.161,383.456Z" transform="translate(-185.723 209.663)" fill="#2f2e41"/>
      <path id="Path_1179" data-name="Path 1179" d="M705.711,440.182c1.965,13.63,3.687,25.763-6.36,36.74a188.52,188.52,0,0,1-33.919,29.38c-1.232,3.264-19.321,27.233-20.241,17.672s5.329-17.056,14.211-25.141,21.306-25.627,28.316-35.253,4.124-15.628,3.881-23.668S702.954,440.279,705.711,440.182Z" transform="translate(-133.13 192.246)" fill="#9f616a"/>
      <path id="Path_1180" data-name="Path 1180" d="M719.946,781.255s-.671,7.518-2.685,9.532-7.383,4.7-6.712,12.082,5.034,7.719,5.034,7.719l-.336-1.678,2.014.671.336,1.007h18.794s.336-7.048-.336-10.4-.671-19.465-2.685-18.794-7.383,1.342-8.726,4.027S719.275,787.162,719.946,781.255Z" transform="translate(-154.629 78.872)" fill="#2f2e41"/>
      <path id="Path_1181" data-name="Path 1181" d="M818.481,781.255s.671,7.518,2.685,9.532,7.383,4.7,6.712,12.082-5.034,7.719-5.034,7.719l.336-1.678-2.014.671-.336,1.007H802.036s-.336-7.048.336-10.4.671-19.465,2.685-18.794,7.383,1.342,8.726,4.027S819.152,787.162,818.481,781.255Z" transform="translate(-184.7 78.872)" fill="#2f2e41"/>
      <path id="Path_1182" data-name="Path 1182" d="M728.79,378.456l-9.4,2.014s0,14.767-2.685,20.808-7.383,20.136-5.37,20.808,20.808,10.068,22.15,4.7S738.187,378.456,728.79,378.456Z" transform="translate(-154.747 211.307)" fill="#2f2e41"/>
      <circle id="Ellipse_355" data-name="Ellipse 355" cx="24.701" cy="24.701" r="24.701" transform="translate(607.178 485.457)" fill="#2f2e41"/>
      <path id="Path_1183" data-name="Path 1183" d="M836.8,279.013a24.7,24.7,0,0,1-38.144-12.97,24.7,24.7,0,1,0,48.184-10.129,24.693,24.693,0,0,1-10.04,23.1Z" transform="translate(-183.616 251.597)" fill="#2f2e41"/>
      <circle id="Ellipse_356" data-name="Ellipse 356" cx="18.114" cy="18.114" r="18.114" transform="translate(593.593 528.682)" fill="#2f2e41"/>
      <ellipse id="Ellipse_357" data-name="Ellipse 357" cx="16.055" cy="12.556" rx="16.055" ry="12.556" transform="translate(580.419 527.447)" fill="#2f2e41"/>
      <ellipse id="Ellipse_358" data-name="Ellipse 358" cx="3.047" cy="5.391" rx="3.047" ry="5.391" transform="translate(589.145 547.479)" fill="#a0616a"/>
      <path id="Path_1184" data-name="Path 1184" d="M184.657,128a56.657,56.657,0,1,0,56.657,56.657A56.724,56.724,0,0,0,184.657,128Zm28.717,44.652-30.687,30.687a4.717,4.717,0,0,1-6.671,0L160.67,187.992a4.722,4.722,0,0,1,6.677-6.677l12,12,27.351-27.35a4.722,4.722,0,1,1,6.671,6.684Zm0,0" transform="translate(171.167 494.109) rotate(-7)" fill="#3742fa"/>
    </g>
  </g>
</svg>
