<svg xmlns="http://www.w3.org/2000/svg" width="174.996" height="139.609" viewBox="0 0 174.996 139.609">
  <g id="no-brands" transform="translate(0 -54.819)">
    <g id="Group_806" data-name="Group 806" transform="translate(0 54.819)">
      <path id="Path_1070" data-name="Path 1070" d="M139.608,137.387A11.8,11.8,0,0,0,136.2,129L70.312,63.2a28.525,28.525,0,0,0-9.4-5.944A28.463,28.463,0,0,0,50.13,54.819H11.8A11.338,11.338,0,0,0,3.5,58.32,11.334,11.334,0,0,0,0,66.615v38.335a28.451,28.451,0,0,0,2.441,10.782,27.49,27.49,0,0,0,5.944,9.307l65.888,65.979a11.288,11.288,0,0,0,8.293,3.41,11.8,11.8,0,0,0,8.387-3.41L136.2,145.68A11.291,11.291,0,0,0,139.608,137.387ZM37.829,92.647a11.367,11.367,0,0,1-8.34,3.456,11.794,11.794,0,0,1-8.339-20.135,11.365,11.365,0,0,1,8.339-3.457,11.794,11.794,0,0,1,8.34,20.135Z" transform="translate(0 -54.819)" fill="#fff"/>
      <path id="Path_1071" data-name="Path 1071" d="M307.706,129l-65.888-65.8a32.653,32.653,0,0,0-20.18-8.386H201a32.659,32.659,0,0,1,20.181,8.386L287.065,129a11.8,11.8,0,0,1,3.412,8.386,11.286,11.286,0,0,1-3.412,8.293l-43.312,43.311a26.288,26.288,0,0,0,4.884,4.147,10.324,10.324,0,0,0,5.437,1.29,11.792,11.792,0,0,0,8.385-3.41l45.247-45.338a11.286,11.286,0,0,0,3.412-8.293A11.8,11.8,0,0,0,307.706,129Z" transform="translate(-136.122 -54.822)" fill="#fff"/>
    </g>
  </g>
</svg>
