<svg xmlns="http://www.w3.org/2000/svg" width="190.85" height="133.779" viewBox="0 0 190.85 133.779">
  <g id="no-categories" transform="translate(-906.5 -490.75)">
    <path id="system_1_" data-name="system (1)" d="M124.629,92.974h-7.711V77.658a4.721,4.721,0,0,0-4.721-4.721H69.4V54.893H96.619a4.721,4.721,0,0,0,4.721-4.721V12.721A4.72,4.72,0,0,0,96.619,8H32.731a4.721,4.721,0,0,0-4.721,4.721V50.172a4.721,4.721,0,0,0,4.721,4.721H59.954V72.937h-42.8a4.721,4.721,0,0,0-4.721,4.721V92.974H4.721A4.721,4.721,0,0,0,0,97.7v24.863a4.721,4.721,0,0,0,4.721,4.721H29.584a4.721,4.721,0,0,0,4.721-4.721V97.7a4.721,4.721,0,0,0-4.721-4.721H21.873v-10.6H59.954v10.6H52.243A4.721,4.721,0,0,0,47.523,97.7v24.863a4.721,4.721,0,0,0,4.721,4.721H77.106a4.721,4.721,0,0,0,4.721-4.721V97.7a4.721,4.721,0,0,0-4.721-4.721H69.4v-10.6h38.081v10.6H99.766A4.721,4.721,0,0,0,95.045,97.7v24.863a4.721,4.721,0,0,0,4.721,4.721h24.863a4.721,4.721,0,0,0,4.721-4.721V97.7A4.721,4.721,0,0,0,124.629,92.974Z" transform="translate(968 497.25)" fill="#fff"/>
    <path id="system_1_2" data-name="system (1)" d="M124.629,92.974h-7.711V77.658a4.721,4.721,0,0,0-4.721-4.721H69.4V54.893H96.619a4.721,4.721,0,0,0,4.721-4.721V12.721A4.72,4.72,0,0,0,96.619,8H32.731a4.721,4.721,0,0,0-4.721,4.721V50.172a4.721,4.721,0,0,0,4.721,4.721H59.954V72.937h-42.8a4.721,4.721,0,0,0-4.721,4.721V92.974H4.721A4.721,4.721,0,0,0,0,97.7v24.863a4.721,4.721,0,0,0,4.721,4.721H29.584a4.721,4.721,0,0,0,4.721-4.721V97.7a4.721,4.721,0,0,0-4.721-4.721H21.873v-10.6H59.954v10.6H52.243A4.721,4.721,0,0,0,47.523,97.7v24.863a4.721,4.721,0,0,0,4.721,4.721H77.106a4.721,4.721,0,0,0,4.721-4.721V97.7a4.721,4.721,0,0,0-4.721-4.721H69.4v-10.6h38.081v10.6H99.766A4.721,4.721,0,0,0,95.045,97.7v24.863a4.721,4.721,0,0,0,4.721,4.721h24.863a4.721,4.721,0,0,0,4.721-4.721V97.7A4.721,4.721,0,0,0,124.629,92.974Z" transform="translate(908 484.25)" fill="#fff" stroke="#f5f6fa" stroke-width="3"/>
  </g>
</svg>
