<svg xmlns="http://www.w3.org/2000/svg" xmlns:xlink="http://www.w3.org/1999/xlink" width="216.256" height="199" viewBox="0 0 216.256 199">
  <defs>
    <filter id="Polygon_22" x="113" y="45" width="31" height="29" filterUnits="userSpaceOnUse">
      <feOffset dy="3" input="SourceAlpha"/>
      <feGaussianBlur stdDeviation="3" result="blur"/>
      <feFlood flood-opacity="0.161"/>
      <feComposite operator="in" in2="blur"/>
      <feComposite in="SourceGraphic"/>
    </filter>
    <filter id="Polygon_22-2" x="144" y="38" width="31" height="28" filterUnits="userSpaceOnUse">
      <feOffset dy="3" input="SourceAlpha"/>
      <feGaussianBlur stdDeviation="3" result="blur-2"/>
      <feFlood flood-opacity="0.161"/>
      <feComposite operator="in" in2="blur-2"/>
      <feComposite in="SourceGraphic"/>
    </filter>
  </defs>
  <g id="no-item-gen" transform="translate(-733 -377)">
    <g id="shine" transform="translate(733 522.876)">
      <g id="Group_1112" data-name="Group 1112" transform="translate(10.446 32.518)">
        <g id="Group_1111" data-name="Group 1111">
          <path id="Path_1252" data-name="Path 1252" d="M106.453,314.732c-.493-.1-2.8.3-5.005-.891a.9.9,0,1,0-.858,1.592q.281.152.564.276a7.905,7.905,0,0,0-4.206,4.436,8.021,8.021,0,0,0-4.208-4.438,8.028,8.028,0,0,0,4.208-4.438c.173.427.331.724.337.736a.9.9,0,1,0,1.611-.822,9.693,9.693,0,0,1-.968-4.67.983.983,0,0,0-.808-1.092,1,1,0,0,0-1.147.757c-.065.282.4,5.166-3.141,7.432-2.307,1.472-4.926,1.014-5.414,1.125a1,1,0,0,0,0,1.944c.482.109,3.153-.348,5.461,1.155,3.427,2.233,3.049,6.987,3.072,7.2a1,1,0,0,0,1.945.278c.119-.37-.381-5.085,3-7.4,2.23-1.528,4.993-1.159,5.473-1.213A1,1,0,0,0,106.453,314.732Z" transform="translate(-86.643 -305.405)" fill="#d3d8df"/>
        </g>
      </g>
      <g id="Group_1114" data-name="Group 1114" transform="translate(16.107 2.498)">
        <g id="Group_1113" data-name="Group 1113" transform="translate(0 0)">
          <path id="Path_1253" data-name="Path 1253" d="M178.253,78.1c-1.653-.184-13.438,1.472-18.589-9.342A25.657,25.657,0,0,1,157.5,57.269a1.117,1.117,0,0,0-2.206.2v2.347c-.409,8.067-4.08,14.934-11.789,17.351-4.452,1.4-8.316.793-9.038.951a1.12,1.12,0,0,0,.012,2.186c1.009.213,8.6-1.017,14.493,3.878a.9.9,0,1,0,1.156-1.392,18.051,18.051,0,0,0-7.22-3.577c7.3-1.839,11.785-7.052,13.5-14.354,1.7,7.257,6.147,12.516,13.528,14.346-7.308,1.829-11.852,7.037-13.538,14.319a21.332,21.332,0,0,0-3.25-7.454.9.9,0,0,0-1.478,1.043,17.421,17.421,0,0,1,1.485,2.547,25.338,25.338,0,0,1,2.14,11.354,1.118,1.118,0,1,0,2.222-.25c-.124-3,.108-13.157,8.313-17.977,5.536-3.249,11.7-2.3,12.518-2.485A1.12,1.12,0,0,0,178.253,78.1Z" transform="translate(-133.602 -56.398)" fill="#d3d8df"/>
        </g>
      </g>
      <g id="Group_1116" data-name="Group 1116" transform="translate(0 0)">
        <g id="Group_1115" data-name="Group 1115" transform="translate(0 0)">
          <path id="Path_1254" data-name="Path 1254" d="M19.809,45c-.612-.127-5.44.728-7.6-3.623a10.212,10.212,0,0,1-.93-4.6.983.983,0,0,0-.809-1.092,1,1,0,0,0-1.146.758c-.064.281.4,5.164-3.141,7.43A9.465,9.465,0,0,1,.873,44.991a1,1,0,0,0-.1,1.961c.526.118,3.14-.356,5.461,1.155,2.473,1.611,2.987,4.57,3.072,6.206a5.215,5.215,0,0,0,.044,1.272,1,1,0,0,0,1.931-.119,11.055,11.055,0,0,1,.959-4.936.9.9,0,1,0-1.616-.813q-.171.341-.319.706A8.023,8.023,0,0,0,6.1,45.981,8.028,8.028,0,0,0,10.3,41.543a7.939,7.939,0,0,0,4.2,4.441q-.3.131-.591.289a.9.9,0,0,0,.861,1.591,10.057,10.057,0,0,1,4.948-.894A1,1,0,0,0,19.809,45Z" transform="translate(0 -35.678)" fill="#d3d8df"/>
        </g>
      </g>
    </g>
    <g id="Group_1110" data-name="Group 1110" transform="translate(781.213 428.304)">
      <g id="Path_1251" data-name="Path 1251" transform="translate(0 0.031)" fill="#fff">
        <path d="M0,0H80.072l6.733,10.709V122.975H0Z" stroke="none"/>
        <path d="M 1 1 L 1 121.9745025634766 L 85.80552673339844 121.9745025634766 L 85.80552673339844 10.99767303466797 L 79.51976776123047 1 L 1 1 M 0 0 L 80.07228088378906 0 L 86.80552673339844 10.70941925048828 L 86.80552673339844 122.9745025634766 L 0 122.9745025634766 L 0 0 Z" stroke="none" fill="rgba(149,175,192,0.5)"/>
      </g>
      <g transform="matrix(1, 0, 0, 1, -48.21, -51.3)" filter="url(#Polygon_22)">
        <path id="Polygon_22-3" data-name="Polygon 22" d="M6.5,0,13,11H0Z" transform="translate(122 51)" fill="#d0cde1"/>
      </g>
      <ellipse id="Ellipse_383" data-name="Ellipse 383" cx="6.5" cy="7" rx="6.5" ry="7" transform="translate(7.787 27.696)" fill="#a4b0be"/>
      <rect id="Rectangle_540" data-name="Rectangle 540" width="18" height="3" transform="translate(25.787 29.696)" fill="#7b8c98"/>
      <rect id="Rectangle_540-2" data-name="Rectangle 540" width="48" height="3" transform="translate(25.787 35.696)" fill="#d3d8df"/>
      <rect id="Rectangle_545" data-name="Rectangle 545" width="48" height="4" transform="translate(25.787 99.696)" fill="#d3d8df"/>
      <rect id="Rectangle_546" data-name="Rectangle 546" width="48" height="3" transform="translate(25.787 105.696)" fill="#d3d8df"/>
      <rect id="Rectangle_547" data-name="Rectangle 547" width="27" height="3" transform="translate(25.787 111.696)" fill="#d3d8df"/>
      <rect id="Rectangle_541" data-name="Rectangle 541" width="18" height="22" transform="translate(25.787 44.696)" fill="#d3d8df"/>
      <rect id="Rectangle_544" data-name="Rectangle 544" width="18" height="21" transform="translate(25.787 69.696)" fill="#d3d8df"/>
      <rect id="Rectangle_542" data-name="Rectangle 542" width="18" height="22" transform="translate(45.787 44.696)" fill="#d3d8df"/>
      <rect id="Rectangle_543" data-name="Rectangle 543" width="18" height="21" transform="translate(45.787 69.696)" fill="#d3d8df"/>
    </g>
    <g id="Group_1109" data-name="Group 1109" transform="translate(812.215 420.584)">
      <g id="Path_1251-2" data-name="Path 1251" transform="translate(0 0)" fill="#fff">
        <path d="M0,0H80.072l6.733,10.709V122.975H0Z" stroke="none"/>
        <path d="M 1 1 L 1 121.9745025634766 L 85.80552673339844 121.9745025634766 L 85.80552673339844 10.99767303466797 L 79.51976776123047 1 L 1 1 M 0 0 L 80.07228088378906 0 L 86.80552673339844 10.70941925048828 L 86.80552673339844 122.9745025634766 L 0 122.9745025634766 L 0 0 Z" stroke="none" fill="rgba(149,175,192,0.5)"/>
      </g>
      <g transform="matrix(1, 0, 0, 1, -79.21, -43.58)" filter="url(#Polygon_22-2)">
        <path id="Polygon_22-4" data-name="Polygon 22" d="M6.5,0,13,10H0Z" transform="translate(153 44)" fill="#d0cde1"/>
      </g>
      <circle id="Ellipse_383-2" data-name="Ellipse 383" cx="6.5" cy="6.5" r="6.5" transform="translate(7.785 28.416)" fill="#a4b0be"/>
      <rect id="Rectangle_540-3" data-name="Rectangle 540" width="19" height="3" transform="translate(24.785 29.416)" fill="#7b8c98"/>
      <rect id="Rectangle_540-4" data-name="Rectangle 540" width="49" height="3" transform="translate(24.785 35.416)" fill="#d3d8df"/>
      <rect id="Rectangle_545-2" data-name="Rectangle 545" width="49" height="3" transform="translate(24.785 100.416)" fill="#d3d8df"/>
      <rect id="Rectangle_546-2" data-name="Rectangle 546" width="49" height="3" transform="translate(24.785 106.416)" fill="#d3d8df"/>
      <rect id="Rectangle_547-2" data-name="Rectangle 547" width="28" height="3" transform="translate(24.785 111.416)" fill="#d3d8df"/>
      <rect id="Rectangle_541-2" data-name="Rectangle 541" width="19" height="22" transform="translate(24.785 44.416)" fill="#d3d8df"/>
      <rect id="Rectangle_544-2" data-name="Rectangle 544" width="19" height="22" transform="translate(24.785 69.416)" fill="#d3d8df"/>
      <rect id="Rectangle_542-2" data-name="Rectangle 542" width="18" height="22" transform="translate(45.785 44.416)" fill="#d3d8df"/>
      <rect id="Rectangle_543-2" data-name="Rectangle 543" width="18" height="22" transform="translate(45.785 69.416)" fill="#d3d8df"/>
    </g>
    <g id="shine-2" data-name="shine" transform="translate(887.53 377)">
      <g id="Group_1112-2" data-name="Group 1112" transform="translate(10.446 32.518)">
        <g id="Group_1111-2" data-name="Group 1111">
          <path id="Path_1252-2" data-name="Path 1252" d="M106.453,314.732c-.493-.1-2.8.3-5.005-.891a.9.9,0,1,0-.858,1.592q.281.152.564.276a7.905,7.905,0,0,0-4.206,4.436,8.021,8.021,0,0,0-4.208-4.438,8.028,8.028,0,0,0,4.208-4.438c.173.427.331.724.337.736a.9.9,0,1,0,1.611-.822,9.693,9.693,0,0,1-.968-4.67.983.983,0,0,0-.808-1.092,1,1,0,0,0-1.147.757c-.065.282.4,5.166-3.141,7.432-2.307,1.472-4.926,1.014-5.414,1.125a1,1,0,0,0,0,1.944c.482.109,3.153-.348,5.461,1.155,3.427,2.233,3.049,6.987,3.072,7.2a1,1,0,0,0,1.945.278c.119-.37-.381-5.085,3-7.4,2.23-1.528,4.993-1.159,5.473-1.213A1,1,0,0,0,106.453,314.732Z" transform="translate(-86.643 -305.405)" fill="#d3d8df"/>
        </g>
      </g>
      <g id="Group_1114-2" data-name="Group 1114" transform="translate(16.107 2.498)">
        <g id="Group_1113-2" data-name="Group 1113" transform="translate(0 0)">
          <path id="Path_1253-2" data-name="Path 1253" d="M178.253,78.1c-1.653-.184-13.438,1.472-18.589-9.342A25.657,25.657,0,0,1,157.5,57.269a1.117,1.117,0,0,0-2.206.2v2.347c-.409,8.067-4.08,14.934-11.789,17.351-4.452,1.4-8.316.793-9.038.951a1.12,1.12,0,0,0,.012,2.186c1.009.213,8.6-1.017,14.493,3.878a.9.9,0,1,0,1.156-1.392,18.051,18.051,0,0,0-7.22-3.577c7.3-1.839,11.785-7.052,13.5-14.354,1.7,7.257,6.147,12.516,13.528,14.346-7.308,1.829-11.852,7.037-13.538,14.319a21.332,21.332,0,0,0-3.25-7.454.9.9,0,0,0-1.478,1.043,17.421,17.421,0,0,1,1.485,2.547,25.338,25.338,0,0,1,2.14,11.354,1.118,1.118,0,1,0,2.222-.25c-.124-3,.108-13.157,8.313-17.977,5.536-3.249,11.7-2.3,12.518-2.485A1.12,1.12,0,0,0,178.253,78.1Z" transform="translate(-133.602 -56.398)" fill="#d3d8df"/>
        </g>
      </g>
      <g id="Group_1116-2" data-name="Group 1116" transform="translate(0 0)">
        <g id="Group_1115-2" data-name="Group 1115" transform="translate(0 0)">
          <path id="Path_1254-2" data-name="Path 1254" d="M19.809,45c-.612-.127-5.44.728-7.6-3.623a10.212,10.212,0,0,1-.93-4.6.983.983,0,0,0-.809-1.092,1,1,0,0,0-1.146.758c-.064.281.4,5.164-3.141,7.43A9.465,9.465,0,0,1,.873,44.991a1,1,0,0,0-.1,1.961c.526.118,3.14-.356,5.461,1.155,2.473,1.611,2.987,4.57,3.072,6.206a5.215,5.215,0,0,0,.044,1.272,1,1,0,0,0,1.931-.119,11.055,11.055,0,0,1,.959-4.936.9.9,0,1,0-1.616-.813q-.171.341-.319.706A8.023,8.023,0,0,0,6.1,45.981,8.028,8.028,0,0,0,10.3,41.543a7.939,7.939,0,0,0,4.2,4.441q-.3.131-.591.289a.9.9,0,0,0,.861,1.591,10.057,10.057,0,0,1,4.948-.894A1,1,0,0,0,19.809,45Z" transform="translate(0 -35.678)" fill="#d3d8df"/>
        </g>
      </g>
    </g>
  </g>
</svg>
