<svg xmlns="http://www.w3.org/2000/svg" width="197.503" height="156.643" viewBox="0 0 197.503 156.643">
  <g id="no-products" transform="translate(-828.497 -464.521)">
    <path id="bag" d="M141.909,137.867,133.773,37.175a3.825,3.825,0,0,0-3.813-3.517H108.116V28.816A28.7,28.7,0,0,0,79.47,0h-.5A29,29,0,0,0,49.979,28.816v4.842h-21.5a3.825,3.825,0,0,0-3.813,3.517L16.5,138.151a3.825,3.825,0,0,0,3.813,4.133H138.13a3.829,3.829,0,0,0,3.779-4.417ZM57.628,28.816A21.336,21.336,0,0,1,78.965,7.65h.5a21.046,21.046,0,0,1,21,21.167v4.842H57.628Z" transform="translate(884.045 478.879)" fill="#fff"/>
    <path id="bag-2" data-name="bag" d="M141.909,137.867,133.773,37.175a3.825,3.825,0,0,0-3.813-3.517H108.116V28.816A28.7,28.7,0,0,0,79.47,0h-.5A29,29,0,0,0,49.979,28.816v4.842h-21.5a3.825,3.825,0,0,0-3.813,3.517L16.5,138.151a3.825,3.825,0,0,0,3.813,4.133H138.13a3.829,3.829,0,0,0,3.779-4.417ZM57.628,28.816A21.336,21.336,0,0,1,78.965,7.65h.5a21.046,21.046,0,0,1,21,21.167v4.842H57.628Z" transform="translate(813.51 466.021)" fill="#fff" stroke="#f5f6fa" stroke-width="3"/>
  </g>
</svg>
