<svg xmlns="http://www.w3.org/2000/svg" width="194.79" height="174.847" viewBox="0 0 194.79 174.847">
  <g id="no-partner" transform="translate(-966.499 -513.532)">
    <g id="male-telemarketer" transform="translate(1053.356 554.556)">
      <path id="Path_1072" data-name="Path 1072" d="M111.761,77.157c6.128,13.524,19.248,19.411,25.761,19.411,4.282,0,11.421-2.547,17.55-8.135q-3.362.235-7.2.236c-.6,0-1.231-.005-1.9-.016a7.465,7.465,0,0,1-4.548,1.554H135.97a7.454,7.454,0,1,1,0-14.908h5.454a7.426,7.426,0,0,1,5.18,2.093q.681.008,1.341.007a60.516,60.516,0,0,0,14.716-1.425,8.141,8.141,0,0,1-.608-3.1v-18.9a8.126,8.126,0,0,1,1.992-5.307c-.673-5.241-1.9-9.243-3.719-12.195-3.758-6.083-11-8.916-22.8-8.916-9.788,0-16.547,2.032-20.663,6.212-3.191,3.24-5.04,7.863-5.9,14.846a8.114,8.114,0,0,1,2.036,5.36v18.9A8.046,8.046,0,0,1,111.761,77.157Z" transform="translate(-83.556 -17.537)" fill="#fff"/>
      <path id="Path_1073" data-name="Path 1073" d="M68.482,59.8h6.543a4.462,4.462,0,0,0,4.461-4.462v-18.9a4.456,4.456,0,0,0-2.221-3.854c1.461-15.476,7.433-26.2,30.387-26.2,13.182,0,21.411,3.382,25.9,10.641,2.61,4.224,3.866,9.681,4.452,15.582a4.454,4.454,0,0,0-2.182,3.83v18.9a4.461,4.461,0,0,0,3.475,4.348c-2.884,1.886-8.855,3.813-21.219,3.813q-1.5,0-3.133-.039a3.816,3.816,0,0,0-3.388-2.061H106.1a3.818,3.818,0,0,0,0,7.636h5.454a3.809,3.809,0,0,0,3.093-1.585c1.148.029,2.273.047,3.359.047,13.936,0,22.8-2.379,26.384-7.1q.229-.3.419-.6h2.015a4.462,4.462,0,0,0,4.461-4.462v-18.9a4.462,4.462,0,0,0-4.461-4.461h-2.461c-.692-7.13-2.227-13.2-5.384-18.307C133.3,4.471,123.05,0,107.653,0S82.008,4.471,76.325,13.669c-3.156,5.108-4.691,11.177-5.383,18.307h-2.46a4.462,4.462,0,0,0-4.462,4.461v18.9A4.462,4.462,0,0,0,68.482,59.8Z" transform="translate(-53.687)" fill="#fff"/>
      <path id="Path_1074" data-name="Path 1074" d="M143.508,247.932c-1.484-9.224-4.537-21.1-10.662-25.326-4.176-2.88-18.757-10.67-24.983-14l-.131-.07a2.036,2.036,0,0,0-2.217.194,26.472,26.472,0,0,1-10.628,5.133,2.037,2.037,0,0,0-1.462,1.265L89.567,225.3,85.71,215.132a2.036,2.036,0,0,0-1.462-1.265,26.478,26.478,0,0,1-10.629-5.133,2.034,2.034,0,0,0-2.217-.194c-6.157,3.289-20.926,11.243-25.1,14.054-7.054,4.752-10.134,21.942-10.68,25.339a2.036,2.036,0,0,0,.091,1c.252.713,6.722,17.447,53.849,17.447s53.6-16.734,53.85-17.447A2.036,2.036,0,0,0,143.508,247.932ZM121.565,237.34H102.9v-3.931h18.665Z" transform="translate(-35.601 -132.559)" fill="#fff"/>
    </g>
    <g id="male-telemarketer-2" data-name="male-telemarketer" transform="translate(968 515.032)">
      <path id="Path_1072-2" data-name="Path 1072" d="M111.978,90.5c7.777,17.162,24.426,24.632,32.69,24.632,5.434,0,14.492-3.232,22.271-10.323q-4.266.3-9.132.3c-.762,0-1.562-.007-2.416-.02a9.473,9.473,0,0,1-5.771,1.972H142.7a9.459,9.459,0,1,1,0-18.918h6.921a9.423,9.423,0,0,1,6.573,2.655q.864.01,1.7.009c8.935,0,14.823-.819,18.675-1.808a10.332,10.332,0,0,1-.772-3.935V61.079a10.311,10.311,0,0,1,2.527-6.734c-.855-6.651-2.405-11.729-4.72-15.475-4.769-7.719-13.964-11.314-28.936-11.314-12.421,0-21,2.578-26.221,7.882-4.049,4.112-6.4,9.978-7.492,18.839a10.3,10.3,0,0,1,2.584,6.8V85.062A10.21,10.21,0,0,1,111.978,90.5Z" transform="translate(-76.186 -14.842)" fill="#fff" stroke="#f5f6fa" stroke-width="3"/>
      <path id="Path_1073-2" data-name="Path 1073" d="M69.682,75.882h8.3a5.663,5.663,0,0,0,5.662-5.662V46.237a5.654,5.654,0,0,0-2.818-4.89C82.683,21.709,90.261,8.1,119.39,8.1c16.727,0,27.17,4.291,32.862,13.5,3.312,5.361,4.905,12.285,5.649,19.773a5.652,5.652,0,0,0-2.768,4.86V70.22a5.661,5.661,0,0,0,4.41,5.518c-3.66,2.394-11.237,4.839-26.927,4.839q-1.906,0-3.975-.049a4.843,4.843,0,0,0-4.3-2.615H117.42a4.845,4.845,0,1,0,0,9.69h6.921a4.834,4.834,0,0,0,3.925-2.012c1.457.037,2.884.06,4.263.06,17.685,0,28.927-3.019,33.48-9.008q.291-.382.532-.759H169.1a5.662,5.662,0,0,0,5.661-5.662V46.237a5.662,5.662,0,0,0-5.661-5.662h-3.123c-.879-9.047-2.826-16.749-6.832-23.231C151.932,5.673,138.928,0,119.389,0S86.846,5.673,79.635,17.345C75.63,23.827,73.683,31.528,72.8,40.576H69.682a5.662,5.662,0,0,0-5.662,5.662V70.221A5.662,5.662,0,0,0,69.682,75.882Z" transform="translate(-50.907)" fill="#fff" stroke="#f5f6fa" stroke-width="3"/>
      <path id="Path_1074-2" data-name="Path 1074" d="M172.532,258.592c-1.883-11.7-5.758-26.782-13.53-32.139-5.3-3.655-23.8-13.541-31.7-17.762l-.166-.089a2.584,2.584,0,0,0-2.814.246,33.592,33.592,0,0,1-13.486,6.514,2.585,2.585,0,0,0-1.855,1.606l-4.9,12.9-4.9-12.9a2.584,2.584,0,0,0-1.855-1.606,33.6,33.6,0,0,1-13.487-6.514,2.582,2.582,0,0,0-2.813-.246c-7.813,4.174-26.555,14.267-31.846,17.834-8.951,6.03-12.86,27.843-13.553,32.155a2.584,2.584,0,0,0,.115,1.273c.32.9,8.531,22.14,68.333,22.14s68.013-21.235,68.334-22.139A2.584,2.584,0,0,0,172.532,258.592Zm-27.845-13.441H121v-4.988h23.686Z" transform="translate(-35.601 -112.187)" fill="#fff" stroke="#f5f6fa" stroke-width="3"/>
    </g>
  </g>
</svg>
