<svg xmlns="http://www.w3.org/2000/svg" width="219.488" height="189.067" viewBox="0 0 219.488 189.067">
  <g id="no-staff" transform="translate(-673.5 -371)">
    <g id="manager" transform="translate(757.734 384.161)">
      <path id="Path_1067" data-name="Path 1067" d="M124.614,69.424A34.712,34.712,0,1,0,89.9,34.712,34.751,34.751,0,0,0,124.614,69.424Z" transform="translate(-56.982)" fill="#fff"/>
      <path id="Path_1068" data-name="Path 1068" d="M148.531,143.418c-.015,0-.043-.015-.058-.019-4.52-1.1-18.36-3.04-18.36-3.04a3.076,3.076,0,0,0-3.794,1.888l-20.833,57.16a3.761,3.761,0,0,1-7.067,0l-20.833-57.16a3.077,3.077,0,0,0-2.888-2.026c-.3,0-14.529,2-19.267,3.173-12.946,3.219-21.112,15.949-21.112,29.216v47.561a12.906,12.906,0,0,0,12.906,12.906H156.668a12.906,12.906,0,0,0,12.906-12.906V172.453a30.541,30.541,0,0,0-21.042-29.035Z" transform="translate(-34.32 -57.171)" fill="#fff"/>
      <path id="Path_1069" data-name="Path 1069" d="M150.173,137.676a4.426,4.426,0,0,0-3.276-1.362h-9.171a4.428,4.428,0,0,0-3.276,1.362,4.254,4.254,0,0,0-.56,5.012l4.9,7.391-2.3,19.362,4.52,12.023a1.379,1.379,0,0,0,2.591,0l4.52-12.023-2.3-19.362,4.9-7.391A4.256,4.256,0,0,0,150.173,137.676Z" transform="translate(-74.684 -55.578)" fill="#fff"/>
    </g>
    <g id="manager-2" data-name="manager" transform="translate(676 373.5)">
      <path id="Path_1067-2" data-name="Path 1067" d="M124.614,69.424A34.712,34.712,0,1,0,89.9,34.712,34.751,34.751,0,0,0,124.614,69.424Z" transform="translate(-56.982)" fill="#fff" stroke="#f5f6fa" stroke-width="5"/>
      <path id="Path_1068-2" data-name="Path 1068" d="M148.531,143.418c-.015,0-.043-.015-.058-.019-4.52-1.1-18.36-3.04-18.36-3.04a3.076,3.076,0,0,0-3.794,1.888l-20.833,57.16a3.761,3.761,0,0,1-7.067,0l-20.833-57.16a3.077,3.077,0,0,0-2.888-2.026c-.3,0-14.529,2-19.267,3.173-12.946,3.219-21.112,15.949-21.112,29.216v47.561a12.906,12.906,0,0,0,12.906,12.906H156.668a12.906,12.906,0,0,0,12.906-12.906V172.453a30.541,30.541,0,0,0-21.042-29.035Z" transform="translate(-34.32 -57.171)" fill="#fff" stroke="#f5f6fa" stroke-width="5"/>
      <path id="Path_1069-2" data-name="Path 1069" d="M150.173,137.676a4.426,4.426,0,0,0-3.276-1.362h-9.171a4.428,4.428,0,0,0-3.276,1.362,4.254,4.254,0,0,0-.56,5.012l4.9,7.391-2.3,19.362,4.52,12.023a1.379,1.379,0,0,0,2.591,0l4.52-12.023-2.3-19.362,4.9-7.391A4.256,4.256,0,0,0,150.173,137.676Z" transform="translate(-74.684 -55.578)" fill="#fff" stroke="#f5f6fa" stroke-width="5"/>
    </g>
  </g>
</svg>
