<svg xmlns="http://www.w3.org/2000/svg" width="227.216" height="128.339" viewBox="0 0 227.216 128.339">
  <g id="no-sales" transform="translate(-889.437 -532.904)">
    <g id="money" transform="matrix(0.921, 0.391, -0.391, 0.921, 987.497, 532.904)">
      <g id="Group_810" data-name="Group 810" transform="translate(46.765 2.202)">
        <path id="Path_1075" data-name="Path 1075" d="M0,24.087v-.55A23.563,23.563,0,0,1,23.536,0h.55V24.086Z" transform="translate(67.258 50.146)" fill="#d3d8df"/>
        <path id="Path_1076" data-name="Path 1076" d="M23.536,24.086A23.563,23.563,0,0,1,0,.55V0H24.086V24.086Z" transform="translate(67.258 0)" fill="#d3d8df"/>
        <path id="Path_1077" data-name="Path 1077" d="M23.536,47.073A23.536,23.536,0,1,1,47.072,23.537,23.563,23.563,0,0,1,23.536,47.073Z" transform="translate(0 13.58)" fill="#d3d8df"/>
      </g>
      <path id="Path_1078" data-name="Path 1078" d="M22.986,74.233v-.55A22.461,22.461,0,0,0,.55,51.246H0V22.986H.55A22.461,22.461,0,0,0,22.986.55V0h89.936V.55a22.462,22.462,0,0,0,22.436,22.436h.55v28.26h-.55a22.461,22.461,0,0,0-22.436,22.436v.55ZM68.1,14.68A22.436,22.436,0,1,0,90.536,37.116,22.461,22.461,0,0,0,68.1,14.68Z" transform="translate(2.201 2.201)" fill="#fff"/>
      <g id="Group_811" data-name="Group 811" transform="translate(2.201 2.202)">
        <path id="Path_1079" data-name="Path 1079" d="M0,24.086V0H24.086V.55A23.563,23.563,0,0,1,.55,24.086Z" transform="translate(0 0)" fill="#d3d8df"/>
        <path id="Path_1080" data-name="Path 1080" d="M0,24.086V0H.55A23.563,23.563,0,0,1,24.086,23.536v.55Z" transform="translate(0 50.146)" fill="#d3d8df"/>
      </g>
      <path id="Path_1081" data-name="Path 1081" d="M137.558,0H93.837a2.751,2.751,0,0,0,0,5.5h18.132a25.784,25.784,0,0,0,22.839,22.839V50.294a25.784,25.784,0,0,0-22.839,22.839H28.341A25.784,25.784,0,0,0,5.5,50.293V28.341A25.784,25.784,0,0,0,28.341,5.5H75.976a2.751,2.751,0,0,0,0-5.5H2.751A2.751,2.751,0,0,0,0,2.751V75.883a2.751,2.751,0,0,0,2.751,2.751H137.559a2.751,2.751,0,0,0,2.751-2.751V2.751A2.751,2.751,0,0,0,137.558,0ZM117.516,5.5h17.292V22.794A20.272,20.272,0,0,1,117.516,5.5Zm-94.722,0A20.271,20.271,0,0,1,5.5,22.794V5.5ZM5.5,55.84A20.272,20.272,0,0,1,22.794,73.132H5.5ZM117.516,73.132a20.271,20.271,0,0,1,17.291-17.292V73.132Z" transform="translate(0 0)" fill="#fff"/>
      <path id="Path_1082" data-name="Path 1082" d="M5.679,2.751V4.476a7.569,7.569,0,0,0,1.89,14.9h1.72a2.066,2.066,0,0,1,0,4.132H5.252a2.751,2.751,0,1,0,0,5.5h.426v1.486a2.751,2.751,0,0,0,5.5,0V28.768a7.569,7.569,0,0,0-1.893-14.9H7.568a2.066,2.066,0,1,1,0-4.132h4.039a2.751,2.751,0,0,0,0-5.5h-.426V2.751a2.751,2.751,0,1,0-5.5,0Z" transform="translate(61.901 22.765)" fill="#ebeef2"/>
      <path id="Path_1083" data-name="Path 1083" d="M0,25.738A25.737,25.737,0,1,0,25.737,0,25.767,25.767,0,0,0,0,25.738Zm45.972,0A20.235,20.235,0,1,1,25.737,5.5,20.257,20.257,0,0,1,45.972,25.738Z" transform="translate(44.594 13.58)" fill="#ebeef2"/>
      <path id="Path_1084" data-name="Path 1084" d="M2.657,0c-3.54,0-3.546,5.5,0,5.5S6.2,0,2.657,0Z" transform="translate(82.2 0.434)" fill="#ebeef2"/>
    </g>
    <g id="money-2" data-name="money" transform="matrix(0.921, 0.391, -0.391, 0.921, 920.161, 534.037)">
      <g id="Group_810-2" data-name="Group 810" transform="translate(46.765 2.202)">
        <path id="Path_1075-2" data-name="Path 1075" d="M0,24.087v-.55A23.563,23.563,0,0,1,23.536,0h.55V24.086Z" transform="translate(67.258 50.146)" fill="#d3d8df"/>
        <path id="Path_1076-2" data-name="Path 1076" d="M23.536,24.086A23.563,23.563,0,0,1,0,.55V0H24.086V24.086Z" transform="translate(67.258 0)" fill="#d3d8df"/>
        <path id="Path_1077-2" data-name="Path 1077" d="M23.536,47.073A23.536,23.536,0,1,1,47.072,23.537,23.563,23.563,0,0,1,23.536,47.073Z" transform="translate(0 13.58)" fill="#d3d8df"/>
      </g>
      <path id="Path_1078-2" data-name="Path 1078" d="M22.986,74.233v-.55A22.461,22.461,0,0,0,.55,51.246H0V22.986H.55A22.461,22.461,0,0,0,22.986.55V0h89.936V.55a22.462,22.462,0,0,0,22.436,22.436h.55v28.26h-.55a22.461,22.461,0,0,0-22.436,22.436v.55ZM68.1,14.68A22.436,22.436,0,1,0,90.536,37.116,22.461,22.461,0,0,0,68.1,14.68Z" transform="translate(2.201 2.201)" fill="#fff"/>
      <g id="Group_811-2" data-name="Group 811" transform="translate(2.201 2.202)">
        <path id="Path_1079-2" data-name="Path 1079" d="M0,24.086V0H24.086V.55A23.563,23.563,0,0,1,.55,24.086Z" transform="translate(0 0)" fill="#d3d8df"/>
        <path id="Path_1080-2" data-name="Path 1080" d="M0,24.086V0H.55A23.563,23.563,0,0,1,24.086,23.536v.55Z" transform="translate(0 50.146)" fill="#d3d8df"/>
      </g>
      <path id="Path_1081-2" data-name="Path 1081" d="M137.558,0H93.837a2.751,2.751,0,0,0,0,5.5h18.132a25.784,25.784,0,0,0,22.839,22.839V50.294a25.784,25.784,0,0,0-22.839,22.839H28.341A25.784,25.784,0,0,0,5.5,50.293V28.341A25.784,25.784,0,0,0,28.341,5.5H75.976a2.751,2.751,0,0,0,0-5.5H2.751A2.751,2.751,0,0,0,0,2.751V75.883a2.751,2.751,0,0,0,2.751,2.751H137.559a2.751,2.751,0,0,0,2.751-2.751V2.751A2.751,2.751,0,0,0,137.558,0ZM117.516,5.5h17.292V22.794A20.272,20.272,0,0,1,117.516,5.5Zm-94.722,0A20.271,20.271,0,0,1,5.5,22.794V5.5ZM5.5,55.84A20.272,20.272,0,0,1,22.794,73.132H5.5ZM117.516,73.132a20.271,20.271,0,0,1,17.291-17.292V73.132Z" transform="translate(0 0)" fill="#ebeef2"/>
      <path id="Path_1082-2" data-name="Path 1082" d="M5.679,2.751V4.476a7.569,7.569,0,0,0,1.89,14.9h1.72a2.066,2.066,0,0,1,0,4.132H5.252a2.751,2.751,0,1,0,0,5.5h.426v1.486a2.751,2.751,0,0,0,5.5,0V28.768a7.569,7.569,0,0,0-1.893-14.9H7.568a2.066,2.066,0,1,1,0-4.132h4.039a2.751,2.751,0,0,0,0-5.5h-.426V2.751a2.751,2.751,0,1,0-5.5,0Z" transform="translate(61.901 22.765)" fill="#ebeef2"/>
      <path id="Path_1083-2" data-name="Path 1083" d="M0,25.738A25.737,25.737,0,1,0,25.737,0,25.767,25.767,0,0,0,0,25.738Zm45.972,0A20.235,20.235,0,1,1,25.737,5.5,20.257,20.257,0,0,1,45.972,25.738Z" transform="translate(44.594 13.58)" fill="#ebeef2"/>
      <path id="Path_1084-2" data-name="Path 1084" d="M2.657,0c-3.54,0-3.546,5.5,0,5.5S6.2,0,2.657,0Z" transform="translate(82.2 0.434)" fill="#ebeef2"/>
    </g>
  </g>
</svg>
