<svg xmlns="http://www.w3.org/2000/svg" width="28.087" height="32.297" viewBox="0 0 28.087 32.297">
  <g id="addproduct" transform="translate(-0.501)">
    <path id="Path_166" data-name="Path 166" d="M9.719,245.214A4.7,4.7,0,0,0,6.374,246.6l-5.6,5.6a.947.947,0,0,0,0,1.338c2.3,2.3,4.71,4.692,4.734,4.715a.946.946,0,0,0,1.334,0l3.589-3.572h7.927a6.6,6.6,0,0,0,5.866-3.549c.029-.055,2.895-5.524,4.36-8.311Zm12.832,5.035a4.715,4.715,0,0,1-4.19,2.535H10.044a.946.946,0,0,0-.668.275l-3.2,3.184c-.754-.749-2.051-2.04-3.392-3.379l4.927-4.927a2.82,2.82,0,0,1,2.007-.831H19.925l-.726,1.386a.943.943,0,0,1-.838.507H11.936a.946.946,0,0,0,0,1.892h6.425a2.831,2.831,0,0,0,2.514-1.521l1.46-2.787a6.106,6.106,0,0,1,3.724-3.026c-1.51,2.876-3.485,6.646-3.509,6.692Zm0,0" transform="translate(0 -226.227)" fill="#104CE5"/>
    <path id="Path_167" data-name="Path 167" d="M122.731,17.095h11.355a.946.946,0,0,0,.946-.946V4.731a.946.946,0,0,0-.946-.946h-2.839V2.839a2.839,2.839,0,0,0-5.677,0v.946h-2.839a.946.946,0,0,0-.946.946V16.149A.946.946,0,0,0,122.731,17.095Zm4.731-14.256a.946.946,0,0,1,1.892,0v.946h-1.892Zm-3.785,2.839h1.892v.946a.946.946,0,1,0,1.892,0V5.677h1.892v.946a.946.946,0,1,0,1.892,0V5.677h1.892V15.2h-9.462Zm0,0" transform="translate(-113.633)" fill="#104CE5"/>
  </g>
</svg>
