<svg xmlns="http://www.w3.org/2000/svg" width="32.577" height="31.116" viewBox="0 0 32.577 31.116">
  <g id="attributes" transform="translate(-22.274 14)">
    <g id="Group_94" data-name="Group 94" transform="translate(22 -14)">
      <path id="Path_202" data-name="Path 202" d="M.387,3.191,2.652,7.156a.566.566,0,0,0,.354.268l2.114.528,7.25,7.25.8-.8L5.808,7.039a.565.565,0,0,0-.263-.149L3.514,6.38,1.585,3,3.239,1.348,6.618,3.279l.51,2.031a.565.565,0,0,0,.149.263l7.364,7.364.8-.8-7.25-7.25L7.662,2.773a.567.567,0,0,0-.268-.355L3.429.153a.566.566,0,0,0-.68.091L.484,2.51a.566.566,0,0,0-.1.681Zm0,0" transform="translate(-0.038 -0.075)" fill="#104CE5"/>
      <path id="Path_203" data-name="Path 203" d="M187.244,174.52l-12.461,12.462-.8-.8,12.461-12.461Zm0,0" transform="translate(-164.057 -164.798)" fill="#104CE5"/>
      <path id="Path_204" data-name="Path 204" d="M53.9,399.11a.566.566,0,0,0-.486-.275h-3.4a.566.566,0,0,0-.485.275l-1.7,2.832a.566.566,0,0,0,0,.583l1.7,2.832a.566.566,0,0,0,.485.275h3.4a.567.567,0,0,0,.486-.275l1.7-2.832a.566.566,0,0,0,0-.583ZM53.1,404.5H50.339l-1.359-2.266,1.359-2.266H53.1l1.359,2.266Zm0,0" transform="translate(-44.647 -377.929)" fill="#104CE5"/>
      <path id="Path_205" data-name="Path 205" d="M26.324,12.442a6.352,6.352,0,0,0,6.512-6.178,5.937,5.937,0,0,0-.2-1.545.545.545,0,0,0-.658-.378.551.551,0,0,0-.252.136L28.348,7.7l-2.68-.853-.894-2.56,3.378-3.227a.5.5,0,0,0,0-.733A.55.55,0,0,0,27.9.191,6.521,6.521,0,0,0,20.01,4.68a5.924,5.924,0,0,0-.2,1.541,5.821,5.821,0,0,0,.132,1.215L8.058,18.788a6.693,6.693,0,0,0-1.271-.126,6.372,6.372,0,0,0-6.513,6.22A6.371,6.371,0,0,0,6.786,31.1a6.371,6.371,0,0,0,6.512-6.22,5.837,5.837,0,0,0-.132-1.215l2.845-2.718,1.244,1.189a.561.561,0,0,0,.768,0l.271-.259a.631.631,0,0,1,.861,0,.562.562,0,0,1,0,.821h0l-.271.259a.5.5,0,0,0,0,.733l6.474,6.184a4.527,4.527,0,0,0,6.195.027,4.052,4.052,0,0,0,.028-5.917l-.028-.027-6.474-6.183a.561.561,0,0,0-.767,0l-.271.259a.631.631,0,0,1-.861,0,.562.562,0,0,1,0-.821h0l.271-.259a.5.5,0,0,0,0-.733l-1.244-1.189,2.845-2.718a6.675,6.675,0,0,0,1.271.126Zm2.132,17.625a3.436,3.436,0,0,1-1.154-.2l4.239-4.049a3.1,3.1,0,0,1-1.922,4.049,3.43,3.43,0,0,1-1.162.2ZM22.308,16.594a1.568,1.568,0,0,0,.21,2.279,1.755,1.755,0,0,0,2.178,0l6.091,5.822c.066.063.128.13.188.2l-4.64,4.432c-.071-.057-.141-.116-.207-.179l-6.1-5.822a1.568,1.568,0,0,0-.21-2.279,1.755,1.755,0,0,0-2.178,0l-.868-.829,4.665-4.449ZM24.5,11.38,12.188,23.137a.5.5,0,0,0-.143.493A5.2,5.2,0,0,1,8.1,29.974,5.488,5.488,0,0,1,1.455,26.2,5.205,5.205,0,0,1,5.4,19.86a5.716,5.716,0,0,1,2.7,0,.565.565,0,0,0,.516-.137L20.922,7.966a.5.5,0,0,0,.143-.492A5.145,5.145,0,0,1,24.959,1.2a5.648,5.648,0,0,1,1.674-.151L23.769,3.782a.5.5,0,0,0-.131.53l1.085,3.11a.532.532,0,0,0,.344.328l3.256,1.037a.561.561,0,0,0,.555-.125l2.863-2.734c.006.1.01.2.01.294a5.28,5.28,0,0,1-5.372,5.184,5.648,5.648,0,0,1-1.367-.161.561.561,0,0,0-.516.136h0Zm0,0" transform="translate(0 0)" fill="#104CE5"/>
      <path id="Path_206" data-name="Path 206" d="M389.355,388.289l-.8.8-5.664-5.664.8-.8Zm0,0" transform="translate(-361.216 -362.686)" fill="#104CE5"/>
    </g>
  </g>
</svg>
