<svg id="clients" xmlns="http://www.w3.org/2000/svg" width="38.836" height="38.855" viewBox="0 0 38.836 38.855">
  <path id="Path_959" data-name="Path 959" d="M59.588,284.066l-.2.108a2.749,2.749,0,0,0-3.266-.818l-.011.006-.471.254a3.577,3.577,0,0,0-4.1-.37l-2.536,1.379H45.634a4.875,4.875,0,0,1-2.11-.483l-.464-.225a7.963,7.963,0,0,0-8.288.809c-.011.008-.022.017-.032.026l-1.121,1a3.889,3.889,0,0,1-1.467.818l-.637-2.09a.5.5,0,0,0-.483-.357h-5.42a.5.5,0,0,0-.5.566L26.918,299.5a.5.5,0,0,0,.5.444h8.13a.5.5,0,0,0,.483-.652l-1.068-3.5,3.326-2.1a2,2,0,0,1,1.46-.189l.032.007,6.767,1.246a8.756,8.756,0,0,0,5.411-.764.5.5,0,0,0,.062-.036l11.7-8.036a.5.5,0,0,0,.147-.676A3.213,3.213,0,0,0,59.588,284.066Zm-3,.187a1.723,1.723,0,0,1,1.884.417l-4.438,2.394-.261.137a3.849,3.849,0,0,0-.608-1.1Zm-4.551-.125.012-.007a2.566,2.566,0,0,1,2.61.025L52.4,285.361a3.833,3.833,0,0,0-1.441-.649ZM27.866,298.935,26.182,285.13h4.476l4.209,13.806ZM51.479,293.1a7.739,7.739,0,0,1-4.75.66l-6.75-1.243a3.009,3.009,0,0,0-2.194.3l-.023.014-3.1,1.963-2.212-7.254a4.9,4.9,0,0,0,1.843-1.031l1.1-.984a6.958,6.958,0,0,1,7.226-.7l.464.225a5.89,5.89,0,0,0,2.549.584h4.5a2.847,2.847,0,0,1,2.792,2.312l-3.263-.148a19.538,19.538,0,0,0-3.551.164.5.5,0,1,0,.138,1,18.491,18.491,0,0,1,3.367-.155l3.84.174h.023a.5.5,0,0,0,.5-.5c0-.082,0-.163-.008-.243l.527-.278,5.563-3a2.2,2.2,0,0,1,2.653.425Z" transform="translate(-25.108 -261.089)" fill="#104CE5"/>
  <path id="Path_960" data-name="Path 960" d="M76.974,432.887a1.589,1.589,0,1,0,1.589-1.589A1.589,1.589,0,0,0,76.974,432.887Zm1.589-.58a.579.579,0,1,1-.579.58.58.58,0,0,1,.579-.58Z" transform="translate(-72.612 -397.128)" fill="#104CE5"/>
  <path id="Path_961" data-name="Path 961" d="M218.195,30.482V28.819a3.83,3.83,0,1,0-7.66,0v1.663a3.83,3.83,0,1,0,7.66,0Zm-6.651,0V28.819a2.821,2.821,0,0,1,5.642,0v1.663a2.821,2.821,0,1,1-5.642,0Z" transform="translate(-194.94 -24.989)" fill="#104CE5"/>
  <path id="Path_962" data-name="Path 962" d="M79.475,148.833H91.823a.5.5,0,0,0,.5-.5V147.17h8.453a.5.5,0,0,0,.5-.5V143.39a3.782,3.782,0,0,0-3.541-3.772.589.589,0,0,0-.52.287,2.316,2.316,0,0,1-3.653-.089.5.5,0,0,0-.418-.2,3.741,3.741,0,0,0-1.856.542,4.241,4.241,0,0,0-2.96-1.468.614.614,0,0,0-.52.3,2.717,2.717,0,0,1-4.287-.1.5.5,0,0,0-.418-.2,4.223,4.223,0,0,0-2.93,1.278c-.064.065-.124.133-.183.2a3.752,3.752,0,0,0-1.72-.54.59.59,0,0,0-.52.287,2.316,2.316,0,0,1-3.653-.089.506.506,0,0,0-.418-.2A3.781,3.781,0,0,0,70,143.39v3.275a.5.5,0,0,0,.5.5h8.466v1.158A.5.5,0,0,0,79.475,148.833Zm13.461-8.2a3.325,3.325,0,0,0,4.979.013,2.774,2.774,0,0,1,2.36,2.741v2.771H92.327v-3.237a4.221,4.221,0,0,0-.466-1.932A2.728,2.728,0,0,1,92.937,140.636ZM82.892,139.7a3.727,3.727,0,0,0,5.629.013,3.241,3.241,0,0,1,2.8,3.208v4.9H79.98v-4.9A3.26,3.26,0,0,1,82.892,139.7Zm-11.883,6.458V143.39a2.79,2.79,0,0,1,2.46-2.753,3.325,3.325,0,0,0,4.978.013,2.755,2.755,0,0,1,.985.347,4.228,4.228,0,0,0-.461,1.927v3.237Z" transform="translate(-66.225 -129.117)" fill="#104CE5"/>
  <path id="Path_963" data-name="Path 963" d="M337.961,55.131V53.675a3.415,3.415,0,0,0-6.831,0v1.456a3.415,3.415,0,1,0,6.831,0Zm-5.822,0V53.675a2.406,2.406,0,1,1,4.812,0v1.456a2.406,2.406,0,1,1-4.812,0Z" transform="translate(-305.394 -48.135)" fill="#104CE5"/>
  <path id="Path_964" data-name="Path 964" d="M106.477,55.131V53.675a3.415,3.415,0,0,0-6.831,0v1.456a3.415,3.415,0,0,0,6.831,0Zm-5.822,0V53.675a2.406,2.406,0,0,1,4.812,0v1.456a2.406,2.406,0,0,1-4.812,0Z" transform="translate(-93.377 -48.135)" fill="#104CE5"/>
</svg>
