<svg id="cutomer" xmlns="http://www.w3.org/2000/svg" width="722.505" height="722.505" viewBox="0 0 722.505 722.505">
  <path id="Path_815" data-name="Path 815" d="M598.293,479.148V391.133l-33.714-8.615c-.233-.569-.467-1.138-.711-1.7L581.615,350.9l-62.238-62.238-29.913,17.747c-.575-.245-1.144-.478-1.7-.711L479.148,272H391.133l-8.615,33.714c-.569.233-1.138.467-1.7.711L350.9,288.677l-62.238,62.238,17.747,29.913c-.245.575-.478,1.144-.711,1.7L272,391.145v88.014l33.714,8.615c.233.569.467,1.138.711,1.7l-17.747,29.913,62.238,62.238,29.913-17.747c.575.245,1.144.478,1.7.711l8.615,33.7h88.014l8.615-33.714c.569-.233,1.138-.467,1.7-.711l29.913,17.747,62.238-62.238-17.747-29.913c.245-.575.478-1.144.711-1.7Zm-45.948,36.559-36.638,36.638L490.8,537.568l-5.6,2.68a116.588,116.588,0,0,1-11.107,4.6l-5.872,2.083-7.152,28.052H409.239l-7.152-28.052-5.872-2.083a109.837,109.837,0,0,1-11.107-4.6l-5.6-2.68L354.6,552.345l-36.638-36.638L332.736,490.8l-2.68-5.6a116.6,116.6,0,0,1-4.6-11.107l-2.083-5.872-28.063-7.152V409.239l28.052-7.152,2.083-5.872a109.851,109.851,0,0,1,4.6-11.107l2.68-5.6L317.948,354.6l36.638-36.638,24.906,14.777,5.6-2.68a116.592,116.592,0,0,1,11.107-4.6l5.872-2.083,7.152-28.063h51.825l7.152,28.052,5.872,2.083a109.857,109.857,0,0,1,11.107,4.6l5.6,2.68L515.7,317.948l36.639,36.638-14.777,24.906,2.68,5.6a116.553,116.553,0,0,1,4.6,11.107l2.083,5.872,28.063,7.152v51.825l-28.052,7.152-2.083,5.872a109.843,109.843,0,0,1-4.6,11.107l-2.68,5.6Zm0,0" transform="translate(124.212 124.212)" fill="#0337bb"/>
  <path id="Path_816" data-name="Path 816" d="M413.226,320a93.226,93.226,0,1,0,93.226,93.226A93.333,93.333,0,0,0,413.226,320Zm0,163.146a69.92,69.92,0,1,1,69.92-69.92A69.989,69.989,0,0,1,413.226,483.146Zm0,0" transform="translate(146.132 146.132)" fill="#0337bb"/>
  <path id="Path_817" data-name="Path 817" d="M398.613,352a46.613,46.613,0,1,0,46.613,46.613A46.659,46.659,0,0,0,398.613,352Zm0,69.92a23.307,23.307,0,1,1,23.307-23.307A23.33,23.33,0,0,1,398.613,421.92Zm0,0" transform="translate(160.745 160.745)" fill="#0337bb"/>
  <path id="Path_818" data-name="Path 818" d="M225.71,197.315a70.036,70.036,0,0,0,19.517,29.458v9.884l-55.41,20.775A58.521,58.521,0,0,0,152,311.982v60.924H431.68V311.982a58.553,58.553,0,0,0-37.8-54.562l-55.422-20.774v-9.872a69.893,69.893,0,0,0,19.517-29.458,46.6,46.6,0,0,0,38.75-45.822V104.88a104.88,104.88,0,0,0-209.759,0v46.613a46.6,46.6,0,0,0,38.75,45.822Zm89.437,44.178L291.84,280.334l-23.307-38.841v-.854a68.611,68.611,0,0,0,46.613,0Zm-63.268,17.548,23.494,39.142-23.341,11.665-15.079-45.214Zm156.5,52.941V349.6H175.308V311.982a35.119,35.119,0,0,1,22.686-32.735l17.133-6.418,23.3,69.9,53.419-26.709,53.419,26.709,23.3-69.9,17.144,6.43a35.1,35.1,0,0,1,22.675,32.724Zm-61.646-47.347L331.648,309.86l-23.341-11.665L331.8,259.041Zm-54.887-43.222A46.659,46.659,0,0,1,245.227,174.8V127.4a90.208,90.208,0,0,0,46.613-18.6,90.11,90.11,0,0,0,46.613,18.6v47.4A46.659,46.659,0,0,1,291.841,221.413Zm69.92-49.851V131.435a23.1,23.1,0,0,1,0,40.126ZM291.841,23.307a81.672,81.672,0,0,1,81.573,81.573v6.481a46.1,46.1,0,0,0-23.307-6.481h-2A67.437,67.437,0,0,1,300.08,84.988l-8.239-8.251L283.6,84.988a67.456,67.456,0,0,1-48.024,19.893h-2a46.1,46.1,0,0,0-23.307,6.481V104.88A81.672,81.672,0,0,1,291.84,23.307Zm-69.92,108.117v40.127a23.1,23.1,0,0,1,0-40.126Zm0,0" transform="translate(69.413 0)" fill="#0337bb"/>
  <path id="Path_819" data-name="Path 819" d="M0,590.986H233.066V288H0ZM23.307,311.307H209.759V567.679H23.307Zm0,0" transform="translate(0 131.519)" fill="#0337bb"/>
  <path id="Path_820" data-name="Path 820" d="M32,320H171.84v23.307H32Zm0,0" transform="translate(14.613 146.132)" fill="#0337bb"/>
  <path id="Path_821" data-name="Path 821" d="M32,352H55.307v23.307H32Zm0,0" transform="translate(14.613 160.745)" fill="#0337bb"/>
  <path id="Path_822" data-name="Path 822" d="M64,352h93.226v23.307H64Zm0,0" transform="translate(29.226 160.745)" fill="#0337bb"/>
  <path id="Path_823" data-name="Path 823" d="M32,384H171.84v23.307H32Zm0,0" transform="translate(14.613 175.359)" fill="#0337bb"/>
  <path id="Path_824" data-name="Path 824" d="M32,416H171.84v23.307H32Zm0,0" transform="translate(14.613 189.972)" fill="#0337bb"/>
  <path id="Path_825" data-name="Path 825" d="M112,448h23.307v23.307H112Zm0,0" transform="translate(51.146 204.585)" fill="#0337bb"/>
  <path id="Path_826" data-name="Path 826" d="M32,448h93.226v23.307H32Zm0,0" transform="translate(14.613 204.585)" fill="#0337bb"/>
  <path id="Path_827" data-name="Path 827" d="M236.018,362.822,219.54,346.343,164.687,401.2l54.853,54.853,16.478-16.479L209.3,412.849h88.4V389.543H209.3Zm0,0" transform="translate(75.207 158.162)" fill="#0337bb"/>
  <path id="Path_828" data-name="Path 828" d="M95.307,152.5A11.668,11.668,0,0,1,106.96,140.85H160.4L133.68,167.57l16.479,16.479L205.012,129.2,150.159,74.344,133.68,90.822,160.4,117.543H106.96A35.005,35.005,0,0,0,72,152.5V362.262H95.307Zm0,0" transform="translate(32.88 33.95)" fill="#0337bb"/>
  <path id="Path_829" data-name="Path 829" d="M405.92,138.96V285.628L379.2,258.908l-16.478,16.479,54.853,54.853,54.853-54.853-16.478-16.479-26.721,26.721V138.96A35.005,35.005,0,0,0,394.267,104H336v23.307h58.267A11.668,11.668,0,0,1,405.92,138.96Zm0,0" transform="translate(153.439 47.493)" fill="#0337bb"/>
</svg>
