<svg xmlns="http://www.w3.org/2000/svg" width="13.994" height="13.924" viewBox="0 0 13.994 13.924">
  <g id="edit" transform="translate(0)">
    <path id="Path_1060" data-name="Path 1060" d="M12.916,46.554a.349.349,0,0,0-.349.349V50a1.047,1.047,0,0,1-1.046,1.046H1.743A1.047,1.047,0,0,1,.7,50V40.915a1.047,1.047,0,0,1,1.046-1.046H4.837a.349.349,0,0,0,0-.7H1.743A1.745,1.745,0,0,0,0,40.915V50A1.745,1.745,0,0,0,1.743,51.74h9.779A1.745,1.745,0,0,0,13.265,50V46.9a.348.348,0,0,0-.349-.349Zm0,0" transform="translate(0 -37.816)" fill="#f5f6fa"/>
    <path id="Path_1061" data-name="Path 1061" d="M117.546.72a1.568,1.568,0,0,0-2.218,0L109.11,6.938a.348.348,0,0,0-.089.153l-.818,2.952a.348.348,0,0,0,.429.429l2.952-.818a.348.348,0,0,0,.153-.089l6.218-6.218a1.57,1.57,0,0,0,0-2.218Zm-7.677,6.444,5.089-5.089L116.6,3.717,111.51,8.806Zm-.328.658,1.311,1.311-1.814.5Zm7.921-4.968-.37.37-1.641-1.641.37-.37a.871.871,0,0,1,1.232,0l.409.409A.873.873,0,0,1,117.462,2.854Zm0,0" transform="translate(-104.419 -0.261)" fill="#f5f6fa"/>
  </g>
</svg>
