<svg id="inventory" xmlns="http://www.w3.org/2000/svg" width="38.855" height="38.855" viewBox="0 0 38.855 38.855">
  <path id="Path_965" data-name="Path 965" d="M33,54.041H51.8V39H33Zm7.52-13.787h3.76v1.253H40.52Zm-6.267,0h5.014V42.76h6.267V40.253h5.014V52.787H34.253Z" transform="translate(-12.946 -15.185)" fill="#104CE5"/>
  <path id="Path_966" data-name="Path 966" d="M57,57h1.253v1.253H57Z" transform="translate(-21.905 -21.905)" fill="#104CE5"/>
  <path id="Path_967" data-name="Path 967" d="M53,57h1.253v1.253H53Z" transform="translate(-20.412 -21.905)" fill="#104CE5"/>
  <path id="Path_968" data-name="Path 968" d="M49,57h1.253v1.253H49Z" transform="translate(-18.918 -21.905)" fill="#104CE5"/>
  <path id="Path_969" data-name="Path 969" d="M38.6,13.534H37.349V1H21.054V13.534H19.8V1H3.507V13.534H2.253A1.255,1.255,0,0,0,1,14.787v1.253a1.255,1.255,0,0,0,1.253,1.253h3.3a4.975,4.975,0,0,0,2.082,5.43A9.416,9.416,0,0,0,1,31.708a3.135,3.135,0,0,0,1.88,2.868v5.279H19.8V31.708a9.416,9.416,0,0,0-6.634-8.984,4.975,4.975,0,0,0,2.082-5.43H38.6a1.255,1.255,0,0,0,1.253-1.253V14.787A1.255,1.255,0,0,0,38.6,13.534ZM27.321,2.253h3.76V3.507h-3.76Zm-5.014,0h3.76V4.76h6.267V2.253H36.1V13.534h-3.76V11.027H26.068v2.507h-3.76Zm8.774,11.281h-3.76V12.281h3.76ZM9.774,2.253h3.76V3.507H9.774Zm-5.014,0H8.52V4.76h6.267V2.253h3.76V13.534h-3.76V11.027H8.52v2.507H4.76ZM9.774,13.534V12.281h3.76v1.253Zm-7.52,2.507V14.787H7.1a5.057,5.057,0,0,0-1.03,1.253Zm1.88,18.8H6.64V38.6H4.134Zm5.954-4.387H7.894V27.321h4.387v3.134h3.134V38.6H7.894v-3.76h2.193a2.193,2.193,0,1,0,0-4.387Zm3.447-2.247.994.994h-.994Zm5.014,3.5V38.6h-1.88V29.569l-3.5-3.5H6.64v4.387H4.76v1.253h5.327a.94.94,0,1,1,0,1.88H4.134a1.882,1.882,0,0,1-1.88-1.88,8.147,8.147,0,0,1,16.294,0Zm-8.147-9.4a3.76,3.76,0,1,1,3.76-3.76A3.764,3.764,0,0,1,10.4,22.308Zm28.2-6.267H14.736a5.043,5.043,0,0,0-1.03-1.253H38.6Z" transform="translate(-1 -1)" fill="#104CE5"/>
  <path id="Path_970" data-name="Path 970" d="M49,53h6.267v1.253H49Z" transform="translate(-18.918 -20.412)" fill="#104CE5"/>
</svg>
