<svg xmlns="http://www.w3.org/2000/svg" width="433.026" height="351.539" viewBox="0 0 433.026 351.539">
  <g id="logo-and-colors" transform="translate(0.539 -40.223)">
    <path id="Path_1082" data-name="Path 1082" d="M423.257,51.829a6,6,0,0,0-10.465-1.279c-7.581,10.629-17.529,14.172-29.053,18.275-9.292,3.31-18.9,6.73-29.286,14.186-14.687,10.544-21.4,24.917-18.055,38.54l-.358.459a197.08,197.08,0,0,0-19.848-24.474,185.488,185.488,0,0,0-126.311-56.7c-2.085-.073-4.2-.11-6.3-.11-52.846,0-103.428,23.624-138.775,64.813C9.646,146.512-5.939,199.853,2.051,251.882c.668,4.349,1.5,8.743,2.487,13.063,13,57.2,46.189,100.717,91.069,119.383a86.208,86.208,0,0,0,33.163,6.934c27.183,0,50.926-14.539,65.143-39.889a86.281,86.281,0,0,0,10.36-29.651c.866-5.92.274-11.835-.3-17.567-.591-5.9-1.149-11.476-.256-17.09,2.047-12.869,11.036-20.553,24.047-20.553a37.088,37.088,0,0,1,11.26,1.812c-4.422,8.11-8.438,15.854-11.947,23.032-7.437,15.212-12.567,27.81-15.252,37.44-1.655,5.939-6.052,21.722,4.67,29.164a16.03,16.03,0,0,0,12.215,2.361c4.049-.752,16.369-3.041,51.378-42.9,9.4-10.7,19.521-23.072,30.1-36.794,27.168-9.15,48.31-31.921,53.9-58.087a85.6,85.6,0,0,0,1.735-20.812c10.172-15.72,19.094-30.388,28.072-46.156.172-.3.342-.628.51-.96,13.031-3.569,24.254-13.71,30.842-27.891C434.872,106.028,434.163,79.428,423.257,51.829ZM276.385,149.834a25.581,25.581,0,1,1,3.3-19.3A25.47,25.47,0,0,1,276.385,149.834Zm33.207,46.353c12.934-19.057,26.612-38,39.6-54.85a70.137,70.137,0,0,0,7.012,5.53,53.9,53.9,0,0,0,13.164,6.754C358.4,172.379,346.609,190.963,332.329,212c-23.463,34.571-47.859,66.684-68.7,90.424-11.638,13.26-21.823,23.5-29.671,29.839,3.029-9.69,8.818-22.989,16.875-38.746C265.245,265.336,286.111,230.772,309.592,196.187Zm-227.086-.164a25.584,25.584,0,1,1,21.676-11.955A25.5,25.5,0,0,1,82.506,196.023ZM55.688,252.358a25.58,25.58,0,1,1-3.3,19.3A25.468,25.468,0,0,1,55.688,252.358ZM137.62,100.414a25.586,25.586,0,1,1-3.3,19.3A25.471,25.471,0,0,1,137.62,100.414Z" fill="#3742fa" stroke="#707070" stroke-width="1"/>
  </g>
</svg>
