<svg xmlns="http://www.w3.org/2000/svg" width="30.737" height="27.076" viewBox="0 0 30.737 27.076">
  <path id="puchaseorder" d="M2.811,13.461a.582.582,0,0,1-.866-.076L.135,11.228a.581.581,0,1,1,.891-.746l.888,1.059A13.04,13.04,0,0,1,27.6,10.234a.582.582,0,0,1-1.137.246,11.876,11.876,0,0,0-23.4,1.251l1.156-.97a.581.581,0,0,1,.746.891Zm7.921-1.62L10.1,9.906h3.026a.582.582,0,0,0,0-1.164H9.72L9.135,6.953a.581.581,0,0,0-.552-.4H6.4a.582.582,0,0,0,0,1.164H8.162l3.128,9.578a2.121,2.121,0,1,0,2.322,1.121h4.041a2.121,2.121,0,1,0,3.393-.54,2.142,2.142,0,0,0-1.5-.624H12.5l-.335-1.027h7.384a.581.581,0,0,0,.552-.4l2.05-6.28a.582.582,0,0,0-.54-.8H17.782a.582.582,0,0,0,0,1.164h3.026l-.632,1.936ZM19.8,13.005H11.112l.67,2.052h7.343ZM15.454,8.741a.582.582,0,1,0,.582.582A.582.582,0,0,0,15.454,8.741Zm4.132,9.67a.954.954,0,1,1-.107,0,.7.7,0,0,1,.107,0Zm-7.19.282a.957.957,0,1,1-.677-.28.954.954,0,0,1,.677.28Zm13.119-3.379,1.156-.97A11.876,11.876,0,0,1,3.271,15.6a.582.582,0,0,0-1.137.245,13.04,13.04,0,0,0,25.687-1.307l.888,1.059a.581.581,0,0,0,.891-.746l-1.81-2.156a.582.582,0,0,0-.866-.076l-2.156,1.809a.581.581,0,1,0,.746.891Zm0,0" transform="translate(0.501 0.5)" fill="#104CE5" stroke="#104CE5" stroke-width="1" fill-rule="evenodd"/>
</svg>
