<svg xmlns="http://www.w3.org/2000/svg" width="29.193" height="29.193" viewBox="0 0 29.193 29.193">
  <g id="reports" transform="translate(-0.002 0)">
    <g id="Group_65" data-name="Group 65" transform="translate(3.408 1.945)">
      <g id="Group_64" data-name="Group 64">
        <path id="Path_169" data-name="Path 169" d="M78.36,35.233l-.973-2.919a.486.486,0,0,0-.681-.282l-2.919,1.46a.487.487,0,0,0,.435.871l1.59-.8C71.627,41.22,64,46.091,56,46.091v.973c8.455,0,16.512-5.2,20.828-13.336l.6,1.813a.487.487,0,1,0,.924-.307Z" transform="translate(-56.002 -31.98)" fill="#104CE5"/>
      </g>
    </g>
    <g id="Group_67" data-name="Group 67" transform="translate(0.002)">
      <g id="Group_66" data-name="Group 66">
        <path id="Path_170" data-name="Path 170" d="M28.708,0H.489A.487.487,0,0,0,0,.487V22.381a.487.487,0,0,0,.487.487H9.074l-1.752,5.7a.487.487,0,0,0,.93.286l.941-3.062H20l.942,3.062a.487.487,0,0,0,.93-.286l-1.753-5.7h8.586a.487.487,0,0,0,.487-.487V.487A.487.487,0,0,0,28.708,0ZM9.493,24.814l.6-1.946H19.1l.6,1.946Zm18.728-2.919H.975V.973H28.222Z" transform="translate(-0.002 0)" fill="#104CE5"/>
      </g>
    </g>
    <g id="Group_69" data-name="Group 69" transform="translate(3.408 18.002)">
      <g id="Group_68" data-name="Group 68">
        <path id="Path_171" data-name="Path 171" d="M58.435,296H56.489a.487.487,0,0,0-.487.487v1.946a.487.487,0,0,0,.487.486h1.946a.487.487,0,0,0,.487-.486v-1.946A.487.487,0,0,0,58.435,296Zm-.487,1.946h-.973v-.973h.973Z" transform="translate(-56.002 -296)" fill="#104CE5"/>
      </g>
    </g>
    <g id="Group_71" data-name="Group 71" transform="translate(8.273 17.029)">
      <g id="Group_70" data-name="Group 70">
        <path id="Path_172" data-name="Path 172" d="M138.435,280h-1.946a.487.487,0,0,0-.487.487v2.919a.487.487,0,0,0,.487.487h1.946a.487.487,0,0,0,.487-.487v-2.919A.487.487,0,0,0,138.435,280Zm-.487,2.919h-.973v-1.946h.973Z" transform="translate(-136.002 -280)" fill="#104CE5"/>
      </g>
    </g>
    <g id="Group_73" data-name="Group 73" transform="translate(13.139 15.083)">
      <g id="Group_72" data-name="Group 72">
        <path id="Path_173" data-name="Path 173" d="M218.435,248h-1.946a.487.487,0,0,0-.487.487v4.865a.487.487,0,0,0,.487.487h1.946a.487.487,0,0,0,.487-.487v-4.865A.487.487,0,0,0,218.435,248Zm-.487,4.865h-.973v-3.892h.973Z" transform="translate(-216.002 -248)" fill="#104CE5"/>
      </g>
    </g>
    <g id="Group_75" data-name="Group 75" transform="translate(18.004 12.164)">
      <g id="Group_74" data-name="Group 74">
        <path id="Path_174" data-name="Path 174" d="M298.435,200h-1.946a.487.487,0,0,0-.487.487v7.785a.487.487,0,0,0,.487.487h1.946a.487.487,0,0,0,.487-.487v-7.785A.487.487,0,0,0,298.435,200Zm-.487,7.785h-.973v-6.812h.973Z" transform="translate(-296.002 -200)" fill="#104CE5"/>
      </g>
    </g>
    <g id="Group_77" data-name="Group 77" transform="translate(22.87 6.812)">
      <g id="Group_76" data-name="Group 76">
        <path id="Path_175" data-name="Path 175" d="M378.435,112h-1.946a.487.487,0,0,0-.487.487v13.137a.487.487,0,0,0,.487.487h1.946a.487.487,0,0,0,.487-.487V112.487A.487.487,0,0,0,378.435,112Zm-.487,13.137h-.973V112.973h.973Z" transform="translate(-376.002 -112)" fill="#104CE5"/>
      </g>
    </g>
  </g>
</svg>
