<svg id="role" xmlns="http://www.w3.org/2000/svg" width="36.859" height="36.859" viewBox="0 0 36.859 36.859">
  <g id="Group_454" data-name="Group 454">
    <g id="Group_453" data-name="Group 453">
      <path id="Path_977" data-name="Path 977" d="M181.884,133.609a5.609,5.609,0,1,0-9.136,4.34l-1.266,6.729a.8.8,0,0,0,.787.95h8.013a.8.8,0,0,0,.787-.949L179.8,137.95A5.581,5.581,0,0,0,181.884,133.609Zm-3.748,4.143,1.179,6.274h-6.08l1.181-6.274a.8.8,0,0,0-.345-.816,4.006,4.006,0,1,1,4.409,0A.8.8,0,0,0,178.136,137.752Z" transform="translate(-157.845 -118.384)" fill="#104CE5"/>
      <path id="Path_978" data-name="Path 978" d="M18.43,0a18.43,18.43,0,1,0,18.43,18.43A18.451,18.451,0,0,0,18.43,0Zm0,35.257A16.827,16.827,0,1,1,35.257,18.43,16.846,16.846,0,0,1,18.43,35.257Z" fill="#104CE5"/>
    </g>
  </g>
</svg>
