<svg xmlns="http://www.w3.org/2000/svg" width="20.99" height="28.283" viewBox="0 0 20.99 28.283">
  <g id="sell" transform="translate(-57.988 0.579)">
    <g id="Group_63" data-name="Group 63" transform="translate(58.488)">
      <path id="Path_161" data-name="Path 161" d="M313.507,32.594l-1.731,1.121-.158.895,1.731-1.121Z" transform="translate(-296.029 -30.587)" fill="none" stroke="#104CE5" stroke-width="1"/>
      <path id="Path_162" data-name="Path 162" d="M307.889,62.381l-1.73,1.121-.182,1.03,1.731-1.121Z" transform="translate(-290.736 -58.539)" fill="none" stroke="#104CE5" stroke-width="1"/>
      <path id="Path_163" data-name="Path 163" d="M318.749.262,317.262,0l-.386,2.189,1.731-1.121Z" transform="translate(-300.963)" fill="none" stroke="#104CE5" stroke-width="1"/>
      <path id="Path_164" data-name="Path 164" d="M160.143,155.936a.935.935,0,0,0,0,1.869c.024,0,.047-.006.07-.007.225,1.661-1.517,3.179-3.168,3.269-1.859.1-2.63-1.7-2.784-3.288a.939.939,0,1,0-.814-.2c.137,2.185,1.382,4.6,3.945,4.257,2.145-.29,4.062-2.358,3.542-4.475a.925.925,0,0,0,.143-.493A.935.935,0,0,0,160.143,155.936Z" transform="translate(-147.287 -146.333)" fill="none" stroke="#104CE5" stroke-width="1"/>
      <path id="Path_165" data-name="Path 165" d="M78.436,41.569c-.687-2.7-2.721-11.99-.036-17.9,0-.006,0-.012.006-.018a.594.594,0,0,0,.033-.106c0-.009,0-.018.007-.026a.635.635,0,0,0,.007-.136c0-.008,0-.017,0-.025a.577.577,0,0,0-.022-.109c0-.013-.008-.025-.013-.038a.6.6,0,0,0-.044-.091c0-.007-.006-.016-.011-.024s-.007-.007-.009-.012-.008-.014-.013-.021l-1.931-2.6a.591.591,0,0,0-.268-.2,1.941,1.941,0,0,1-.112,1.695l.638.858H73.971l1.15-.745L75.3,21.1l-1.731,1.121-.108.608H71.643l.886-1.4.2-.328-1.367-.87-3.29-2.086-.991,1.562.961,3.12h-.5L65.533,16.29l-5.277,1.626.713,2.315h-.553a.6.6,0,0,0-.533.326l-1.331,2.6c-.006.012-.008.023-.014.035a.449.449,0,0,0-.018.046.543.543,0,0,0-.022.087c0,.014-.006.027-.007.041a.612.612,0,0,0,0,.116c0,.005,0,.01,0,.015a.625.625,0,0,0,.03.128.1.1,0,0,1,0,.01c2.836,7.716.84,15.731.16,18a.644.644,0,0,0,.072.617.6.6,0,0,0,.478.238h.008a.547.547,0,0,0,.37-.136H77.548a.561.561,0,0,0,.343.107.6.6,0,0,0,.473-.231A.681.681,0,0,0,78.436,41.569ZM60.783,21.429h.556l.43,1.4h-1.7Zm-.721,19.728c.791-2.995,2.164-10.087-.135-17.132H76.962c-2.141,5.779-.636,13.834.14,17.132Z" transform="translate(-58.488 -15.287)" fill="none" stroke="#104CE5" stroke-width="1"/>
    </g>
  </g>
</svg>
