<svg xmlns="http://www.w3.org/2000/svg" width="49" height="49" viewBox="0 0 49 49">
  <g id="shop-details" transform="translate(0 -0.001)">
    <circle id="Ellipse_325" data-name="Ellipse 325" cx="24.5" cy="24.5" r="24.5" transform="translate(0 0.001)" fill="#3742fa"/>
    <g id="Group_425" data-name="Group 425" transform="translate(16.928 18.401)">
      <path id="Path_955" data-name="Path 955" d="M251.236,263.75h-2.029a1.007,1.007,0,0,0-1.007,1.007v1.556a1.007,1.007,0,0,0,1.007,1.007h2.029a1.007,1.007,0,0,0,1.007-1.007v-1.556a1.007,1.007,0,0,0-1.006-1.007Zm.274,2.563a.275.275,0,0,1-.274.274h-2.029a.275.275,0,0,1-.274-.274v-1.556a.275.275,0,0,1,.274-.274h2.029a.275.275,0,0,1,.274.274Z" transform="translate(-240.627 -256.648)" fill="#f3f4f9"/>
      <path id="Path_956" data-name="Path 956" d="M14.932,35.319a.34.34,0,0,0-.049-.18l-2.22-3.907a.369.369,0,0,0-.317-.186H2.584a.362.362,0,0,0-.317.186L.049,35.138a.369.369,0,0,0-.049.18,2.142,2.142,0,0,0,1.281,1.959V43.72a.367.367,0,0,0,.366.365H13.283a.367.367,0,0,0,.366-.366v-6.4a.161.161,0,0,0,0-.04,2.148,2.148,0,0,0,1.287-1.965ZM2.8,31.782h9.334l1.736,3.054H1.065Zm7.829,3.783a1.407,1.407,0,0,1-2.771,0Zm-3.549,0a1.409,1.409,0,0,1-2.774,0Zm-6.322,0H3.53a1.409,1.409,0,0,1-2.774,0Zm5.4,7.787H4.046V39.4a.521.521,0,0,1,.522-.522H5.633a.521.521,0,0,1,.522.522v3.951Zm6.765,0H6.884V39.4A1.256,1.256,0,0,0,5.63,38.147H4.564A1.256,1.256,0,0,0,3.31,39.4v3.954h-1.3v-5.9c.043,0,.086,0,.128,0a2.139,2.139,0,0,0,1.776-.946,2.14,2.14,0,0,0,3.552,0,2.134,2.134,0,0,0,3.546,0,2.139,2.139,0,0,0,1.776.946c.043,0,.083,0,.125,0v5.9Zm-.125-6.624a1.407,1.407,0,0,1-1.385-1.16H14.18A1.415,1.415,0,0,1,12.791,36.728Z" transform="translate(0 -31.045)" fill="#f3f4f9"/>
    </g>
  </g>
</svg>
