<svg xmlns="http://www.w3.org/2000/svg" width="44.5" height="38.861" viewBox="0 0 44.5 38.861">
  <g id="shop" transform="translate(0 0.005)">
    <path id="Path_955" data-name="Path 955" d="M257.248,263.75H251.2a3,3,0,0,0-3,3v4.638a3,3,0,0,0,3,3h6.047a3,3,0,0,0,3-3V266.75a3,3,0,0,0-3-3Zm.818,7.638a.821.821,0,0,1-.818.818H251.2a.821.821,0,0,1-.818-.818V266.75a.821.821,0,0,1,.818-.818h6.047a.821.821,0,0,1,.818.818Z" transform="translate(-225.63 -242.59)" fill="#104ce5"/>
    <path id="Path_956" data-name="Path 956" d="M44.5,43.781a1.013,1.013,0,0,0-.145-.537L37.738,31.6a1.1,1.1,0,0,0-.946-.555H7.7a1.078,1.078,0,0,0-.946.555L.145,43.244A1.1,1.1,0,0,0,0,43.781a6.383,6.383,0,0,0,3.819,5.838v19.2A1.094,1.094,0,0,0,4.91,69.906H39.584a1.094,1.094,0,0,0,1.091-1.091V49.755a.48.48,0,0,0-.009-.118A6.4,6.4,0,0,0,44.5,43.781ZM8.339,33.242H36.155l5.174,9.1H3.174ZM31.672,44.517a4.194,4.194,0,0,1-8.257,0Zm-10.576,0a4.2,4.2,0,0,1-8.266,0Zm-18.842,0H10.52a4.2,4.2,0,0,1-8.266,0ZM18.332,67.724H12.058V55.948a1.554,1.554,0,0,1,1.555-1.555h3.174a1.554,1.554,0,0,1,1.555,1.555V67.724Zm20.16,0H20.515V55.948a3.743,3.743,0,0,0-3.737-3.737H13.6a3.743,3.743,0,0,0-3.737,3.737V67.733H6V50.155c.127.009.255.009.382.009a6.375,6.375,0,0,0,5.293-2.82,6.377,6.377,0,0,0,10.585,0,6.36,6.36,0,0,0,10.567,0,6.375,6.375,0,0,0,5.292,2.819c.127,0,.246-.009.373-.009V67.724ZM38.12,47.982a4.192,4.192,0,0,1-4.128-3.456h8.266A4.217,4.217,0,0,1,38.12,47.982Z" transform="translate(0 -31.05)" fill="#104ce5"/>
  </g>
</svg>
