<svg id="staff" xmlns="http://www.w3.org/2000/svg" width="38.855" height="38.855" viewBox="0 0 38.855 38.855">
  <g id="Group_405" data-name="Group 405" transform="translate(15.542)">
    <g id="Group_404" data-name="Group 404">
      <path id="Path_946" data-name="Path 946" d="M195.886,0a3.886,3.886,0,1,0,3.886,3.886A3.886,3.886,0,0,0,195.886,0Zm0,6.476a2.59,2.59,0,1,1,2.59-2.59A2.59,2.59,0,0,1,195.886,6.476Z" transform="translate(-192)" fill="#104CE5"/>
    </g>
  </g>
  <g id="Group_407" data-name="Group 407" transform="translate(13.599 8.419)">
    <g id="Group_406" data-name="Group 406">
      <path id="Path_947" data-name="Path 947" d="M176.419,104h-.153l-.137.068a5.162,5.162,0,0,1-4.6,0l-.137-.068h-.153A3.242,3.242,0,0,0,168,107.238v3.886a1.943,1.943,0,0,0,1.943,1.943h7.771a1.943,1.943,0,0,0,1.943-1.943v-3.886A3.242,3.242,0,0,0,176.419,104Zm1.943,7.124a.648.648,0,0,1-.648.648h-7.771a.648.648,0,0,1-.648-.648v-3.886a1.943,1.943,0,0,1,1.8-1.938,6.481,6.481,0,0,0,5.457,0,1.943,1.943,0,0,1,1.8,1.938Z" transform="translate(-168 -104)" fill="#104CE5"/>
    </g>
  </g>
  <g id="Group_409" data-name="Group 409" transform="translate(29.142 21.371)">
    <g id="Group_408" data-name="Group 408">
      <path id="Path_948" data-name="Path 948" d="M363.886,264a3.886,3.886,0,1,0,3.886,3.886A3.886,3.886,0,0,0,363.886,264Zm0,6.476a2.59,2.59,0,1,1,2.59-2.59A2.59,2.59,0,0,1,363.886,270.476Z" transform="translate(-360 -264)" fill="#104CE5"/>
    </g>
  </g>
  <g id="Group_411" data-name="Group 411" transform="translate(27.199 29.789)">
    <g id="Group_410" data-name="Group 410">
      <path id="Path_949" data-name="Path 949" d="M344.419,368h-.153l-.137.065a5.163,5.163,0,0,1-4.6,0l-.137-.065h-.153A3.242,3.242,0,0,0,336,371.238v3.886a1.943,1.943,0,0,0,1.943,1.943h7.771a1.943,1.943,0,0,0,1.943-1.943v-3.886A3.242,3.242,0,0,0,344.419,368Zm1.943,7.124a.648.648,0,0,1-.648.648h-7.771a.648.648,0,0,1-.648-.648v-3.886a1.943,1.943,0,0,1,1.8-1.938,6.481,6.481,0,0,0,5.457,0,1.943,1.943,0,0,1,1.8,1.938Z" transform="translate(-336 -368)" fill="#104CE5"/>
    </g>
  </g>
  <g id="Group_413" data-name="Group 413" transform="translate(1.943 21.371)">
    <g id="Group_412" data-name="Group 412">
      <path id="Path_950" data-name="Path 950" d="M27.886,264a3.886,3.886,0,1,0,3.886,3.886A3.886,3.886,0,0,0,27.886,264Zm0,6.476a2.59,2.59,0,1,1,2.59-2.59A2.59,2.59,0,0,1,27.886,270.476Z" transform="translate(-24 -264)" fill="#104CE5"/>
    </g>
  </g>
  <g id="Group_415" data-name="Group 415" transform="translate(0 29.789)">
    <g id="Group_414" data-name="Group 414">
      <path id="Path_951" data-name="Path 951" d="M8.419,368H8.266l-.137.065a5.163,5.163,0,0,1-4.6,0L3.391,368H3.238A3.242,3.242,0,0,0,0,371.238v3.886a1.943,1.943,0,0,0,1.943,1.943H9.714a1.943,1.943,0,0,0,1.943-1.943v-3.886A3.242,3.242,0,0,0,8.419,368Zm1.943,7.124a.648.648,0,0,1-.648.648H1.943a.648.648,0,0,1-.648-.648v-3.886A1.943,1.943,0,0,1,3.1,369.3a6.481,6.481,0,0,0,5.457,0,1.943,1.943,0,0,1,1.8,1.938Z" transform="translate(0 -368)" fill="#104CE5"/>
    </g>
  </g>
  <g id="Group_417" data-name="Group 417" transform="translate(12.952 31.732)">
    <g id="Group_416" data-name="Group 416">
      <path id="Path_952" data-name="Path 952" d="M172.9,393.151v0a.648.648,0,0,0-.85-.342h0a14.365,14.365,0,0,1-9.237.636l.606-.178a.648.648,0,1,0-.364-1.243l-2.59.76c-.01,0-.017.011-.026.014a.642.642,0,0,0-.167.093.567.567,0,0,0-.065.041.627.627,0,0,0-.159.22.649.649,0,0,0-.049.267,2,2,0,0,0,.065.259c0,.009,0,.019.007.029l1.3,2.478a.648.648,0,1,0,1.149-.6l-.527-1.008A15.588,15.588,0,0,0,172.555,394,.648.648,0,0,0,172.9,393.151Z" transform="translate(-159.998 -391.995)" fill="#104CE5"/>
    </g>
  </g>
  <g id="Group_419" data-name="Group 419" transform="translate(24.608 5.069)">
    <g id="Group_418" data-name="Group 418">
      <path id="Path_953" data-name="Path 953" d="M316.112,74.58a.648.648,0,0,0-.916,0l-.916.916A15.519,15.519,0,0,0,304.9,62.674a.648.648,0,1,0-.508,1.192,14.226,14.226,0,0,1,8.566,11.445l-.73-.73a.648.648,0,0,0-.916.916l1.943,1.943a.648.648,0,0,0,.916,0h0l1.943-1.943A.647.647,0,0,0,316.112,74.58Z" transform="translate(-303.998 -62.622)" fill="#104CE5"/>
    </g>
  </g>
  <g id="Group_421" data-name="Group 421" transform="translate(3.886 3.896)">
    <g id="Group_420" data-name="Group 420">
      <path id="Path_954" data-name="Path 954" d="M58.343,49.846a.6.6,0,0,0-.017-.112c0-.006-.007-.01-.01-.016s0-.011,0-.016a.621.621,0,0,0-.061-.089.654.654,0,0,0-.074-.107.608.608,0,0,0-.126-.086.57.57,0,0,0-.073-.052l-2.59-1.183a.648.648,0,0,0-.538,1.177l1.341.613A15.518,15.518,0,0,0,48,63.666a.648.648,0,0,0,1.3,0A14.225,14.225,0,0,1,56.3,51.4l-.468.979a.648.648,0,0,0,.3.863.638.638,0,0,0,.28.065A.648.648,0,0,0,57,52.937l1.3-2.7a.029.029,0,0,1,.005-.02.623.623,0,0,0,.035-.137.671.671,0,0,0,.025-.107A.646.646,0,0,0,58.343,49.846Z" transform="translate(-48 -48.134)" fill="#104CE5"/>
    </g>
  </g>
</svg>
