<svg id="suplier" xmlns="http://www.w3.org/2000/svg" width="496" height="496" viewBox="0 0 496 496">
  <path id="Path_815" data-name="Path 815" d="M496,414.207V353.785l-23.145-5.914c-.16-.391-.32-.781-.488-1.168l12.184-20.535-42.727-42.727-20.535,12.184c-.395-.168-.785-.328-1.168-.488L414.207,272H353.785l-5.914,23.145c-.391.16-.781.32-1.168.488l-20.535-12.184-42.727,42.727,12.184,20.535c-.168.395-.328.785-.488,1.168L272,353.793v60.422l23.145,5.914c.16.391.32.781.488,1.168l-12.184,20.535,42.727,42.727,20.535-12.184c.395.168.785.328,1.168.488L353.793,496h60.422l5.914-23.145c.391-.16.781-.32,1.168-.488l20.535,12.184,42.727-42.727-12.184-20.535c.168-.395.328-.785.488-1.168Zm-31.543,25.1L439.3,464.457l-17.1-10.145-3.848,1.84a80.039,80.039,0,0,1-7.625,3.16l-4.031,1.43L401.793,480H366.215l-4.91-19.258-4.031-1.43a75.417,75.417,0,0,1-7.625-3.16l-3.848-1.84-17.1,10.145L303.551,439.3l10.145-17.1-1.84-3.848a80.039,80.039,0,0,1-3.16-7.625l-1.43-4.031L288,401.793V366.215l19.258-4.91,1.43-4.031a75.417,75.417,0,0,1,3.16-7.625l1.84-3.848-10.145-17.1L328.7,303.551l17.1,10.145,3.848-1.84a80.039,80.039,0,0,1,7.625-3.16l4.031-1.43L366.207,288h35.578l4.91,19.258,4.031,1.43a75.417,75.417,0,0,1,7.625,3.16l3.848,1.84,17.1-10.145L464.449,328.7l-10.145,17.1,1.84,3.848a80.039,80.039,0,0,1,3.16,7.625l1.43,4.031L480,366.207v35.578l-19.258,4.91-1.43,4.031a75.417,75.417,0,0,1-3.16,7.625l-1.84,3.848Zm0,0" fill="#0337bb"/>
  <path id="Path_816" data-name="Path 816" d="M384,320a64,64,0,1,0,64,64A64.073,64.073,0,0,0,384,320Zm0,112a48,48,0,1,1,48-48A48.047,48.047,0,0,1,384,432Zm0,0" fill="#0337bb"/>
  <path id="Path_817" data-name="Path 817" d="M384,352a32,32,0,1,0,32,32A32.032,32.032,0,0,0,384,352Zm0,48a16,16,0,1,1,16-16A16.016,16.016,0,0,1,384,400Zm0,0" fill="#0337bb"/>
  <path id="Path_818" data-name="Path 818" d="M202.6,135.457A48.08,48.08,0,0,0,216,155.68v6.785l-38.039,14.262A40.175,40.175,0,0,0,152,214.176V256H344V214.176a40.2,40.2,0,0,0-25.953-37.457L280,162.457V155.68a47.982,47.982,0,0,0,13.4-20.223A31.989,31.989,0,0,0,320,104V72a72,72,0,0,0-144,0v32a31.989,31.989,0,0,0,26.6,31.457ZM264,165.785l-16,26.664-16-26.664V165.2a47.1,47.1,0,0,0,32,0Zm-43.434,12.047L236.7,204.7l-16.023,8.008-10.352-31.039ZM328,214.176V240H168V214.176A24.109,24.109,0,0,1,183.575,191.7l11.762-4.406,15.992,47.984L248,216.945l36.672,18.336L300.665,187.3l11.77,4.414A24.1,24.1,0,0,1,328,214.176Zm-42.32-32.5-10.352,31.047-16.023-8.008,16.129-26.879ZM248,152a32.032,32.032,0,0,1-32-32V87.457a61.928,61.928,0,0,0,32-12.77,61.861,61.861,0,0,0,32,12.77V120a32.032,32.032,0,0,1-32,32Zm48-34.223V90.23a15.857,15.857,0,0,1,0,27.547ZM248,16a56.068,56.068,0,0,1,56,56V76.45A31.65,31.65,0,0,0,288,72h-1.375a46.3,46.3,0,0,1-32.969-13.656L248,52.68l-5.656,5.664A46.309,46.309,0,0,1,209.376,72H208a31.65,31.65,0,0,0-16,4.449V72a56.068,56.068,0,0,1,56-56ZM200,90.223V117.77a15.857,15.857,0,0,1,0-27.547Zm0,0" fill="#0337bb"/>
  <path id="Path_819" data-name="Path 819" d="M0,496H160V288H0ZM16,304H144V480H16Zm0,0" fill="#0337bb"/>
  <path id="Path_820" data-name="Path 820" d="M32,320h96v16H32Zm0,0" fill="#0337bb"/>
  <path id="Path_821" data-name="Path 821" d="M32,352H48v16H32Zm0,0" fill="#0337bb"/>
  <path id="Path_822" data-name="Path 822" d="M64,352h64v16H64Zm0,0" fill="#0337bb"/>
  <path id="Path_823" data-name="Path 823" d="M32,384h96v16H32Zm0,0" fill="#0337bb"/>
  <path id="Path_824" data-name="Path 824" d="M32,416h96v16H32Zm0,0" fill="#0337bb"/>
  <path id="Path_825" data-name="Path 825" d="M112,448h16v16H112Zm0,0" fill="#0337bb"/>
  <path id="Path_826" data-name="Path 826" d="M32,448H96v16H32Zm0,0" fill="#0337bb"/>
  <path id="Path_827" data-name="Path 827" d="M213.656,357.656l-11.312-11.312L164.687,384l37.656,37.656,11.313-11.312L195.312,392H256V376H195.312Zm0,0" fill="#0337bb"/>
  <path id="Path_828" data-name="Path 828" d="M88,128a8.01,8.01,0,0,1,8-8h36.688l-18.344,18.344,11.313,11.313L163.313,112,125.656,74.344,114.344,85.656,132.688,104H96a24.031,24.031,0,0,0-24,24V272H88Zm0,0" fill="#0337bb"/>
  <path id="Path_829" data-name="Path 829" d="M384,128V228.688l-18.344-18.344-11.312,11.313L392,259.313l37.656-37.656-11.312-11.312L400,228.688V128a24.031,24.031,0,0,0-24-24H336v16h40a8.01,8.01,0,0,1,8,8Zm0,0" fill="#0337bb"/>
</svg>
