<svg xmlns="http://www.w3.org/2000/svg" width="63.319" height="72.364" viewBox="0 0 63.319 72.364">
  <g id="user" transform="translate(-34.445)">
    <path id="Path_982" data-name="Path 982" d="M155.873,36.182a18.091,18.091,0,1,1,18.091-18.091A18.112,18.112,0,0,1,155.873,36.182Zm0-31.659a13.568,13.568,0,1,0,13.568,13.568A13.583,13.583,0,0,0,155.873,4.523Z" transform="translate(-89.769)" fill="#104CE5"/>
    <path id="Path_983" data-name="Path 983" d="M95.5,342.685h-58.8a2.26,2.26,0,0,1-2.261-2.261V324.857a6.782,6.782,0,0,1,3.116-5.733c16.982-10.594,40.12-10.591,57.085,0a6.785,6.785,0,0,1,3.118,5.735v15.567A2.26,2.26,0,0,1,95.5,342.685Zm-56.535-4.523H93.241V324.857a2.231,2.231,0,0,0-.992-1.9c-15.527-9.693-36.752-9.7-52.292,0a2.227,2.227,0,0,0-.989,1.9Z" transform="translate(0 -270.32)" fill="#104CE5"/>
  </g>
</svg>
