<svg xmlns="http://www.w3.org/2000/svg" width="817" height="807" viewBox="0 0 817 807">
  <g id="date" transform="translate(10854 4644)" opacity="0.25">
    <ellipse id="Ellipse_1098" data-name="Ellipse 1098" cx="408.5" cy="403.5" rx="408.5" ry="403.5" transform="translate(-10854 -4644)" fill="#fff"/>
    <g id="appointment" transform="translate(-10701 -4496)">
      <g id="Group_1131" data-name="Group 1131">
        <g id="Group_1130" data-name="Group 1130">
          <path id="Path_830" data-name="Path 830" d="M462,44H414.333V30a30,30,0,0,0-60,0V44h-168V30a30,30,0,0,0-60,0V44.37a9.978,9.978,0,0,0-2.666-.37H83.823a50.057,50.057,0,0,0-50,50V264.333a10,10,0,0,0,20,0V147h360.51a10,10,0,0,0,0-20H53.823V94a30.034,30.034,0,0,1,30-30h39.844a10.019,10.019,0,0,0,2.666-.37V76.5a30,30,0,0,0,60,0V64h168V76.5a30,30,0,0,0,60,0V64H462a30.034,30.034,0,0,1,30,30V473.994a18.006,18.006,0,0,1-36.012,0V448.125a10,10,0,0,0-10-10H329.667a10,10,0,0,0,0,20H435.988v15.869A37.775,37.775,0,0,0,440.533,492H38a18.021,18.021,0,0,1-18-18V458.125H243.825a10,10,0,0,0,0-20H143.909a82,82,0,1,0-106.86,0H10a10,10,0,0,0-10,10V474a38.043,38.043,0,0,0,38,38H473.994A38.049,38.049,0,0,0,512,473.994V94A50.057,50.057,0,0,0,462,44ZM166.333,76.5a10,10,0,0,1-20,0V30a10,10,0,0,1,20,0Zm228,0a10,10,0,0,1-20,0V30a10,10,0,0,1,20,0ZM28.479,376a62,62,0,1,1,62,62A62.07,62.07,0,0,1,28.479,376Z" fill="#0337bb"/>
        </g>
      </g>
      <g id="Group_1133" data-name="Group 1133">
        <g id="Group_1132" data-name="Group 1132">
          <path id="Path_831" data-name="Path 831" d="M468.309,129.93A9.992,9.992,0,1,0,471.24,137,10.072,10.072,0,0,0,468.309,129.93Z" fill="#0337bb"/>
        </g>
      </g>
      <g id="Group_1135" data-name="Group 1135">
        <g id="Group_1134" data-name="Group 1134">
          <path id="Path_832" data-name="Path 832" d="M298.649,441.05a10,10,0,1,0,2.931,7.07A10.062,10.062,0,0,0,298.649,441.05Z" fill="#0337bb"/>
        </g>
      </g>
      <g id="Group_1137" data-name="Group 1137">
        <g id="Group_1136" data-name="Group 1136">
          <path id="Path_833" data-name="Path 833" d="M226.245,304a38,38,0,1,0,38,38A38.043,38.043,0,0,0,226.245,304Zm0,56a18,18,0,1,1,18-18A18.021,18.021,0,0,1,226.245,360Z" fill="#0337bb"/>
        </g>
      </g>
      <g id="Group_1139" data-name="Group 1139">
        <g id="Group_1138" data-name="Group 1138">
          <path id="Path_834" data-name="Path 834" d="M319.578,304a38,38,0,1,0,38,38A38.043,38.043,0,0,0,319.578,304Zm0,56a18,18,0,1,1,18-18A18.021,18.021,0,0,1,319.578,360Z" fill="#0337bb"/>
        </g>
      </g>
      <g id="Group_1141" data-name="Group 1141">
        <g id="Group_1140" data-name="Group 1140">
          <path id="Path_835" data-name="Path 835" d="M412.912,304a38,38,0,1,0,38,38A38.043,38.043,0,0,0,412.912,304Zm0,56a18,18,0,1,1,18-18A18.021,18.021,0,0,1,412.912,360Z" fill="#0337bb"/>
        </g>
      </g>
      <g id="Group_1143" data-name="Group 1143">
        <g id="Group_1142" data-name="Group 1142">
          <path id="Path_836" data-name="Path 836" d="M132.912,200a38,38,0,1,0,38,38A38.043,38.043,0,0,0,132.912,200Zm0,56a18,18,0,1,1,18-18A18.021,18.021,0,0,1,132.912,256Z" fill="#0337bb"/>
        </g>
      </g>
      <g id="Group_1145" data-name="Group 1145">
        <g id="Group_1144" data-name="Group 1144">
          <path id="Path_837" data-name="Path 837" d="M319.578,200a38,38,0,1,0,38,38A38.043,38.043,0,0,0,319.578,200Zm0,56a18,18,0,1,1,18-18A18.021,18.021,0,0,1,319.578,256Z" fill="#0337bb"/>
        </g>
      </g>
      <g id="Group_1147" data-name="Group 1147">
        <g id="Group_1146" data-name="Group 1146">
          <path id="Path_838" data-name="Path 838" d="M412.912,200a38,38,0,1,0,38,38A38.043,38.043,0,0,0,412.912,200Zm0,56a18,18,0,1,1,18-18A18.021,18.021,0,0,1,412.912,256Z" fill="#0337bb"/>
        </g>
      </g>
      <g id="Group_1149" data-name="Group 1149">
        <g id="Group_1148" data-name="Group 1148">
          <path id="Path_839" data-name="Path 839" d="M226.245,200a38,38,0,1,0,38,38A38.043,38.043,0,0,0,226.245,200Zm0,56a18,18,0,1,1,18-18A18.021,18.021,0,0,1,226.245,256Z" fill="#0337bb"/>
        </g>
      </g>
      <g id="Group_1151" data-name="Group 1151">
        <g id="Group_1150" data-name="Group 1150">
          <path id="Path_840" data-name="Path 840" d="M126.1,351.629a10,10,0,0,0-14.143,0L79.395,384.2,68.266,373.067A10,10,0,0,0,54.123,387.21l18.2,18.2a10,10,0,0,0,14.142,0L126.1,365.771A10,10,0,0,0,126.1,351.629Z" fill="#0337bb"/>
        </g>
      </g>
    </g>
  </g>
</svg>
