<svg xmlns="http://www.w3.org/2000/svg" width="40" height="40" viewBox="0 0 40 40">
  <g id="portal" transform="translate(-960 -160)">
    <circle id="Ellipse_319" data-name="Ellipse 319" cx="20" cy="20" r="20" transform="translate(960 160)" fill="#3742fa"/>
    <g id="system" transform="translate(971 171)">
      <g id="Group_657" data-name="Group 657" transform="translate(0 0)">
        <g id="Group_656" data-name="Group 656" transform="translate(0 0)">
          <path id="Path_1053" data-name="Path 1053" d="M18.192,169.867h-.308v-9.558a.308.308,0,0,0-.308-.308H.925a.308.308,0,0,0-.308.308v9.558H.308a.308.308,0,0,0-.308.308v.617a1.544,1.544,0,0,0,1.542,1.542H16.958a1.544,1.544,0,0,0,1.542-1.542v-.617A.308.308,0,0,0,18.192,169.867Zm-16.958-9.25H17.267v9.25h-5.55a.312.312,0,0,0-.218.091l-.526.526H7.528L7,169.957a.312.312,0,0,0-.218-.091H1.233Zm16.65,10.175a.925.925,0,0,1-.925.925H1.542a.925.925,0,0,1-.925-.925v-.308H6.656l.526.526a.308.308,0,0,0,.218.09h3.7a.308.308,0,0,0,.218-.09l.526-.526h6.039Z" transform="translate(0 -153.833)" fill="#f5f6fa"/>
          <path id="Path_1054" data-name="Path 1054" d="M45.266,190.255l3.717-3.407,3.7,2.155,2.734-2.735V184H40v7.106l3.091-2.4Zm-4.649-.41v-5.228H54.8v1.4l-2.217,2.218L48.9,186.086l-3.683,3.376-2.142-1.53Z" transform="translate(-38.458 -176.908)" fill="#f5f6fa"/>
          <path id="Path_1055" data-name="Path 1055" d="M104.308,5.858a.308.308,0,0,0,.308-.308V4.886l1.071-.179a.308.308,0,0,0,.249-.235,3.328,3.328,0,0,1,.423-1.024.308.308,0,0,0-.01-.343l-.631-.882.5-.5.882.631a.308.308,0,0,0,.343.01,3.328,3.328,0,0,1,1.023-.423.308.308,0,0,0,.235-.249l.18-1.071h.711l.179,1.071a.308.308,0,0,0,.235.249,3.328,3.328,0,0,1,1.024.423.308.308,0,0,0,.343-.01l.882-.631.5.5-.631.882a.308.308,0,0,0-.01.343,3.327,3.327,0,0,1,.423,1.023.308.308,0,0,0,.249.235l1.071.179V5.55a.308.308,0,0,0,.617,0V4.625a.308.308,0,0,0-.257-.3l-1.13-.189a3.965,3.965,0,0,0-.343-.832l.666-.931a.308.308,0,0,0-.033-.4l-.873-.873a.308.308,0,0,0-.4-.033l-.931.667a3.967,3.967,0,0,0-.833-.344L110.163.257a.308.308,0,0,0-.3-.257h-1.233a.308.308,0,0,0-.3.257l-.189,1.13a3.966,3.966,0,0,0-.833.343l-.931-.665a.308.308,0,0,0-.4.033l-.873.873a.308.308,0,0,0-.033.4l.666.931a3.967,3.967,0,0,0-.344.832l-1.131.189a.308.308,0,0,0-.257.3V5.55A.308.308,0,0,0,104.308,5.858Z" transform="translate(-99.992 0)" fill="#f5f6fa"/>
          <path id="Path_1056" data-name="Path 1056" d="M180.317,74.467a.308.308,0,1,0,.617,0,2.467,2.467,0,1,0-4.933,0,.308.308,0,0,0,.617,0,1.85,1.85,0,0,1,3.7,0Z" transform="translate(-169.217 -69.225)" fill="#f5f6fa"/>
          <path id="Path_1057" data-name="Path 1057" d="M208,105.233a.308.308,0,1,0,.617,0,.617.617,0,1,1,1.233,0,.308.308,0,0,0,.617,0,1.233,1.233,0,1,0-2.467,0Z" transform="translate(-199.983 -99.992)" fill="#f5f6fa"/>
          <path id="Path_1058" data-name="Path 1058" d="M55.417,276.933V272H54.8v4.625h-.617v-3.392h-.617v3.392H52.95v-2.467h-.617v2.467h-.617v-3.083H51.1v3.083h-.617v-3.7h-.617v3.7H49.25v-4.317h-.617v4.317h-.617v-3.083H47.4v3.083h-.617v-1.85h-.617v1.85H45.55v-1.233h-.617v1.233h-.617v-1.85H43.7v1.85h-.617v-2.158h-.617v2.158H41.85v-1.233h-.617v1.233h-.617v-.308H40v.925H55.417Z" transform="translate(-38.458 -261.517)" fill="#f5f6fa"/>
        </g>
      </g>
    </g>
  </g>
</svg>
