<svg xmlns="http://www.w3.org/2000/svg" width="10.435" height="10.435" viewBox="0 0 10.435 10.435">
  <g id="dashboard" transform="translate(0 0)">
    <path id="Path_577" data-name="Path 577" d="M4.022,3.479H.761A.762.762,0,0,1,0,2.718V.761A.762.762,0,0,1,.761,0H4.022a.762.762,0,0,1,.761.761V2.718A.762.762,0,0,1,4.022,3.479ZM.761.652A.109.109,0,0,0,.652.761V2.718a.109.109,0,0,0,.109.109H4.022a.109.109,0,0,0,.109-.109V.761A.109.109,0,0,0,4.022.652Zm0,0"/>
    <path id="Path_578" data-name="Path 578" d="M4.022,219.419H.761A.762.762,0,0,1,0,218.659v-4.566a.762.762,0,0,1,.761-.761H4.022a.762.762,0,0,1,.761.761v4.566A.762.762,0,0,1,4.022,219.419ZM.761,213.984a.109.109,0,0,0-.109.109v4.566a.109.109,0,0,0,.109.109H4.022a.109.109,0,0,0,.109-.109v-4.566a.109.109,0,0,0-.109-.109Zm0,0" transform="translate(0 -208.984)"/>
    <path id="Path_579" data-name="Path 579" d="M281.354,344.811h-3.261a.762.762,0,0,1-.761-.761v-1.957a.762.762,0,0,1,.761-.761h3.261a.762.762,0,0,1,.761.761v1.957A.762.762,0,0,1,281.354,344.811Zm-3.261-2.826a.109.109,0,0,0-.109.109v1.957a.109.109,0,0,0,.109.109h3.261a.109.109,0,0,0,.109-.109v-1.957a.109.109,0,0,0-.109-.109Zm0,0" transform="translate(-271.68 -334.375)"/>
    <path id="Path_580" data-name="Path 580" d="M281.354,6.087h-3.261a.762.762,0,0,1-.761-.761V.761A.762.762,0,0,1,278.093,0h3.261a.762.762,0,0,1,.761.761V5.326A.762.762,0,0,1,281.354,6.087ZM278.093.652a.109.109,0,0,0-.109.109V5.326a.109.109,0,0,0,.109.109h3.261a.109.109,0,0,0,.109-.109V.761a.109.109,0,0,0-.109-.109Zm0,0" transform="translate(-271.68)"/>
  </g>
</svg>
