<svg id="power" xmlns="http://www.w3.org/2000/svg" width="21.125" height="23.045" viewBox="0 0 21.125 23.045">
  <path id="Path_602" data-name="Path 602" d="M219.388,7.682a.72.72,0,0,1-.72-.72V.72a.72.72,0,1,1,1.44,0V6.962A.72.72,0,0,1,219.388,7.682Zm0,0" transform="translate(-208.826)"/>
  <path id="Path_603" data-name="Path 603" d="M10.563,76.205a10.566,10.566,0,0,1-3.608-20.5.72.72,0,1,1,.495,1.353,9.122,9.122,0,1,0,6.227,0,.72.72,0,0,1,.494-1.353,10.566,10.566,0,0,1-3.608,20.5Zm0,0" transform="translate(0 -53.16)"/>
</svg>
