<svg xmlns="http://www.w3.org/2000/svg" width="15.916" height="16" viewBox="0 0 15.916 16">
  <g id="products" transform="translate(-2 -2)">
    <path id="Path_591" data-name="Path 591" d="M17.773,42.773a1.065,1.065,0,0,0-1.455-.392l-2.6,1.5a1.057,1.057,0,0,0-.6-.434L9.136,42.382a1.87,1.87,0,0,0-.936-.008l-1.4.351v-.458A.267.267,0,0,0,6.533,42H4.4a.267.267,0,0,0-.267.267v.267H2.267A.267.267,0,0,0,2,42.8v3.733a.267.267,0,0,0,.267.267H4.133v.267a.267.267,0,0,0,.267.267H6.533a.267.267,0,0,0,.267-.267V46.7l.343.171a1.874,1.874,0,0,0,.835.2h3.994a1.87,1.87,0,0,0,.933-.25l4.48-2.587a1.07,1.07,0,0,0,.388-1.457ZM2.533,46.267v-3.2h1.6v3.2Zm3.733.533h-1.6V42.533h1.6Zm10.851-3.031-4.48,2.587a1.333,1.333,0,0,1-.667.179H7.978a1.341,1.341,0,0,1-.6-.141L6.8,46.1V43.275l1.529-.382A1.333,1.333,0,0,1,9,42.9l3.979,1.067A.533.533,0,1,1,12.7,45L9.52,44.142a.267.267,0,1,0-.138.515l3.18.853a1.078,1.078,0,0,0,.278.037A1.054,1.054,0,0,0,13.9,44.4l2.686-1.551a.543.543,0,0,1,.727.2A.535.535,0,0,1,17.117,43.769Z" transform="translate(0 -29.333)"/>
    <path id="Path_592" data-name="Path 592" d="M20.8,12.133h8.533a.8.8,0,0,0,.8-.8V2.8a.8.8,0,0,0-.8-.8H20.8a.8.8,0,0,0-.8.8v8.533A.8.8,0,0,0,20.8,12.133Zm5.333-9.6V6.6L25.2,6.038a.267.267,0,0,0-.275,0L24,6.6V2.533Zm-5.6.267a.267.267,0,0,1,.267-.267h2.667V7.067a.267.267,0,0,0,.4.229l1.2-.718,1.2.718a.267.267,0,0,0,.4-.229V2.533h2.667A.267.267,0,0,1,29.6,2.8v8.533a.267.267,0,0,1-.267.267H20.8a.267.267,0,0,1-.267-.267Z" transform="translate(-13.2)"/>
  </g>
</svg>
