<svg xmlns="http://www.w3.org/2000/svg" width="12.25" height="13.289" viewBox="0 0 12.25 13.289">
  <path id="purchase-order" d="M4.657-.111v4.5H6.915v-4.5A1.133,1.133,0,0,0,5.786-1.24,1.133,1.133,0,0,0,4.657-.111ZM-.9,1.854a.389.389,0,0,1,0-.55.389.389,0,0,1,.551,0l.213.213L.557.828a1.205,1.205,0,0,0-1.589.1,1.205,1.205,0,0,0,0,1.7,1.205,1.205,0,0,0,1.7,0A1.205,1.205,0,0,0,.991,1.495l-.848.848a.39.39,0,0,1-.551,0ZM1.11.275,1.6-.214a.389.389,0,0,1,.551.551L1.593.892a1.984,1.984,0,0,1-.371,2.292,1.983,1.983,0,0,1-2.805,0,1.984,1.984,0,0,1,0-2.805A1.983,1.983,0,0,1,1.11.275Zm-3.72,8.14A.389.389,0,0,0-3,8.8a.389.389,0,0,0,.389.389A.389.389,0,0,0-2.221,8.8.389.389,0,0,0-2.61,8.415Zm1.557.779A.389.389,0,0,1-1.442,8.8a.389.389,0,0,1,.389-.389H2.71a.389.389,0,0,1,0,.779ZM-2.61,6.858A.389.389,0,0,0-3,7.247a.389.389,0,0,0,.389.389.389.389,0,0,0,.389-.389A.389.389,0,0,0-2.61,6.858Zm1.557.779a.389.389,0,0,1-.389-.389.389.389,0,0,1,.389-.389H2.71a.389.389,0,0,1,0,.779Zm5.71-2.466v5.71a.389.389,0,0,1-.389.389H-4.168a.389.389,0,0,1-.389-.389V-.15A1.872,1.872,0,0,1-2.688-2.019H5.786A1.912,1.912,0,0,1,7.693-.111V4.781a.389.389,0,0,1-.389.389ZM4.25-1.24A1.9,1.9,0,0,0,3.878-.111v10.6H-3.778V-.15a1.093,1.093,0,0,1,1.09-1.09ZM-2.61,5.3A.389.389,0,0,0-3,5.69a.389.389,0,0,0,.389.389.389.389,0,0,0,.389-.389A.389.389,0,0,0-2.61,5.3Zm1.557.779H2.71a.389.389,0,0,0,0-.779H-1.053a.389.389,0,0,0-.389.389A.389.389,0,0,0-1.053,6.079Zm0,0" transform="translate(4.557 2.02)" fill-rule="evenodd"/>
</svg>
