<svg xmlns="http://www.w3.org/2000/svg" width="15.223" height="18.017" viewBox="0 0 15.223 18.017">
  <g id="qoute-white" transform="matrix(1, 0.017, -0.017, 1, 0.313, -0.083)">
    <path id="Path_557" data-name="Path 557" d="M2.578,8.054a13.642,13.642,0,0,0,4.535,3.551,6.765,6.765,0,0,0,2.444.73c.054,0,.108,0,.155,0a1.712,1.712,0,0,0,1.317-.559l.008-.009a7.762,7.762,0,0,1,.566-.586l.068-.066c.106-.1.206-.2.307-.309a.841.841,0,0,0-.008-1.294L10.309,7.854l0,0a.862.862,0,0,0-.615-.3.907.907,0,0,0-.633.3L8.027,8.885a.4.4,0,0,1-.281.135.4.4,0,0,1-.182-.047h0l-.026-.015c-.1-.059-.2-.111-.312-.167a3.9,3.9,0,0,1-.349-.19A10.81,10.81,0,0,1,4.259,6.218l-.008-.009A6.378,6.378,0,0,1,3.322,4.7l-.006-.017a.366.366,0,0,1,.1-.43l.007-.007h0c.258-.232.492-.464.764-.742.06-.058.118-.117.174-.174l.085-.086a.823.823,0,0,0,0-1.29l-.822-.822L3.479.981,3.337.836c-.2-.207-.37-.379-.549-.546L2.782.285A.877.877,0,0,0,2.164,0a.931.931,0,0,0-.63.282L1.529.288.5,1.316A1.628,1.628,0,0,0,.011,2.368a4.527,4.527,0,0,0,.353,2A12.5,12.5,0,0,0,2.578,8.054Zm6.836.155a.46.46,0,0,1,.278-.153.386.386,0,0,1,.249.138l.009.009,1.667,1.667a.351.351,0,0,1,.008.581.252.252,0,0,0-.027.028l-.027.028L9.342,8.28ZM1.88.645A.447.447,0,0,1,2.164.5a.407.407,0,0,1,.262.137l.01.01.006.006c.172.161.338.328.534.531l.145.148.142.145,0,0,.823.823c.222.222.222.358,0,.58l-.071.072L1.794.732ZM.512,2.41a1.13,1.13,0,0,1,.344-.74l.584-.584L3.664,3.312c-.2.2-.384.381-.581.558h0a.285.285,0,0,0-.036.036.863.863,0,0,0-.206.925v0l.009.027.006.016A6.857,6.857,0,0,0,3.864,6.528l.012.014A11.3,11.3,0,0,0,6.608,9.024,4.354,4.354,0,0,0,7,9.239c.1.052.2.1.278.149l.015.008,0,0,.039.022a.9.9,0,0,0,.411.1.882.882,0,0,0,.636-.282l.605-.605,2.227,2.227a7.893,7.893,0,0,0-.555.578,1.2,1.2,0,0,1-.947.4c-.042,0-.085,0-.123,0a6.3,6.3,0,0,1-2.259-.681A13.142,13.142,0,0,1,2.964,7.732,12.018,12.018,0,0,1,.834,4.189,4.063,4.063,0,0,1,.512,2.41Z" transform="translate(0 5.55)" fill="#fff"/>
    <path id="Path_558" data-name="Path 558" d="M.13,5.127,2.822,6.68a.254.254,0,0,0,.253,0L5.76,5.127a.247.247,0,0,0,.121-.217V1.8a.247.247,0,0,0-.121-.217L3.073.034a.249.249,0,0,0-.25,0L.13,1.586A.255.255,0,0,0,0,1.8V4.909a.256.256,0,0,0,.13.217Zm5.249-.362L3.191,6.027V3.5L5.379,2.238ZM5.137,1.8,2.95,3.067l-.869-.5L4.268,1.3ZM2.95.541l.816.471L1.578,2.275.762,1.8ZM.5,2.238,2.689,3.5V6.027L.5,4.764Z" transform="translate(6.883 1.724)" fill="#fff"/>
    <path id="Path_559" data-name="Path 559" d="M2.348,9.364,1.9,11.019a.251.251,0,0,0,.386.271l1.762-1.235a5.082,5.082,0,1,0-1.7-.692ZM5.08.5a4.578,4.578,0,1,1-1.03,9.04.251.251,0,0,0-.2.039l-1.284.9.316-1.168a.251.251,0,0,0-.115-.282A4.579,4.579,0,0,1,5.081.5Z" transform="translate(4.752 0)" fill="#fff"/>
  </g>
</svg>
