<svg xmlns="http://www.w3.org/2000/svg" width="13.145" height="18.815" viewBox="0 0 13.145 18.815">
  <g id="sales" transform="translate(-79.65 0.35)">
    <path id="Path_581" data-name="Path 581" d="M91.738,0H80.707A.707.707,0,0,0,80,.707V17.394a.708.708,0,0,0,1.213.494l2.251-2.309,2.251,2.309a.707.707,0,0,0,1.013,0l2.251-2.309,2.251,2.309a.708.708,0,0,0,1.213-.494V.707A.707.707,0,0,0,91.738,0Zm-.707,15.656-1.544-1.584a.707.707,0,0,0-1.013,0l-2.251,2.309-2.251-2.309a.707.707,0,0,0-1.013,0l-1.544,1.584V1.414h9.617Zm-8.2-4.555a.707.707,0,0,1,.707-.707h2.687a.707.707,0,1,1,0,1.414H83.536A.707.707,0,0,1,82.828,11.1Zm0-6.93a.707.707,0,0,1,.707-.707H88.91a.707.707,0,0,1,0,1.414H83.536A.707.707,0,0,1,82.828,4.171Zm0,3.465a.707.707,0,0,1,.707-.707H88.91a.707.707,0,0,1,0,1.414H83.536A.707.707,0,0,1,82.828,7.636Z" fill="none" stroke="#333" stroke-width="0.7"/>
  </g>
</svg>
