<svg xmlns="http://www.w3.org/2000/svg" width="34" height="31" viewBox="0 0 34 31">
  <g id="bag" transform="translate(-1766 -19)">
    <g id="shopping-basket" transform="translate(1766 22)">
      <path id="Path_33" data-name="Path 33" d="M28,11.8a3.02,3.02,0,0,0-3.017-3.017H24.05L21.182,1.862a3.017,3.017,0,1,0-5.574,2.309l1.911,4.615H10.483l1.911-4.615A3.017,3.017,0,1,0,6.82,1.862L3.952,8.786H3.017a3.017,3.017,0,0,0-.73,5.944l1.384,10.38A3.406,3.406,0,0,0,6.971,28H21.03a3.406,3.406,0,0,0,3.3-2.889L25.714,14.73A3.022,3.022,0,0,0,28,11.8ZM17.123,3.544A1.376,1.376,0,1,1,19.666,2.49l2.608,6.3H19.295ZM8.335,2.49a1.376,1.376,0,1,1,2.543,1.053L8.707,8.786H5.727ZM22.7,24.894a1.761,1.761,0,0,1-1.674,1.465H6.971A1.76,1.76,0,0,1,5.3,24.894L3.954,14.82H24.047Zm2.28-11.715H3.017a1.376,1.376,0,1,1,0-2.753H24.984a1.376,1.376,0,1,1,0,2.753Zm0,0" transform="translate(0 0)"/>
      <path id="Path_34" data-name="Path 34" d="M241.821,321.32a.821.821,0,0,0-.821.82v4.393a.82.82,0,0,0,1.641,0V322.14A.821.821,0,0,0,241.821,321.32Zm0,0" transform="translate(-227.82 -303.748)"/>
      <path id="Path_35" data-name="Path 35" d="M322.156,321.32a.82.82,0,0,0-.82.82v4.393a.82.82,0,0,0,1.641,0V322.14A.82.82,0,0,0,322.156,321.32Zm0,0" transform="translate(-303.762 -303.748)"/>
      <path id="Path_36" data-name="Path 36" d="M161.488,321.32a.82.82,0,0,0-.82.82v4.393a.82.82,0,0,0,1.641,0V322.14A.82.82,0,0,0,161.488,321.32Zm0,0" transform="translate(-151.881 -303.748)"/>
    </g>
    <circle id="Ellipse_4" data-name="Ellipse 4" cx="8" cy="8" r="8" transform="translate(1784 19)" fill="#ea2027"/>
  </g>
</svg>
