<svg xmlns="http://www.w3.org/2000/svg" width="140" height="39" viewBox="0 0 140 39">
  <g id="bag" transform="translate(-1715 -19)">
    <rect id="Rectangle_13" data-name="Rectangle 13" width="140" height="39" transform="translate(1715 19)" fill="#fff"/>
    <path id="bag-2" data-name="bag" d="M23.254,25.99,21.211,6.54a.8.8,0,0,0-.8-.716H16.577V4.948a4.948,4.948,0,0,0-9.9,0v.875H2.842a.8.8,0,0,0-.8.716L0,25.99a.8.8,0,0,0,.8.883H22.458a.8.8,0,0,0,.8-.883ZM8.28,4.948a3.349,3.349,0,0,1,6.7,0v.875H8.28ZM1.688,25.273,3.562,7.423H6.681V9.186a.8.8,0,1,0,1.6,0V7.423h6.7V9.186a.8.8,0,0,0,1.6,0V7.423H19.7l1.875,17.85Zm0,0" transform="translate(1773 25)"/>
  </g>
</svg>
