<svg xmlns="http://www.w3.org/2000/svg" width="43.968" height="18.301" viewBox="0 0 43.968 18.301">
  <g id="menu" transform="translate(0.001 -100.943)">
    <g id="Menu_1_" transform="translate(0 96.243)">
      <path id="Path_29" data-name="Path 29" d="M1.374,98.243H42.593c.758,0,1.374-.448,1.374-1s-.616-1-1.374-1H1.374c-.758,0-1.374.448-1.374,1S.616,98.243,1.374,98.243Z" transform="translate(0 -91.543)"/>
      <path id="Path_30" data-name="Path 30" d="M29.531,180.455H.953a.936.936,0,1,0,0,1.871H29.531a.936.936,0,1,0,0-1.871Z" transform="translate(0 -167.493)"/>
      <path id="Path_31" data-name="Path 31" d="M140.393,264.667H121.26a1.057,1.057,0,0,0,0,2.1h19.133a1.057,1.057,0,0,0,0-2.1Z" transform="translate(-120.304 -243.771)"/>
    </g>
  </g>
</svg>
