<svg xmlns="http://www.w3.org/2000/svg" width="876" height="876" viewBox="0 0 876 876">
  <g id="catergory" transform="translate(-1229 -1264)">
    <g id="Ellipse_332" data-name="Ellipse 332" transform="translate(1229 1264)" fill="#104ce5" stroke="#707070" stroke-width="1">
      <circle cx="438" cy="438" r="438" stroke="none"/>
      <circle cx="438" cy="438" r="437.5" fill="none"/>
    </g>
    <g id="folder" transform="translate(1500 1481.667)">
      <g id="Group_798" data-name="Group 798" transform="translate(0 21.333)">
        <path id="Path_1085" data-name="Path 1085" d="M350.45,164.7H334.52V148.77a31.891,31.891,0,0,0-31.859-31.859V93.016a7.96,7.96,0,0,0-2.333-5.632L236.61,23.666a7.959,7.959,0,0,0-5.632-2.333H111.507A31.891,31.891,0,0,0,79.647,53.192V85.031l-47.789.02A31.891,31.891,0,0,0,0,116.91V339.924a31.752,31.752,0,0,0,2.287,11.76l7.326-2.909.078.023-7.374,2.955a31.712,31.712,0,0,0,29.542,20.029h270.8a31.751,31.751,0,0,0,30.568-23.109c.07-.171.132-.342.187-.521L380.739,206.4a7.819,7.819,0,0,0,.327-1.384,30.921,30.921,0,0,0,1.243-8.462A31.891,31.891,0,0,0,350.45,164.7ZM302.661,132.84A15.95,15.95,0,0,1,318.59,148.77V164.7H302.661ZM238.943,48.525l36.526,36.526h-20.6a15.95,15.95,0,0,1-15.929-15.929v-20.6ZM95.577,53.192a15.95,15.95,0,0,1,15.929-15.929H223.013V69.122a31.891,31.891,0,0,0,31.859,31.859h31.859V164.7H95.577ZM15.929,116.91a15.95,15.95,0,0,1,15.929-15.929l47.789-.02V164.7a31.64,31.64,0,0,0-30.895,24.213c-.016.055-.039.116-.055.171L15.929,299.654Zm349.595,84.454a8.773,8.773,0,0,0-.257,1.081L318.63,342.157a7.548,7.548,0,0,0-.568,1.571,15.854,15.854,0,0,1-15.4,12.126H31.859A15.82,15.82,0,0,1,18.2,348.06l45.611-153.9a8.95,8.95,0,0,0,.327-1.1,15.81,15.81,0,0,1,15.51-12.437h270.8a15.95,15.95,0,0,1,15.929,15.929A15.63,15.63,0,0,1,365.524,201.365Z" transform="translate(0 -21.333)" fill="#fff"/>
      </g>
    </g>
  </g>
</svg>
