<svg xmlns="http://www.w3.org/2000/svg" width="876" height="876" viewBox="0 0 876 876">
  <g id="created" transform="translate(-245 -1041)">
    <g id="Ellipse_331" data-name="Ellipse 331" transform="translate(245 1041)" fill="#104ce5" stroke="#707070" stroke-width="1">
      <circle cx="438" cy="438" r="438" stroke="none"/>
      <circle cx="438" cy="438" r="437.5" fill="none"/>
    </g>
    <g id="add-documents" transform="translate(497.812 1268)">
      <g id="Group_797" data-name="Group 797" transform="translate(5.188)">
        <path id="Path_1083" data-name="Path 1083" d="M365.833,138.048a12.57,12.57,0,0,0-.662-3.272l-.393-1.049a12.093,12.093,0,0,0-2.5-3.689l-126.4-126.4A12.708,12.708,0,0,0,232.064,1.1c-.262-.107-.519-.2-.948-.34A12.212,12.212,0,0,0,227.707.1l-.626-.1H143.57A54.519,54.519,0,0,0,89.11,54.46v7.325H59.642a54.525,54.525,0,0,0-54.454,54.46v251.9A54.525,54.525,0,0,0,59.642,422.6H227.576a54.525,54.525,0,0,0,54.454-54.46v-7.331h29.462a54.519,54.519,0,0,0,54.46-54.46V138.883ZM239.544,42.587l83.809,83.821H269.048a29.537,29.537,0,0,1-29.5-29.51l-.006-54.311Zm17.529,325.55a29.542,29.542,0,0,1-29.5,29.51H59.636a29.542,29.542,0,0,1-29.5-29.51v-251.9a29.542,29.542,0,0,1,29.5-29.51h71.036v71.942a54.519,54.519,0,0,0,54.46,54.46h71.942ZM155.622,158.677v-54.3l83.815,83.809h-54.3A29.541,29.541,0,0,1,155.622,158.677ZM341,306.346a29.542,29.542,0,0,1-29.5,29.51H282.03v-135.2l-.119-.817a12.668,12.668,0,0,0-.656-3.26l-.429-1.127a12.24,12.24,0,0,0-2.444-3.6L151.962,65.415a11.928,11.928,0,0,0-3.487-2.372,9.23,9.23,0,0,0-1.234-.477,12.016,12.016,0,0,0-3.26-.662v.024l-.828-.137H114.06V54.466a29.543,29.543,0,0,1,29.51-29.51h71.036V96.9a54.513,54.513,0,0,0,54.448,54.46H341Z" transform="translate(-5.188)" fill="#fff"/>
        <path id="Path_1084" data-name="Path 1084" d="M94.988,48.668a11.921,11.921,0,0,0-23.842,0V91.416H28.4a11.921,11.921,0,0,0,0,23.842H71.147V158a11.921,11.921,0,1,0,23.842,0V115.257h42.754a11.921,11.921,0,1,0,0-23.842H94.988Z" transform="translate(50.815 182.279)" fill="#fff"/>
      </g>
    </g>
  </g>
</svg>
