<svg xmlns="http://www.w3.org/2000/svg" xmlns:xlink="http://www.w3.org/1999/xlink" width="24" height="23" viewBox="0 0 24 23">
  <defs>
    <filter id="Rectangle_235" x="-9" y="-9" width="42" height="41" filterUnits="userSpaceOnUse">
      <feOffset input="SourceAlpha"/>
      <feGaussianBlur stdDeviation="3" result="blur"/>
      <feFlood flood-opacity="0.161"/>
      <feComposite operator="in" in2="blur"/>
      <feComposite in="SourceGraphic"/>
    </filter>
    <clipPath id="clip-path">
      <g transform="matrix(1, 0, 0, 1, 0, 0)" filter="url(#Rectangle_235)">
        <rect id="Rectangle_235-2" data-name="Rectangle 235" width="24" height="23" transform="translate(0.06 -0.05)" fill="#fff"/>
      </g>
    </clipPath>
  </defs>
  <g id="selectbrand" transform="translate(-0.061 0.046)" clip-path="url(#clip-path)">
    <g id="price-tag_1_" data-name="price-tag (1)" transform="translate(1.029 -0.139)">
      <g id="Group_557" data-name="Group 557" transform="translate(0)">
        <path id="Path_1027" data-name="Path 1027" d="M94.7,0H89.159L78.874,10.252,88.86,20.259l10.273-10.24v-5.6Zm-.613,6.256a1.235,1.235,0,1,1,1.235-1.235A1.235,1.235,0,0,1,94.091,6.256Z" transform="translate(-76.414)" fill="#e7d4b1"/>
        <path id="Path_1028" data-name="Path 1028" d="M13.99,280.506l-2.473,2.466L21.5,292.979l2.484-2.477Z" transform="translate(-11.518 -270.259)" fill="#d3c2a4"/>
        <path id="Path_1029" data-name="Path 1029" d="M418.482,59.272a1.235,1.235,0,1,1-1.235,1.235,1.235,1.235,0,0,1,1.235-1.235m0-1.683a2.918,2.918,0,1,0,2.918,2.918,2.921,2.921,0,0,0-2.918-2.918Z" transform="translate(-400.805 -55.486)" fill="#cbb292"/>
      </g>
      <g id="Group_559" data-name="Group 559" transform="translate(8.625 15.567)">
        <g id="Group_558" data-name="Group 558">
          <path id="Path_1030" data-name="Path 1030" d="M268.228,440.67a2.988,2.988,0,0,0-2.945-2.992,2.927,2.927,0,0,0-2.535,1.492,1.767,1.767,0,0,0-.562-.093,1.826,1.826,0,0,0-1.77,1.466,2.265,2.265,0,0,0-1.252,2.032,2.23,2.23,0,0,0,2.191,2.255h4.533c.026,0,.05,0,.076,0s.05,0,.076,0h1.813a2.1,2.1,0,0,0,.375-4.161Z" transform="translate(-258.742 -437.258)" fill="#48a0dc"/>
          <path id="Path_1031" data-name="Path 1031" d="M256.743,434.155H254.93c-.027,0-.053,0-.079,0s-.045,0-.072,0h-4.533a2.647,2.647,0,0,1-2.612-2.675,2.7,2.7,0,0,1,1.311-2.315,2.255,2.255,0,0,1,2.131-1.6,2.163,2.163,0,0,1,.372.032,3.355,3.355,0,0,1,2.726-1.431,3.414,3.414,0,0,1,3.346,3.085,2.528,2.528,0,0,1-.778,4.909Zm-1.909-.845.078,0h1.831a1.684,1.684,0,0,0,.3-3.327l-.336-.065,0-.342A2.577,2.577,0,0,0,254.175,427a2.49,2.49,0,0,0-2.17,1.281l-.172.3-.327-.11a1.341,1.341,0,0,0-.429-.071,1.413,1.413,0,0,0-1.359,1.133l-.043.2-.183.09a1.852,1.852,0,0,0-1.017,1.656,1.8,1.8,0,0,0,1.77,1.834Z" transform="translate(-247.634 -426.161)" fill="#b1d3ef"/>
        </g>
      </g>
    </g>
  </g>
</svg>
