<svg xmlns="http://www.w3.org/2000/svg" xmlns:xlink="http://www.w3.org/1999/xlink" width="194" height="185" viewBox="0 0 194 185">
  <defs>
    <filter id="Rectangle_306" x="-9" y="-9" width="212" height="203" filterUnits="userSpaceOnUse">
      <feOffset input="SourceAlpha"/>
      <feGaussianBlur stdDeviation="3" result="blur"/>
      <feFlood flood-opacity="0.161"/>
      <feComposite operator="in" in2="blur"/>
      <feComposite in="SourceGraphic"/>
    </filter>
    <clipPath id="clip-path">
      <g transform="matrix(1, 0, 0, 1, 0, 0)" filter="url(#Rectangle_306)">
        <rect id="Rectangle_306-2" data-name="Rectangle 306" width="194" height="185" transform="translate(-0.42 -0.05)" fill="#fff"/>
      </g>
    </clipPath>
  </defs>
  <g id="selectbrand" transform="translate(0.418 0.046)" clip-path="url(#clip-path)">
    <g id="price-tag_1_" data-name="price-tag (1)" transform="translate(7.901 -0.799)">
      <g id="Group_581" data-name="Group 581" transform="translate(0)">
        <path id="Path_1088" data-name="Path 1088" d="M206.493,0h-44.7L78.874,82.652l80.5,80.678L242.2,80.776V35.629Zm-4.942,50.438a9.955,9.955,0,1,1,9.955-9.955A9.955,9.955,0,0,1,201.551,50.438Z" transform="translate(-59.038)" fill="#e7d4b1"/>
        <path id="Path_1089" data-name="Path 1089" d="M31.452,280.506,11.518,300.387l80.5,80.678L112.045,361.1Z" transform="translate(-11.518 -197.898)" fill="#d3c2a4"/>
        <path id="Path_1090" data-name="Path 1090" d="M439.088,71.157a9.955,9.955,0,1,1-9.956,9.955,9.955,9.955,0,0,1,9.956-9.955m0-13.568a23.523,23.523,0,1,0,23.523,23.523,23.55,23.55,0,0,0-23.523-23.523Z" transform="translate(-296.574 -40.63)" fill="#cbb292"/>
      </g>
      <g id="Group_583" data-name="Group 583" transform="translate(69.535 125.502)">
        <g id="Group_582" data-name="Group 582">
          <path id="Path_1091" data-name="Path 1091" d="M332.24,461.8c-.173-13.35-10.729-24.12-23.74-24.12a23.6,23.6,0,0,0-20.437,12.028,14.245,14.245,0,0,0-4.535-.747,14.72,14.72,0,0,0-14.274,11.819,18.257,18.257,0,0,0-10.091,16.386c0,10,7.947,18.178,17.665,18.178h36.549c.207,0,.4-.023.611-.03s.4.03.611.03h14.619A16.963,16.963,0,0,0,332.24,461.8Z" transform="translate(-255.768 -434.286)" fill="#48a0dc"/>
          <path id="Path_1092" data-name="Path 1092" d="M321.073,490.608H306.454c-.214,0-.427-.013-.638-.027-.159.013-.366.027-.58.027H268.691c-11.611,0-21.057-9.677-21.057-21.566A21.808,21.808,0,0,1,258.2,450.376a18.18,18.18,0,0,1,17.184-12.933,17.448,17.448,0,0,1,3,.258,27.052,27.052,0,0,1,21.98-11.54c13.914,0,25.521,10.939,26.979,24.87a20.378,20.378,0,0,1-6.272,39.578Zm-15.389-6.815.631.021,14.758.01A13.574,13.574,0,0,0,323.458,457l-2.71-.526-.038-2.758c-.146-11.455-9.27-20.773-20.345-20.773a20.071,20.071,0,0,0-17.5,10.329l-1.387,2.412-2.636-.886a10.807,10.807,0,0,0-3.456-.574,11.388,11.388,0,0,0-10.953,9.131l-.346,1.612-1.476.725a14.934,14.934,0,0,0-8.2,13.348,14.552,14.552,0,0,0,14.273,14.782Z" transform="translate(-247.634 -426.161)" fill="#b1d3ef"/>
        </g>
      </g>
    </g>
  </g>
</svg>
