<svg id="user-blue" xmlns="http://www.w3.org/2000/svg" width="551.998" height="552.018" viewBox="0 0 551.998 552.018">
  <path id="Path_1133" data-name="Path 1133" d="M105.009,357.45,22.654,402.372a74.01,74.01,0,0,0-13.217,9.405,275.834,275.834,0,0,0,354.406.917,73.062,73.062,0,0,0-14.519-9.728l-88.188-44.089a33.63,33.63,0,0,1-18.592-30.08V294.2a133.2,133.2,0,0,0,8.343-10.728A202.919,202.919,0,0,0,278.3,228.225a27.7,27.7,0,0,0,19.644-26.351V164.941a27.572,27.572,0,0,0-9.228-20.466V91.085S299.684,8,187.166,8,85.616,91.085,85.616,91.085v53.39a27.535,27.535,0,0,0-9.228,20.466v36.933a27.689,27.689,0,0,0,12.769,23.237c9.228,40.172,33.392,69.086,33.392,69.086v33.746A33.665,33.665,0,0,1,105.009,357.45Z" transform="translate(88.853 75.332)" fill="#e7eced"/>
  <g id="Group_583" data-name="Group 583" transform="translate(0 0)">
    <path id="Path_1134" data-name="Path 1134" d="M280.727.041C128.318-2.563,2.645,118.881.041,271.291-1.438,357.708,37.079,435.376,98.4,487.026a73.341,73.341,0,0,1,13.092-9.311l82.355-44.922a33.643,33.643,0,0,0,17.529-29.528V369.519s-24.174-28.913-33.392-69.086A27.7,27.7,0,0,1,165.22,277.2V240.263a27.572,27.572,0,0,1,9.228-20.466v-53.39S163.48,83.323,276,83.323s101.551,83.084,101.551,83.084V219.8a27.535,27.535,0,0,1,9.228,20.466V277.2a27.7,27.7,0,0,1-19.644,26.351,202.918,202.918,0,0,1-27.413,55.244,133.188,133.188,0,0,1-8.343,10.728v34.6a33.618,33.618,0,0,0,18.592,30.08l88.188,44.089a73.431,73.431,0,0,1,14.477,9.707,275.292,275.292,0,0,0,99.322-207.267C554.58,128.318,433.147,2.645,280.727.041Z" transform="translate(0 0)" fill="#556080"/>
  </g>
</svg>
