<svg xmlns="http://www.w3.org/2000/svg" width="538.239" height="531" viewBox="0 0 538.239 531">
  <path id="white-companyaddress" d="M119.766,204.6A84.927,84.927,0,0,0,204.6,289.434a19.961,19.961,0,1,1,0,39.922A124.756,124.756,0,1,1,329.356,204.6a19.961,19.961,0,1,1-39.922,0,84.834,84.834,0,1,0-169.668,0ZM135.45,381.153c-51.223-56.09-95.457-104.535-95.527-176.746.105-90.7,73.98-164.484,164.676-164.484s164.57,73.789,164.676,164.484a19.959,19.959,0,0,0,19.961,19.938h.023A19.959,19.959,0,0,0,409.2,204.36,204.6,204.6,0,0,0,60,59.848,203.3,203.3,0,0,0,0,204.4C.039,244.18,11.086,281.5,33.778,318.5c19.645,32.035,45.168,59.984,72.191,89.578,26.492,29.016,53.891,59.016,75.77,93.633a19.962,19.962,0,1,0,33.746-21.332c-23.766-37.6-52.371-68.926-80.035-99.223Zm370.32,9.578A19.962,19.962,0,0,1,477.57,392l-2.5-2.285v66.051A56.28,56.28,0,0,1,418.875,512H306.7a56.28,56.28,0,0,1-56.2-56.238V390.626l-1.5,1.371a19.961,19.961,0,1,1-26.937-29.465l103.027-94.2a56.316,56.316,0,0,1,76.379,0l66.012,60.355a19.971,19.971,0,0,1,2.059,1.879l34.961,31.961a19.956,19.956,0,0,1,1.262,28.2Zm-70.621-37.52L374.539,297.8a16.589,16.589,0,0,0-22.5,0l-61.609,56.32V455.763a16.315,16.315,0,0,0,16.277,16.316H418.875a16.314,16.314,0,0,0,16.273-16.316Zm0,0" transform="translate(9.5 9.5)" fill="#fff" stroke="#fff" stroke-width="19"/>
</svg>
