<svg id="bag" xmlns="http://www.w3.org/2000/svg" width="26.152" height="33.748" viewBox="0 0 26.152 33.748">
  <g id="product">
    <path id="Path_167" data-name="Path 167" d="M123.653,33.748h22.416a1.868,1.868,0,0,0,1.868-1.868V9.34a1.868,1.868,0,0,0-1.868-1.868h-5.6V5.6a5.6,5.6,0,0,0-11.208,0V7.472h-5.6a1.868,1.868,0,0,0-1.868,1.868V31.88A1.868,1.868,0,0,0,123.653,33.748ZM132.993,5.6a1.868,1.868,0,0,1,3.736,0V7.472h-3.736Zm-7.472,5.6h3.736v1.868a1.868,1.868,0,1,0,3.736,0V11.208h3.736v1.868a1.868,1.868,0,0,0,3.736,0V11.208H144.2v18.8h-18.68Zm0,0" transform="translate(-121.785)" fill="#3742fa"/>
  </g>
</svg>
