<svg xmlns="http://www.w3.org/2000/svg" width="17.638" height="18.816" viewBox="0 0 17.638 18.816">
  <g id="box" transform="translate(-16.032 0.001)">
    <g id="Group_1234" data-name="Group 1234" transform="translate(16.032 -0.001)">
      <g id="Group_1233" data-name="Group 1233" transform="translate(0)">
        <path id="Path_1319" data-name="Path 1319" d="M33.514,4.151,24.971.027a.276.276,0,0,0-.24,0L16.188,4.151a.276.276,0,0,0-.156.248V14.416a.276.276,0,0,0,.156.248l8.543,4.124a.276.276,0,0,0,.24,0l8.543-4.124a.276.276,0,0,0,.156-.248V4.4A.276.276,0,0,0,33.514,4.151ZM24.851.581,32.76,4.4,30.468,5.506a.273.273,0,0,0-.047-.029L22.565,1.685ZM21.943,2l7.9,3.813-1.618.781L20.328,2.779Zm8.083,4.336V9.219l-1.511.729V7.061Zm3.093,7.911L25.127,18.1V8.7l1.906-.92a.276.276,0,0,0-.24-.5l-1.942.938-.764-.369a.276.276,0,1,0-.24.5l.728.352v9.4l-7.992-3.858v-9.4l6.086,2.938a.276.276,0,0,0,.24-.5L16.942,4.4,19.68,3.078l8.28,4,0,0v3.308a.276.276,0,0,0,.4.248l2.062-1a.276.276,0,0,0,.156-.248V6.066l2.542-1.227v9.4Z" transform="translate(-16.032 0.001)" fill="#104ce5"/>
      </g>
    </g>
    <g id="Group_1236" data-name="Group 1236" transform="translate(17.209 12.541)">
      <g id="Group_1235" data-name="Group 1235">
        <path id="Path_1320" data-name="Path 1320" d="M49.7,341.894l-1.254-.605a.276.276,0,1,0-.24.5l1.254.605a.276.276,0,0,0,.24-.5Z" transform="translate(-48.048 -341.261)" fill="#104ce5"/>
      </g>
    </g>
    <g id="Group_1238" data-name="Group 1238" transform="translate(17.21 11.234)">
      <g id="Group_1237" data-name="Group 1237" transform="translate(0)">
        <path id="Path_1321" data-name="Path 1321" d="M50.9,306.879l-2.406-1.161a.276.276,0,1,0-.24.5l2.406,1.161a.276.276,0,0,0,.24-.5Z" transform="translate(-48.096 -305.69)" fill="#104ce5"/>
      </g>
    </g>
  </g>
</svg>
