<svg id="cart" xmlns="http://www.w3.org/2000/svg" width="30.77" height="26.036" viewBox="0 0 30.77 26.036">
  <g id="Group_610" data-name="Group 610">
    <path id="Path_1039" data-name="Path 1039" d="M365.446,367.82a2.368,2.368,0,1,0,.694-1.674A2.281,2.281,0,0,0,365.446,367.82Z" transform="translate(-341.777 -344.151)" fill="#3742fa"/>
    <path id="Path_1040" data-name="Path 1040" d="M30.418,39.261a1.137,1.137,0,0,0-.832-.351H7.378q-.019-.129-.083-.471t-.1-.546a3.262,3.262,0,0,0-.139-.49,1.474,1.474,0,0,0-.24-.453,1.18,1.18,0,0,0-.37-.287,1.129,1.129,0,0,0-.527-.12H1.184a1.138,1.138,0,0,0-.832.351,1.161,1.161,0,0,0,0,1.664,1.138,1.138,0,0,0,.832.351H4.955L8.228,54.128q-.037.074-.379.7t-.545,1.1a2.031,2.031,0,0,0-.2.731,1.2,1.2,0,0,0,1.184,1.184H27.218a1.184,1.184,0,0,0,0-2.367H10.207a3.57,3.57,0,0,0,.444-1.183,2,2,0,0,0-.046-.407q-.046-.221-.111-.49T10.41,53l19.305-2.256a1.148,1.148,0,0,0,.758-.4,1.165,1.165,0,0,0,.3-.786V40.093A1.138,1.138,0,0,0,30.418,39.261Z" transform="translate(0 -36.543)" fill="#3742fa"/>
    <path id="Path_1041" data-name="Path 1041" d="M109.632,367.82a2.367,2.367,0,1,0,.693-1.674A2.279,2.279,0,0,0,109.632,367.82Z" transform="translate(-102.532 -344.151)" fill="#3742fa"/>
  </g>
</svg>
