<svg id="chart" xmlns="http://www.w3.org/2000/svg" width="26.031" height="26.036" viewBox="0 0 26.031 26.036">
  <g id="Group_611" data-name="Group 611">
    <path id="Path_1042" data-name="Path 1042" d="M22.555,61.983H12.409V51.838a.735.735,0,0,0-.738-.738A11.621,11.621,0,1,0,23.293,62.721.742.742,0,0,0,22.555,61.983ZM11.671,72.867A10.145,10.145,0,0,1,10.933,52.6V62.721a.735.735,0,0,0,.738.738H21.79A10.155,10.155,0,0,1,11.671,72.867Z" transform="translate(-0.05 -48.307)" fill="#3742fa"/>
    <path id="Path_1043" data-name="Path 1043" d="M262.509,11.583A11.62,11.62,0,0,0,250.888,0a.735.735,0,0,0-.738.738V11.621a.735.735,0,0,0,.738.738h10.883a.735.735,0,0,0,.738-.738Zm-10.883-.694V1.509a10.152,10.152,0,0,1,9.38,9.38h-9.38Z" transform="translate(-236.479)" fill="#3742fa"/>
  </g>
</svg>
