<svg xmlns="http://www.w3.org/2000/svg" width="24.232" height="24.232" viewBox="0 0 24.232 24.232">
  <g id="crm" transform="translate(-1 -1)">
    <path id="Path_1331" data-name="Path 1331" d="M23.132,20.452a2.34,2.34,0,0,0-1.026-4.174v-.426A1.956,1.956,0,0,0,20.151,13.9H13.507V12.474a1.211,1.211,0,0,0,1.95-.925,1.217,1.217,0,0,0,1.173-1.173A1.217,1.217,0,0,0,17.8,9.2a1.217,1.217,0,0,0,.82-2.078l-.081-.081a3.705,3.705,0,0,0-5.424-5.026A3.7,3.7,0,0,0,7.889,7.263,1.212,1.212,0,0,0,8.821,9.2a1.217,1.217,0,0,0,1.173,1.173,1.217,1.217,0,0,0,1.173,1.173,1.2,1.2,0,0,0,1.559,1.122V13.9H6.081a1.956,1.956,0,0,0-1.954,1.954v.426A2.34,2.34,0,0,0,3.1,20.452,3.521,3.521,0,0,0,1,23.669v1.563H8.035V23.669a3.521,3.521,0,0,0-2.1-3.217,2.34,2.34,0,0,0-1.026-4.174v-.426A1.174,1.174,0,0,1,6.081,14.68h6.644v1.6A2.34,2.34,0,0,0,11.7,20.452a3.521,3.521,0,0,0-2.1,3.217v1.563h7.035V23.669a3.521,3.521,0,0,0-2.1-3.217,2.34,2.34,0,0,0-1.026-4.174v-1.6h6.644a1.174,1.174,0,0,1,1.173,1.173v.426A2.34,2.34,0,0,0,20.3,20.452a3.521,3.521,0,0,0-2.1,3.217v1.563h7.035V23.669A3.521,3.521,0,0,0,23.132,20.452ZM15.663,1.782a2.922,2.922,0,0,1,2.32,4.7l-1.8-1.8A3.156,3.156,0,0,0,16.52,4.4l-.553-.553a2.264,2.264,0,0,1-1.611.667h-.619l-.667.667a.389.389,0,0,1-.277.115H11.324a.162.162,0,0,1-.115-.276l2.385-2.385a2.907,2.907,0,0,1,2.069-.857Zm-5.093,0a2.9,2.9,0,0,1,1.99.785l-1.9,1.9a.944.944,0,0,0,.668,1.611h1.468a1.165,1.165,0,0,0,.829-.344L14.06,5.3h.3a3.056,3.056,0,0,0,1.121-.213l2.592,2.592a.438.438,0,0,1-.62.62l-.93-.93-.553.553.93.93a.438.438,0,0,1-.62.62l-.93-.93-.553.553.93.93a.438.438,0,0,1-.62.62l-.93-.93-.553.553.93.93a.438.438,0,0,1-.62.62l-.131-.131a1.216,1.216,0,0,0-1.08-1.691,1.217,1.217,0,0,0-1.173-1.173,1.217,1.217,0,0,0-1.173-1.173A1.219,1.219,0,0,0,9.16,6.472a1.206,1.206,0,0,0-.718.239A2.922,2.922,0,0,1,10.57,1.782ZM8.426,7.988a.436.436,0,0,1,.128-.31l.3-.3A.438.438,0,0,1,9.47,8l-.3.3a.438.438,0,0,1-.748-.31ZM9.6,9.16a.436.436,0,0,1,.128-.31l.3-.3a.438.438,0,0,1,.62.62l-.3.3A.438.438,0,0,1,9.6,9.16Zm1.173,1.173a.436.436,0,0,1,.128-.31l.3-.3a.438.438,0,0,1,.62.62l-.3.3a.438.438,0,0,1-.748-.31Zm1.611,1.611a.438.438,0,0,1-.31-.748l.3-.3a.438.438,0,0,1,.62.62l-.3.3A.436.436,0,0,1,12.382,11.944ZM7.254,23.669v.782H6.472V22.887H5.69v1.563H3.345V22.887H2.563v1.563H1.782v-.782a2.736,2.736,0,1,1,5.472,0ZM6.081,18.588a1.563,1.563,0,1,1-1.563-1.563A1.565,1.565,0,0,1,6.081,18.588Zm9.771,5.081v.782H15.07V22.887h-.782v1.563H11.944V22.887h-.782v1.563H10.38v-.782a2.736,2.736,0,1,1,5.472,0ZM14.68,18.588a1.563,1.563,0,1,1-1.563-1.563A1.565,1.565,0,0,1,14.68,18.588Zm5.472,0a1.563,1.563,0,1,1,1.563,1.563A1.565,1.565,0,0,1,20.151,18.588Zm4.3,5.863h-.782V22.887h-.782v1.563H20.542V22.887h-.782v1.563h-.782v-.782a2.736,2.736,0,1,1,5.472,0Z" fill="#104ce5"/>
    <path id="Path_1332" data-name="Path 1332" d="M38,38h.782v.782H38Z" transform="translate(-22.539 -22.539)" fill="#104ce5"/>
    <path id="Path_1333" data-name="Path 1333" d="M42,38h.782v.782H42Z" transform="translate(-24.975 -22.539)" fill="#104ce5"/>
    <path id="Path_1334" data-name="Path 1334" d="M46,38h.782v.782H46Z" transform="translate(-27.412 -22.539)" fill="#104ce5"/>
    <path id="Path_1335" data-name="Path 1335" d="M16,38h.782v.782H16Z" transform="translate(-9.137 -22.539)" fill="#104ce5"/>
    <path id="Path_1336" data-name="Path 1336" d="M20,38h.782v.782H20Z" transform="translate(-11.574 -22.539)" fill="#104ce5"/>
    <path id="Path_1337" data-name="Path 1337" d="M24,38h.782v.782H24Z" transform="translate(-14.011 -22.539)" fill="#104ce5"/>
  </g>
</svg>
