<svg xmlns="http://www.w3.org/2000/svg" width="22.226" height="21.414" viewBox="0 0 22.226 21.414">
  <g id="graph" transform="translate(0 -9.356)">
    <g id="Group_1266" data-name="Group 1266" transform="translate(11.625 9.356)">
      <g id="Group_1265" data-name="Group 1265">
        <path id="Path_1338" data-name="Path 1338" d="M270.946,9.377a.654.654,0,0,0-.8.47l-2.323,9a.654.654,0,0,0,.633.818h9.292a.654.654,0,0,0,.654-.654A9.942,9.942,0,0,0,270.946,9.377ZM269.3,18.356l1.943-7.525a8.635,8.635,0,0,1,5.826,7.525Z" transform="translate(-267.805 -9.356)" fill="#104ce5"/>
      </g>
    </g>
    <g id="Group_1268" data-name="Group 1268" transform="translate(0 10.876)">
      <g id="Group_1267" data-name="Group 1267">
        <path id="Path_1339" data-name="Path 1339" d="M19.239,53.674H10.791L12.9,45.491a.654.654,0,0,0-.471-.8,9.994,9.994,0,0,0-2.486-.313,9.947,9.947,0,1,0,9.946,9.947A.654.654,0,0,0,19.239,53.674ZM9.947,62.966a8.638,8.638,0,1,1,1.52-17.143L9.313,54.164a.654.654,0,0,0,.633.818H18.56A8.65,8.65,0,0,1,9.947,62.966Z" transform="translate(0 -44.381)" fill="#104ce5"/>
      </g>
    </g>
  </g>
</svg>
