<svg xmlns="http://www.w3.org/2000/svg" width="48.772" height="40.367" viewBox="0 0 48.772 40.367">
  <g id="send-white" transform="translate(0 -45.117)">
    <path id="Path_572" data-name="Path 572" d="M48.391,45.263a.777.777,0,0,0-.757-.084L5.045,62.365,0,64.459l15.245,6.172h.017v.008L19.34,84.875a.841.841,0,0,0,1.4.362l8.493-8.686L40.7,81.057a1.66,1.66,0,0,0,2.27-1.295l5.785-33.626A.828.828,0,0,0,48.391,45.263ZM23.7,74.3l.017-.059.025.008Z" transform="translate(0 0)" fill="#f5f6fa"/>
    <path id="Path_573" data-name="Path 573" d="M226.269,353.239l-8.493,8.686a.925.925,0,0,0,.21-.378l2.741-10.561.042-.05,3.649,1.53,1.631.69Z" transform="translate(-197.032 -276.688)" fill="#ebeef2"/>
    <path id="Path_574" data-name="Path 574" d="M193.332,47.124,168.616,76.063l-.025-.008-.017.059-2.741,10.561a.924.924,0,0,1-.21.378.841.841,0,0,1-1.4-.362L160.14,72.455v-.008h-.008v-.008Z" transform="translate(-144.879 -1.816)" fill="#d3d8df"/>
  </g>
</svg>
