<svg xmlns="http://www.w3.org/2000/svg" width="15.299" height="18.053" viewBox="0 0 15.299 18.053">
  <g id="shop" transform="translate(-15.359)">
    <g id="Group_1248" data-name="Group 1248" transform="translate(20.848)">
      <g id="Group_1247" data-name="Group 1247">
        <path id="Path_1322" data-name="Path 1322" d="M81.328,2.231a2.6,2.6,0,0,0-4.676-1.163.306.306,0,1,0,.494.361,1.989,1.989,0,0,1,3.576.888.306.306,0,0,0,.3.263l.044,0A.306.306,0,0,0,81.328,2.231Z" transform="translate(-76.593)" fill="#104ce5"/>
      </g>
    </g>
    <g id="Group_1250" data-name="Group 1250" transform="translate(15.97 3.978)">
      <g id="Group_1249" data-name="Group 1249">
        <path id="Path_1323" data-name="Path 1323" d="M36.216,46.05l-.918-1.53a.306.306,0,0,0-.262-.149h-.88a.306.306,0,0,0,0,.612h.706l.551.918H23.031l.551-.918h.324a.306.306,0,0,0,0-.612h-.5a.306.306,0,0,0-.262.149l-.918,1.53a.306.306,0,0,0,.262.464H35.954a.306.306,0,0,0,.262-.464Z" transform="translate(-22.185 -44.372)" fill="#104ce5"/>
      </g>
    </g>
    <g id="Group_1252" data-name="Group 1252" transform="translate(23.425 1.714)">
      <g id="Group_1251" data-name="Group 1251" transform="translate(0)">
        <path id="Path_1324" data-name="Path 1324" d="M110.4,20.246a.305.305,0,0,0-.19-.137l-4.171-.976a.306.306,0,0,0-.368.228l-.315,1.345a.306.306,0,0,0,.6.139l.245-1.047,3.575.836-.562,2.4a.306.306,0,0,0,.228.367.309.309,0,0,0,.07.008.306.306,0,0,0,.3-.236l.632-2.7A.3.3,0,0,0,110.4,20.246Z" transform="translate(-105.343 -19.126)" fill="#104ce5"/>
      </g>
    </g>
    <g id="Group_1254" data-name="Group 1254" transform="translate(17.164 0.93)">
      <g id="Group_1253" data-name="Group 1253" transform="translate(0)">
        <path id="Path_1325" data-name="Path 1325" d="M41.5,13l-.279-2.358a.306.306,0,0,0-.34-.268l-5.118.6a.306.306,0,0,0-.268.34l.465,3.933a.306.306,0,0,0,.3.27l.036,0a.306.306,0,0,0,.268-.34l-.429-3.629,4.51-.533.243,2.054A.306.306,0,0,0,41.5,13Z" transform="translate(-35.494 -10.374)" fill="#104ce5"/>
      </g>
    </g>
    <g id="Group_1256" data-name="Group 1256" transform="translate(19.45 2.938)">
      <g id="Group_1255" data-name="Group 1255" transform="translate(0)">
        <path id="Path_1326" data-name="Path 1326" d="M67.137,35.529,66.53,33a.306.306,0,0,0-.369-.226l-4.929,1.185a.306.306,0,0,0-.226.369l.3,1.262a.306.306,0,1,0,.595-.143l-.232-.965,4.334-1.042.536,2.228a.306.306,0,0,0,.6-.143Z" transform="translate(-60.997 -32.769)" fill="#104ce5"/>
      </g>
    </g>
    <g id="Group_1258" data-name="Group 1258" transform="translate(15.359 5.508)">
      <g id="Group_1257" data-name="Group 1257" transform="translate(0)">
        <path id="Path_1327" data-name="Path 1327" d="M30.045,61.731a.306.306,0,0,0-.306-.29H16.277a.306.306,0,0,0-.306.29l-.612,11.933a.306.306,0,0,0,.306.322H30.351a.306.306,0,0,0,.306-.322ZM15.986,73.374l.581-11.321H29.449l.581,11.321Z" transform="translate(-15.359 -61.441)" fill="#104ce5"/>
      </g>
    </g>
    <g id="Group_1260" data-name="Group 1260" transform="translate(24.385 6.731)">
      <g id="Group_1259" data-name="Group 1259">
        <path id="Path_1328" data-name="Path 1328" d="M116.97,75.093a.918.918,0,1,0,.918.918A.919.919,0,0,0,116.97,75.093Zm0,1.224a.306.306,0,1,1,.306-.306A.306.306,0,0,1,116.97,76.317Z" transform="translate(-116.052 -75.093)" fill="#104ce5"/>
      </g>
    </g>
    <g id="Group_1262" data-name="Group 1262" transform="translate(19.795 6.731)">
      <g id="Group_1261" data-name="Group 1261" transform="translate(0)">
        <path id="Path_1329" data-name="Path 1329" d="M65.77,75.093a.918.918,0,1,0,.918.918A.919.919,0,0,0,65.77,75.093Zm0,1.224a.306.306,0,1,1,.306-.306A.306.306,0,0,1,65.77,76.317Z" transform="translate(-64.852 -75.093)" fill="#104ce5"/>
      </g>
    </g>
    <g id="Group_1264" data-name="Group 1264" transform="translate(20.407 7.649)">
      <g id="Group_1263" data-name="Group 1263">
        <path id="Path_1330" data-name="Path 1330" d="M76.575,85.333h-.024a.306.306,0,0,0-.306.306.3.3,0,0,0,.024.118v1.565a1.989,1.989,0,0,1-3.978,0V85.639a.306.306,0,1,0-.612,0v1.683a2.6,2.6,0,0,0,5.2,0V85.639A.306.306,0,0,0,76.575,85.333Z" transform="translate(-71.679 -85.333)" fill="#104ce5"/>
      </g>
    </g>
  </g>
</svg>
