<svg xmlns="http://www.w3.org/2000/svg" width="23.412" height="19.013" viewBox="0 0 23.412 19.013">
  <g id="store" transform="translate(0 -48.096)">
    <g id="Group_1270" data-name="Group 1270" transform="translate(0 48.096)">
      <g id="Group_1269" data-name="Group 1269" transform="translate(0 0)">
        <path id="Path_1340" data-name="Path 1340" d="M22.336,66.423h-.39V56.249a3.183,3.183,0,0,0,1.466-2.679.343.343,0,0,0-.045-.17l-2.721-4.762a1.079,1.079,0,0,0-.934-.542H3.7a1.078,1.078,0,0,0-.934.542L.045,53.4a.343.343,0,0,0-.045.17,3.183,3.183,0,0,0,1.466,2.679V66.423h-.39a.343.343,0,0,0,0,.686h21.26a.343.343,0,0,0,0-.686ZM.71,53.914h1.1a.343.343,0,1,0,0-.686H.934l2.428-4.249a.391.391,0,0,1,.339-.2h16.01a.391.391,0,0,1,.339.2l2.428,4.249H21.6a.343.343,0,1,0,0,.686h1.1a2.5,2.5,0,0,1-4.948,0h2.382a.343.343,0,1,0,0-.686H3.275a.343.343,0,1,0,0,.686H5.657a2.5,2.5,0,0,1-4.948,0Zm16.311,0a2.5,2.5,0,0,1-4.947,0Zm-5.682,0a2.5,2.5,0,0,1-4.947,0Zm8.088,12.51H15.714V65.277h3.713Zm0-1.833H15.714V58.312h3.713Zm1.833,1.833H20.113V57.969a.343.343,0,0,0-.343-.343h-4.4a.343.343,0,0,0-.343.343v8.454H2.152V56.582a3.18,3.18,0,0,0,3.872-1.575,3.183,3.183,0,0,0,5.682,0,3.183,3.183,0,0,0,5.682,0,3.181,3.181,0,0,0,3.872,1.575Z" transform="translate(0 -48.096)" fill="#104ce5"/>
      </g>
    </g>
    <g id="Group_1272" data-name="Group 1272" transform="translate(3.299 57.626)">
      <g id="Group_1271" data-name="Group 1271" transform="translate(0 0)">
        <path id="Path_1341" data-name="Path 1341" d="M82.385,256.516h-9.9a.343.343,0,0,0-.343.343v6.964a.343.343,0,0,0,.343.343h9.9a.343.343,0,0,0,.343-.343v-6.964A.343.343,0,0,0,82.385,256.516Zm-.343,6.964H72.831V257.2h9.211Z" transform="translate(-72.145 -256.516)" fill="#104ce5"/>
      </g>
    </g>
  </g>
</svg>
