<svg xmlns="http://www.w3.org/2000/svg" width="35" height="40.348" viewBox="0 0 35 40.348">
  <g id="dashboard" transform="translate(-33 -734)">
    <g id="home" transform="translate(36 733.999)">
      <path id="Path_90" data-name="Path 90" d="M358.159,327.557a4.443,4.443,0,0,1-.176,1.241.546.546,0,0,1-.524.393h-7.875a4.445,4.445,0,0,1,3.757-6.061q.186-.016.376-.016A4.443,4.443,0,0,1,358.159,327.557Zm0,0" transform="translate(-330.201 -305.47)" fill="#84b75b"/>
      <path id="Path_91" data-name="Path 91" d="M355.714,328.4a3.544,3.544,0,0,1-.161,1.06h-5.969a4.445,4.445,0,0,1,3.757-6.061v1.646A3.564,3.564,0,0,1,355.714,328.4Zm0,0" transform="translate(-330.201 -305.742)" fill="#69a833"/>
      <path id="Path_92" data-name="Path 92" d="M8.576,329.189a4.443,4.443,0,1,0-8.4-.393.546.546,0,0,0,.525.393Zm0,0" transform="translate(0 -305.469)" fill="#a0d37d"/>
      <path id="Path_93" data-name="Path 93" d="M99.386,14.969V30.224H81.91a.546.546,0,0,1-.546-.546V14.969l9.011-8.09Zm0,0" transform="translate(-76.921 -6.503)" fill="#ebeef2"/>
      <path id="Path_94" data-name="Path 94" d="M162.547,199.124l13.589-13.589v13.589Zm0,0" transform="translate(-153.671 -175.404)" fill="#d3d8df"/>
      <path id="Path_95" data-name="Path 95" d="M338.852,272.832h-1.04a.578.578,0,0,0-.578.578v4.913h2.2V273.41A.578.578,0,0,0,338.852,272.832Zm0,0" transform="translate(-318.819 -257.934)" fill="#7fb7ea"/>
      <path id="Path_96" data-name="Path 96" d="M117.5,278.323V273.41a.578.578,0,0,0-.578-.578h-1.04a.578.578,0,0,0-.578.578v4.913" transform="translate(-109.012 -257.934)" fill="#7fb7ea"/>
      <path id="Path_97" data-name="Path 97" d="M99.385,376.722H81.909a.546.546,0,0,1-.546-.546V373.39H99.385Zm0,0" transform="translate(-76.92 -353.001)" fill="#5f9eeb"/>
      <path id="Path_98" data-name="Path 98" d="M99.39,373.391v3.331H81.914a.546.546,0,0,1-.546-.546v-2.785Zm0,0" transform="translate(-76.925 -353.002)" fill="#5f9eeb"/>
      <path id="Path_99" data-name="Path 99" d="M176.136,373.391v3.331H162.547l3.331-3.331Zm0,0" transform="translate(-153.671 -353.002)" fill="#3a82d0"/>
      <path id="Path_100" data-name="Path 100" d="M200.312,273.41v8.245h-5.648V273.41a.578.578,0,0,1,.578-.578h4.492a.578.578,0,0,1,.578.578Zm0,0" transform="translate(-184.034 -257.934)" fill="#7b8c98"/>
      <path id="Path_101" data-name="Path 101" d="M200.312,298.836v7.4h-5.648v-1.754Zm0,0" transform="translate(-184.034 -282.518)" fill="#627687"/>
      <path id="Path_102" data-name="Path 102" d="M99.385,14.97v3.578l-9.011-8.09-9.011,8.091V14.97l9.011-8.09Zm0,0" transform="translate(-76.92 -6.504)" fill="#d3d8df"/>
      <path id="Path_103" data-name="Path 103" d="M51.974,11.909,42.1,3.047l-9.87,8.861a.578.578,0,0,1-.816-.044l-.965-1.075a.578.578,0,0,1,.044-.816L41.236.332a1.3,1.3,0,0,1,1.737,0L53.711,9.974a.578.578,0,0,1,.044.816l-.965,1.075a.578.578,0,0,1-.816.044Zm0,0" transform="translate(-28.65 0)" fill="#5f9eeb"/>
      <path id="Path_104" data-name="Path 104" d="M265.531,347.212a.422.422,0,0,1-.422-.422v-.478a.422.422,0,0,1,.844,0v.478A.422.422,0,0,1,265.531,347.212Zm0,0" transform="translate(-250.633 -327.003)" fill="#455e6d"/>
      <path id="Path_105" data-name="Path 105" d="M208.712,148.887a2.309,2.309,0,1,1-2.309-2.309A2.309,2.309,0,0,1,208.712,148.887Zm0,0" transform="translate(-192.949 -138.574)" fill="#eb5777"/>
      <path id="Path_106" data-name="Path 106" d="M354.968,365.714a2.883,2.883,0,1,0-5.695-.639,2.874,2.874,0,0,0,.2,1.06h4.961A.544.544,0,0,0,354.968,365.714Zm0,0" transform="translate(-330.201 -342.415)" fill="#a0d37d"/>
    </g>
    <text id="Home-2" data-name="Home" transform="translate(33 771.347)" fill="#375db9" font-size="11" font-family="Montserrat-Regular, Montserrat" letter-spacing="0.001em"><tspan x="0" y="0">Home</tspan></text>
  </g>
</svg>
