<svg xmlns="http://www.w3.org/2000/svg" width="50" height="42.348" viewBox="0 0 50 42.348">
  <g id="products" transform="translate(-80 -733)">
    <text id="Products-2" data-name="Products" transform="translate(80 772.347)" fill="#375db9" font-size="11" font-family="Montserrat-Regular, Montserrat" letter-spacing="0.001em"><tspan x="0" y="0">Products</tspan></text>
    <g id="product" transform="translate(93 733)">
      <path id="Path_820" data-name="Path 820" d="M132.428,60h-9.835a.812.812,0,0,0-.82.82v9.89a.812.812,0,0,0,.82.82h9.835a.812.812,0,0,0,.82-.82V60.82A.811.811,0,0,0,132.428,60Zm0,0" transform="translate(-115.147 -56.722)" fill="#2c81ff"/>
      <path id="Path_821" data-name="Path 821" d="M24.829,242.2l-3.77,7.2a5.736,5.736,0,0,1-5.081,3.082H9.109l-3.114,3.1a.881.881,0,0,1-.574.229.89.89,0,0,1-.59-.229l-4.1-4.087a.841.841,0,0,1,0-1.164l4.852-4.852a4.079,4.079,0,0,1,2.9-1.2H17.01a.711.711,0,0,1,.623,1.049c-.361.7-.787,1.525-.934,1.787a.818.818,0,0,1-.721.443H10.4a.82.82,0,1,0,0,1.639h5.574a2.442,2.442,0,0,0,2.164-1.311l2.524-4.8A3.894,3.894,0,0,1,24.107,241a.8.8,0,0,1,.689.393.785.785,0,0,1,.033.8Zm0,0" transform="translate(-0.499 -227.831)" fill="#ffa78f"/>
      <path id="Path_822" data-name="Path 822" d="M229.888,304.278h-3.115V301h4.147a.711.711,0,0,1,.623,1.049c-.361.7-.787,1.525-.934,1.787A.817.817,0,0,1,229.888,304.278Zm0,0" transform="translate(-214.409 -284.554)" fill="#f89580"/>
      <path id="Path_823" data-name="Path 823" d="M238.739,242.2l-3.77,7.2a5.736,5.736,0,0,1-5.081,3.082h-3.115V249.2h3.115a2.442,2.442,0,0,0,2.164-1.311l2.524-4.8A3.894,3.894,0,0,1,238.018,241a.8.8,0,0,1,.689.393.785.785,0,0,1,.033.8Zm0,0" transform="translate(-214.409 -227.831)" fill="#f89580"/>
      <path id="Path_824" data-name="Path 824" d="M232.51,60.82v9.89a.812.812,0,0,1-.82.82h-4.918V60h4.918A.811.811,0,0,1,232.51,60.82Zm0,0" transform="translate(-214.409 -56.722)" fill="#104ce5"/>
      <path id="Path_825" data-name="Path 825" d="M186.691,2.459V5.737a.82.82,0,0,1-1.639,0V2.459a.82.82,0,0,0-1.639,0V5.737a.82.82,0,0,1-1.639,0V2.459a2.459,2.459,0,0,1,4.918,0Zm0,0" transform="translate(-171.868)" fill="#697c86"/>
      <path id="Path_826" data-name="Path 826" d="M226.773,1.639V0a2.455,2.455,0,0,1,2.459,2.459V5.737a.82.82,0,0,1-1.639,0V2.459A.811.811,0,0,0,226.773,1.639Zm0,0" transform="translate(-214.409)" fill="#465a61"/>
    </g>
  </g>
</svg>
