<svg xmlns="http://www.w3.org/2000/svg" width="36" height="37.348" viewBox="0 0 36 37.348">
  <g id="profile" transform="translate(-267 -739)">
    <text id="profile-2" data-name="profile" transform="translate(267 773.349)" fill="#375db9" font-size="11" font-family="Montserrat-Regular, Montserrat" letter-spacing="0.001em"><tspan x="0" y="0">profile</tspan></text>
    <g id="user" transform="translate(276 739)">
      <circle id="Ellipse_285" data-name="Ellipse 285" cx="8.677" cy="8.677" r="8.677" transform="translate(0.327 0.327)" fill="#a4c2f7"/>
      <ellipse id="Ellipse_286" data-name="Ellipse 286" cx="8.186" cy="8.677" rx="8.186" ry="8.677" transform="translate(0.327 0.327)" fill="#e3e7f2"/>
      <path id="Path_829" data-name="Path 829" d="M17.986,26.664c.085,0,.169,0,.253-.006a8.458,8.458,0,0,1-7.948-8.671,8.458,8.458,0,0,1,7.948-8.671c-.084,0-.168-.006-.253-.006a8.677,8.677,0,1,0,0,17.355Z" transform="translate(-8.982 -8.982)" fill="#fff"/>
      <path id="Path_830" data-name="Path 830" d="M100.156,94.768l-2.589,1.412a2.318,2.318,0,0,0-.416.3,8.672,8.672,0,0,0,11.142.028,2.318,2.318,0,0,0-.456-.306l-2.772-1.386a1.057,1.057,0,0,1-.585-.946V92.779a4.178,4.178,0,0,0,.262-.337,6.379,6.379,0,0,0,.862-1.737.871.871,0,0,0,.617-.828V88.716a.866.866,0,0,0-.29-.643V86.394s.345-2.612-3.193-2.612-3.193,2.612-3.193,2.612v1.678a.866.866,0,0,0-.29.643v1.161a.87.87,0,0,0,.4.73,5.758,5.758,0,0,0,1.05,2.172V93.84A1.057,1.057,0,0,1,100.156,94.768Z" transform="translate(-93.734 -80.835)" fill="#7facfa"/>
      <path id="Path_831" data-name="Path 831" d="M100.662,95.565l-3.647-1.386a1.057,1.057,0,0,1-.585-.946V92.145a4.19,4.19,0,0,0,.262-.337,6.38,6.38,0,0,0,.862-1.737.871.871,0,0,0,.617-.828V88.082a.866.866,0,0,0-.29-.643V85.76s.345-2.612-3.193-2.612c-.211,0-.406.01-.59.027a.379.379,0,0,1-.233.4,9.14,9.14,0,0,0-1.226.614.337.337,0,0,1,.279.334,11.957,11.957,0,0,1-.717,3.853c.011.485.022.97.036,1.456.036.112.072.224.107.336a.379.379,0,0,1,.152.175c.15.356.316.721.461,1.093a.4.4,0,0,1,.48.237,4.385,4.385,0,0,1,.238,1.117.282.282,0,0,1-.141.283,4.879,4.879,0,0,1-.9,1.727.357.357,0,0,1-.592-.156A1.766,1.766,0,0,1,92,94.458c-.243.145-.5.271-.786.429a7.73,7.73,0,0,0-1.33.743c-.162.741,2.435,1.66,3.739,2.179a8.7,8.7,0,0,0,1.071.074,11.217,11.217,0,0,0,6.43-2.012,2.319,2.319,0,0,0-.456-.306Z" transform="translate(-86.711 -80.223)" fill="#a4c2f7"/>
      <g id="Group_398" data-name="Group 398">
        <path id="Path_832" data-name="Path 832" d="M9,18.009a9,9,0,1,1,9-9A9,9,0,0,1,9,18.009ZM9,.655A8.35,8.35,0,1,0,17.355,9,8.35,8.35,0,0,0,9,.655Z" fill="#428dff"/>
        <path id="Path_833" data-name="Path 833" d="M93.751,89.863a9.013,9.013,0,0,1-5.8-2.118.328.328,0,0,1,0-.5,2.642,2.642,0,0,1,.474-.336L91.011,85.5a.73.73,0,0,0,.381-.641v-.947a6.146,6.146,0,0,1-1.013-2.092,1.192,1.192,0,0,1-.439-.924V79.734a1.192,1.192,0,0,1,.29-.776V77.431a2.641,2.641,0,0,1,.617-1.92,4.582,4.582,0,0,1,5.807,0,2.641,2.641,0,0,1,.617,1.92v1.528a1.193,1.193,0,0,1,.29.776V80.9a1.189,1.189,0,0,1-.683,1.077,6.679,6.679,0,0,1-.857,1.677c-.07.1-.138.188-.2.268v.968a.726.726,0,0,0,.4.653L99,86.925a2.631,2.631,0,0,1,.521.349.327.327,0,0,1,0,.5A9.013,9.013,0,0,1,93.751,89.863ZM88.7,87.506a8.345,8.345,0,0,0,10.057.033L98.7,87.51,95.93,86.124a1.377,1.377,0,0,1-.766-1.238V83.8a.327.327,0,0,1,.081-.216,3.927,3.927,0,0,0,.241-.311,6.051,6.051,0,0,0,.817-1.648.328.328,0,0,1,.215-.212.547.547,0,0,0,.387-.516V79.735a.535.535,0,0,0-.182-.4.327.327,0,0,1-.108-.243V77.413a.318.318,0,0,1,0-.043,2,2,0,0,0-.463-1.434,3.982,3.982,0,0,0-4.816.007,1.973,1.973,0,0,0-.457,1.428.315.315,0,0,1,0,.043v1.678a.327.327,0,0,1-.108.243.535.535,0,0,0-.182.4V80.9a.542.542,0,0,0,.252.456.328.328,0,0,1,.141.2,5.469,5.469,0,0,0,.983,2.035.33.33,0,0,1,.076.21v1.061a1.385,1.385,0,0,1-.722,1.216h0l-2.589,1.412Z" transform="translate(-84.746 -71.853)" fill="#428dff"/>
      </g>
    </g>
  </g>
</svg>
