<svg xmlns="http://www.w3.org/2000/svg" width="72" height="72" viewBox="0 0 72 72">
  <g id="sell" transform="translate(-140 -715)">
    <circle id="Ellipse_287" data-name="Ellipse 287" cx="36" cy="36" r="36" transform="translate(140 715)" fill="#f3f3f3"/>
    <g id="sell-2" data-name="sell">
      <circle id="Ellipse_288" data-name="Ellipse 288" cx="33.5" cy="33.5" r="33.5" transform="translate(143 718)" fill="#104ce5"/>
      <text id="Sell-3" data-name="Sell" transform="translate(164 769.805)" fill="#f5f6fa" font-size="12" font-family="Montserrat-Regular, Montserrat" letter-spacing="0.001em"><tspan x="0" y="0">Sell</tspan></text>
      <g id="Group_397" data-name="Group 397" transform="translate(161 729.337)">
        <path id="Path_815" data-name="Path 815" d="M368,112h4v2h-4Z" transform="translate(-346.517 -108.352)" fill="#e4e4e2"/>
        <path id="Path_816" data-name="Path 816" d="M34.492,162.991v-4a5,5,0,0,0-3.849-4.862L31.494,152h-4l.853,2.132a5,5,0,0,0-3.85,4.862v4l-.5,1,.5,1h9.992l.5-1Z" transform="translate(-24 -145.854)" fill="#f5f6fa"/>
        <path id="Path_817" data-name="Path 817" d="M143.855,56.42l-2.214-2.842-.408,1.226a11.74,11.74,0,0,0-10.57,2.665l.666.745a10.742,10.742,0,0,1,9.588-2.457l-.379,1.141Z" transform="translate(-124.002 -53.578)" fill="#f5f6fa"/>
        <path id="Path_818" data-name="Path 818" d="M151.749,379.022l-.7-.71a10.758,10.758,0,0,1-12.383,1.96l.654-.944L136,378.852l1.325,3.35.763-1.1A11.758,11.758,0,0,0,151.749,379.022Z" transform="translate(-129.005 -358.031)" fill="#f5f6fa"/>
        <path id="Path_819" data-name="Path 819" d="M83,213.6a.435.435,0,0,1-.219.377l-.06.034a1.459,1.459,0,0,1-1.442,0l-.06-.034A.435.435,0,0,1,81,213.6v-.1a.433.433,0,0,1,.193-.361l2.166-1.444a1.433,1.433,0,0,0,0-2.385,2.455,2.455,0,0,0-.861-.361V208h-1v.945a2.456,2.456,0,0,0-.861.361A1.43,1.43,0,0,0,80,210.5v.5h1v-.5a.433.433,0,0,1,.193-.361,1.449,1.449,0,0,1,1.612,0,.434.434,0,0,1,0,.722L80.638,212.3A1.43,1.43,0,0,0,80,213.5v.1a1.436,1.436,0,0,0,.722,1.244l.06.034a2.439,2.439,0,0,0,.717.27v.849h1v-.849a2.439,2.439,0,0,0,.717-.27l.06-.034A1.436,1.436,0,0,0,84,213.6V213H83Z" transform="translate(-76.503 -198.357)" fill="#104ce5"/>
        <g id="goods" transform="translate(16.305 7.712)">
          <path id="Path_120" data-name="Path 120" d="M258.82,20.119v3.1a.119.119,0,0,1-.119.119h-3.581a.119.119,0,0,1-.119-.119v-3.1a.119.119,0,0,1,.119-.119H258.7A.119.119,0,0,1,258.82,20.119Z" transform="translate(-249.33 -20)" fill="#d29650"/>
          <path id="Path_121" data-name="Path 121" d="M200.969,152.686l-5.969.9V150h5.969Z" transform="translate(-190.762 -146.896)" fill="#aa6432"/>
          <path id="Path_122" data-name="Path 122" d="M256.074,40.477H255V40h1.074a.119.119,0,0,1,.119.119v.239A.119.119,0,0,1,256.074,40.477Z" transform="translate(-249.33 -39.523)" fill="#f7d139"/>
          <path id="Path_124" data-name="Path 124" d="M197.268,181.432H195V180h2.268a.119.119,0,0,1,.119.119v1.194A.119.119,0,0,1,197.268,181.432Z" transform="translate(-190.762 -176.18)" fill="#f63"/>
          <path id="Path_125" data-name="Path 125" d="M36.03,38.455H27.574l-.194-.774a.239.239,0,0,0-.252-.18H25.234a.239.239,0,0,0,0,.477h1.728l.192.767.939,4.955-.455,1.365a.239.239,0,1,0,.453.151l.422-1.265,7.547-.961a.239.239,0,0,0,.209-.237v-1.43h0V38.694A.239.239,0,0,0,36.03,38.455Zm-8.354.477H29.56l.12,1.14-1.778.052Zm.316,1.668,1.738-.051.115,1.09-1.628.147Zm.543,2.866-.229-1.208,1.589-.144.12,1.141c0,.008,0,.015,0,.022Zm1.5-4.534h1.884s0,.009,0,.014L31.986,40l-1.828.054Zm.169,1.6,1.806-.053.056.956-1.75.158Zm.282,2.682s0-.008,0-.012l-.119-1.134,1.728-.156L32.163,43ZM32.4,38.932h1.671v1.011l-1.609.047Zm.09,1.535,1.581-.046v.836l-1.526.138Zm.146,2.476-.063-1.072,1.5-.135v1.016s0,.006,0,.009Zm3.154-.4L34.55,42.7V41.693l1.242-.112Zm0-1.44-1.242.112v-.807l1.242-.037Zm0-1.209-1.242.037v-1h1.242Z" transform="translate(-24.821 -37.082)" fill="#f5f6fa"/>
          <path id="Path_126" data-name="Path 126" d="M27.707,37.521V38a.119.119,0,0,1-.119.119H20.425A.119.119,0,0,1,20.305,38v-.477a.119.119,0,0,1,.119-.119h7.162A.119.119,0,0,1,27.707,37.521ZM18.962,30H17.948a.448.448,0,0,0-.448.448h0a.448.448,0,0,0,.448.448h1.015a.448.448,0,0,0,.448-.448h0A.448.448,0,0,0,18.962,30Z" transform="translate(-17.5 -29.761)" fill="#f5f6fa"/>
          <path id="Path_127" data-name="Path 127" d="M190.253,337.619v1.671a.119.119,0,0,1-.119.119h-.477a.119.119,0,0,1-.119-.119v-1.671a.119.119,0,0,1,.119-.119h.477A.119.119,0,0,1,190.253,337.619ZM185.6,337.5h-.478a.119.119,0,0,0-.119.119v1.671a.119.119,0,0,0,.119.119h.478a.119.119,0,0,0,.119-.119v-1.671A.119.119,0,0,0,185.6,337.5Z" transform="translate(-181.001 -329.92)" fill="#f5f6fa"/>
          <path id="Path_128" data-name="Path 128" d="M171.207,388.336a.836.836,0,1,1-.836-.836A.836.836,0,0,1,171.207,388.336Zm-5.372-.836a.836.836,0,1,0,.836.836A.836.836,0,0,0,165.836,387.5Z" transform="translate(-161.478 -378.726)" fill="#2e344c"/>
          <path id="Path_129" data-name="Path 129" d="M185.491,402.978a.477.477,0,1,1-.477-.477A.477.477,0,0,1,185.491,402.978Zm-5.014-.477a.477.477,0,1,0,.477.477A.477.477,0,0,0,180.477,402.5Z" transform="translate(-176.12 -393.368)" fill="#656d88"/>
        </g>
      </g>
    </g>
  </g>
</svg>
