<svg xmlns="http://www.w3.org/2000/svg" width="46" height="42.348" viewBox="0 0 46 42.348">
  <g id="settings" transform="translate(-213.397 -734)">
    <text id="Settings-2" data-name="Settings" transform="translate(213.397 773.349)" fill="#375db9" font-size="11" font-family="Montserrat-Regular, Montserrat" letter-spacing="0.001em"><tspan x="0" y="0">Settings</tspan></text>
    <g id="settings-3" data-name="settings" transform="translate(229.481 734.001) rotate(30)">
      <path id="Path_827" data-name="Path 827" d="M17.828,7.394h-.417A7.929,7.929,0,0,0,16.9,6.163l.3-.3a1.808,1.808,0,0,0,0-2.557l-.871-.871a1.808,1.808,0,0,0-2.557,0l-.3.3a7.934,7.934,0,0,0-1.231-.511V1.808A1.81,1.81,0,0,0,10.434,0H9.2A1.81,1.81,0,0,0,7.394,1.808v.417a7.927,7.927,0,0,0-1.231.511l-.3-.3a1.807,1.807,0,0,0-2.557,0l-.871.871a1.808,1.808,0,0,0,0,2.557l.3.3a7.928,7.928,0,0,0-.511,1.231H1.808A1.81,1.81,0,0,0,0,9.2v1.232a1.81,1.81,0,0,0,1.808,1.808h.417a7.929,7.929,0,0,0,.511,1.231l-.3.3a1.808,1.808,0,0,0,0,2.557l.871.871a1.808,1.808,0,0,0,2.557,0l.3-.3a7.934,7.934,0,0,0,1.231.511v.417A1.81,1.81,0,0,0,9.2,19.635h1.232a1.81,1.81,0,0,0,1.808-1.808v-.417a7.927,7.927,0,0,0,1.231-.511l.3.3a1.807,1.807,0,0,0,2.557,0l.871-.871a1.808,1.808,0,0,0,0-2.557l-.3-.3a7.927,7.927,0,0,0,.511-1.231h.417a1.81,1.81,0,0,0,1.808-1.808V9.2a1.81,1.81,0,0,0-1.808-1.807Zm-8.01,6.7A4.272,4.272,0,1,1,14.09,9.817,4.277,4.277,0,0,1,9.818,14.09Z" transform="translate(0 0)" fill="#af00be"/>
      <path id="Path_828" data-name="Path 828" d="M8.01,7.394H7.593a7.931,7.931,0,0,0-.511-1.231l.3-.3a1.808,1.808,0,0,0,0-2.557L6.507,2.44a1.808,1.808,0,0,0-2.557,0l-.3.3a7.936,7.936,0,0,0-1.231-.511V1.808A1.81,1.81,0,0,0,.616,0H0V5.545A4.277,4.277,0,0,1,4.272,9.817,4.277,4.277,0,0,1,0,14.09v5.545H.616a1.81,1.81,0,0,0,1.808-1.808v-.417A7.928,7.928,0,0,0,3.655,16.9l.3.3a1.807,1.807,0,0,0,2.557,0l.871-.871a1.808,1.808,0,0,0,0-2.557l-.3-.3a7.93,7.93,0,0,0,.511-1.231H8.01a1.81,1.81,0,0,0,1.808-1.808V9.2A1.81,1.81,0,0,0,8.01,7.394Z" transform="translate(9.818 0)" fill="#8c00d7"/>
    </g>
  </g>
</svg>
