<svg xmlns="http://www.w3.org/2000/svg" width="29" height="35.258" viewBox="0 0 29 35.258">
  <g id="sign-out" transform="translate(-322.713 -740.984)">
    <text id="sign_out" data-name="sign out" transform="translate(322.713 774.242)" fill="#444966" font-size="7" font-family="Montserrat-Regular, Montserrat" letter-spacing="0.001em" opacity="0.5"><tspan x="0" y="0">sign out</tspan></text>
    <path id="exit" d="M15.7,16.51V18.2a3.373,3.373,0,0,1-3.369,3.369H3.869A3.373,3.373,0,0,1,.5,18.2V3.369A3.373,3.373,0,0,1,3.869,0h8.466A3.373,3.373,0,0,1,15.7,3.369V5.054a.842.842,0,1,1-1.685,0V3.369a1.687,1.687,0,0,0-1.685-1.685H3.869A1.687,1.687,0,0,0,2.185,3.369V18.2A1.687,1.687,0,0,0,3.869,19.88h8.466A1.687,1.687,0,0,0,14.02,18.2V16.51a.842.842,0,1,1,1.685,0Zm5.743-7.175L19.561,7.449A.842.842,0,0,0,18.37,8.64l1.342,1.342H9.6a.842.842,0,1,0,0,1.685H19.712L18.37,13.009A.842.842,0,1,0,19.561,14.2l1.886-1.886a2.108,2.108,0,0,0,0-2.978Zm0,0" transform="translate(327.172 740.984)" fill="#444966" opacity="0.5"/>
  </g>
</svg>
